<?xml version="1.0" encoding="utf-8"?>
<!DOCTYPE svg PUBLIC "-//W3C//DTD SVG 1.1//EN" "http://www.w3.org/Graphics/SVG/1.1/DTD/svg11.dtd">
<svg version="1.1" id="Layer_1" xmlns="http://www.w3.org/2000/svg" xmlns:xlink="http://www.w3.org/1999/xlink" x="0px" y="0px" width="53.571px" height="45px" viewBox="0 0 41.463 34.829" xml:space="preserve">
<g>
	<path fill="#e5e5e5" d="M16.036,7.125c0.844,0,1.6,0.234,2.268,0.703c0.668,0.469,1.002,0.984,1.002,1.547c0,0.352-0.223,0.762-0.668,1.23
		c-1.524,1.524-2.584,2.795-3.182,3.814s-0.896,2.057-0.896,3.111c0,0.75,0.387,1.43,1.16,2.039
		c1.523,1.172,2.589,2.297,3.199,3.375c0.609,1.078,0.914,2.355,0.914,3.832c0,2.297-0.738,4.213-2.215,5.748
		c-1.477,1.535-3.328,2.303-5.555,2.303c-2.484,0-4.523-0.972-6.117-2.918c-1.406-1.734-2.109-3.785-2.109-6.152
		c0-5.648,2.73-11.18,8.191-16.594C13.364,7.829,14.7,7.149,16.036,7.125z M34.668,7.125c0.844,0,1.6,0.234,2.268,0.703
		c0.668,0.469,1.002,0.984,1.002,1.547c0,0.352-0.234,0.762-0.703,1.23c-1.5,1.524-2.549,2.795-3.146,3.814
		s-0.896,2.057-0.896,3.111c0,0.75,0.387,1.43,1.16,2.039c1.523,1.172,2.589,2.297,3.199,3.375c0.609,1.078,0.914,2.355,0.914,3.832
		c0,2.297-0.738,4.213-2.215,5.748c-1.477,1.535-3.328,2.303-5.555,2.303c-2.484,0-4.523-0.972-6.117-2.918
		c-1.406-1.734-2.109-3.785-2.109-6.152c0-5.648,2.73-11.18,8.191-16.594C31.997,7.829,33.333,7.149,34.668,7.125z"/>
</g>
</svg>
