<?xml version="1.0" encoding="utf-8"?>
<!-- Generator: Adobe Illustrator 16.0.0, SVG Export Plug-In . SVG Version: 6.00 Build 0)  -->
<!DOCTYPE svg PUBLIC "-//W3C//DTD SVG 1.1//EN" "http://www.w3.org/Graphics/SVG/1.1/DTD/svg11.dtd">
<svg version="1.1" id="Layer_1" xmlns="http://www.w3.org/2000/svg" xmlns:xlink="http://www.w3.org/1999/xlink" x="0px" y="0px"
	 width="106.73px" height="106.73px" viewBox="0 0 106.73 106.73" enable-background="new 0 0 106.73 106.73" xml:space="preserve">
<path fill="none" stroke="#000000" stroke-width="0.296" d="M50.045,29.845v46.897 M56.335,29.845v46.897 M29.723,29.817h46.933
	V76.75H29.723V29.817z M29.723,29.817L76.657,76.75 M76.657,29.817L29.723,76.75 M53.19,100.33l46.99-46.99 M6.2,53.34L53.19,6.35
	 M6.2,53.34l46.99,46.99 M53.19,6.35l46.99,46.99 M100.18,106.62V6.35 M6.2,100.33V0.06 M-0.09,100.33h100.27 M6.2,6.35h100.271"/>
<rect x="49.383" y="50.22" fill="#FFFFFF" width="7.762" height="6.31"/>
<path fill="none" stroke="#000000" stroke-width="0.296" d="M95.74,100.33L78.951,83.541 M100.18,95.89L83.391,79.101
	 M27.429,83.541L10.64,100.33 M22.989,79.101L6.2,95.89 M100.18,10.79L83.391,27.579 M95.74,6.35L78.951,23.139 M22.989,27.579
	L6.2,10.79 M27.429,23.139L10.64,6.35 M62.07,100.33l38.109-38.11 M44.31,100.33L6.2,62.22 M44.31,6.35L6.2,44.46 M62.07,6.35
	l38.109,38.11 M70.58,23.74H35.8 M70.58,82.94H35.8 M23.59,35.95v34.78 M82.79,35.95v34.78 M76.592,56.485H29.787 M76.592,50.195
	H29.787"/>
<rect x="0.25" y="0.25" fill-rule="evenodd" clip-rule="evenodd" fill="none" width="106.23" height="106.23"/>
<rect x="0.25" y="0.25" fill="none" stroke="#010101" stroke-width="0.5" stroke-miterlimit="10" width="106.23" height="106.23"/>
</svg>
