<?xml version="1.0" encoding="utf-8"?>
<!-- Generator: Adobe Illustrator 16.0.0, SVG Export Plug-In . SVG Version: 6.00 Build 0)  -->
<!DOCTYPE svg PUBLIC "-//W3C//DTD SVG 1.1//EN" "http://www.w3.org/Graphics/SVG/1.1/DTD/svg11.dtd">
<svg version="1.1" id="Layer_1" xmlns="http://www.w3.org/2000/svg" xmlns:xlink="http://www.w3.org/1999/xlink" x="0px" y="0px"
	 width="106.73px" height="106.73px" viewBox="0 0 106.73 106.73" enable-background="new 0 0 106.73 106.73" xml:space="preserve">
<polyline fill="none" stroke="#000000" stroke-width="0.304" points="57.764,-14.122 50.176,-6.461 83.137,26.185 90.725,18.525 
	57.764,-14.122 "/>
<polyline fill="none" stroke="#000000" stroke-width="0.304" points="115.477,-6.979 83.191,26.333 90.934,33.837 123.219,0.525 "/>
<rect x="65.279" y="-1.672" transform="matrix(-0.7037 0.7104 -0.7104 -0.7037 135.6947 -13.5378)" fill="none" stroke="#000000" stroke-width="0.304" width="10.782" height="46.39"/>
<polyline fill="none" stroke="#000000" stroke-width="0.304" points="26.224,126.55 58.509,93.238 50.768,85.734 18.481,119.046 "/>
<polyline fill="none" stroke="#000000" stroke-width="0.304" points="11.019,111.559 -21.94,78.913 -29.528,86.573 3.431,119.219 
	"/>
<polyline fill="none" stroke="#000000" stroke-width="0.304" points="26.115,111.207 -6.844,78.56 -14.432,86.221 18.527,118.867 
	"/>
<polyline fill="none" stroke="#000000" stroke-width="0.304" points="26.201,111.221 58.486,77.909 50.744,70.405 18.458,103.717 
	26.201,111.221 "/>
<rect x="0.411" y="60.284" transform="matrix(-0.7037 0.7105 -0.7105 -0.7037 69.195 138.102)" fill="none" stroke="#000000" stroke-width="0.304" width="10.783" height="46.39"/>
<rect x="32.933" y="52.364" transform="matrix(0.7181 0.696 -0.696 0.7181 63.3915 -5.37)" fill="none" stroke="#000000" stroke-width="0.304" width="10.782" height="46.39"/>
<rect x="0.333" y="44.994" transform="matrix(-0.7037 0.7105 -0.7105 -0.7037 58.2006 112.1056)" fill="none" stroke="#000000" stroke-width="0.304" width="10.783" height="46.39"/>
<rect x="32.941" y="36.945" transform="matrix(0.7182 0.6958 -0.6958 0.7182 52.6492 -9.7261)" fill="none" stroke="#000000" stroke-width="0.304" width="10.783" height="46.39"/>
<rect x="0.28" y="29.563" transform="matrix(-0.7037 0.7105 -0.7105 -0.7037 47.146 85.8553)" fill="none" stroke="#000000" stroke-width="0.304" width="10.781" height="46.39"/>
<rect x="32.739" y="21.537" transform="matrix(0.7181 0.696 -0.696 0.7181 41.8822 -13.9264)" fill="none" stroke="#000000" stroke-width="0.304" width="10.782" height="46.39"/>
<rect x="0.023" y="14.194" transform="matrix(-0.7037 0.7105 -0.7105 -0.7037 35.7888 59.8533)" fill="none" stroke="#000000" stroke-width="0.304" width="10.781" height="46.39"/>
<rect x="32.661" y="6.247" transform="matrix(0.7181 0.696 -0.696 0.7181 31.2187 -18.1827)" fill="none" stroke="#000000" stroke-width="0.304" width="10.782" height="46.39"/>
<rect x="-0.025" y="-0.995" transform="matrix(-0.7038 0.7104 -0.7104 -0.7038 24.9148 34.0116)" fill="none" stroke="#000000" stroke-width="0.304" width="10.782" height="46.391"/>
<rect x="32.575" y="-8.997" transform="matrix(0.7181 0.696 -0.696 0.7181 20.585 -22.4207)" fill="none" stroke="#000000" stroke-width="0.304" width="10.782" height="46.39"/>
<polyline fill="none" stroke="#000000" stroke-width="0.304" points="-15.047,-20.966 17.913,11.68 25.501,4.02 -7.459,-28.627 "/>
<rect x="-0.048" y="-16.324" transform="matrix(-0.7037 0.7105 -0.7105 -0.7037 13.9859 7.9109)" fill="none" stroke="#000000" stroke-width="0.304" width="10.783" height="46.391"/>
<polyline fill="none" stroke="#000000" stroke-width="0.304" points="50.215,-21.539 17.929,11.774 25.672,19.277 57.958,-14.035 
	"/>
<polyline fill="none" stroke="#000000" stroke-width="0.304" points="50.266,-36.919 17.979,-3.607 25.722,3.897 58.008,-29.415 "/>
<polyline fill="none" stroke="#000000" stroke-width="0.304" points="-15,-20.958 17.96,11.688 25.547,4.028 -7.412,-28.619 "/>
<polyline fill="none" stroke="#000000" stroke-width="0.304" points="26.332,141.942 58.618,108.63 50.876,101.126 18.59,134.438 
	"/>
<line fill="none" stroke="#000000" stroke-width="0.304" x1="116.129" y1="100.552" x2="83.843" y2="133.864"/>
<polyline fill="none" stroke="#000000" stroke-width="0.304" points="91.384,126.009 58.424,93.362 50.837,101.023 83.796,133.669 
	"/>
<line fill="none" stroke="#000000" stroke-width="0.304" x1="91.484" y1="125.93" x2="123.771" y2="92.618"/>
<line fill="none" stroke="#000000" stroke-width="0.304" x1="116.027" y1="85.114" x2="83.743" y2="118.426"/>
<polyline fill="none" stroke="#000000" stroke-width="0.304" points="91.314,110.672 58.354,78.025 50.768,85.686 83.727,118.332 
	"/>
<line fill="none" stroke="#000000" stroke-width="0.304" x1="91.407" y1="110.64" x2="123.693" y2="77.328"/>
<polyline fill="none" stroke="#000000" stroke-width="0.304" points="115.95,69.824 83.665,103.136 91.407,110.64 "/>
<rect x="65.712" y="59.717" transform="matrix(-0.7037 0.7105 -0.7105 -0.7037 180.0474 90.74)" fill="none" stroke="#000000" stroke-width="0.304" width="10.781" height="46.391"/>
<polyline fill="none" stroke="#000000" stroke-width="0.304" points="115.936,54.448 83.65,87.76 91.393,95.264 123.678,61.952 "/>
<rect x="65.603" y="44.326" transform="matrix(-0.7037 0.7104 -0.7104 -0.7037 168.9264 64.601)" fill="none" stroke="#000000" stroke-width="0.304" width="10.782" height="46.39"/>
<polyline fill="none" stroke="#000000" stroke-width="0.304" points="115.982,38.987 83.698,72.299 91.439,79.803 123.727,46.491 
	"/>
<rect x="65.465" y="28.832" transform="matrix(-0.7037 0.7105 -0.7105 -0.7037 157.6818 38.3025)" fill="none" stroke="#000000" stroke-width="0.304" width="10.781" height="46.391"/>
<polyline fill="none" stroke="#000000" stroke-width="0.304" points="115.82,23.634 83.534,56.946 91.277,64.45 123.563,31.138 "/>
<rect x="65.433" y="13.55" transform="matrix(-0.7037 0.7104 -0.7104 -0.7037 146.7725 12.2882)" fill="none" stroke="#000000" stroke-width="0.304" width="10.782" height="46.391"/>
<polyline fill="none" stroke="#000000" stroke-width="0.304" points="115.671,8.476 83.385,41.788 91.128,49.292 123.413,15.98 "/>
<polyline fill="none" stroke="#000000" stroke-width="0.304" points="49.982,-21.916 82.941,10.73 90.529,3.07 57.57,-29.576 "/>
<polyline fill="none" stroke="#000000" stroke-width="0.304" points="115.252,-22.535 82.966,10.777 90.709,18.281 122.994,-15.031 
	"/>
<rect x="0.25" y="0.25" fill-rule="evenodd" clip-rule="evenodd" fill="none" width="106.23" height="106.23"/>
<rect x="0.25" y="0.25" fill="none" stroke="#010101" stroke-width="0.5" stroke-miterlimit="10" width="106.23" height="106.23"/>
</svg>
