<?xml version="1.0" encoding="utf-8"?>
<!-- Generator: Adobe Illustrator 16.0.0, SVG Export Plug-In . SVG Version: 6.00 Build 0)  -->
<!DOCTYPE svg PUBLIC "-//W3C//DTD SVG 1.1//EN" "http://www.w3.org/Graphics/SVG/1.1/DTD/svg11.dtd">
<svg version="1.1" id="Layer_1" xmlns="http://www.w3.org/2000/svg" xmlns:xlink="http://www.w3.org/1999/xlink" x="0px" y="0px"
	 width="106.73px" height="106.73px" viewBox="0 0 106.73 106.73" enable-background="new 0 0 106.73 106.73" xml:space="preserve">
<line fill="none" stroke="#000000" stroke-width="0.296" x1="64.552" y1="92.804" x2="68.5" y2="96.766"/>
<line fill="none" stroke="#000000" stroke-width="0.296" x1="64.552" y1="73.076" x2="64.552" y2="92.804"/>
<line fill="none" stroke="#000000" stroke-width="0.296" x1="72.462" y1="65.179" x2="64.552" y2="73.076"/>
<line fill="none" stroke="#000000" stroke-width="0.296" x1="72.462" y1="92.818" x2="68.5" y2="96.766"/>
<line fill="none" stroke="#000000" stroke-width="0.296" x1="72.462" y1="73.09" x2="72.462" y2="92.818"/>
<line fill="none" stroke="#000000" stroke-width="0.296" x1="36.975" y1="-9.771" x2="36.975" y2="9.956"/>
<line fill="none" stroke="#000000" stroke-width="0.296" x1="44.885" y1="9.97" x2="40.923" y2="13.918"/>
<line fill="none" stroke="#000000" stroke-width="0.296" x1="44.885" y1="-9.758" x2="44.885" y2="9.97"/>
<line fill="none" stroke="#000000" stroke-width="0.296" x1="17.28" y1="9.956" x2="17.28" y2="-9.771"/>
<line fill="none" stroke="#000000" stroke-width="0.296" x1="9.37" y1="9.943" x2="9.37" y2="-9.786"/>
<line fill="none" stroke="#000000" stroke-width="0.296" x1="9.384" y1="9.97" x2="-10.345" y2="9.97"/>
<line fill="none" stroke="#000000" stroke-width="0.296" x1="9.37" y1="17.88" x2="-10.358" y2="17.88"/>
<line fill="none" stroke="#000000" stroke-width="0.296" x1="17.294" y1="17.88" x2="9.384" y2="9.97"/>
<line fill="none" stroke="#000000" stroke-width="0.296" x1="17.267" y1="17.867" x2="36.995" y2="17.867"/>
<line fill="none" stroke="#000000" stroke-width="0.296" x1="37.009" y1="9.956" x2="40.957" y2="13.918"/>
<line fill="none" stroke="#000000" stroke-width="0.296" x1="17.281" y1="9.956" x2="37.009" y2="9.956"/>
<line fill="none" stroke="#000000" stroke-width="0.296" x1="9.384" y1="37.595" x2="13.332" y2="41.557"/>
<line fill="none" stroke="#000000" stroke-width="0.296" x1="9.384" y1="17.867" x2="9.384" y2="37.595"/>
<line fill="none" stroke="#000000" stroke-width="0.296" x1="17.294" y1="9.97" x2="9.384" y2="17.867"/>
<line fill="none" stroke="#000000" stroke-width="0.296" x1="17.294" y1="17.88" x2="17.294" y2="37.609"/>
<line fill="none" stroke="#000000" stroke-width="0.296" x1="72.447" y1="9.874" x2="72.449" y2="-9.854"/>
<line fill="none" stroke="#000000" stroke-width="0.296" x1="64.538" y1="9.86" x2="64.538" y2="-9.868"/>
<line fill="none" stroke="#000000" stroke-width="0.296" x1="64.552" y1="9.887" x2="44.823" y2="9.888"/>
<line fill="none" stroke="#000000" stroke-width="0.296" x1="64.538" y1="17.798" x2="44.81" y2="17.798"/>
<line fill="none" stroke="#000000" stroke-width="0.296" x1="72.462" y1="17.798" x2="64.552" y2="9.888"/>
<line fill="none" stroke="#000000" stroke-width="0.296" x1="72.436" y1="17.785" x2="92.163" y2="17.785"/>
<line fill="none" stroke="#000000" stroke-width="0.296" x1="92.177" y1="9.874" x2="96.125" y2="13.836"/>
<line fill="none" stroke="#000000" stroke-width="0.296" x1="72.449" y1="9.874" x2="92.177" y2="9.874"/>
<line fill="none" stroke="#000000" stroke-width="0.296" x1="64.552" y1="17.785" x2="64.552" y2="37.513"/>
<line fill="none" stroke="#000000" stroke-width="0.296" x1="72.462" y1="9.888" x2="64.552" y2="17.785"/>
<line fill="none" stroke="#000000" stroke-width="0.296" x1="72.462" y1="17.798" x2="72.462" y2="37.527"/>
<line fill="none" stroke="#000000" stroke-width="0.296" x1="100.177" y1="17.874" x2="96.229" y2="13.912"/>
<line fill="none" stroke="#000000" stroke-width="0.296" x1="100.176" y1="37.602" x2="100.177" y2="17.874"/>
<line fill="none" stroke="#000000" stroke-width="0.296" x1="92.266" y1="17.86" x2="96.229" y2="13.912"/>
<line fill="none" stroke="#000000" stroke-width="0.296" x1="92.266" y1="37.588" x2="92.266" y2="17.86"/>
<line fill="none" stroke="#000000" stroke-width="0.296" x1="72.551" y1="37.616" x2="68.589" y2="41.564"/>
<line fill="none" stroke="#000000" stroke-width="0.296" x1="92.279" y1="37.615" x2="72.551" y2="37.616"/>
<line fill="none" stroke="#000000" stroke-width="0.296" x1="72.538" y1="45.526" x2="68.589" y2="41.564"/>
<line fill="none" stroke="#000000" stroke-width="0.296" x1="92.266" y1="45.526" x2="72.538" y2="45.526"/>
<line fill="none" stroke="#000000" stroke-width="0.296" x1="100.189" y1="45.526" x2="92.279" y2="37.616"/>
<line fill="none" stroke="#000000" stroke-width="0.296" x1="100.163" y1="45.513" x2="119.891" y2="45.513"/>
<line fill="none" stroke="#000000" stroke-width="0.296" x1="100.177" y1="37.602" x2="119.905" y2="37.602"/>
<line fill="none" stroke="#000000" stroke-width="0.296" x1="92.279" y1="65.241" x2="96.229" y2="69.203"/>
<line fill="none" stroke="#000000" stroke-width="0.296" x1="92.279" y1="45.513" x2="92.279" y2="65.241"/>
<line fill="none" stroke="#000000" stroke-width="0.296" x1="100.189" y1="37.616" x2="92.279" y2="45.513"/>
<line fill="none" stroke="#000000" stroke-width="0.296" x1="100.189" y1="65.255" x2="96.229" y2="69.203"/>
<line fill="none" stroke="#000000" stroke-width="0.296" x1="100.189" y1="45.526" x2="100.189" y2="65.255"/>
<line fill="none" stroke="#000000" stroke-width="0.296" x1="44.912" y1="17.874" x2="40.964" y2="13.912"/>
<line fill="none" stroke="#000000" stroke-width="0.296" x1="44.912" y1="37.602" x2="44.912" y2="17.874"/>
<line fill="none" stroke="#000000" stroke-width="0.296" x1="37.002" y1="17.86" x2="40.964" y2="13.912"/>
<line fill="none" stroke="#000000" stroke-width="0.296" x1="37.002" y1="37.588" x2="37.002" y2="17.86"/>
<line fill="none" stroke="#000000" stroke-width="0.296" x1="17.287" y1="37.616" x2="13.325" y2="41.564"/>
<line fill="none" stroke="#000000" stroke-width="0.296" x1="37.016" y1="37.615" x2="17.287" y2="37.616"/>
<line fill="none" stroke="#000000" stroke-width="0.296" x1="17.274" y1="45.526" x2="13.325" y2="41.564"/>
<line fill="none" stroke="#000000" stroke-width="0.296" x1="37.002" y1="45.526" x2="17.274" y2="45.526"/>
<line fill="none" stroke="#000000" stroke-width="0.296" x1="44.926" y1="45.526" x2="37.016" y2="37.616"/>
<line fill="none" stroke="#000000" stroke-width="0.296" x1="64.627" y1="45.513" x2="68.589" y2="41.564"/>
<line fill="none" stroke="#000000" stroke-width="0.296" x1="44.899" y1="45.513" x2="64.627" y2="45.513"/>
<line fill="none" stroke="#000000" stroke-width="0.296" x1="64.641" y1="37.602" x2="68.589" y2="41.564"/>
<line fill="none" stroke="#000000" stroke-width="0.296" x1="44.913" y1="37.602" x2="64.641" y2="37.602"/>
<line fill="none" stroke="#000000" stroke-width="0.296" x1="37.016" y1="65.241" x2="40.964" y2="69.203"/>
<line fill="none" stroke="#000000" stroke-width="0.296" x1="37.016" y1="45.513" x2="37.016" y2="65.241"/>
<line fill="none" stroke="#000000" stroke-width="0.296" x1="44.926" y1="37.616" x2="37.016" y2="45.513"/>
<line fill="none" stroke="#000000" stroke-width="0.296" x1="44.926" y1="45.526" x2="44.926" y2="65.255"/>
<line fill="none" stroke="#000000" stroke-width="0.296" x1="119.919" y1="65.179" x2="100.189" y2="65.179"/>
<line fill="none" stroke="#000000" stroke-width="0.296" x1="119.905" y1="73.089" x2="100.177" y2="73.09"/>
<line fill="none" stroke="#000000" stroke-width="0.296" x1="119.919" y1="9.887" x2="100.189" y2="9.888"/>
<line fill="none" stroke="#000000" stroke-width="0.296" x1="119.905" y1="17.798" x2="100.177" y2="17.798"/>
<line fill="none" stroke="#000000" stroke-width="0.296" x1="17.246" y1="120.553" x2="17.246" y2="100.825"/>
<line fill="none" stroke="#000000" stroke-width="0.296" x1="9.336" y1="120.539" x2="9.336" y2="100.811"/>
<line fill="none" stroke="#000000" stroke-width="0.296" x1="72.523" y1="120.471" x2="72.523" y2="100.742"/>
<line fill="none" stroke="#000000" stroke-width="0.296" x1="64.613" y1="120.457" x2="64.613" y2="100.729"/>
<line fill="none" stroke="#000000" stroke-width="0.296" x1="9.336" y1="100.811" x2="13.298" y2="96.862"/>
<line fill="none" stroke="#000000" stroke-width="0.296" x1="-10.393" y1="100.811" x2="9.336" y2="100.811"/>
<line fill="none" stroke="#000000" stroke-width="0.296" x1="-10.379" y1="92.9" x2="9.35" y2="92.9"/>
<line fill="none" stroke="#000000" stroke-width="0.296" x1="-10.358" y1="45.506" x2="9.37" y2="45.506"/>
<line fill="none" stroke="#000000" stroke-width="0.296" x1="-10.345" y1="37.595" x2="9.384" y2="37.595"/>
<line fill="none" stroke="#000000" stroke-width="0.296" x1="92.279" y1="-9.854" x2="92.279" y2="9.874"/>
<line fill="none" stroke="#000000" stroke-width="0.296" x1="100.189" y1="9.888" x2="96.229" y2="13.836"/>
<line fill="none" stroke="#000000" stroke-width="0.296" x1="100.189" y1="-9.841" x2="100.189" y2="9.888"/>
<line fill="none" stroke="#000000" stroke-width="0.296" x1="100.177" y1="73.09" x2="96.229" y2="69.128"/>
<line fill="none" stroke="#000000" stroke-width="0.296" x1="100.176" y1="92.818" x2="100.177" y2="73.09"/>
<line fill="none" stroke="#000000" stroke-width="0.296" x1="92.266" y1="92.804" x2="92.266" y2="73.076"/>
<line fill="none" stroke="#000000" stroke-width="0.296" x1="92.279" y1="92.831" x2="72.551" y2="92.832"/>
<line fill="none" stroke="#000000" stroke-width="0.296" x1="72.538" y1="100.742" x2="68.589" y2="96.78"/>
<line fill="none" stroke="#000000" stroke-width="0.296" x1="92.266" y1="100.742" x2="72.538" y2="100.742"/>
<line fill="none" stroke="#000000" stroke-width="0.296" x1="100.189" y1="100.742" x2="92.279" y2="92.832"/>
<line fill="none" stroke="#000000" stroke-width="0.296" x1="100.163" y1="100.729" x2="119.891" y2="100.729"/>
<line fill="none" stroke="#000000" stroke-width="0.296" x1="100.177" y1="92.818" x2="119.905" y2="92.818"/>
<line fill="none" stroke="#000000" stroke-width="0.296" x1="92.279" y1="100.729" x2="92.279" y2="120.457"/>
<line fill="none" stroke="#000000" stroke-width="0.296" x1="100.189" y1="92.832" x2="92.279" y2="100.729"/>
<line fill="none" stroke="#000000" stroke-width="0.296" x1="100.189" y1="100.742" x2="100.189" y2="120.471"/>
<line fill="none" stroke="#000000" stroke-width="0.296" x1="44.885" y1="92.9" x2="44.885" y2="73.172"/>
<line fill="none" stroke="#000000" stroke-width="0.296" x1="36.974" y1="92.887" x2="36.975" y2="73.158"/>
<line fill="none" stroke="#000000" stroke-width="0.296" x1="36.988" y1="92.914" x2="17.26" y2="92.914"/>
<line fill="none" stroke="#000000" stroke-width="0.296" x1="17.246" y1="100.825" x2="13.298" y2="96.862"/>
<line fill="none" stroke="#000000" stroke-width="0.296" x1="36.975" y1="100.824" x2="17.246" y2="100.825"/>
<line fill="none" stroke="#000000" stroke-width="0.296" x1="44.899" y1="100.825" x2="36.988" y2="92.914"/>
<line fill="none" stroke="#000000" stroke-width="0.296" x1="64.6" y1="100.811" x2="68.563" y2="96.862"/>
<line fill="none" stroke="#000000" stroke-width="0.296" x1="44.872" y1="100.811" x2="64.6" y2="100.811"/>
<line fill="none" stroke="#000000" stroke-width="0.296" x1="44.885" y1="92.9" x2="64.613" y2="92.9"/>
<line fill="none" stroke="#000000" stroke-width="0.296" x1="36.988" y1="100.811" x2="36.988" y2="120.539"/>
<line fill="none" stroke="#000000" stroke-width="0.296" x1="44.899" y1="92.914" x2="36.988" y2="100.811"/>
<line fill="none" stroke="#000000" stroke-width="0.296" x1="44.899" y1="100.825" x2="44.899" y2="120.553"/>
<line fill="none" stroke="#000000" stroke-width="0.296" x1="17.28" y1="65.248" x2="17.28" y2="45.519"/>
<line fill="none" stroke="#000000" stroke-width="0.296" x1="9.37" y1="45.506" x2="13.332" y2="41.557"/>
<line fill="none" stroke="#000000" stroke-width="0.296" x1="9.37" y1="65.234" x2="9.37" y2="45.506"/>
<line fill="none" stroke="#000000" stroke-width="0.296" x1="9.384" y1="65.261" x2="-10.345" y2="65.261"/>
<line fill="none" stroke="#000000" stroke-width="0.296" x1="9.37" y1="73.172" x2="-10.358" y2="73.172"/>
<line fill="none" stroke="#000000" stroke-width="0.296" x1="17.294" y1="73.172" x2="9.384" y2="65.261"/>
<line fill="none" stroke="#000000" stroke-width="0.296" x1="36.995" y1="73.158" x2="40.957" y2="69.21"/>
<line fill="none" stroke="#000000" stroke-width="0.296" x1="17.267" y1="73.158" x2="36.995" y2="73.158"/>
<line fill="none" stroke="#000000" stroke-width="0.296" x1="17.281" y1="65.248" x2="37.009" y2="65.248"/>
<line fill="none" stroke="#000000" stroke-width="0.296" x1="9.384" y1="92.887" x2="13.332" y2="96.849"/>
<line fill="none" stroke="#000000" stroke-width="0.296" x1="9.384" y1="73.158" x2="9.384" y2="92.887"/>
<line fill="none" stroke="#000000" stroke-width="0.296" x1="17.294" y1="65.261" x2="9.384" y2="73.158"/>
<line fill="none" stroke="#000000" stroke-width="0.296" x1="17.294" y1="92.9" x2="13.332" y2="96.849"/>
<line fill="none" stroke="#000000" stroke-width="0.296" x1="17.294" y1="73.172" x2="17.294" y2="92.9"/>
<line fill="none" stroke="#000000" stroke-width="0.296" x1="72.448" y1="65.166" x2="72.449" y2="45.437"/>
<line fill="none" stroke="#000000" stroke-width="0.296" x1="64.538" y1="65.152" x2="64.538" y2="45.423"/>
<line fill="none" stroke="#000000" stroke-width="0.296" x1="44.823" y1="65.179" x2="40.861" y2="69.128"/>
<line fill="none" stroke="#000000" stroke-width="0.296" x1="64.552" y1="65.179" x2="44.823" y2="65.179"/>
<line fill="none" stroke="#000000" stroke-width="0.296" x1="44.81" y1="73.09" x2="40.861" y2="69.128"/>
<line fill="none" stroke="#000000" stroke-width="0.296" x1="64.538" y1="73.089" x2="44.81" y2="73.09"/>
<line fill="none" stroke="#000000" stroke-width="0.296" x1="72.462" y1="73.09" x2="64.552" y2="65.179"/>
<line fill="none" stroke="#000000" stroke-width="0.296" x1="92.163" y1="73.076" x2="96.125" y2="69.128"/>
<line fill="none" stroke="#000000" stroke-width="0.296" x1="72.436" y1="73.076" x2="92.163" y2="73.076"/>
<line fill="none" stroke="#000000" stroke-width="0.296" x1="72.449" y1="65.165" x2="92.177" y2="65.165"/>
<rect x="0.25" y="0.25" fill-rule="evenodd" clip-rule="evenodd" fill="none" width="106.23" height="106.23"/>
<rect x="0.25" y="0.25" fill="none" stroke="#010101" stroke-width="0.5" stroke-miterlimit="10" width="106.23" height="106.23"/>
</svg>
