<?xml version="1.0" encoding="utf-8"?>
<!-- Generator: Adobe Illustrator 16.0.0, SVG Export Plug-In . SVG Version: 6.00 Build 0)  -->
<!DOCTYPE svg PUBLIC "-//W3C//DTD SVG 1.1//EN" "http://www.w3.org/Graphics/SVG/1.1/DTD/svg11.dtd">
<svg version="1.1" id="Layer_1" xmlns="http://www.w3.org/2000/svg" xmlns:xlink="http://www.w3.org/1999/xlink" x="0px" y="0px"
	 width="107.5px" height="86.5px" viewBox="0 0 107.5 86.5" enable-background="new 0 0 107.5 86.5" xml:space="preserve">
<path fill="#FFFFFF" d="M69.96,0.122"/>
<path fill="none" stroke="#000000" stroke-width="0.42" d="M69.96,0.122"/>
<rect fill-rule="evenodd" clip-rule="evenodd" fill="#FFFFFF" width="107.5" height="86.5"/>
<polyline fill="#FFFFFF" points="65.337,59.103 109.578,59.103 109.578,-1.797 48.679,-3.18 48.679,42.04 "/>
<polyline fill="none" stroke="#000000" stroke-width="0.42" points="65.337,59.103 109.578,59.103 109.578,-1.797 48.679,-3.18 
	48.679,42.04 "/>
<polyline fill="#FFFFFF" points="65.32,50.493 109.446,50.493 109.446,-2.007 56.946,-2.007 56.946,42.04 "/>
<polyline fill="none" stroke="#000000" stroke-width="0.42" points="65.32,50.493 109.446,50.493 109.446,-2.007 56.946,-2.007 
	56.946,42.04 "/>
<polyline fill="#FFFFFF" points="48.687,42.053 109.464,42.066 109.464,-2.007 65.347,-2.007 65.337,59.094 "/>
<polyline fill="none" stroke="#000000" stroke-width="0.42" points="48.687,42.053 109.464,42.066 109.464,-2.007 65.347,-2.007 
	65.337,59.094 "/>
<rect x="73.685" y="-2.025" fill="#FFFFFF" width="35.701" height="35.7"/>
<rect x="73.685" y="-2.025" fill="none" stroke="#000000" stroke-width="0.42" width="35.701" height="35.7"/>
<polyline fill="#FFFFFF" points="109.446,-2.042 82.146,-2.042 82.146,25.258 109.446,25.258 109.446,-2.042 "/>
<polyline fill="none" stroke="#000000" stroke-width="0.42" points="109.446,-2.042 82.146,-2.042 82.146,25.258 109.446,25.258 
	109.446,-2.042 "/>
<rect x="90.625" y="-1.937" fill="#FFFFFF" width="18.9" height="18.69"/>
<rect x="90.625" y="-1.937" fill="none" stroke="#000000" stroke-width="0.42" width="18.9" height="18.69"/>
<rect x="98.946" y="-1.99" fill="#FFFFFF" width="10.5" height="10.43"/>
<rect x="98.946" y="-1.99" fill="none" stroke="#000000" stroke-width="0.42" width="10.5" height="10.43"/>
<rect x="65.337" y="59.093" fill="#FFFFFF" width="44.354" height="8.453"/>
<rect x="65.337" y="59.093" fill="none" stroke="#000000" stroke-width="0.42" width="44.354" height="8.453"/>
<rect x="65.333" y="67.283" fill="#FFFFFF" width="44.284" height="8.453"/>
<rect x="65.333" y="67.283" fill="none" stroke="#000000" stroke-width="0.42" width="44.284" height="8.453"/>
<rect x="65.343" y="75.648" fill="#FFFFFF" width="44.266" height="8.453"/>
<rect x="65.343" y="75.648" fill="none" stroke="#000000" stroke-width="0.42" width="44.266" height="8.453"/>
<polyline fill="#FFFFFF" points="109.591,92.51 109.591,84.057 65.324,84.057 65.324,92.51 "/>
<polyline fill="none" stroke="#000000" stroke-width="0.42" points="109.591,92.51 109.591,84.057 65.324,84.057 65.324,92.51 "/>
<rect x="-1.915" y="-1.986" fill="#FFFFFF" width="8.453" height="44.03"/>
<rect x="-1.915" y="-1.986" fill="none" stroke="#000000" stroke-width="0.42" width="8.453" height="44.03"/>
<rect x="6.599" y="-2.012" fill="#FFFFFF" width="8.453" height="44.065"/>
<rect x="6.599" y="-2.012" fill="none" stroke="#000000" stroke-width="0.42" width="8.453" height="44.065"/>
<rect x="14.981" y="-2.012" fill="#FFFFFF" width="8.453" height="44.056"/>
<rect x="14.981" y="-2.012" fill="none" stroke="#000000" stroke-width="0.42" width="8.453" height="44.056"/>
<rect x="23.46" y="-1.986" fill="#FFFFFF" width="8.453" height="44.039"/>
<rect x="23.46" y="-1.986" fill="none" stroke="#000000" stroke-width="0.42" width="8.453" height="44.039"/>
<rect x="31.834" y="-1.986" fill="#FFFFFF" width="8.453" height="44.03"/>
<rect x="31.834" y="-1.986" fill="none" stroke="#000000" stroke-width="0.42" width="8.453" height="44.03"/>
<rect x="40.234" y="-2.003" fill="#FFFFFF" width="8.452" height="44.056"/>
<rect x="40.234" y="-2.003" fill="none" stroke="#000000" stroke-width="0.42" width="8.452" height="44.056"/>
<polyline fill="#FFFFFF" points="109.351,0.11 64.253,0.128 -43.652,0.128 "/>
<polyline fill="none" stroke="#000000" stroke-width="0.42" points="109.351,0.11 64.253,0.128 -43.652,0.128 "/>
<line fill="#FFFFFF" x1="65.347" y1="42.066" x2="107.95" y2="-0.59"/>
<line fill="none" stroke="#000000" stroke-width="0.42" x1="65.347" y1="42.066" x2="107.95" y2="-0.59"/>
<path fill="#FFFFFF" d="M99.069,2.07"/>
<path fill="none" stroke="#000000" stroke-width="0.42" d="M99.069,2.07"/>
<line fill="#FFFFFF" x1="107.354" y1="0.285" x2="107.354" y2="151.695"/>
<line fill="none" stroke="#000000" stroke-width="0.42" x1="107.354" y1="0.285" x2="107.354" y2="151.695"/>
<rect fill-rule="evenodd" clip-rule="evenodd" fill="none" width="107.5" height="86.5"/>
<rect fill="none" stroke="#010101" stroke-width="0.5" stroke-miterlimit="10" width="107.5" height="86.5"/>
</svg>
