<?xml version="1.0" encoding="utf-8"?>
<!-- Generator: Adobe Illustrator 16.0.0, SVG Export Plug-In . SVG Version: 6.00 Build 0)  -->
<!DOCTYPE svg PUBLIC "-//W3C//DTD SVG 1.1//EN" "http://www.w3.org/Graphics/SVG/1.1/DTD/svg11.dtd">
<svg version="1.1" id="Layer_1" xmlns="http://www.w3.org/2000/svg" xmlns:xlink="http://www.w3.org/1999/xlink" x="0px" y="0px"
	 width="107.5px" height="86.5px" viewBox="0 0 107.5 86.5" enable-background="new 0 0 107.5 86.5" xml:space="preserve">
<rect fill-rule="evenodd" clip-rule="evenodd" fill="#FFFFFF" width="107.5" height="86.5"/>
<g>
	<defs>
		<rect id="SVGID_1_" width="107.5" height="86.5"/>
	</defs>
	<clipPath id="SVGID_2_">
		<use xlink:href="#SVGID_1_"  overflow="visible"/>
	</clipPath>
	<line clip-path="url(#SVGID_2_)" fill="#FFFFFF" x1="65.284" y1="-1.947" x2="65.284" y2="59.04"/>
	
		<line clip-path="url(#SVGID_2_)" fill="none" stroke="#000000" stroke-width="0.42" x1="65.284" y1="-1.947" x2="65.284" y2="59.04"/>
</g>
<line fill="#FFFFFF" x1="107.484" y1="50.57" x2="65.328" y2="50.553"/>
<line fill="none" stroke="#000000" stroke-width="0.42" x1="107.484" y1="50.57" x2="65.328" y2="50.553"/>
<line fill="#FFFFFF" x1="48.58" y1="42.135" x2="107.459" y2="42.135"/>
<line fill="none" stroke="#000000" stroke-width="0.42" x1="48.58" y1="42.135" x2="107.459" y2="42.135"/>
<line fill="#FFFFFF" x1="73.605" y1="33.735" x2="107.484" y2="33.735"/>
<line fill="none" stroke="#000000" stroke-width="0.42" x1="73.605" y1="33.735" x2="107.484" y2="33.735"/>
<line fill="#FFFFFF" x1="73.605" y1="-1.965" x2="73.605" y2="42.03"/>
<line fill="none" stroke="#000000" stroke-width="0.42" x1="73.605" y1="-1.965" x2="73.605" y2="42.03"/>
<line fill="#FFFFFF" x1="82.066" y1="25.335" x2="107.406" y2="25.335"/>
<line fill="none" stroke="#000000" stroke-width="0.42" x1="82.066" y1="25.335" x2="107.406" y2="25.335"/>
<line fill="#FFFFFF" x1="82.066" y1="-1.982" x2="82.066" y2="33.682"/>
<line fill="none" stroke="#000000" stroke-width="0.42" x1="82.066" y1="-1.982" x2="82.066" y2="33.682"/>
<line fill="#FFFFFF" x1="90.545" y1="-1.877" x2="90.545" y2="25.283"/>
<line fill="none" stroke="#000000" stroke-width="0.42" x1="90.545" y1="-1.877" x2="90.545" y2="25.283"/>
<line fill="#FFFFFF" x1="98.866" y1="-1.93" x2="98.866" y2="16.883"/>
<line fill="none" stroke="#000000" stroke-width="0.42" x1="98.866" y1="-1.93" x2="98.866" y2="16.883"/>
<rect x="65.275" y="58.917" fill="#FFFFFF" width="42.078" height="8.453"/>
<rect x="65.275" y="58.917" fill="none" stroke="#000000" stroke-width="0.42" width="42.078" height="8.453"/>
<rect x="65.279" y="67.343" fill="#FFFFFF" width="44.258" height="8.453"/>
<rect x="65.279" y="67.343" fill="none" stroke="#000000" stroke-width="0.42" width="44.258" height="8.453"/>
<rect x="65.297" y="75.709" fill="#FFFFFF" width="44.23" height="8.452"/>
<rect x="65.297" y="75.709" fill="none" stroke="#000000" stroke-width="0.42" width="44.23" height="8.452"/>
<polyline fill="#FFFFFF" points="109.51,92.57 109.51,84.117 65.279,84.117 65.279,92.57 "/>
<polyline fill="none" stroke="#000000" stroke-width="0.42" points="109.51,92.57 109.51,84.117 65.279,84.117 65.279,92.57 "/>
<polyline fill="#FFFFFF" points="-2.056,42.148 6.397,42.148 6.397,-2.005 -2.056,-2.005 "/>
<polyline fill="none" stroke="#000000" stroke-width="0.42" points="-2.056,42.148 6.397,42.148 6.397,-2.005 -2.056,-2.005 "/>
<rect x="6.423" y="-2.005" fill="#FFFFFF" width="8.453" height="44.153"/>
<rect x="6.423" y="-2.005" fill="none" stroke="#000000" stroke-width="0.42" width="8.453" height="44.153"/>
<rect x="14.823" y="-1.926" fill="#FFFFFF" width="8.453" height="44.074"/>
<rect x="14.823" y="-1.926" fill="none" stroke="#000000" stroke-width="0.42" width="8.453" height="44.074"/>
<rect x="23.249" y="-1.926" fill="#FFFFFF" width="8.453" height="44.074"/>
<rect x="23.249" y="-1.926" fill="none" stroke="#000000" stroke-width="0.42" width="8.453" height="44.074"/>
<rect x="31.754" y="-1.926" fill="#FFFFFF" width="8.453" height="44.074"/>
<rect x="31.754" y="-1.926" fill="none" stroke="#000000" stroke-width="0.42" width="8.453" height="44.074"/>
<rect x="40.154" y="-1.943" fill="#FFFFFF" width="8.453" height="44.078"/>
<rect x="40.154" y="-1.943" fill="none" stroke="#000000" stroke-width="0.42" width="8.453" height="44.078"/>
<line fill="#FFFFFF" x1="56.866" y1="-1.947" x2="56.866" y2="42.135"/>
<line fill="none" stroke="#000000" stroke-width="0.42" x1="56.866" y1="-1.947" x2="56.866" y2="42.135"/>
<polyline fill="#FFFFFF" points="98.919,-1.904 98.919,17.049 107.484,17.04 "/>
<polyline fill="none" stroke="#000000" stroke-width="0.42" points="98.919,-1.904 98.919,17.049 107.484,17.04 "/>
<line fill="#FFFFFF" x1="98.866" y1="8.535" x2="107.38" y2="8.535"/>
<line fill="none" stroke="#000000" stroke-width="0.42" x1="98.866" y1="8.535" x2="107.38" y2="8.535"/>
<line fill="#FFFFFF" x1="107.38" y1="-1.991" x2="107.38" y2="151.729"/>
<line fill="none" stroke="#000000" stroke-width="0.42" x1="107.38" y1="-1.991" x2="107.38" y2="151.729"/>
<line fill="#FFFFFF" x1="90.555" y1="17.04" x2="107.484" y2="17.04"/>
<line fill="none" stroke="#000000" stroke-width="0.42" x1="90.555" y1="17.04" x2="107.484" y2="17.04"/>
<line fill="#FFFFFF" x1="-44.24" y1="0.122" x2="107.38" y2="0.122"/>
<line fill="none" stroke="#000000" stroke-width="0.42" x1="-44.24" y1="0.122" x2="107.38" y2="0.122"/>
<rect fill-rule="evenodd" clip-rule="evenodd" fill="none" width="107.5" height="86.5"/>
<rect fill="none" stroke="#010101" stroke-width="0.5" stroke-miterlimit="10" width="107.5" height="86.5"/>
</svg>
