<?xml version="1.0" encoding="utf-8"?>
<!-- Generator: Adobe Illustrator 16.0.0, SVG Export Plug-In . SVG Version: 6.00 Build 0)  -->
<!DOCTYPE svg PUBLIC "-//W3C//DTD SVG 1.1//EN" "http://www.w3.org/Graphics/SVG/1.1/DTD/svg11.dtd">
<svg version="1.1" id="Layer_1" xmlns="http://www.w3.org/2000/svg" xmlns:xlink="http://www.w3.org/1999/xlink" x="0px" y="0px"
	 width="107.612px" height="106.807px" viewBox="0 0 107.612 106.807" enable-background="new 0 0 107.612 106.807"
	 xml:space="preserve">
<path fill="none" stroke="#000000" stroke-width="0.296" d="M94.127,8.984L89.702,4.56 M103.022,0.104l-22.2,22.2 M63.063,4.56
	h35.52 M9.797,13.454L5.357,17.88 M18.677,22.305L5.357,35.64 M5.357,26.76l8.864-8.88 M23.103,26.76l-22.2,22.2 M0.902,4.574
	l22.2,22.186 M27.542,4.574l8.88,8.865 M27.542,22.319v8.88 M31.997,17.88L18.662,4.574 M5.357,0.119l22.185,22.2 M40.847,9
	l-4.425-4.426 M49.742,0.119l-22.2,22.2 M49.742,53.399h8.895 M67.487,44.52l22.215,22.2 M80.822,22.305v8.895 M80.822,75.6v8.88
	 M85.247,71.159L63.104,48.976 M58.637,53.399l22.186,22.2 M76.367,35.64l22.215,22.2 M94.143,62.279l-22.2-22.2 M103.022,53.399
	l-22.2,22.2 M80.822,31.199l22.2,22.2 M103.022,53.399h4.485 M58.637,53.399l22.186-22.2 M14.207,44.52l22.215,22.2 M5.357,53.399
	l-5.356,0.022 M31.997,71.159L9.782,48.96 M5.357,53.399l22.185,22.2 M23.103,35.64l22.199,22.2 M40.847,62.279l-22.185-22.2
	 M49.742,53.399l-22.2,22.2 M27.542,31.199l22.2,22.2 M5.357,53.399l22.185-22.2 M63.063,66.72l-22.216,22.2 M31.997,80.04h-8.895
	 M36.422,84.479l22.215-22.2 M54.183,57.897L31.997,80.04 M71.942,75.6l-22.2,22.2 M45.302,93.359l22.186-22.2 M54.183,102.239
	L31.997,80.04 M76.367,80.04l-22.185,22.199 M54.183,102.239v4.44 M54.183,57.897L76.367,80.04 M63.063,13.454L40.847,35.64
	 M85.247,26.76h-8.88 M54.183,4.574V0.119 M31.997,26.76h-8.895 M36.422,31.199L58.637,9 M54.183,4.574L31.997,26.76 M71.942,22.305
	l-22.2,22.215 M45.302,40.079L67.487,17.88 M54.183,48.96l-22.186-22.2 M76.367,26.76l-22.185,22.2 M54.183,48.96v8.938
	 M54.054,4.688L76.367,26.76 M107.508,53.399L54.183,0.119 M107.508,53.399l-53.325,53.28 M54.183,0.119l-53.28,53.28
	 M54.183,106.68l-53.28-53.28 M5.357,9v35.52 M9.782,4.574h35.52 M27.542,75.6v8.88"/>
<path fill="none" stroke="#000000" stroke-width="0.296" d="M98.551,40.064l4.44-4.425 M89.671,31.215l13.32-13.335 M102.991,26.76
	l-8.865,8.88 M85.247,26.76l22.2-22.2 M107.446,48.944L85.247,26.76 M102.991,44.52L102.992,9 M98.55,93.345l4.44-4.425
	 M89.67,84.494l13.321-13.335 M102.99,80.04l-8.864,8.88 M85.246,80.04l22.2-22.2 M107.445,102.225L85.246,80.04 M102.99,97.8
	l0.001-35.521 M98.582,102.239l-35.52-0.029 M0.902,0.119l106.583,106.583 M0.902,106.68L107.508,0.119 M27.542,102.225l-8.88-8.865
	 M23.087,88.92l13.335,13.305 M49.727,106.68l-22.185-22.2 M14.237,97.8l4.425,4.424 M5.342,106.68l22.2-22.2 M45.302,102.225
	l-35.52-0.001 M80.822,102.21l-8.88-8.865 M76.367,88.904l13.335,13.306 M103.006,106.666L80.822,84.465 M67.518,97.784l4.425,4.426
	 M58.622,106.665l22.2-22.2 M98.582,102.21h-35.52 M85.247,80.04h-8.88 M9.797,66.734l-4.439,4.425 M18.677,75.585L5.357,88.92
	 M5.357,80.04l8.864-8.881 M23.103,80.04l-22.2,22.199 M0.902,57.854l22.2,22.186 M5.357,62.279V97.8 M80.822,4.56l8.88,8.865
	 M85.277,17.864L71.942,4.56 M58.637,0.104l22.186,22.2"/>
<rect x="0.952" y="0.31" fill-rule="evenodd" clip-rule="evenodd" fill="none" width="106.23" height="106.23"/>
<rect x="0.952" y="0.31" fill="none" stroke="#010101" stroke-width="0.5" stroke-miterlimit="10" width="106.23" height="106.23"/>
</svg>
