<?xml version="1.0" encoding="utf-8"?>
<!-- Generator: Adobe Illustrator 24.3.0, SVG Export Plug-In . SVG Version: 6.00 Build 0)  -->
<svg version="1.1" id="Layer_1" xmlns="http://www.w3.org/2000/svg" xmlns:xlink="http://www.w3.org/1999/xlink" x="0px" y="0px"
	 viewBox="0 0 517.01 475.89" style="enable-background:new 0 0 517.01 475.89;" xml:space="preserve">
<style type="text/css">
	.st0{fill:#E0E5E9;}
	.st1{fill:none;stroke:#545454;stroke-width:25;stroke-miterlimit:10;}
</style>
<g>
	<path class="st0" d="M164.22,259.2c2.05-0.66,4.34-0.99,6.2-2.07c14.74-8.58,14.71-8.63,24.58,5.99c3.53-1.78,7.37-3.44,10.93-5.57
		c6.66-3.99,13.39-4.77,19.3,0.62c3.7,3.37,6.26,8,10.02,12.97c-38.06,20.47-75.37,40.54-113.79,61.2
		c-2.19-4.84-4.87-9.25-6.19-14.03c-1.55-5.61,1.09-10.76,5.29-14.26c3.86-3.22,8.67-5.29,13.63-8.2c-1.24-3.07-2.29-5.62-3.3-8.18
		c-2.15-5.41-0.93-8.8,4.2-11.62c4.48-2.47,8.98-4.91,14.6-7.99c-2.94-5.05-5.49-9.74-8.31-14.26
		c-26.28-42.17-52.61-84.31-78.91-126.46c-4.93-7.89-9.8-15.81-14.75-23.69c-7.91-12.56-8.32-25.63-2.85-39.16
		c0.72-1.79,1.17-3.69,2.12-6.72c-8.88-2.46-17.22-4.88-25.63-7c-1.21-0.31-2.84,0.68-4.18,1.29c-6.39,2.9-12.88,1.07-15.9-4.57
		c-2.79-5.21-0.86-12.07,4.27-15.18c5.44-3.3,11.89-1.35,15.78,4.81c0.79,1.25,1.41,2.6,2.21,4.07c8.6,2.58,17.09,5.46,25.77,7.53
		c2.37,0.57,5.73-0.71,7.92-2.19c3.81-2.57,7.06-5.95,11.24-9.6c-2.15-3.65-4.35-7.38-6.49-11c-7.32,0.06-14.85,6.62-20.76-1.68
		C44.51,9.51,75.43-5.1,88.73,1.73c1.63,5.43-2.5,8.48-5.67,11.52c-2.6,2.49-6.04,4.4-3.9,8.5c2.27,4.35,3.6,9.55,10.77,9.13
		c13.06-0.76,24.9,3.11,34.96,11.8c1.1,0.95,2.36,1.73,2.74,2.01c7.37-2.06,13.79-5.04,20.38-5.46
		c14.71-0.93,26.36,6.97,35.78,16.96C195.15,68.22,206,81,215.35,94.63c12.47,18.18,23.8,37.21,34.59,56.45
		c5.9,10.54,9.09,22.26,7.08,34.92c-1.31,8.3-5.15,15.16-10.47,21.05c-8.67,9.61-19.3,16.93-31.51,21.22
		c-19.42,6.81-36.17,0.37-49.25-13.87c-12.31-13.4-23.53-27.97-33.82-43c-9.26-13.53-17-28.16-24.68-42.69
		c-6.07-11.49-10.41-23.82-11.07-36.99c-0.61-12.11,2.62-23,11.86-31.56c1.71-1.58,3.12-3.48,5.03-5.65
		c-11.33-7.75-22.07-9.06-33.7-3.58c-14.71,6.93-23.84,21.74-20.46,36.17c1.49,6.39,5.57,12.32,9.11,18.06
		c21.38,34.61,42.91,69.13,64.46,103.64C142.86,225.42,153.35,241.95,164.22,259.2z"/>
	<path class="st0" d="M144.47,423.47c-1.22-2.79-1.86-4.92-2.99-6.75c-8.05-12.99-15.77-26.21-24.45-38.77
		c-8.88-12.84-3.47-26.09,8.18-32.04c27.17-13.86,53.75-28.88,80.58-43.4c16.04-8.68,32.11-17.3,48.19-25.9
		c0.51-0.27,1.25-0.1,2.22-0.16c-1.75,34.75,11.55,61.42,43.35,76.21c31.38,14.59,60.37,8.14,87.52-15.68
		c-5.14,27.38-9.98,53.14-14.9,79.33c-19.81-29.41-46.08-40.23-77.33-21.21c-29.2,17.77-30.65,45.22-16.96,75.16
		c-2.5,0.38-4.55,0.99-6.58,0.95c-19.79-0.44-39.63-0.33-59.35-1.77c-10.64-0.77-21.21-3.74-31.57-6.61
		c-11.32-3.14-17.93-12.03-23.52-21.74c-1.32-2.29-2.93-4.41-4.51-6.75c-8.15,0-16.22,0-23.6,0c-4.91,4.08-5.16,8.78-3.49,13.3
		c1.74,4.72,6.4,4.56,10.62,4.77c4.78,0.24,9.56,0.66,13.97,0.97c1.51,5.89-0.63,7.9-4.62,8.08c-4.65,0.21-9.35,0.33-13.98-0.07
		c-9.02-0.76-16.47-9.29-16.46-18.37c0.02-9.41,7-17.3,16.3-18.33C135.02,424.26,138.96,423.97,144.47,423.47z"/>
	<path class="st0" d="M419.17,473.99c-8.48-2.26-20.43-5.57-28.44-16.28c-7.39-9.87-9.84-23.26-6.45-38.31
		c3.2-14.24,31.12-164.6,34.62-178.75c2.41-9.74,8.64-16.96,18.85-19.38c9.32-2.2,19.92,3.14,24.1,12.76
		c3.55,8.17,46.07,160.32,52.46,179.81c4.67,14.28,3.03,27.48-2.99,37.78c-7.35,12.58-20.79,17.5-27.68,20.06
		C473.36,475.51,427.21,476.13,419.17,473.99z"/>
	<path class="st0" d="M299.8,230.58c-7.06-1.85-12.5-2.8-17.59-4.71c-8.35-3.13-12.78-12.01-11.22-20.88
		c1.43-8.17,2.58-16.39,4.03-24.56c2.04-11.56,11.26-18.88,23.36-16.09c21.81,5.02,43.99,8.43,66,12.61
		c11.09,2.1,22.13,4.42,33.2,6.62c9.49,1.88,16.3,9.78,15.31,19.1c-1.06,10.05-2.68,20.08-4.77,29.96
		c-1.99,9.41-12.42,18.07-22.55,13.78c-1.13-0.48-2.5-0.38-5.1-0.73c0.86,2.75,1.08,4.85,2.08,6.46
		c22.69,36.31,2.35,81.38-37.49,90.97c-25.6,6.16-51.04-4.49-65.13-28.63c-16.02-27.45-9.13-59.07,16.11-78.83
		C297.51,234.5,298.37,232.55,299.8,230.58z M309.52,255.43c-0.18,5.28,12.56,19.26,17.29,19.42c17.02,4.13,28.46-10.13,26.82-19.21
		C343.33,245.78,322.28,244.8,309.52,255.43z M301.62,263.77c-7.25,11.01-8.27,22.93-3.11,35.17c4.3,10.22,5.64,10.37,13.41,2.61
		c3.36-3.35,7.43-6.71,9.09-10.89c6.61-8.61-7.73-26.43-18.05-27.25C302.66,263.36,302.33,263.57,301.62,263.77z M360.76,262.7
		c-6.75,2.2-11,7.85-14.49,12.91c-2.72,3.94-2.39,10.23-2.7,15.53c-0.29,4.94,11.6,15.81,16.44,15.61
		C369.96,296.34,370.69,274.13,360.76,262.7z M311.47,314.47c12.8,8.43,29.27,8.28,40.22-0.2c0.24-4.04-11.3-18.03-15.56-18.33
		c-3.69-0.26-8.34-1.06-10.95,0.74c-5.4,3.7-9.72,8.96-14.28,13.38C311.15,312.05,311.32,313.35,311.47,314.47z"/>
</g>
<circle class="st0" cx="322.86" cy="433.3" r="13.17"/>
<circle class="st1" cx="322.86" cy="433.3" r="30.09"/>
</svg>
