<?xml version="1.0" encoding="utf-8"?>
<!-- Generator: Adobe Illustrator 16.0.0, SVG Export Plug-In . SVG Version: 6.00 Build 0)  -->
<!DOCTYPE svg PUBLIC "-//W3C//DTD SVG 1.1//EN" "http://www.w3.org/Graphics/SVG/1.1/DTD/svg11.dtd">
<svg version="1.1" id="Layer_1" xmlns="http://www.w3.org/2000/svg" xmlns:xlink="http://www.w3.org/1999/xlink" x="0px" y="0px"
viewBox="0 0 1395 1243" xml:space="preserve">
<style type="text/css">
<![CDATA[
	.st0{fill:#AD2121;}
	.st1{fill:#E0E5E9;}
	.st2{fill:#545454;}
]]>
</style>
<ellipse class="st1" cx="705.787" cy="1075.195" rx="536.562" ry="120.157"/>
<g>
	<path class="st2" d="M1001.348,309.64l-39.476,54.224l-39.475-54.224c-5.856-8.025-16.268-11.062-25.377-7.375
		c-1.519,0.651-35.138,14.315-66.805,35.571c-31.884-21.256-65.286-34.92-66.804-35.571c-9.109-3.687-19.521-0.651-25.377,7.375
		l-39.475,54.224l-39.477-54.224c-5.856-8.025-16.267-11.062-25.377-7.375c-1.518,0.651-35.137,14.315-66.804,35.571
		c-31.884-21.256-65.503-34.92-66.804-35.571c-9.11-3.687-19.521-0.651-25.377,7.375l-39.475,54.224l-39.475-54.224
		c-5.856-8.025-16.267-11.062-25.377-7.375c-1.735,0.651-42.946,17.352-77.216,42.729c-9.76,7.158-14.314,11.712-22.339,19.738
		c-29.933,29.931-13.231,153.346-5.641,181.759c10.411,38.173,38.175,89.361,42.513,97.169c4.988,11.713,8.241,24.076,9.543,36.656
		l39.041,383.907c2.386,23.208,21.69,40.776,45.115,40.776h67.671c23.425,0,42.729-17.568,45.115-40.776l39.042-383.907
		c1.301-12.58,4.554-24.943,9.542-36.656c0.651-1.301,2.169-3.904,4.122-7.591c1.952,3.687,3.471,6.29,4.121,7.591
		c4.989,11.713,8.243,24.076,9.544,36.656l39.041,383.907c2.386,23.208,21.69,40.776,45.115,40.776h67.672
		c23.425,0,42.729-17.568,45.114-40.776l39.042-383.907c1.301-12.58,4.554-24.943,9.543-36.656c0.65-1.301,2.169-4.12,4.121-7.591
		c1.952,3.687,3.471,6.29,4.121,7.591c4.988,11.713,8.242,24.076,9.543,36.656l39.042,383.907
		c2.386,23.208,21.689,40.776,45.115,40.776h67.671c23.425,0,42.729-17.568,45.114-40.776l39.042-383.907
		c1.301-12.58,4.555-24.943,9.543-36.656c4.338-7.809,32.102-58.996,42.512-97.169c7.809-28.414,24.293-152.044-5.639-181.759
		c-8.025-8.026-12.58-12.58-22.34-19.738c-34.487-25.377-75.481-42.078-77.216-42.729
		C1017.615,298.794,1007.204,301.615,1001.348,309.64z M524.392,623.923c-0.217,0.65-0.651,1.084-0.867,1.735
		c-7.158,16.051-11.497,32.968-13.231,50.536l-39.042,383.907c-0.216,1.302-1.084,2.17-2.385,2.17h-67.672
		c-1.301,0-2.385-0.868-2.385-2.17l-39.042-383.907c-1.735-17.351-6.29-34.485-13.23-50.536c-0.216-0.651-0.65-1.302-0.868-1.735
		c-0.216-0.434-29.498-52.923-39.041-88.494c-10.628-39.259-13.664-125.367-4.988-140.767c6.941-6.94,9.977-9.76,16.917-14.965
		c18.003-13.23,39.042-24.076,52.707-30.799l46.633,64.201c4.121,5.639,10.411,8.893,17.352,8.893c6.94,0,13.23-3.254,17.352-8.893
		l46.632-64.201c8.893,4.337,21.039,10.411,33.185,17.785c-27.546,32.751-11.495,152.045-3.904,180.024
		c3.47,12.798,8.892,27.112,14.749,40.777C533.501,607.656,524.608,623.705,524.392,623.923z M827.179,535.429
		c-9.542,35.354-38.823,87.842-39.041,88.494c-0.216,0.65-0.65,1.084-0.867,1.735c-7.157,16.051-11.495,32.968-13.23,50.536
		l-39.042,383.907c-0.217,1.302-1.084,2.17-2.386,2.17h-67.671c-1.301,0-2.386-0.868-2.386-2.17l-39.042-383.907
		c-1.735-17.351-6.29-34.485-13.23-50.536c-0.217-0.651-0.651-1.302-0.868-1.735c-0.217-0.434-29.498-52.923-39.041-88.494
		c-10.628-39.259-13.665-125.367-4.989-140.767c6.941-6.94,9.978-9.76,16.918-14.965c18.002-13.23,39.042-24.076,52.706-30.799
		l46.633,64.201c4.121,5.639,10.411,8.893,17.353,8.893c6.94,0,13.23-3.254,17.351-8.893l46.634-64.201
		c13.664,6.506,34.486,17.351,52.705,30.799c6.941,5.206,9.978,8.025,16.918,14.965C840.844,410.063,837.808,496.17,827.179,535.429
		z M1095.481,394.663c8.675,15.4,5.855,101.508-4.989,140.767c-9.544,35.354-38.824,87.842-39.041,88.494
		c-0.218,0.65-0.651,1.084-0.868,1.735c-7.158,16.05-11.495,32.968-13.23,50.536l-39.041,383.907
		c-0.218,1.302-1.085,2.17-2.386,2.17h-67.673c-1.302,0-2.386-0.868-2.386-2.17l-39.041-383.907
		c-1.735-17.351-6.29-34.486-13.231-50.536c-0.216-0.651-0.65-1.302-0.867-1.735c0-0.218-8.893-16.051-18.652-36.438
		c5.855-13.665,11.278-27.979,14.749-40.777c7.591-27.762,23.642-147.056-3.904-180.024c12.363-7.375,24.292-13.448,33.185-17.786
		l46.633,64.202c4.121,5.639,10.411,8.893,17.353,8.893c6.939,0,13.23-3.254,17.351-8.893l46.634-64.202
		c13.664,6.507,34.486,17.352,52.705,30.8C1085.721,384.903,1088.541,387.722,1095.481,394.663z"/>
	<path class="st0" d="M893.768,246.956c16.267,18.437,39.041,28.414,66.153,29.064c0.434,0,1.084,0,1.518,0c0.218,0,0.867,0,1.085,0
		c0.434,0,0.867,0,1.302,0c27.111-0.651,49.886-10.628,66.369-29.064c34.704-39.042,29.716-104.11,28.848-112.353
		c-3.471-71.793-53.573-97.387-95.217-97.387c-0.651,0-1.302,0-1.953,0c-0.434,0-1.084,0-1.951,0
		c-41.645,0-91.748,25.594-95.219,97.387C864.053,142.629,859.063,207.915,893.768,246.956z M907.648,138.508
		c0-0.434,0-0.868,0-1.301c2.386-49.669,33.836-57.044,52.272-57.044h1.084c0.651,0,1.085,0,1.735,0h1.085
		c18.652,0,50.103,7.375,52.271,57.044c0,0.434,0,0.868,0,1.301c1.519,14.749,1.302,58.128-18.437,80.035
		c-8.458,9.543-20.171,14.315-35.57,14.532c-0.218,0-0.434,0-0.651,0c-15.399-0.217-27.112-4.989-35.787-14.532
		C906.347,196.419,906.13,153.257,907.648,138.508z"/>
	<path class="st0" d="M432.861,275.803c0.433,0,0.868,0,1.301,0c0.217,0,0.868,0,1.085,0c0.434,0,1.085,0,1.518,0
		c26.896-0.65,49.67-10.628,66.154-29.064c34.703-39.042,29.715-104.11,28.848-112.353C528.296,62.594,478.192,37,436.548,37
		c-0.651,0-1.301,0-1.952,0c-0.435,0-1.085,0-1.953,0c-41.644,0-91.747,25.594-95.217,97.387
		c-0.868,8.025-5.856,73.311,28.848,112.353C382.975,265.393,405.966,275.37,432.861,275.803z M380.589,138.508
		c0-0.434,0-0.868,0-1.301c2.169-49.669,33.836-57.044,52.272-57.044h1.084c0.651,0,1.084,0,1.735,0h1.084
		c18.654,0,50.104,7.375,52.273,57.044c0,0.434,0,0.868,0,1.301s4.988,53.574-18.22,79.818
		c-8.459,9.543-20.171,14.315-35.788,14.532c-0.217,0-0.433,0-0.65,0c-15.399-0.217-27.112-4.989-35.571-14.532
		C379.288,196.419,378.854,153.257,380.589,138.508z"/>
	<path class="st0" d="M696.174,275.803c0.434,0,1.085,0,1.519,0c0.217,0,0.868,0,1.084,0c0.435,0,0.868,0,1.302,0
		c27.111-0.65,49.887-10.628,66.371-29.064c34.703-39.042,29.715-104.11,28.847-112.353C791.825,62.594,741.722,37,700.078,37
		c-0.65,0-1.302,0-1.952,0c-0.434,0-1.085,0-1.952,0c-41.644,0-91.747,25.594-95.217,97.387
		c-0.868,8.025-5.857,73.311,28.847,112.353C646.505,265.175,669.279,275.37,696.174,275.803z M644.118,138.508
		c0-0.434,0-0.868,0-1.301c2.387-49.669,33.837-57.044,52.272-57.044h1.084c0.651,0,1.086,0,1.736,0h1.084
		c18.652,0,50.104,7.375,52.271,57.044c0,0.434,0,0.868,0,1.301s4.99,53.574-18.219,79.818
		c-8.459,9.543-20.172,14.315-35.787,14.532c-0.218,0-0.435,0-0.651,0c-15.4-0.217-27.112-4.989-35.789-14.532
		C642.817,196.419,642.601,153.257,644.118,138.508z"/>
</g>
</svg>
