<?xml version="1.0" encoding="utf-8"?>
<!DOCTYPE svg PUBLIC "-//W3C//DTD SVG 1.1//EN" "http://www.w3.org/Graphics/SVG/1.1/DTD/svg11.dtd">
<svg version="1.1" id="Layer_1" xmlns="http://www.w3.org/2000/svg" xmlns:xlink="http://www.w3.org/1999/xlink" x="0px" y="0px"
 viewBox="0 -72 1395 1395" enable-background="new 0 -72 1395 1395" xml:space="preserve">
<path fill="#E0E5E9" d="M310.743,316.865c-10.929,0-21.858-8.743-21.858-21.857c0-10.929,8.743-21.859,21.858-21.859l179.236-2.186
	c10.929,0,21.858,8.744,21.858,21.858c0,10.929-8.744,21.858-21.858,21.858L310.743,316.865"/>
<path fill="#E0E5E9" d="M916.215,310.308c-10.93,0-21.858-8.743-21.858-21.858c0-10.929,8.743-21.858,21.858-21.858l198.909-2.186
	c10.929,0,21.858,8.743,21.858,21.858c0,10.929-8.744,21.858-21.858,21.858L916.215,310.308"/>
<path fill="#545454" d="M406.918,242.546c-6.557,0-19.673,0-21.859-17.486h2.186v-2.186c0-2.186-2.186-2.186-2.186-4.372v-4.373
	v-21.857c0-24.044,10.929-48.088,30.603-67.76c24.042-24.045,59.017-39.345,89.617-39.345h63.389c111.477,0,316.943-2.187,354.101,0
	c59.018,2.186,107.106,50.273,107.106,104.919v24.043c0,10.929-8.743,21.859-19.674,24.045c-10.928,0-21.858-8.744-24.044-19.672
	v-28.416c0-34.972-32.786-59.017-65.573-61.203c-34.974-2.185-249.184,0-351.917,0H505.28c-19.674,0-43.716,10.929-59.018,26.23
	c-8.743,8.743-17.486,21.857-17.486,37.158v30.601C426.591,242.546,415.663,242.546,406.918,242.546"/>
<path fill="#E0E5E9" d="M1246.272,354.024H208.01c-89.618,0-142.078,39.345-142.078,107.106v177.051
	c0,6.558,2.186,10.929,6.557,15.301c4.373,4.372,10.929,6.558,15.301,6.558h19.672v408.747c0,63.39,45.902,118.034,96.176,118.034
	l1003.289,8.744c50.274,0,87.433-54.646,87.433-120.22V660.038h13.115c6.558,0,10.93-2.186,15.3-6.558
	c4.373-4.371,6.559-10.929,6.559-15.301V443.643C1333.705,384.625,1303.104,354.024,1246.272,354.024L1246.272,354.024z"/>
<path fill="#F2F2F2" d="M1265.944,688.455h-104.919v6.557c0,28.416-21.857,50.273-50.272,54.646v52.459
	c0,10.929-8.743,21.858-21.859,21.858H959.931c-10.93,0-21.858-8.743-21.858-21.858v-52.459h-4.373
	c-32.785,0-59.017-24.044-59.017-56.832v-2.185H522.768v2.185c0,28.416-21.858,50.274-50.274,54.646v52.459
	c0,10.93-8.744,21.859-21.858,21.859H321.671c-10.929,0-21.857-8.744-21.857-21.859v-52.459h-2.187
	c-32.787,0-59.017-24.045-59.017-56.831v-8.743H133.691c-10.929,0-21.858-8.742-21.858-21.859c0-13.114,8.744-21.858,21.858-21.858
	H238.61v-2.185c0-30.603,26.23-56.831,59.017-56.831h166.122c32.787,0,59.019,24.044,59.019,56.831v17.485h351.916v-17.485
	c0-30.603,26.229-56.831,59.018-56.831h166.122c32.787,0,59.018,24.044,59.018,56.831v10.929h104.918
	c10.929,0,21.858,8.742,21.858,21.858C1285.617,681.896,1276.874,688.455,1265.944,688.455z"/>
<path fill="#E0E5E9" d="M1102.008,622.88H933.7c-8.743,0-15.3,6.558-15.3,13.114v61.203c0,6.559,6.557,13.116,15.3,13.116h166.123
	c8.743,0,15.301-6.558,15.301-13.116v-61.203C1117.31,629.438,1110.751,622.88,1102.008,622.88z"/>
<rect x="981.789" y="751.842" fill="#AD2121" width="87.432" height="30.604"/>
<rect x="343.53" y="751.842" fill="#AD2121" width="87.433" height="30.604"/>
<path fill="#E0E5E9" d="M463.75,622.88H297.627c-8.743,0-15.3,6.558-15.3,13.114v61.203c0,6.559,6.558,13.116,15.3,13.116h168.309
	c8.743,0,15.301-6.558,15.301-13.116v-61.203C479.051,629.438,472.494,622.88,463.75,622.88L463.75,622.88z"/>
</svg>
