<?xml version="1.0" encoding="utf-8"?>
<!-- Generator: Adobe Illustrator 16.0.0, SVG Export Plug-In . SVG Version: 6.00 Build 0)  -->
<!DOCTYPE svg PUBLIC "-//W3C//DTD SVG 1.1//EN" "http://www.w3.org/Graphics/SVG/1.1/DTD/svg11.dtd">
<svg version="1.1" id="Layer_1" xmlns="http://www.w3.org/2000/svg" xmlns:xlink="http://www.w3.org/1999/xlink" x="0px" y="0px"
viewBox="0 0 1395 1243" xml:space="preserve">
<style type="text/css">
<![CDATA[
	.st0{fill:#E0E5E9;}
	.st1{fill-rule:evenodd;clip-rule:evenodd;fill:#454449;}
	.st2{fill:#EFEFEF;}
	.st3{fill-rule:evenodd;clip-rule:evenodd;fill:#BB1212;}
	.st4{fill:#2D2D2D;}
	.st5{fill:#606060;}
	.st6{fill:none;}
]]>
</style>
<path d="M272.88,749.276c-53.863,0-99.44,45.577-99.44,99.44s45.577,99.439,99.44,99.439c55.935,0,99.44-45.576,99.44-101.512
	C372.32,792.781,326.743,749.276,272.88,749.276L272.88,749.276z"/>
<path class="st2" d="M272.88,900.508c-29.003,0-51.792-22.788-51.792-51.791c0-29.004,22.789-51.792,51.792-51.792
	c29.003,0,51.792,22.788,51.792,51.792C324.672,877.72,301.883,900.508,272.88,900.508z"/>
<path d="M1018.68,749.276c-53.863,0-99.439,43.505-99.439,99.44c0,53.863,43.505,99.439,99.439,99.439
	c53.863,0,99.44-43.505,99.44-99.439C1120.191,794.854,1074.615,749.276,1018.68,749.276z"/>
<path class="st2" d="M1018.68,900.508c-29.003,0-51.791-22.788-51.791-51.791c0-29.004,22.788-51.792,51.791-51.792
	c29.004,0,51.792,22.788,51.792,51.792C1070.472,877.72,1047.684,900.508,1018.68,900.508z"/>
<path class="st0" d="M1256.778,804.474v-18.645v-136.73c0-8.287-2.071-12.43-10.358-16.573c-24.859-12.43-49.72-24.86-72.508-37.29
	c-6.215-4.144-14.502-10.358-18.646-16.573c-35.218-47.648-70.437-95.297-107.727-142.945c-2.071-4.144-8.287-8.286-12.43-8.286
	H856.946V317.632c0-20.716-6.215-26.932-26.932-26.932H119.434c-12.43,0-22.789,4.144-29.003,14.502v555.207h70.437
	c-2.072-41.434,10.358-74.58,41.433-101.512c22.789-18.646,47.648-26.932,78.724-26.932c53.863,0,111.87,43.505,113.941,116.013
	v18.646h511.702c-4.144-43.505,8.286-80.795,41.433-107.727c22.789-18.646,47.648-26.932,78.724-26.932
	c35.219,2.071,64.222,14.501,87.01,41.433c22.789,26.932,29.004,58.007,26.932,93.226h116.014c0-6.215,0-12.431,2.071-14.502
	c12.431-2.071,22.789-6.215,35.219-8.287v-33.146L1256.778,804.474L1256.778,804.474z"/>
<path class="st5" d="M904.667,594.568V449.552h116.013c4.144,0,8.287,4.144,10.358,8.286
	c31.075,43.506,60.079,87.011,91.153,128.443c2.072,2.072,2.072,4.144,4.144,8.287H904.667L904.667,594.568z"/>
<g>
	<rect x="352.667" y="473.333" class="st6" width="516" height="144.667"/>
	<path class="st4" d="M375.495,484.935c-0.516-4.336-3.703-6.352-7.406-6.352c-4.5,0-8.18,3.023-8.18,10.219v4.266
		c0,6.352,2.672,10.406,8.133,10.406c4.5,0,7.617-2.813,7.617-6.633v-2.742h-7.711v-3.938h12.375v6.516
		c0,4.477-3.047,10.992-12.281,10.992c-8.742,0-12.961-5.836-12.961-14.602v-4.289c0-9.023,5.133-14.414,13.102-14.414
		c7.711,0,11.742,5.039,12.07,10.57H375.495z"/>
	<path class="st4" d="M392.956,507.412c-4.781,0-8.063-2.93-8.063-7.5c0-4.359,3.023-7.125,8.695-7.148h6.352v-2.414
		c0-3-1.734-4.641-4.828-4.641c-2.953,0-4.641,1.523-4.852,3.82h-4.453c0.234-4.242,3.094-7.617,9.445-7.617
		c5.391,0,9.398,2.789,9.398,8.18v16.922h-4.523v-3.047h-0.164C398.815,505.888,396.612,507.412,392.956,507.412z M399.94,498.833
		v-2.789h-5.695c-3.164,0-4.57,1.5-4.57,3.633c0,2.719,2.25,4.008,4.664,4.008C397.526,503.685,399.94,501.693,399.94,498.833z"/>
	<path class="st4" d="M411.26,482.31h4.734v3.141h0.164c0.656-1.5,2.508-3.516,5.977-3.516c0.609,0,1.172,0.047,1.664,0.117v4.242
		c-0.445-0.094-1.313-0.141-2.109-0.141c-4.266,0-5.648,2.625-5.648,5.953v14.906h-4.781V482.31z"/>
	<path class="st4" d="M434.792,507.412c-4.781,0-8.063-2.93-8.063-7.5c0-4.359,3.023-7.125,8.695-7.148h6.352v-2.414
		c0-3-1.734-4.641-4.828-4.641c-2.953,0-4.641,1.523-4.852,3.82h-4.453c0.234-4.242,3.094-7.617,9.445-7.617
		c5.391,0,9.398,2.789,9.398,8.18v16.922h-4.523v-3.047h-0.164C440.651,505.888,438.448,507.412,434.792,507.412z M441.776,498.833
		v-2.789h-5.695c-3.164,0-4.57,1.5-4.57,3.633c0,2.719,2.25,4.008,4.664,4.008C439.362,503.685,441.776,501.693,441.776,498.833z"/>
	<path class="st4" d="M469.057,506.662v-3.82h-0.164c-0.961,2.156-3.633,3.914-7.031,3.914c-5.719,0-9.727-4.055-9.727-11.508
		v-1.875c0-7.359,3.984-11.438,9.727-11.438c3.375,0,6.047,1.758,7.148,3.891h0.164v-3.516h4.594v24.492
		c0,6.469-5.227,9.445-10.805,9.445c-6.563,0-9.797-3.188-10.289-7.313h4.734c0.445,1.922,2.438,3.586,5.578,3.586
		C466.69,512.521,469.057,510.341,469.057,506.662z M456.917,493.654v1.477c0,4.898,2.297,7.781,6.164,7.781
		c3.75,0,5.977-2.906,5.977-7.781v-1.477c0-4.805-2.344-7.781-5.977-7.781C459.213,485.873,456.917,488.662,456.917,493.654z"/>
	<path class="st4" d="M479.674,495.787v-2.602c0-6.773,3.938-11.297,10.453-11.297c6.539,0,10.406,4.641,10.406,11.531v2.344
		h-16.148v0.516c0,4.383,2.297,7.336,6.023,7.336c2.719,0,4.547-1.359,5.25-3.563h4.57c-0.82,4.031-4.055,7.383-9.914,7.383
		C483.776,507.435,479.674,502.982,479.674,495.787z M495.87,492.294v-0.07c0-3.68-2.273-6.563-5.719-6.563
		c-3.516,0-5.766,2.906-5.766,6.563v0.07H495.87z"/>
	<path class="st4" d="M526.854,475.021c10.313,0,14.156,6.609,14.156,15.961c0,9.211-3.703,16.031-14.156,16.031h-10.711v-31.992
		H526.854z M520.971,502.865h5.461c6.469,0,9.586-3.867,9.586-11.813c0-7.172-2.531-11.883-9.586-11.883h-5.461V502.865z"/>
	<path class="st4" d="M567.073,493.56v2.086c0,6.867-3.773,11.789-10.805,11.789c-7.055,0-10.875-4.922-10.875-11.789v-2.063
		c0-6.68,3.82-11.695,10.875-11.695C563.276,481.888,567.073,486.88,567.073,493.56z M550.151,493.677v1.898
		c0,4.664,2.086,7.922,6.094,7.922c4.031,0,6.07-3.234,6.07-7.922v-1.898c0-4.734-2.063-7.898-6.07-7.898
		S550.151,488.966,550.151,493.677z"/>
	<path class="st4" d="M593.604,493.56v2.086c0,6.867-3.773,11.789-10.805,11.789c-7.055,0-10.875-4.922-10.875-11.789v-2.063
		c0-6.68,3.82-11.695,10.875-11.695C589.807,481.888,593.604,486.88,593.604,493.56z M576.682,493.677v1.898
		c0,4.664,2.086,7.922,6.094,7.922c4.031,0,6.07-3.234,6.07-7.922v-1.898c0-4.734-2.063-7.898-6.07-7.898
		S576.682,488.966,576.682,493.677z"/>
	<path class="st4" d="M599.463,482.31h4.734v3.141h0.164c0.656-1.5,2.508-3.516,5.977-3.516c0.609,0,1.172,0.047,1.664,0.117v4.242
		c-0.445-0.094-1.313-0.141-2.109-0.141c-4.266,0-5.648,2.625-5.648,5.953v14.906h-4.781V482.31z"/>
	<path class="st4" d="M353.182,564.613l11.156-31.992h5.227l11.156,31.992h-5.18l-2.977-9.164h-11.484l-3,9.164H353.182z
		 M366.752,537.871l-4.523,13.828h9.188l-4.5-13.828H366.752z"/>
	<path class="st4" d="M384.659,539.91h4.734v3.141h0.164c0.656-1.5,2.508-3.516,5.977-3.516c0.609,0,1.172,0.047,1.664,0.117v4.242
		c-0.445-0.094-1.313-0.141-2.109-0.141c-4.266,0-5.648,2.625-5.648,5.953v14.906h-4.781V539.91z"/>
	<path class="st4" d="M404.627,533.816h4.664v6.094h4.852v3.844h-4.852v13.688c0,2.813,1.008,3.563,3.891,3.563
		c0.422,0,0.797-0.023,1.125-0.047v3.68c-0.398,0.07-1.336,0.164-2.297,0.164c-5.953,0-7.43-2.203-7.43-7.125v-13.922h-3.375v-3.844
		h3.422V533.816z"/>
	<path class="st4" d="M422.651,531.098c1.594,0,2.883,1.195,2.883,2.789s-1.289,2.789-2.883,2.789s-2.883-1.195-2.883-2.789
		S421.057,531.098,422.651,531.098z M420.284,539.91h4.734v24.703h-4.734V539.91z"/>
	<path class="st4" d="M440.534,539.488c5.836,0,9,3.188,9,7.453h-4.313c-0.141-1.781-1.266-3.82-4.828-3.82
		c-2.742,0-4.688,1.242-4.688,3.469c0,2.672,3.375,3.188,6.188,3.703c4.617,0.82,8.32,2.18,8.32,6.914
		c0,4.969-3.961,7.828-10.031,7.828c-5.742,0-9.492-2.742-9.492-7.172h4.617c0.305,2.109,2.133,3.516,5.203,3.516
		c3.492,0,5.086-1.641,5.086-3.586c0-2.648-2.836-3.141-6.188-3.797c-4.547-0.938-8.273-2.438-8.273-6.938
		C431.135,541.762,435.635,539.488,440.534,539.488z"/>
	<path class="st4" d="M457.221,533.816h4.664v6.094h4.852v3.844h-4.852v13.688c0,2.813,1.008,3.563,3.891,3.563
		c0.422,0,0.797-0.023,1.125-0.047v3.68c-0.398,0.07-1.336,0.164-2.297,0.164c-5.953,0-7.43-2.203-7.43-7.125v-13.922h-3.375v-3.844
		h3.422V533.816z"/>
</g>
<g>
	<path class="st1" d="M339,491.574c-2.625,0-5.25,0-7.951,0c-24.56-15.696-49.166-31.423-74.049-47.326
		c1.348,0.155,2.438,0.245,3.518,0.411c4.844,0.745,9.687,1.507,14.528,2.273c4.167,0.66,8.33,1.35,12.5,1.997
		c4.044,0.627,8.096,1.203,12.141,1.828c4.297,0.665,8.586,1.376,12.884,2.038c4.171,0.644,8.352,1.235,12.522,1.88
		c4.17,0.645,8.333,1.332,12.502,1.983c0.459,0.071,0.936,0.027,1.405,0.037C339,468.321,339,479.947,339,491.574z"/>
	<path class="st3" d="M249.729,536.238c0-4.861,0-9.626,0-14.594c18.165-0.136,36.305-0.272,54.513-0.409c0,5.069,0,10,0,15.002
		C286.06,536.238,267.921,536.238,249.729,536.238z"/>
	<path class="st1" d="M251.197,444.648c1.869,1.201,3.647,2.345,5.563,3.576c-10.693,15.911-21.356,31.776-32.046,47.68
		c-4.466,0-8.922,0-13.545,0C224.553,478.766,237.867,461.719,251.197,444.648z"/>
	<path class="st3" d="M249.734,561.429c0-2.383,0-4.608,0-6.843c0.821-0.267,53.118,0.267,54.507,0.578c0,2.292,0,4.6,0,7.131
		C286.101,562.007,267.945,561.718,249.734,561.429z"/>
	<path class="st3" d="M304.25,509.053c0,2.489,0,4.8,0,7.313c-18.121,0.195-36.249,0.389-54.477,0.585c0-2.381,0-4.668,0-7.109
		C267.935,509.58,286.062,509.317,304.25,509.053z"/>
	<path class="st3" d="M304.253,541.673c0,2.556,0,4.868,0,7.375c-18.158-0.146-36.296-0.292-54.577-0.439c0-1.271,0-2.419,0-3.569
		c0-1.11,0-2.22,0-3.367C267.895,541.673,286,541.673,304.253,541.673z"/>
	<path class="st3" d="M249.731,504.231c0-2.053,0-3.977,0-6.128c18.145-0.394,36.301-0.787,54.577-1.183
		c0,1.852,0.003,3.521-0.002,5.189c-0.001,0.334-0.036,0.668-0.063,1.128C286.051,503.569,267.92,503.9,249.731,504.231z"/>
	<path class="st3" d="M318.847,508.866c0-2.036,0-3.882,0-5.796c-2.973,0-5.918,0-8.965,0c0-2.013,0-4.083,0-6.26
		c4.868-0.113,9.704-0.225,14.596-0.338c0,6.597,0,13.073,0,19.705c-4.875,0-9.709,0-14.621,0c0-2.354,0-4.738,0-7.311
		C312.875,508.866,315.856,508.866,318.847,508.866z"/>
	<path class="st3" d="M230.518,516.978c0-6.088,0-12.185,0-18.449c4.64-0.104,9.258-0.208,13.98-0.315c0,2.051,0,3.997,0,6.039
		c-2.142,0.083-4.275,0.166-6.474,0.251c0,1.827,0,3.604,0,5.451c2.189,0,4.319,0,6.511,0c0,2.332,0,4.594,0,7.023
		C239.889,516.978,235.266,516.978,230.518,516.978z"/>
	<path class="st3" d="M309.846,521.194c4.876,0,9.683,0,14.589,0c0,4.957,0,10.007,0,15.11c-4.847,0-9.686,0-14.589,0
		C309.846,531.297,309.846,526.362,309.846,521.194z"/>
	<path class="st3" d="M244.54,521.838c0,4.815,0,9.567,0,14.385c-4.677,0-9.297,0-13.986,0c0-4.771,0-9.519,0-14.385
		C235.166,521.838,239.783,521.838,244.54,521.838z"/>
	<path class="st1" d="M222.031,498.061c0.668,0,1.26,0,1.925,0c0,21.837,0,43.641,0,65.523c-0.606,0-1.228,0-1.925,0
		C222.031,541.793,222.031,519.989,222.031,498.061z"/>
	<path class="st3" d="M309.852,549.117c0-2.524,0-4.874,0-7.245c4.917,0,9.761,0,14.643,0c0,2.459,0,4.817,0,7.245
		C319.633,549.117,314.796,549.117,309.852,549.117z"/>
	<path class="st3" d="M309.872,555.216c4.881,0,9.712,0,14.602,0c0,2.502,0,4.887,0,7.427c-4.854-0.094-9.684-0.186-14.602-0.28
		C309.872,559.958,309.872,557.621,309.872,555.216z"/>
	<path class="st3" d="M230.548,561.104c0-2.372,0-4.628,0-6.821c4.686,0,9.307,0,13.988,0c0,2.387,0,4.609,0,7.069
		C239.889,561.269,235.241,561.188,230.548,561.104z"/>
	<path class="st3" d="M230.52,548.466c0-2.412,0-4.637,0-6.94c4.648,0,9.267,0,13.981,0c0,2.325,0,4.58,0,6.94
		C239.882,548.466,235.262,548.466,230.52,548.466z"/>
</g>
</svg>
