<svg xmlns="http://www.w3.org/2000/svg" viewBox="0 0 23.3 23.3"><defs><style>.Plane{fill:#6D8CA1;}</style></defs><title>Plane</title><g id="Plane" data-name="Plane"><g id="Plane" data-name="Plane"><path class="Plane" d="M.41,10.43a.76.76,0,0,0-.37.42.75.75,0,0,0,0,.57.68.68,0,0,0,.35.34L8,15.29v0l3.51,7.55a.74.74,0,0,0,.67.43.8.8,0,0,0,.3-.06.76.76,0,0,0,.37-.36L23.22,1.08a.71.71,0,0,0,0-.57h0a.72.72,0,0,0-.37-.43L22.69,0h-.14a.41.41,0,0,0-.16,0,.44.44,0,0,0-.15.05Zm2.06.66L19,3.26,8.41,13.84ZM19.81,4.82l-7.6,16L9.45,14.89l.05-.05L20.06,4.29Z"/></g></g></svg>