<svg xmlns="http://www.w3.org/2000/svg" viewBox="11.2 2.1 23.2 23.3"><g fill="#FFF"><path stroke="#FFF" stroke-linecap="round" stroke-linejoin="round" d="M32.8 4l-8.4 17.7-3-6.4L32.8 4zm-.3-.3L21.1 15l-6.4-2.9 17.8-8.4zm1.2-1.1h-.1l-19.5 9.3c-.1.1-.2.2-.1.3 0 .1.1.1.1.1l6.9 3.2 3.2 6.9c.1.1.2.2.3.1.1 0 .1-.1.1-.1L33.9 3c.1-.1 0-.3-.1-.3 0-.1 0-.1-.1-.1z"/><path d="M16.9 18.6c.3-.3.8-.3 1.1 0 .3.3.3.8 0 1.1l-5 5c-.3.3-.8.3-1.1 0-.3-.3-.3-.8 0-1.1l5-5zm-.4 6.6c-.3.3-.8.3-1.1 0-.3-.3-.3-.8 0-1.1l2.1-2.1c.3-.3.8-.3 1.1 0 .3.3.3.8 0 1.1l-2.1 2.1zm-4-4c-.3.3-.8.3-1.1 0-.3-.3-.3-.8 0-1.1l2.1-2.1c.3-.3.8-.3 1.1 0 .3.3.3.8 0 1.1l-2.1 2.1z"/></g></svg>