<?xml version="1.0" encoding="utf-8"?>
<!-- Generator: Adobe Illustrator 16.0.0, SVG Export Plug-In . SVG Version: 6.00 Build 0)  -->
<!DOCTYPE svg PUBLIC "-//W3C//DTD SVG 1.1//EN" "http://www.w3.org/Graphics/SVG/1.1/DTD/svg11.dtd">
<svg version="1.1" id="Capa_1" xmlns="http://www.w3.org/2000/svg" xmlns:xlink="http://www.w3.org/1999/xlink" x="0px" y="0px"
viewBox="0 0 1395 1243" xml:space="preserve">
<style type="text/css">
<![CDATA[
	.st0{fill:#E0E5E9;}
	.st1{fill:#545454;}
	.st2{fill:none;stroke:#545454;stroke-width:34;stroke-miterlimit:10;}
]]>
</style>
<path class="st1" d="M996.5,461.522c0-10.605-8.595-19.205-19.2-19.205c-10.606,0-19.201,8.6-19.201,19.205
	c0,45.325,39.431,83.08,91.15,90.692v18.676c0,10.606,8.595,19.205,19.2,19.205c10.606,0,19.201-8.599,19.201-19.205v-18.676
	c51.703-7.612,91.116-45.367,91.116-90.692c0-45.32-39.413-83.08-91.116-90.692V263.965c30.348,6.302,52.715,27.077,52.715,51.732
	c0,10.605,8.595,19.205,19.2,19.205c10.606,0,19.201-8.6,19.201-19.205c0-45.333-39.413-83.101-91.116-90.718v-18.655
	c0-10.606-8.595-19.205-19.201-19.205c-10.605,0-19.2,8.599-19.2,19.205v18.651c-51.72,7.612-91.15,45.38-91.15,90.718
	c0,45.32,39.431,83.08,91.15,90.691v106.841C1018.884,506.936,996.5,486.165,996.5,461.522z M1140.365,461.522
	c0,24.643-22.367,45.409-52.715,51.707V409.815C1117.998,416.109,1140.365,436.876,1140.365,461.522z M996.5,315.697
	c0-24.659,22.384-45.435,52.749-51.732v103.439C1018.884,361.11,996.5,340.34,996.5,315.697z"/>
<path class="st1" d="M182.764,435.944c4.913,0,9.829-1.877,13.575-5.622l23.534-23.529v145.875c0,10.606,8.595,19.205,19.201,19.205
	H510.89c10.605,0,19.2-8.599,19.2-19.205V406.81l23.514,23.508c7.494,7.499,19.653,7.499,27.157,0
	c7.499-7.498,7.499-19.658-0.005-27.157l-192.2-192.188c-7.495-7.499-19.658-7.503-27.153,0L169.19,403.16
	c-7.503,7.499-7.503,19.659-0.004,27.157C172.935,434.067,177.848,435.944,182.764,435.944z M374.981,251.709l116.716,116.699
	v165.047H258.282V368.391L374.981,251.709z"/>
<circle class="st2" cx="702.5" cy="893.5" r="210.5"/>
<path class="st0" d="M1304.799,651.603H100.201c-10.606,0-19.201,8.599-19.201,19.205c0,10.605,8.595,19.205,19.201,19.205h569.047
	l66.524-0.004h569.026c10.606,0,19.201-8.6,19.201-19.205C1324,660.201,1315.405,651.603,1304.799,651.603z"/>
</svg>
