<svg xmlns="http://www.w3.org/2000/svg" xmlns:xlink="http://www.w3.org/1999/xlink"><symbol id="fair_price" viewBox="0 0 1395 1243"><path fill="#545454" d="M996.5 461.522c0-10.605-8.595-19.205-19.2-19.205-10.606.0-19.201 8.6-19.201 19.205.0 45.325 39.431 83.08 91.15 90.692v18.676c0 10.606 8.595 19.205 19.2 19.205 10.606.0 19.201-8.599 19.201-19.205v-18.676c51.703-7.612 91.116-45.367 91.116-90.692.0-45.32-39.413-83.08-91.116-90.692V263.965c30.348 6.302 52.715 27.077 52.715 51.732.0 10.605 8.595 19.205 19.2 19.205 10.606.0 19.201-8.6 19.201-19.205.0-45.333-39.413-83.101-91.116-90.718v-18.655c0-10.606-8.595-19.205-19.201-19.205-10.605.0-19.2 8.599-19.2 19.205v18.651c-51.72 7.612-91.15 45.38-91.15 90.718.0 45.32 39.431 83.08 91.15 90.691v106.841C1018.884 506.936 996.5 486.165 996.5 461.522zm143.865.0c0 24.643-22.367 45.409-52.715 51.707V409.815C1117.998 416.109 1140.365 436.876 1140.365 461.522zM996.5 315.697c0-24.659 22.384-45.435 52.749-51.732v103.439C1018.884 361.11 996.5 340.34 996.5 315.697z"/><path fill="#545454" d="M182.764 435.944c4.913.0 9.829-1.877 13.575-5.622l23.534-23.529v145.875c0 10.606 8.595 19.205 19.201 19.205H510.89c10.605.0 19.2-8.599 19.2-19.205V406.81l23.514 23.508c7.494 7.499 19.653 7.499 27.157.0 7.499-7.498 7.499-19.658-.005-27.157l-192.2-192.188c-7.495-7.499-19.658-7.503-27.153.0L169.19 403.16c-7.503 7.499-7.503 19.659-.004 27.157C172.935 434.067 177.848 435.944 182.764 435.944zM374.981 251.709l116.716 116.699v165.047H258.282V368.391L374.981 251.709z"/><circle style="fill:none;stroke:#545454;stroke-width:34;stroke-miterlimit:10" cx="702.5" cy="893.5" r="210.5"/><path d="M1304.799 651.603H100.201c-10.606.0-19.201 8.599-19.201 19.205.0 10.605 8.595 19.205 19.201 19.205h569.047l66.524-.004h569.026c10.606.0 19.201-8.6 19.201-19.205C1324 660.201 1315.405 651.603 1304.799 651.603z"/></symbol><symbol id="ins" viewBox="0 0 611.998 611.998"><path d="M612.087 327.252c-14.873-10.688-37.492-17.677-62.779-17.677-39.151.0-71.863 16.924-79.464 37.924h-3.262c-7.414-22-40.093-38.209-79.415-38.209-25.328.0-47.668 7.032-62.668 17.751v184.033c0 45.803-37.351 83.062-83.152 83.062-45.802.0-83.107-37.26-83.107-83.062.0-10.121 8.18-18.322 18.301-18.322s18.312 8.201 18.312 18.322c0 25.594 20.729 46.416 46.323 46.416 25.594.0 46.323-20.822 46.323-46.416V327.34c-15-10.725-37.355-17.765-62.695-17.765-39.153.0-71.733 16.924-79.332 37.924h-3.261c-7.415-22-40.183-38.209-79.504-38.209-25.271.0-47.922 6.896-62.794 17.572C11.863 196.376 134.499 92.737 287.499 85.013V71.316c0-10.122 8.379-18.323 18.5-18.323s18.5 8.202 18.5 18.323v13.699C477.499 92.756 600.3 196.63 612.087 327.252z"/><path fill="currentcolor" d="M44.264 52.993c0 0-26.561 52.432-26.561 67.101.0 14.668 11.892 26.562 26.561 26.562s26.561-11.892 26.561-26.562C70.825 105.424 44.264 52.993 44.264 52.993z"/><path fill="currentcolor" d="M119.461 17.861c0 0-19.925 39.333-19.925 50.338.0 11.005 8.921 19.925 19.925 19.925s19.925-8.921 19.925-19.925C139.386 57.195 119.461 17.861 119.461 17.861z"/></symbol><symbol id="time" viewBox="0 0 1395 1243"><path d="M1302.427 720.94c-4.144 20.716-6.215 41.433-10.358 62.149-33.146 174.021-176.092 310.75-350.111 339.754-232.027 37.289-449.552-111.87-495.129-341.825-47.648-238.242 111.87-468.197 350.112-509.63 234.098-39.362 455.767 113.942 497.2 345.968 4.143 18.646 6.215 37.29 8.286 55.936V720.94H1302.427zM546.269 696.08c0 178.163 145.017 325.252 325.251 325.252 176.092.0 323.181-145.017 323.181-321.108.0-180.235-145.017-327.323-323.181-327.323C693.356 370.828 546.269 515.845 546.269 696.08z"/><path fill="currentcolor" d="M100.86 453.695h354.255c-2.072 6.215-6.215 10.358-8.287 14.501-12.43 29.004-24.859 58.007-37.29 89.082-2.071 6.215-4.144 8.287-12.43 8.287H183.727c-4.143.0-10.358-2.072-12.43-4.144C148.508 524.132 125.72 488.913 100.86 453.695v0zM405.395 828.667c16.574 37.29 31.075 72.508 47.648 109.798H187.87c-8.287.0-12.43-2.071-16.573-8.286-22.789-33.147-43.505-66.294-68.365-101.512H405.395V828.667z"/><path fill="#545454" d="M925.383 188.521v35.219H813.514v-35.219c-14.502.0-29.004-2.071-33.146-14.501-8.287-26.932-8.287-55.935.0-82.867 4.143-10.358 14.501-14.501 26.932-14.501h124.3c18.645.0 31.075 12.43 31.075 31.075v41.434C962.674 176.092 954.387 186.45 925.383 188.521z"/><path fill="currentcolor" d="M388.822 752.015H254.163c-2.071.0-6.215-2.071-8.286-4.143-22.789-35.219-45.577-70.437-70.437-105.655h213.382V752.015z"/><path fill="#545454" d="M1213.345 366.686c-29.003-24.86-58.007-47.648-87.01-70.437 14.502-18.645 26.932-39.362 41.434-58.007 8.286-12.43 22.788-12.43 35.218-4.143 16.574 10.358 31.075 20.716 47.648 33.146 12.431 8.287 16.573 22.788 8.287 35.218C1246.492 323.18 1229.918 345.969 1213.345 366.686z"/><path fill="currentcolor" d="M869.27 451.15c-13.322.0-24.121 10.798-24.121 24.118v240.381l219.833 113.631c3.544 1.837 7.331 2.709 11.056 2.703 8.739.0 17.166-4.756 21.452-13.053 6.124-11.836 1.488-26.388-10.347-32.514L893.404 686.261V475.269C893.402 461.95 882.601 451.15 869.27 451.15z"/></symbol><symbol id="sander" viewBox="0 0 517.01 475.89"><g><path d="M164.22 259.2c2.05-.66 4.34-.99 6.2-2.07 14.74-8.58 14.71-8.63 24.58 5.99 3.53-1.78 7.37-3.44 10.93-5.57 6.66-3.99 13.39-4.77 19.3.62 3.7 3.37 6.26 8 10.02 12.97-38.06 20.47-75.37 40.54-113.79 61.2-2.19-4.84-4.87-9.25-6.19-14.03-1.55-5.61 1.09-10.76 5.29-14.26 3.86-3.22 8.67-5.29 13.63-8.2-1.24-3.07-2.29-5.62-3.3-8.18-2.15-5.41-.93-8.8 4.2-11.62 4.48-2.47 8.98-4.91 14.6-7.99-2.94-5.05-5.49-9.74-8.31-14.26-26.28-42.17-52.61-84.31-78.91-126.46-4.93-7.89-9.8-15.81-14.75-23.69-7.91-12.56-8.32-25.63-2.85-39.16.72-1.79 1.17-3.69 2.12-6.72-8.88-2.46-17.22-4.88-25.63-7-1.21-.31-2.84.68-4.18 1.29-6.39 2.9-12.88 1.07-15.9-4.57-2.79-5.21-.86-12.07 4.27-15.18 5.44-3.3 11.89-1.35 15.78 4.81.79 1.25 1.41 2.6 2.21 4.07 8.6 2.58 17.09 5.46 25.77 7.53 2.37.57 5.73-.71 7.92-2.19 3.81-2.57 7.06-5.95 11.24-9.6-2.15-3.65-4.35-7.38-6.49-11-7.32.06-14.85 6.62-20.76-1.68C44.51 9.51 75.43-5.1 88.73 1.73c1.63 5.43-2.5 8.48-5.67 11.52-2.6 2.49-6.04 4.4-3.9 8.5 2.27 4.35 3.6 9.55 10.77 9.13 13.06-.76 24.9 3.11 34.96 11.8 1.1.95 2.36 1.73 2.74 2.01 7.37-2.06 13.79-5.04 20.38-5.46 14.71-.93 26.36 6.97 35.78 16.96C195.15 68.22 206 81 215.35 94.63c12.47 18.18 23.8 37.21 34.59 56.45 5.9 10.54 9.09 22.26 7.08 34.92-1.31 8.3-5.15 15.16-10.47 21.05-8.67 9.61-19.3 16.93-31.51 21.22-19.42 6.81-36.17.37-49.25-13.87-12.31-13.4-23.53-27.97-33.82-43-9.26-13.53-17-28.16-24.68-42.69-6.07-11.49-10.41-23.82-11.07-36.99-.61-12.11 2.62-23 11.86-31.56 1.71-1.58 3.12-3.48 5.03-5.65-11.33-7.75-22.07-9.06-33.7-3.58-14.71 6.93-23.84 21.74-20.46 36.17 1.49 6.39 5.57 12.32 9.11 18.06 21.38 34.61 42.91 69.13 64.46 103.64C142.86 225.42 153.35 241.95 164.22 259.2z"/><path d="M144.47 423.47c-1.22-2.79-1.86-4.92-2.99-6.75-8.05-12.99-15.77-26.21-24.45-38.77-8.88-12.84-3.47-26.09 8.18-32.04 27.17-13.86 53.75-28.88 80.58-43.4 16.04-8.68 32.11-17.3 48.19-25.9.51-.27 1.25-.1 2.22-.16-1.75 34.75 11.55 61.42 43.35 76.21 31.38 14.59 60.37 8.14 87.52-15.68-5.14 27.38-9.98 53.14-14.9 79.33-19.81-29.41-46.08-40.23-77.33-21.21-29.2 17.77-30.65 45.22-16.96 75.16-2.5.38-4.55.99-6.58.95-19.79-.44-39.63-.33-59.35-1.77-10.64-.77-21.21-3.74-31.57-6.61-11.32-3.14-17.93-12.03-23.52-21.74-1.32-2.29-2.93-4.41-4.51-6.75-8.15.0-16.22.0-23.6.0-4.91 4.08-5.16 8.78-3.49 13.3 1.74 4.72 6.4 4.56 10.62 4.77 4.78.24 9.56.66 13.97.97 1.51 5.89-.63 7.9-4.62 8.08-4.65.21-9.35.33-13.98-.07-9.02-.76-16.47-9.29-16.46-18.37.02-9.41 7-17.3 16.3-18.33C135.02 424.26 138.96 423.97 144.47 423.47z"/><path d="M419.17 473.99c-8.48-2.26-20.43-5.57-28.44-16.28-7.39-9.87-9.84-23.26-6.45-38.31 3.2-14.24 31.12-164.6 34.62-178.75 2.41-9.74 8.64-16.96 18.85-19.38 9.32-2.2 19.92 3.14 24.1 12.76 3.55 8.17 46.07 160.32 52.46 179.81 4.67 14.28 3.03 27.48-2.99 37.78-7.35 12.58-20.79 17.5-27.68 20.06C473.36 475.51 427.21 476.13 419.17 473.99z"/><path d="M299.8 230.58c-7.06-1.85-12.5-2.8-17.59-4.71-8.35-3.13-12.78-12.01-11.22-20.88 1.43-8.17 2.58-16.39 4.03-24.56 2.04-11.56 11.26-18.88 23.36-16.09 21.81 5.02 43.99 8.43 66 12.61 11.09 2.1 22.13 4.42 33.2 6.62 9.49 1.88 16.3 9.78 15.31 19.1-1.06 10.05-2.68 20.08-4.77 29.96-1.99 9.41-12.42 18.07-22.55 13.78-1.13-.48-2.5-.38-5.1-.73.86 2.75 1.08 4.85 2.08 6.46 22.69 36.31 2.35 81.38-37.49 90.97-25.6 6.16-51.04-4.49-65.13-28.63-16.02-27.45-9.13-59.07 16.11-78.83C297.51 234.5 298.37 232.55 299.8 230.58zM309.52 255.43c-.18 5.28 12.56 19.26 17.29 19.42 17.02 4.13 28.46-10.13 26.82-19.21C343.33 245.78 322.28 244.8 309.52 255.43zM301.62 263.77c-7.25 11.01-8.27 22.93-3.11 35.17 4.3 10.22 5.64 10.37 13.41 2.61 3.36-3.35 7.43-6.71 9.09-10.89 6.61-8.61-7.73-26.43-18.05-27.25C302.66 263.36 302.33 263.57 301.62 263.77zM360.76 262.7c-6.75 2.2-11 7.85-14.49 12.91-2.72 3.94-2.39 10.23-2.7 15.53-.29 4.94 11.6 15.81 16.44 15.61C369.96 296.34 370.69 274.13 360.76 262.7zM311.47 314.47c12.8 8.43 29.27 8.28 40.22-.2.24-4.04-11.3-18.03-15.56-18.33-3.69-.26-8.34-1.06-10.95.74-5.4 3.7-9.72 8.96-14.28 13.38C311.15 312.05 311.32 313.35 311.47 314.47z"/></g><circle cx="322.86" cy="433.3" r="13.17"/><circle style="fill:none;stroke:#545454;stroke-width:25;stroke-miterlimit:10" cx="322.86" cy="433.3" r="30.09"/></symbol><symbol id="team" viewBox="0 0 1395 1243"><ellipse cx="705.787" cy="1075.195" rx="536.562" ry="120.157"/><g><path fill="#545454" d="M1001.348 309.64l-39.476 54.224-39.475-54.224c-5.856-8.025-16.268-11.062-25.377-7.375-1.519.651-35.138 14.315-66.805 35.571-31.884-21.256-65.286-34.92-66.804-35.571-9.109-3.687-19.521-.651-25.377 7.375l-39.475 54.224-39.477-54.224c-5.856-8.025-16.267-11.062-25.377-7.375-1.518.651-35.137 14.315-66.804 35.571-31.884-21.256-65.503-34.92-66.804-35.571-9.11-3.687-19.521-.651-25.377 7.375l-39.475 54.224-39.475-54.224c-5.856-8.025-16.267-11.062-25.377-7.375-1.735.651-42.946 17.352-77.216 42.729-9.76 7.158-14.314 11.712-22.339 19.738-29.933 29.931-13.231 153.346-5.641 181.759 10.411 38.173 38.175 89.361 42.513 97.169 4.988 11.713 8.241 24.076 9.543 36.656l39.041 383.907c2.386 23.208 21.69 40.776 45.115 40.776h67.671c23.425.0 42.729-17.568 45.115-40.776l39.042-383.907c1.301-12.58 4.554-24.943 9.542-36.656.651-1.301 2.169-3.904 4.122-7.591 1.952 3.687 3.471 6.29 4.121 7.591 4.989 11.713 8.243 24.076 9.544 36.656l39.041 383.907c2.386 23.208 21.69 40.776 45.115 40.776h67.672c23.425.0 42.729-17.568 45.114-40.776l39.042-383.907c1.301-12.58 4.554-24.943 9.543-36.656.65-1.301 2.169-4.12 4.121-7.591 1.952 3.687 3.471 6.29 4.121 7.591 4.988 11.713 8.242 24.076 9.543 36.656l39.042 383.907c2.386 23.208 21.689 40.776 45.115 40.776h67.671c23.425.0 42.729-17.568 45.114-40.776l39.042-383.907c1.301-12.58 4.555-24.943 9.543-36.656 4.338-7.809 32.102-58.996 42.512-97.169 7.809-28.414 24.293-152.044-5.639-181.759-8.025-8.026-12.58-12.58-22.34-19.738-34.487-25.377-75.481-42.078-77.216-42.729C1017.615 298.794 1007.204 301.615 1001.348 309.64zM524.392 623.923c-.217.65-.651 1.084-.867 1.735-7.158 16.051-11.497 32.968-13.231 50.536l-39.042 383.907c-.216 1.302-1.084 2.17-2.385 2.17h-67.672c-1.301.0-2.385-.868-2.385-2.17l-39.042-383.907c-1.735-17.351-6.29-34.485-13.23-50.536-.216-.651-.65-1.302-.868-1.735-.216-.434-29.498-52.923-39.041-88.494-10.628-39.259-13.664-125.367-4.988-140.767 6.941-6.94 9.977-9.76 16.917-14.965 18.003-13.23 39.042-24.076 52.707-30.799l46.633 64.201c4.121 5.639 10.411 8.893 17.352 8.893 6.94.0 13.23-3.254 17.352-8.893l46.632-64.201c8.893 4.337 21.039 10.411 33.185 17.785-27.546 32.751-11.495 152.045-3.904 180.024 3.47 12.798 8.892 27.112 14.749 40.777C533.501 607.656 524.608 623.705 524.392 623.923zM827.179 535.429c-9.542 35.354-38.823 87.842-39.041 88.494-.216.65-.65 1.084-.867 1.735-7.157 16.051-11.495 32.968-13.23 50.536l-39.042 383.907c-.217 1.302-1.084 2.17-2.386 2.17h-67.671c-1.301.0-2.386-.868-2.386-2.17l-39.042-383.907c-1.735-17.351-6.29-34.485-13.23-50.536-.217-.651-.651-1.302-.868-1.735-.217-.434-29.498-52.923-39.041-88.494-10.628-39.259-13.665-125.367-4.989-140.767 6.941-6.94 9.978-9.76 16.918-14.965 18.002-13.23 39.042-24.076 52.706-30.799l46.633 64.201c4.121 5.639 10.411 8.893 17.353 8.893 6.94.0 13.23-3.254 17.351-8.893l46.634-64.201c13.664 6.506 34.486 17.351 52.705 30.799 6.941 5.206 9.978 8.025 16.918 14.965C840.844 410.063 837.808 496.17 827.179 535.429zM1095.481 394.663c8.675 15.4 5.855 101.508-4.989 140.767-9.544 35.354-38.824 87.842-39.041 88.494-.218.65-.651 1.084-.868 1.735-7.158 16.05-11.495 32.968-13.23 50.536l-39.041 383.907c-.218 1.302-1.085 2.17-2.386 2.17h-67.673c-1.302.0-2.386-.868-2.386-2.17l-39.041-383.907c-1.735-17.351-6.29-34.486-13.231-50.536-.216-.651-.65-1.302-.867-1.735.0-.218-8.893-16.051-18.652-36.438 5.855-13.665 11.278-27.979 14.749-40.777 7.591-27.762 23.642-147.056-3.904-180.024 12.363-7.375 24.292-13.448 33.185-17.786l46.633 64.202c4.121 5.639 10.411 8.893 17.353 8.893 6.939.0 13.23-3.254 17.351-8.893l46.634-64.202c13.664 6.507 34.486 17.352 52.705 30.8C1085.721 384.903 1088.541 387.722 1095.481 394.663z"/><path fill="currentcolor" d="M893.768 246.956c16.267 18.437 39.041 28.414 66.153 29.064.434.0 1.084.0 1.518.0.218.0.867.0 1.085.0.434.0.867.0 1.302.0 27.111-.651 49.886-10.628 66.369-29.064 34.704-39.042 29.716-104.11 28.848-112.353-3.471-71.793-53.573-97.387-95.217-97.387-.651.0-1.302.0-1.953.0-.434.0-1.084.0-1.951.0-41.645.0-91.748 25.594-95.219 97.387C864.053 142.629 859.063 207.915 893.768 246.956zM907.648 138.508c0-.434.0-.868.0-1.301 2.386-49.669 33.836-57.044 52.272-57.044h1.084c.651.0 1.085.0 1.735.0h1.085c18.652.0 50.103 7.375 52.271 57.044.0.434.0.868.0 1.301 1.519 14.749 1.302 58.128-18.437 80.035-8.458 9.543-20.171 14.315-35.57 14.532-.218.0-.434.0-.651.0-15.399-.217-27.112-4.989-35.787-14.532C906.347 196.419 906.13 153.257 907.648 138.508z"/><path fill="currentcolor" d="M432.861 275.803c.433.0.868.0 1.301.0.217.0.868.0 1.085.0.434.0 1.085.0 1.518.0 26.896-.65 49.67-10.628 66.154-29.064 34.703-39.042 29.715-104.11 28.848-112.353C528.296 62.594 478.192 37 436.548 37c-.651.0-1.301.0-1.952.0-.435.0-1.085.0-1.953.0-41.644.0-91.747 25.594-95.217 97.387-.868 8.025-5.856 73.311 28.848 112.353C382.975 265.393 405.966 275.37 432.861 275.803zM380.589 138.508c0-.434.0-.868.0-1.301 2.169-49.669 33.836-57.044 52.272-57.044h1.084c.651.0 1.084.0 1.735.0h1.084c18.654.0 50.104 7.375 52.273 57.044.0.434.0.868.0 1.301s4.988 53.574-18.22 79.818c-8.459 9.543-20.171 14.315-35.788 14.532-.217.0-.433.0-.65.0-15.399-.217-27.112-4.989-35.571-14.532C379.288 196.419 378.854 153.257 380.589 138.508z"/><path fill="currentcolor" d="M696.174 275.803c.434.0 1.085.0 1.519.0.217.0.868.0 1.084.0.435.0.868.0 1.302.0 27.111-.65 49.887-10.628 66.371-29.064 34.703-39.042 29.715-104.11 28.847-112.353C791.825 62.594 741.722 37 700.078 37c-.65.0-1.302.0-1.952.0-.434.0-1.085.0-1.952.0-41.644.0-91.747 25.594-95.217 97.387-.868 8.025-5.857 73.311 28.847 112.353C646.505 265.175 669.279 275.37 696.174 275.803zM644.118 138.508c0-.434.0-.868.0-1.301 2.387-49.669 33.837-57.044 52.272-57.044h1.084c.651.0 1.086.0 1.736.0h1.084c18.652.0 50.104 7.375 52.271 57.044.0.434.0.868.0 1.301s4.99 53.574-18.219 79.818c-8.459 9.543-20.172 14.315-35.787 14.532-.218.0-.435.0-.651.0-15.4-.217-27.112-4.989-35.789-14.532C642.817 196.419 642.601 153.257 644.118 138.508z"/></g></symbol><symbol id="tech" viewBox="0 0 1037.8 1116.5"><path transform="translate(-169.22 -66.52)" d="M1207 1183V1058.62q0-46.6-31-80.79c-16.57-18.65-35.19-35.22-55.9-47.65C1066.22 897 1010.3 868 952.3 837c-6.22-2.07-18.64 2.07-22.78 6.22-20.72 20.71-37.29 45.57-58 62.15-31.08 24.86-64.22 53.86-99.44 62.15C670.57 994.4 575.27 979.9 498.62 899.1l-29-29c-37.29-41.43-37.29-43.51-87-14.5-51.79 29-105.66 60.08-155.38 93.22-26.93 18.65-51.79 45.62-55.93 82.91-2.08 29-2.08 60.27-2.08 151.27z"/><path transform="translate(-169.22 -66.52)" d="m973 339.75v45.58c0 18.64-6.2 35.22 12.45 49.72 4.14 4.14 4.15 14.5 4.15 22.79.0 58-10.36 116-29 172-2.07 4.14-2.07 10.35-6.22 12.43-26.93 12.43-26.93 39.36-37.29 62.15-29 64.22-70.43 118.08-122.22 165.73-58 53.86-184.38 53.86-244.46 2.07-62.15-53.86-107.73-116-134.66-192.66-2.07-6.22-2.07-12.43-6.21-14.5-45.58-33.15-39.36-84.94-51.79-130.52-6.22-20.72-6.22-43.51-6.22-66.29.0-12.43 8.29-22.79 12.43-35.22 2.07-6.22 4.14-14.5 4.14-22.79 2.08-51.79-2.07-101.51 4.15-153.3 6.21-66.35 47.65-111.94 103.58-140.94 124.3-64.21 252.74-66.28 379.17-4.13 74.53 37.29 111.8 101.51 111.8 186.45 4.14 12.43 4.2 26.93 6.2 41.43zm-20.69 147.09c-2.07.0-4.14-2.07-6.21-2.07-2.07 2.07-6.22 2.07-6.22 4.14-31.07 47.65-72.5 51.8-124.3 35.22-95.29-33.13-190.58-33.13-285.89 2.07-51.79 18.65-93.22 10.36-126.37-35.2.0-2.08-4.14-2.08-12.43-4.15 10.36 45.58 20.72 87 29 126.37.0 4.15 6.22 6.22 8.29 10.36 8.29 10.36 18.65 18.65 22.79 31.08 26.93 76.65 66.29 145 134.66 192.66 47.65 33.15 128.44 31.08 176.09-2.07 55.93-41.43 91.15-97.37 118.08-159.52 10.36-24.86 10.36-58 41.44-72.51 2.07.0 2.07-4.14 2.07-6.21 12.43-39.36 20.72-80.8 29-120.16zm-501.31-113.94c74.58-6.22 147.09-20.72 221.67-20.72 72.51.0 147.09 12.43 219.6 18.65.0-26.93 4.14-41.44.0-66.3-6.22-41.43-14.5-82.86-26.94-122.22-8.28-29-29-47.65-60.07-55.94-93.23-29-186.45-29-277.61 8.29-16.57 6.21-31.07 20.71-39.36 35.22-41.46 64.22-35.29 128.44-37.29 203.02zm495.1 45.58c-186.45-45.58-366.69-43.51-549 4.14 4.14 10.36 8.28 18.64 12.43 26.93 29 55.94 49.72 64.22 109.8 43.51 105.65-35.22 211.31-35.22 317 2.07 41.44 14.5 66.29 6.21 89.08-31.08 6.19-14.5 12.4-29 20.69-45.57z"/><g fill="currentcolor"><path transform="translate(-169.22 -66.52)" d="m386.75 853.53c4.14-2.07 6.21-4.15 10.36-6.22-4.15 4.15-8.29 4.15-10.36 6.22-4.14 2.07-10.36 6.21-14.5 8.28a118.73 118.73.0 0 0 14.5-8.28zM995.82 866l-12.43-16.58c-10.36-4.14-18.65-10.35-29-14.5-6.22-2.07-18.65 2.07-22.79 6.22-20.72 20.71-37.29 45.57-58 62.15-31.07 24.86-64.22 53.86-99.44 62.15-24.86 6.21-47.65 10.35-70.44 12.43l47.65 105.65 244.45-217.52z"/><path transform="translate(-169.22 -66.52)" d="m382.61 866 244.45 215.45 47.65-103.58c-64.22-2.08-124.3-26.94-176.09-80.8l-29-29c-35.22-39.36-37.29-41.44-76.66-20.72l-10.35 18.65zm308.67 112z"/></g><g><circle cx="224.73" cy="1001.9" r="69.23" fill="#fefdfd"/><path transform="translate(-169.22 -66.52)" d="M441 1053h-5.49c-18.19-11-36.41-23.2-54.84-35 1 .11 1.81.21 2.61.34 3.58.55 7.17 1.13 10.76 1.7 3.08.49 6.16 1 9.25 1.49s6 .89 9 1.35c3.18.49 6.36 1 9.54 1.52s6.19.91 9.28 1.39 6 1 9.06 1.47a7.68 7.68.0 0 0 .84.0z" fill="#454449"/><path transform="translate(-169.22 -66.52)" d="M375 1086v-10.58l41-.31V1086z" fill="currentcolor"/><path transform="translate(-169.22 -66.52)" d="m376.38 1018.2c1.38.89 2.7 1.65 4.11 2.56-7.92 11.78-15.81 24.22-23.73 35.22h-10c9.88-12 19.74-25.14 29.62-37.78z" fill="#454449"/><path transform="translate(-169.22 -66.52)" d="M375 1104.88v-5.07c1-.2 40 .2 41 .43v5.28z" fill="currentcolor"/><path transform="translate(-169.22 -66.52)" d="m416 1066.1v5.42l-41 .43v-5.27z" fill="currentcolor"/><path transform="translate(-169.22 -66.52)" d="M416 1090v5.71l-41-.33V1090z" fill="currentcolor"/><path transform="translate(-169.22 -66.52)" d="M375 1062.52V1058c14-.29 27-.58 40.56-.87.0 1.37.08 2.6.07 3.84.0.25-.13.49-.15.84z" fill="currentcolor"/><path transform="translate(-169.22 -66.52)" d="M426 1066v-4h-6v-5c3-.08 7-.16 11-.25V1071H420v-5z" fill="currentcolor"/><path transform="translate(-169.22 -66.52)" d="M361 1072v-13.7l10-.24v4.48c-1 .06-3 .12-4 .18V1067h4v5z" fill="currentcolor"/><path transform="translate(-169.22 -66.52)" d="m420 1075h11v11h-11z" fill="currentcolor"/><path transform="translate(-169.22 -66.52)" d="m371 1076v10h-10v-10z" fill="currentcolor"/><path transform="translate(-169.22 -66.52)" d="m355 1058h1v48h-1z" fill="#454449"/><path transform="translate(-169.22 -66.52)" d="m420 1096v-6h11v6z" fill="currentcolor"/><path transform="translate(-169.22 -66.52)" d="M420 11e2h11v5.78c-4-.08-8-.14-11-.21z" fill="currentcolor"/><path transform="translate(-169.22 -66.52)" d="m361 1104.6v-4.64h10v4.82c-3-.06-6-.12-10-.18z" fill="currentcolor"/><path transform="translate(-169.22 -66.52)" d="m361 1095v-5h10v5z" fill="currentcolor"/></g><path transform="translate(-169.22 -66.52)" d="m524 1085.1z" fill="#fefdfd"/><g style="isolation:isolate"><path transform="translate(-169.22 -66.52)" d="m594.49 305.85 46.41-146.63h47.58l46.09 146.63h-41l-8.48-31.8h-43.76l-8.6 31.8zm68-113.12-14.29 53.71h30.19l-14.08-53.71z" fill="currentcolor"/></g></symbol></svg>