<?xml version="1.0" encoding="utf-8"?>
<!DOCTYPE svg PUBLIC "-//W3C//DTD SVG 1.1//EN" "http://www.w3.org/Graphics/SVG/1.1/DTD/svg11.dtd">
<svg version="1.1" id="Capa_1" xmlns="http://www.w3.org/2000/svg" xmlns:xlink="http://www.w3.org/1999/xlink" x="0px" y="0px"
	 viewBox="0 0 611.998 611.998" xml:space="preserve">
<path style="fill:#E0E5E9;" d="M612.087,327.252c-14.873-10.688-37.492-17.677-62.779-17.677c-39.151,0-71.863,16.924-79.464,37.924
	h-3.262c-7.414-22-40.093-38.209-79.415-38.209c-25.328,0-47.668,7.032-62.668,17.751v184.033c0,45.803-37.351,83.062-83.152,83.062
	c-45.802,0-83.107-37.26-83.107-83.062c0-10.121,8.18-18.322,18.301-18.322s18.312,8.201,18.312,18.322
	c0,25.594,20.729,46.416,46.323,46.416c25.594,0,46.323-20.822,46.323-46.416V327.34c-15-10.725-37.355-17.765-62.695-17.765
	c-39.153,0-71.733,16.924-79.332,37.924h-3.261c-7.415-22-40.183-38.209-79.504-38.209c-25.271,0-47.922,6.896-62.794,17.572
	C11.863,196.376,134.499,92.737,287.499,85.013V71.316c0-10.122,8.379-18.323,18.5-18.323s18.5,8.202,18.5,18.323v13.699
	C477.499,92.756,600.3,196.63,612.087,327.252z"/>
<path style="fill:#AD2121;" d="M44.264,52.993c0,0-26.561,52.432-26.561,67.101c0,14.668,11.892,26.562,26.561,26.562
	s26.561-11.892,26.561-26.562C70.825,105.424,44.264,52.993,44.264,52.993z"/>
<path style="fill:#AD2121;" d="M119.461,17.861c0,0-19.925,39.333-19.925,50.338c0,11.005,8.921,19.925,19.925,19.925
	s19.925-8.921,19.925-19.925C139.386,57.195,119.461,17.861,119.461,17.861z"/>
</svg>
