<?xml version="1.0" encoding="utf-8"?>
<!-- Generator: Adobe Illustrator 16.0.0, SVG Export Plug-In . SVG Version: 6.00 Build 0)  -->
<!DOCTYPE svg PUBLIC "-//W3C//DTD SVG 1.1//EN" "http://www.w3.org/Graphics/SVG/1.1/DTD/svg11.dtd">
<svg version="1.1" id="Layer_1" xmlns="http://www.w3.org/2000/svg" xmlns:xlink="http://www.w3.org/1999/xlink" x="0px" y="0px" viewBox="0 0 1395 1243" xml:space="preserve">
<style type="text/css">
<![CDATA[
	.st0{fill:#AD2121;}
	.st1{fill:#E0E5E9;}
	.st2{fill:#545454;}
]]>
</style>
<path class="st1" d="M1302.427,720.94c-4.144,20.716-6.215,41.433-10.358,62.149c-33.146,174.021-176.092,310.75-350.111,339.754
	c-232.027,37.289-449.552-111.87-495.129-341.825c-47.648-238.242,111.87-468.197,350.112-509.63
	c234.098-39.362,455.767,113.942,497.2,345.968c4.143,18.646,6.215,37.29,8.286,55.936V720.94L1302.427,720.94z M546.269,696.08
	c0,178.163,145.017,325.252,325.251,325.252c176.092,0,323.181-145.017,323.181-321.108c0-180.235-145.017-327.323-323.181-327.323
	C693.356,370.828,546.269,515.845,546.269,696.08z"/>
<path class="st0" d="M100.86,453.695h354.255c-2.072,6.215-6.215,10.358-8.287,14.501c-12.43,29.004-24.859,58.007-37.29,89.082
	c-2.071,6.215-4.144,8.287-12.43,8.287H183.727c-4.143,0-10.358-2.072-12.43-4.144C148.508,524.132,125.72,488.913,100.86,453.695
	L100.86,453.695z M405.395,828.667c16.574,37.29,31.075,72.508,47.648,109.798H187.87c-8.287,0-12.43-2.071-16.573-8.286
	c-22.789-33.147-43.505-66.294-68.365-101.512H405.395L405.395,828.667z"/>
<path class="st2" d="M925.383,188.521v35.219H813.514v-35.219c-14.502,0-29.004-2.071-33.146-14.501
	c-8.287-26.932-8.287-55.935,0-82.867c4.143-10.358,14.501-14.501,26.932-14.501h124.3c18.645,0,31.075,12.43,31.075,31.075v41.434
	C962.674,176.092,954.387,186.45,925.383,188.521z"/>
<path class="st0" d="M388.822,752.015H254.163c-2.071,0-6.215-2.071-8.286-4.143c-22.789-35.219-45.577-70.437-70.437-105.655
	h213.382V752.015z"/>
<path class="st2" d="M1213.345,366.686c-29.003-24.86-58.007-47.648-87.01-70.437c14.502-18.645,26.932-39.362,41.434-58.007
	c8.286-12.43,22.788-12.43,35.218-4.143c16.574,10.358,31.075,20.716,47.648,33.146c12.431,8.287,16.573,22.788,8.287,35.218
	C1246.492,323.18,1229.918,345.969,1213.345,366.686z"/>
<path class="st0" d="M869.27,451.15c-13.322,0-24.121,10.798-24.121,24.118v240.381l219.833,113.631
	c3.544,1.837,7.331,2.709,11.056,2.703c8.739,0,17.166-4.756,21.452-13.053c6.124-11.836,1.488-26.388-10.347-32.514
	L893.404,686.261V475.269C893.402,461.95,882.601,451.15,869.27,451.15z"/>
</svg>
