<?xml version="1.0" encoding="utf-8"?>
<!-- Generator: Adobe Illustrator 16.0.0, SVG Export Plug-In . SVG Version: 6.00 Build 0)  -->
<!DOCTYPE svg PUBLIC "-//W3C//DTD SVG 1.1//EN" "http://www.w3.org/Graphics/SVG/1.1/DTD/svg11.dtd">
<svg version="1.1" id="Layer_1" xmlns="http://www.w3.org/2000/svg" xmlns:xlink="http://www.w3.org/1999/xlink" x="0px" y="0px"
viewBox="97.5 21.5 1200 1200" enable-background="new 97.5 21.5 1200 1200" xml:space="preserve">
<g>
	<path fill="#E0E5E9" d="M586.518,545.462l76.972-86.596l-80.822-78.897c-65.429-65.428-121.234-134.703-163.568-217.45
		l-1.925,1.925c0,42.336-21.167,84.669-59.656,109.687c-21.168,15.394-46.183,23.092-73.125,23.092l-1.924,1.925
		c82.747,42.336,152.022,98.143,217.45,163.567L586.518,545.462z"/>
	<path fill="#E0E5E9" d="M909.806,707.107L771.253,568.554l-76.973,86.596l134.703,134.703
		c51.956,51.958,115.461,144.325,163.567,217.45l1.925-1.925c0-42.336,21.168-84.67,59.656-111.611
		c21.166-15.395,48.108-21.168,73.125-23.093l1.925-1.925C1054.131,822.567,961.764,759.065,909.806,707.107"/>
</g>
<g>
	<path fill="#C3C7CB" d="M269.002,27.815l59.656,103.915l-3.85,9.622c-15.397,32.713-50.033,51.957-84.672,50.034h-9.623
		l-59.652-101.99c-38.487,57.73-26.941,140.475,34.639,184.737c44.258,32.713,105.839,32.713,152.022,1.926
		c73.125-50.034,78.898-148.173,21.167-207.829C347.9,37.438,309.412,23.968,269.002,27.815"/>
	<path fill="#C3C7CB" d="M1140.726,1140.083l-59.655-103.914l3.85-9.623c15.394-32.713,50.033-51.956,84.669-50.032h9.622
		l57.731,101.989c38.487-57.731,26.942-140.476-34.639-184.736c-44.259-32.714-105.839-32.714-152.022-1.926
		c-73.126,50.033-78.898,148.174-21.167,207.828C1061.829,1130.461,1102.238,1143.931,1140.726,1140.083"/>
</g>
<path fill="#7F7C79" d="M759.708,349.181c44.259-44.26,50.032-113.537,3.849-159.72c-90.443-90.445-142.399-80.823-244.39-80.823
	c153.946-67.351,265.557-82.747,377.169-30.789c48.108,21.167,67.353,40.411,105.838,78.897l69.276,69.275
	c17.319,17.319,28.863,40.411,32.714,63.503c5.771,36.562-3.851,44.258,21.166,71.201c7.697,7.697,19.244,7.697,26.941,0
	c7.698-7.697,19.245-7.697,26.942,0l67.353,67.352c15.395,15.395,15.395,38.486,0,53.881l-136.627,136.628
	c-15.395,15.393-38.486,15.393-53.882,0l-63.502-65.43c-7.698-7.696-7.698-19.244,0-26.941c7.696-7.698,7.696-21.167,0-28.864
	c-26.942-26.941-34.64-17.319-71.2-21.167c-25.017-3.849-46.184-15.394-63.502-32.713L759.708,349.181"/>
<path fill="#545454" d="M760.708,349.181l-596.545,667.744c-23.092,23.093-25.017,61.579-1.925,82.749l26.941,26.94
	c23.092,23.092,59.656,21.167,82.747-1.926l598.469-669.667L760.708,349.181z"/>
<g>
	<path fill="#AD2121" d="M230.514,951.497l40.411,40.411c3.851,3.85,9.623,5.773,13.47,5.773c5.772,0,9.623-1.926,13.47-5.773
		c7.697-7.696,7.697-19.244,0-26.941l-40.41-40.409c-1.924-1.926-3.85-3.85-5.772-3.85l-23.092,26.941
		C228.592,947.649,228.592,949.574,230.514,951.497"/>
	<path fill="#AD2121" d="M176.633,1005.381l40.411,40.41c3.85,3.85,9.623,5.772,13.47,5.772c5.772,0,9.623-1.925,13.47-5.772
		c7.697-7.696,7.697-19.245,0-26.941l-40.412-40.412l-1.924-1.925L176.633,1005.381
		C174.708,1005.381,174.708,1005.381,176.633,1005.381"/>
</g>
<g>
	<path fill="#C3C7CB" d="M896.336,801.399l-28.864,28.863c7.698,9.622,15.395,19.244,23.092,30.79c0,0,1.926,0,1.926-1.926
		l30.789-30.789c7.697-7.697,7.697-19.244,0-26.942C915.578,793.701,904.034,793.701,896.336,801.399"/>
	<path fill="#C3C7CB" d="M950.217,857.205l-36.562,36.563c7.698,9.622,15.394,21.166,23.092,30.788l1.925-1.926l38.486-38.485
		c7.697-7.697,7.697-19.244,0-26.942C969.461,849.505,957.914,849.507,950.217,857.205"/>
</g>
</svg>
