<?xml version="1.0" encoding="utf-8"?>
<!-- Generator: Adobe Illustrator 16.0.0, SVG Export Plug-In . SVG Version: 6.00 Build 0)  -->
<!DOCTYPE svg PUBLIC "-//W3C//DTD SVG 1.1//EN" "http://www.w3.org/Graphics/SVG/1.1/DTD/svg11.dtd">
<svg version="1.1" id="Layer_1" xmlns="http://www.w3.org/2000/svg" xmlns:xlink="http://www.w3.org/1999/xlink" x="0px" y="0px"
	 width="106.86px" height="106.86px" viewBox="0 0 106.86 106.86" enable-background="new 0 0 106.86 106.86" xml:space="preserve">
<path fill="none" stroke="#000000" stroke-width="0.296" d="M28.12,34.41l44.029,44.029 M34.41,28.12L78.44,72.149 M8.88,53.28
	l44.4-44.4l44.4,44.4L53.28,97.68L8.88,53.28z M8.88,53.28h88.8 M53.28,8.88v88.8 M97.68,97.68V0 M8.88,106.56V8.88 M8.88,97.68
	h97.68 M0,8.88h97.68"/>
<polyline fill="#FFFFFF" points="52.793,59.996 60.135,52.654 53.86,46.379 46.518,53.721 52.793,59.996 "/>
<path fill="none" stroke="#000000" stroke-width="0.296" d="M40.7,8.88L8.88,40.7 M97.68,65.86L65.86,97.68 M8.88,65.86L40.7,97.68
	 M65.86,8.88L97.68,40.7 M78.44,34.41L34.41,78.439 M72.149,28.12L28.12,72.149"/>
<rect x="0.38" y="0.38" fill-rule="evenodd" clip-rule="evenodd" fill="none" width="106.23" height="106.23"/>
<rect x="0.38" y="0.38" fill="none" stroke="#010101" stroke-width="0.5" stroke-miterlimit="10" width="106.23" height="106.23"/>
</svg>
