<?xml version="1.0" encoding="utf-8"?>
<!-- Generator: Adobe Illustrator 16.0.0, SVG Export Plug-In . SVG Version: 6.00 Build 0)  -->
<!DOCTYPE svg PUBLIC "-//W3C//DTD SVG 1.1//EN" "http://www.w3.org/Graphics/SVG/1.1/DTD/svg11.dtd">
<svg version="1.1" id="Layer_1" xmlns="http://www.w3.org/2000/svg" xmlns:xlink="http://www.w3.org/1999/xlink" x="0px" y="0px"
	 width="107.421px" height="106.936px" viewBox="0 0 107.421 106.936" enable-background="new 0 0 107.421 106.936"
	 xml:space="preserve">
<path fill="none" stroke="#000000" stroke-width="0.296" d="M106.757,77.557L82.553,53.478 M87.271,0.135L58.232,29.157
	 M53.453,24.254L77.558,0.135 M29.21,9.832l43.622,43.514 M77.773,48.574L34.014,4.938 M29.203,58.233l43.553,43.659 M53.399,34.005
	L9.832,77.557 M53.407,72.771l43.637-43.545 M101.9,34.036L58.248,77.658 M4.938,72.771l43.605-43.622 M34.006,53.369l43.552,43.613
	 M82.375,101.831l4.896,4.864 M101.9,72.717l4.856-4.826 M67.906,106.68l29.015-29.075 M34.006,101.885l4.841,4.811 M5.015,82.375
	L0.15,87.271 M106.757,19.514l-4.864,4.895 M67.892,0.135l4.895,4.864 M4.96,33.99l-4.855,4.825 M43.718,92.142l14.538,14.554
	 M48.527,87.271l19.379,19.409 M48.527,106.695l-9.666-9.743 M48.527,0.135l14.554,14.523 M58.256,0.135l9.636,9.697 M58.179,19.468
	L38.847,0.104 M92.188,43.718l14.569,14.507 M96.997,38.846l9.76,9.713 M106.664,67.891L87.331,48.528 M0.15,48.559L14.673,63.05
	 M0.104,38.815l19.378,19.409 M9.771,67.86l-9.62-9.636 M0.165,68.03L29.21,96.982 M0.182,97.067l9.759,9.696 M19.667,106.764
	L0.15,87.271 M67.906,38.893l19.364-19.379 M63.035,34.082l19.409-19.378 M92.08,24.416L72.717,43.749 M19.482,87.271l19.364-19.38
	 M14.611,82.46l19.409-19.379 M43.656,72.794L24.292,92.126 M67.906,87.271l19.364-19.38 M63.035,82.46l19.409-19.379 M92.08,72.794
	L72.717,92.126 M19.482,38.893l19.364-19.379 M14.611,34.082l19.409-19.378 M43.656,24.416L24.292,43.749 M106.757,9.832
	l-9.76-9.697 M87.271,0.135l19.486,19.379 M106.757,38.846L77.558,9.832 M29.21,0.135L4.983,24.347 M43.702,43.688L63.081,63.05
	 M48.513,38.815l19.379,19.409 M58.179,67.86L38.847,48.497 M77.558,106.695l24.366-24.305 M106.757,96.982l-9.76-9.712
	 M106.757,106.695L92.135,92.134 M96.997,106.695l-9.727-9.713 M82.422,4.999l24.335,24.181 M0.15,0.135l14.499,14.546
	 M9.832,19.514L0.15,9.832 M19.482,0.135l4.895,4.864 M19.482,9.832l-9.65-9.697 M24.37,101.854L0.15,77.557 M38.847,0.104
	L9.832,29.18"/>
<path fill="none" stroke="#000000" stroke-width="0.296" d="M0.15,29.18L24.263,53.4 M0.15,19.514l28.945,29.007 M19.482,106.695
	L48.62,77.65 M53.385,82.552L29.21,106.695 M77.696,58.317l29.061,28.953"/>
<rect x="0.94" y="0.455" fill-rule="evenodd" clip-rule="evenodd" fill="none" width="106.23" height="106.23"/>
<rect x="0.94" y="0.455" fill="none" stroke="#010101" stroke-width="0.5" stroke-miterlimit="10" width="106.23" height="106.23"/>
</svg>
