<?xml version="1.0" encoding="utf-8"?>
<!-- Generator: Adobe Illustrator 16.0.0, SVG Export Plug-In . SVG Version: 6.00 Build 0)  -->
<!DOCTYPE svg PUBLIC "-//W3C//DTD SVG 1.1//EN" "http://www.w3.org/Graphics/SVG/1.1/DTD/svg11.dtd">
<svg version="1.1" id="Layer_1" xmlns="http://www.w3.org/2000/svg" xmlns:xlink="http://www.w3.org/1999/xlink" x="0px" y="0px"
	 width="106.84px" height="107.005px" viewBox="0 0 106.84 107.005" enable-background="new 0 0 106.84 107.005"
	 xml:space="preserve">
<path fill="none" stroke="#000000" stroke-width="0.296" d="M22.33,4.56v44.385 M13.435,48.945V4.56 M40.074,4.56v44.385
	 M31.225,48.945V4.56"/>
<polyline fill="#FFFFFF" points="13.233,21.998 40.396,49.161 40.397,31.585 13.234,4.422 13.233,21.998 "/>
<path fill="none" stroke="#000000" stroke-width="0.296" d="M75.609,57.84v44.385 M66.715,102.225V57.84 M93.354,57.84v44.385
	 M84.505,102.225V57.84"/>
<polyline fill="#FFFFFF" points="66.514,75.278 93.677,102.441 93.678,84.865 66.515,57.702 66.514,75.278 "/>
<path fill="none" stroke="#000000" stroke-width="0.296" d="M57.864,31.185h44.386 M102.25,40.08H57.864 M57.864,13.44h44.386
	 M102.25,22.29H57.864"/>
<polyline fill="#FFFFFF" points="75.198,40.354 102.361,13.191 84.786,13.19 57.623,40.353 75.198,40.354 "/>
<path fill="none" stroke="#000000" stroke-width="0.296" d="M4.585,84.465H48.97 M4.585,66.72H48.97 M48.97,75.57H4.585
	 M48.97,93.36H4.585"/>
<polyline fill="#FFFFFF" points="21.996,93.634 49.043,66.587 31.467,66.585 4.42,93.633 21.996,93.634 "/>
<path fill="none" stroke="#000000" stroke-width="0.296" d="M57.85,40.096L93.37,4.56 M66.729,48.945L102.25,13.44 M4.585,93.375
	L40.09,57.84 M13.465,102.225L48.97,66.736 M66.715,57.825l35.535,35.521 M57.864,66.705l35.506,35.521 M13.435,4.56L48.97,40.065
	 M4.585,13.44l35.489,35.505 M53.41,0.105l4.425,4.44 M102.25,48.93l4.439,4.455 M57.864,48.93h44.386 M102.25,4.545V48.93
	 M57.835,4.545h44.415 M57.864,48.93L57.835,4.545 M0.13,53.385l4.425,4.439 M106.735,0.105L0.13,106.665 M48.97,102.209l4.44,4.455
	 M4.585,102.209H48.97 M48.97,57.825v44.385 M4.555,57.825H48.97 M4.585,102.209l-0.03-44.385 M106.689,53.385l-4.439,4.425
	 M57.864,102.225l-4.454,4.439 M57.864,57.84v44.385 M102.25,102.225H57.864 M102.25,57.81v44.415 M57.864,57.84l44.386-0.03
	 M53.41,0.105L48.97,4.53 M106.735,106.665L0.13,0.105 M4.585,48.945l-4.455,4.44 M4.585,4.56v44.385 M48.97,48.945H4.585
	 M48.97,4.53v44.415 M53.41,106.665V0.105 M0.084,53.385h106.56 M4.585,4.56L48.97,4.53"/>
<rect x="0.25" y="0.525" fill-rule="evenodd" clip-rule="evenodd" fill="none" width="106.229" height="106.23"/>
<rect x="0.25" y="0.525" fill="none" stroke="#010101" stroke-width="0.5" stroke-miterlimit="10" width="106.229" height="106.23"/>
</svg>
