<?xml version="1.0" encoding="utf-8"?>
<!-- Generator: Adobe Illustrator 16.0.0, SVG Export Plug-In . SVG Version: 6.00 Build 0)  -->
<!DOCTYPE svg PUBLIC "-//W3C//DTD SVG 1.1//EN" "http://www.w3.org/Graphics/SVG/1.1/DTD/svg11.dtd">
<svg version="1.1" id="Layer_1" xmlns="http://www.w3.org/2000/svg" xmlns:xlink="http://www.w3.org/1999/xlink" x="0px" y="0px"
	 width="512.638px" height="448.513px" viewBox="0 0 512.638 448.513" enable-background="new 0 0 512.638 448.513"
	 xml:space="preserve">
<path fill-rule="evenodd" clip-rule="evenodd" d="M512.638,262.63c-7.533,1.234-7.182,1.234-7.196,8.9
	c-0.044,23.191-0.577,46.383-0.559,69.572c0.018,22.551,0.467,45.102,0.759,67.652c0.154,11.957,0.307,23.914,0.622,35.867
	c0.074,2.811-0.884,3.869-3.643,3.818c-13.475-0.256-26.95-0.467-40.426-0.629c-14.536-0.176-29.073-0.357-43.61-0.398
	c-47.279-0.135-94.56-0.145-141.84-0.318c-40.596-0.15-81.191-0.6-121.786-0.592c-8.654,0.002-17.302,1.535-25.971,2.008
	c-1.271,0.07-3.417-1.59-3.86-2.893c-4.2-12.318-7.685-24.895-12.201-37.09c-12.885-34.793-26.06-69.479-39.308-104.137
	c-10.645-27.846-21.609-55.57-32.342-83.383c-10.969-28.424-21.823-56.891-32.738-85.336c-1.308-3.408-2.45-6.912-4.119-10.139
	c-0.98-1.893-2.851-3.326-4.298-4.939c0-11.805-0.322-24.222,0.081-36.616c0.516-15.855,1.77-31.686,2.387-47.54
	c0.25-6.408-0.396-12.848-0.529-19.275C1.967,12.576,1.97,7.982,2.082,3.395c0.062-2.55,1.744-3.006,4.051-2.985
	C16.77,0.503,27.408,0.428,38.046,0.433c26.237,0.013,52.477-0.068,78.714,0.082c33.012,0.188,66.022,0.596,99.034,0.847
	c8.644,0.066,17.29-0.021,25.931-0.211c1.993-0.043,3.958-1.031,5.96-1.141c1.259-0.069,2.945,0.297,3.79,1.128
	c15.479,15.221,30.835,30.568,46.269,45.836c21.575,21.345,43.261,42.578,64.768,63.992c14.383,14.322,28.504,28.906,42.801,43.315
	c14.759,14.874,29.56,29.707,44.396,44.505c14.913,14.875,29.871,29.707,44.856,44.51c4.656,4.6,9.552,8.959,14.157,13.605
	C510.271,258.464,511.264,260.578,512.638,262.63z M97.877,294.341c-3.476-10.275-6.951-20.551-10.426-30.828
	c-0.577,0.197-1.154,0.395-1.731,0.592c1.046,3.184,1.877,6.457,3.181,9.531c2.929,6.906,6.091,13.713,9.158,20.559
	c0.222,2.422-0.059,5.027,0.758,7.229c2.394,6.451,5.389,12.678,7.849,19.107c5.185,13.553,10.199,27.17,15.225,40.781
	c0.733,1.988,1.14,4.096,1.696,6.148c1.162,4.279,2.322,8.559,3.483,12.84c0.653-0.141,1.306-0.281,1.959-0.424
	c-0.374-3.35-0.196-6.881-1.228-10.014c-2.924-8.881-6.396-17.58-9.55-26.387c-2.216-6.188-3.906-12.586-6.469-18.621
	C107.415,314.57,102.547,304.496,97.877,294.341z M66.693,221.234c-2.002-5.316-4.004-10.635-6.006-15.951
	c-0.456-1.739-0.689-3.578-1.412-5.198c-1.949-4.374-4.395-8.544-6.129-12.996c-4.951-12.708-8.209-26.321-14.81-38.076
	c-8.157-14.526-14.986-29.463-21.172-44.832c-3.092-7.682-6.876-15.085-10.347-22.615c-0.433,0.085-0.865,0.169-1.298,0.254
	c0,8.898-0.034,17.797,0.019,26.696c0.019,3.122-0.273,6.382,0.505,9.333c1.339,5.078,3.308,10.002,5.187,14.924
	c8.91,23.35,17.859,46.685,26.831,70.011c10.231,26.601,20.488,53.192,30.756,79.78c10.49,27.162,21.053,54.299,31.498,81.48
	c8.406,21.875,16.679,43.803,25.047,65.695c0.331,0.867,1.03,1.596,1.63,2.496c3.172-12.135-1.705-22.164-6.207-32.377
	c-5.838-13.24-11.555-26.543-16.879-39.996c-5.594-14.135-10.528-28.527-16.012-42.707c-3.155-8.16-7.114-16.016-10.188-24.205
	c-3.301-8.793-4.887-18.393-9.182-26.617c-8.018-15.352-10.749-32.354-16.962-48.193c-3.464-8.83-7.863-17.334-12.345-25.716
	c-4.587-8.579-10.541-16.456-12.271-26.376c-0.877-5.025-1.244-10.361-3.277-14.917c-4.364-9.776-9.684-19.125-14.526-28.692
	c-0.361-0.713-0.048-1.77-0.048-4.074c1.744,1.988,2.701,2.689,3.131,3.633c3.225,7.074,5.566,14.698,9.725,21.158
	c3.927,6.098,5.424,12.557,6.658,19.307c1.949,10.658,6.74,19.979,12.935,28.727c2.188,3.09,4.58,6.248,5.832,9.75
	c5.052,14.129,9.553,28.455,14.553,42.604c2.247,6.361,5.426,12.389,7.768,18.721c4.472,12.092,8.426,24.377,13.023,36.416
	c3.003,7.865,7.104,15.309,10.116,23.168c8.701,22.699,17.057,45.533,25.675,68.266c1.08,2.85,2.923,5.41,4.412,8.105
	c0.373-0.164,0.745-0.326,1.118-0.49c-0.803-2.781-1.781-5.527-2.378-8.354c-2.784-13.186-6.827-25.893-12.723-38.08
	c-4.515-9.33-8.626-18.91-12.127-28.662c-3.228-8.99-5.305-18.389-8.067-27.553c-3.141-10.42-6.479-20.779-9.73-31.162
	c1.633,2.684,3.827,5.178,4.805,8.082c5.008,14.869,9.263,30.002,14.615,44.738c7.002,19.281,14.784,38.279,22.231,57.398
	c0.413-0.094,0.827-0.189,1.24-0.285c-0.146-1.707,0.059-3.541-0.498-5.102c-2.43-6.813-5.175-13.512-7.631-20.316
	c-6.493-17.99-13.002-35.977-19.304-54.033c-6.368-18.244-12.54-36.559-18.703-54.875C73.574,232.996,72.215,226.095,66.693,221.234
	z M415.697,400.316c0.439,0.412,0.878,0.824,1.317,1.236c-2.082,1.281-4.036,2.873-6.268,3.793
	c-14.126,5.83-28.933,8.297-44.146,8.063c-4.563-0.07-9.174-0.955-13.646-1.98c-9.568-2.193-18.979-6.154-28.606-6.705
	c-9.32-0.533-18.875,2.064-28.251,3.711c-14.375,2.525-28.217,8.34-43.324,6.117c-23.638-3.477-46.142-9.971-64.338-26.244
	c-15.416-13.789-30.032-28.473-45.002-42.76c-2.801-2.674-5.597-5.352-8.717-8.334c0,11.363,0.112,22.332-0.037,33.297
	c-0.109,8.025,3.581,14.045,9.751,18.512c3.58,2.592,7.887,4.156,11.735,6.406c8.99,5.256,17.896,10.654,26.847,15.979
	c2.237,1.33,4.517,2.588,6.776,3.881c-0.28,0.346-0.562,0.691-0.843,1.037c-7.617-4.262-15.623-7.965-22.761-12.918
	c-10.414-7.229-25.174-8.219-31.143-21.934c-0.325,3.162-0.039,6.025-0.381,8.813c-0.9,7.332,2.985,12.277,7.968,16.684
	c1.979,1.75,4.436,2.973,6.368,4.766c13.637,12.658,30.243,20.074,47.266,26.646c4.116,1.59,8.741,2.523,13.149,2.588
	c41.019,0.607,82.04,1.012,123.062,1.363c21.821,0.188,43.646,0.047,65.467,0.283c7.353,0.08,14.083-0.32,20.789-4.557
	c9.901-6.258,21.146-10.416,30.936-16.816c13.676-8.939,24.686-21.352,38.545-30.373c7.167-4.664,14.277-11.949,10.198-23.582
	c-3.602,3.104-7.031,6.127-10.535,9.061c-5.649,4.732-11.358,9.393-17.017,14.111c-1.135,0.947-2.216,1.975-3.226,3.053
	c-7.623,8.141-15.493,15.943-26.027,20.379c-5.344,2.248-10.654,4.582-15.949,6.943c-12.119,5.406-24.267,10.705-37.735,11.781
	l0.089,0.102c1.41-1.066,2.672-2.604,4.26-3.104c3.599-1.133,7.518-1.33,11.021-2.66c10.801-4.098,21.651-8.15,32.119-13.004
	c6.816-3.162,13.352-7.223,19.358-11.748c5.093-3.84,8.575-10.074,13.958-13.213c10.865-6.338,17.939-16.533,27.187-24.451
	c1.966-1.684,2.331-5.234,3.435-7.926c-5.681,3.721-10.104,7.938-14.777,11.855c-10.371,8.691-23.088,12.801-35.367,17.74
	c1.492-1.498,2.718-3.686,4.52-4.383c14.546-5.629,28.373-12.48,38.595-24.611c2.811-3.336,8.747-6.082,5.73-12.92
	c-2.743,1.707-5.359,3.125-7.745,4.861c-4.828,3.512-9.431,7.34-14.306,10.781c-12.736,8.992-28.187,9.977-42.583,13.971
	c-7.721,2.141-15.765,3.223-23.724,4.363c-6.858,0.982-13.791,1.611-20.713,1.967c-11.329,0.58-22.685,0.664-34.013,1.256
	c-5.748,0.301-11.491,1.982-17.184,1.75c-10.858-0.443-21.728-1.455-32.503-2.895c-11.408-1.525-22.782-3.496-34.045-5.875
	c-11.067-2.336-22.079-5.076-32.921-8.297c-9.616-2.857-19.308-5.889-28.342-10.164c-10.531-4.982-20.408-11.357-30.525-17.203
	c-7.834-4.527-16.235-8.379-23.229-13.975c-7.768-6.215-14.225-14.068-21.451-21.41c0,8.641-0.096,17.371,0.081,26.096
	c0.035,1.703,0.718,3.725,1.799,5.016c4.902,5.867,9.617,11.996,15.202,17.164c14.13,13.068,28.399,26.02,43.155,38.371
	c17.755,14.863,39.562,20.404,61.804,21.797c12.373,0.773,25.072-3.578,37.618-5.656c9.285-1.537,18.592-4.523,27.831-4.309
	c9.084,0.209,18.512,2.572,27.038,5.908c12.151,4.756,24.067,3.162,36.228,1.76C396.152,408.345,406.166,405.119,415.697,400.316z
	 M461.165,256.472c-4.37-4.139-8.234-7.219-11.396-10.904c-7.763-9.047-15.473-18.006-25.07-25.334
	c-7.677-5.861-13.963-13.436-17.232-22.679c-4.502-12.728-13.636-20.47-24.867-27.124c-13.491-7.994-26.522-16.85-39.182-26.112
	c-4.604-3.369-8.145-8.613-8.772-15.003c-0.916-9.311-5.705-16.32-13.27-21.569c-4.206-2.919-8.341-5.964-12.703-8.632
	c-9.131-5.583-18.287-10.821-28.716-14.177c-13.508-4.346-26.681-9.926-36.846-20.798c-6.151-6.579-12.615-13.113-19.904-18.313
	c-7.41-5.287-12.363-11.661-15.71-19.961c-1.604-3.979-4.47-7.651-7.448-10.819c-3.252-3.458-9.703-2.767-11.641-8.4
	c-0.122-0.355-1.523-0.354-2.334-0.376c-10.865-0.292-21.729-0.709-32.597-0.792c-11.339-0.085-22.681,0.221-34.021,0.233
	c-5.999,0.006-6.761,0.256-5.566,5.953c2.61,12.447,5.475,24.863,8.914,37.102c1.212,4.309,4.248,8.161,6.725,12.047
	c6.673,10.472,13.622,20.77,20.164,31.321c1.605,2.59,1.726,6.066,3.15,8.813c2.15,4.145,4.139,8.789,7.476,11.804
	c4.999,4.517,11.224,7.646,16.716,11.654c7.586,5.536,12.113,12.829,12.821,22.5c0.469,6.398,1.572,12.779,2.804,19.086
	c1.554,7.952,3.094,15.955,5.47,23.681c1.63,5.299,3.754,10.956,7.286,15.048c6.43,7.448,9.263,15.905,10.314,25.261
	c0.972,8.638,1.684,17.304,2.558,26.448c5.335,0,10.798,0.15,16.245-0.066c2.558-0.102,6.138,1.541,7.238-2.379
	c1.105-3.936,3.563-7.947,0.332-12.121c-4.117-5.322-8.025-10.656-9.385-17.602c-2.413-12.318-5.361-24.531-8.05-36.795
	c-2.614-11.932-3.11-24.382-9.032-35.506c-1.376-2.586-2.307-5.529-2.844-8.42c-3.97-21.385-14.599-38.154-32.897-50.351
	c-5.776-3.85-10.827-9.298-15.016-14.907c-6.754-9.045-8.341-20.051-8.876-31.057c-0.499-10.251,8.897-16.285,17.813-11.587
	c2.164,1.14,4.239,2.667,5.952,4.411c15.204,15.48,30.746,30.662,45.265,46.765c6.558,7.273,13.457,13.442,22.005,18.06
	c2.358,1.274,4.568,3.506,5.923,5.836c4.801,8.255,12.295,13.045,20.301,17.638c9.042,5.186,20.254,8.068,23.768,19.945
	c0.043,0.145,0.197,0.266,0.316,0.379c9.794,9.42,20.424,17.459,34.294,19.704c13.145,2.128,22.304,9.005,29.348,20.518
	c6.185,10.108,14.088,19.319,22.153,28.077c7.358,7.99,15.943,14.854,24.009,22.191c5.36,4.877,11.182,8.617,18.754,9.34
	c3.189,0.307,6.691,1.48,9.252,3.354c5.307,3.881,11.008,5.051,17.325,4.641C454.967,256.337,457.471,256.472,461.165,256.472z
	 M10.543,5.395c6.106,12.536,11.912,24.542,17.797,36.509c5.711,11.614,11.51,23.186,17.258,34.782
	c3.436,6.931,6.528,14.054,10.338,20.771c8.032,14.164,17.269,27.702,24.513,42.243c15.577,31.268,30.203,63.011,45.235,94.551
	c0.852,1.789,1.81,3.532,2.804,5.248c2.533,4.371,4.98,8.801,7.746,13.021c1.026,1.566,3.265,3.92,4.207,3.615
	c1.708-0.553,3.904-2.725,4.072-4.402c0.985-9.855,1.689-19.758,1.974-29.658c0.136-4.753,0.381-10.137-1.581-14.191
	c-5.153-10.652-6.833-22.072-9.511-33.324c-1.317-5.537-2.564-11.633-5.806-16.028c-3.646-4.946-5.845-9.614-6.106-15.698
	c-0.896-20.85-5.379-40.289-20.982-55.826c-9.16-9.122-13.027-20.431-13.162-33.757c-0.167-16.531-6.15-31.713-15.57-45.361
	C72.914,6.653,70.92,5.513,69.445,5.5C50.167,5.342,30.887,5.395,10.543,5.395z M435.022,256.279c0.15-0.484,0.3-0.969,0.45-1.453
	c-3.525-1.447-6.936-3.395-10.601-4.24c-7.679-1.773-14.108-5.383-19.691-10.893c-6.453-6.369-13.549-12.125-19.646-18.804
	c-9.36-10.253-19.263-20.317-26.771-31.868c-6.688-10.289-14.667-16.322-26.452-18.684c-17.714-3.55-32.25-12.049-41.02-28.659
	c-0.636-1.204-2.009-2.147-3.235-2.888c-4.934-2.979-10.002-5.734-14.913-8.748c-7.165-4.396-14.966-7.879-19.796-15.463
	c-2.065-3.244-4.87-6.515-8.133-8.398c-7.968-4.601-15.164-9.593-20.65-17.347c-4.161-5.882-9.989-10.587-15.084-15.807
	c-9.371-9.601-18.689-19.256-28.166-28.752c-2.442-2.448-5.192-4.725-8.151-6.497c-6.291-3.768-13.903,0.011-14.327,7.373
	c-1.113,19.316,5.403,35.573,22.146,45.963c11.95,7.417,20.62,17.609,26.338,29.663c6.111,12.882,10.086,26.837,14.299,40.536
	c2.359,7.672,3.294,15.779,4.907,23.684c1.88,9.207,3.446,18.498,5.813,27.58c1.898,7.283,3.523,15.15,7.567,21.23
	c4.751,7.143,8.505,13.543,4.731,22.32c7.069,0,13.481,0,20.156,0c1.433-9.152,0.194-17.322-4.2-25.461
	c-3.458-6.404-5.351-13.657-7.874-20.557c-0.835-2.281-1.237-4.742-2.235-6.941c-5.173-11.395-10.5-22.719-15.697-34.104
	c-0.604-1.322-0.693-2.873-1.081-4.303c-3.091-11.383-6.946-22.348-13.886-32.17c-3.469-4.909-6.397-10.568-7.996-16.325
	c-1.537-5.535-1.044-11.634-1.511-18.481c2.297,1.159,4.771,1.928,6.648,3.438c9.166,7.372,18.239,14.862,27.21,22.472
	c5.04,4.275,9.713,8.982,14.733,13.281c8.438,7.225,16.301,15.508,25.752,21.05c9.043,5.304,13.405,13.079,18.193,21.411
	c3.051,5.309,6.837,10.756,11.627,14.377c7.987,6.039,17.193,10.438,25.61,15.949c8.986,5.885,14.938,14.305,18.66,24.363
	c1.813,4.902,2.838,10.602,6.066,14.35c4.271,4.959,10.47,7.986,17.604,7.896c9.141-0.115,18.283-0.078,27.426-0.092
	C418.236,256.269,426.63,256.279,435.022,256.279z M371.756,256.22c-3.258-1.961-5.798-3.125-7.866-4.854
	c-1.669-1.395-3.238-3.285-4.028-5.281c-2.108-5.326-3.532-10.926-5.662-16.242c-4.797-11.979-15.514-18.234-25.275-25.307
	c-3.453-2.502-7.198-4.767-11.11-6.436c-7.93-3.383-13.248-9.346-16.988-16.699c-4.523-8.891-8.351-18.176-18.738-22.008
	c-0.598-0.221-1.131-0.686-1.62-1.12c-8.313-7.384-16.432-14.999-24.969-22.114c-9.158-7.632-18.757-14.732-28.064-22.189
	c-4.846-3.881-9.479-8.028-14.848-12.6c0.495,10.263,0.58,19.906,7.171,27.74c6.667,7.926,10.36,17.283,13.743,26.816
	c2.251,6.345,3.656,13.033,6.354,19.167c4.168,9.479,9.182,18.581,13.673,27.923c0.835,1.735,0.739,3.894,1.34,5.771
	c1.592,4.979,3.154,9.981,5.057,14.846c2.378,6.083,5.764,11.857,7.418,18.107c1.182,4.465,0.229,9.492,0.229,14.479
	C302.23,256.22,336.426,256.22,371.756,256.22z M190.791,6.488c0.482,0.633,0.615,0.958,0.854,1.093
	c0.861,0.486,1.732,0.972,2.647,1.343c7.944,3.227,13.915,8.334,15.932,17.043c1.994,8.616,8.177,13.717,14.914,18.514
	c3.767,2.682,7.955,5.216,10.729,8.773c12.419,15.928,28.882,25.277,47.859,30.903c2.661,0.789,5.339,1.652,7.837,2.841
	c12.618,6.008,24.249,13.499,35.198,22.26c5.626,4.502,8.615,9.764,9.734,16.555c0.293,1.776,0.813,3.535,1.403,5.24
	c3.854,11.131,13.175,17.23,22.259,23.213c10.758,7.084,21.981,13.467,33.079,20.025c5.983,3.535,10.871,8.072,13.341,14.627
	c4.645,12.32,11.282,23.184,21.686,31.505c4.611,3.688,9.557,7.05,13.705,11.204c7.22,7.23,13.893,15.006,20.917,22.438
	c1.048,1.107,2.739,2.205,4.168,2.252c6.967,0.232,13.945,0.105,20.681,0.105c-3.477-4.063-6.937-8.219-10.527-12.258
	c-1.742-1.959-3.465-4.127-5.646-5.475c-15.937-9.84-27.851-23.852-39.999-37.706c-6.089-6.943-10.374-15.241-18.246-20.936
	c-8.957-6.479-16.798-14.496-25.151-21.814c-8.577-7.515-17.203-14.974-25.768-22.501c-1.954-1.718-4.427-3.294-5.48-5.499
	c-3.17-6.634-5.574-13.63-8.635-20.32c-2.072-4.528-4.009-9.463-7.297-13.022c-9.072-9.821-19.134-18.728-28.198-28.554
	c-6.363-6.897-13.824-10.614-22.693-13.438c-11.583-3.688-23.446-7.999-33.496-14.615c-12.611-8.301-24.096-18.621-32.121-31.983
	c-0.51-0.848-1.803-1.726-2.742-1.738C211.525,6.442,201.315,6.488,190.791,6.488z M496.994,266.894
	c-1.668,2.707-3.007,4.77-4.238,6.895c-6.645,11.461-14.636,21.625-26.637,27.994c-2.783,1.477-5.516,3.051-8.25,4.617
	c-12.635,7.23-24.785,15.605-39.059,19.322c-12.797,3.33-25.791,5.951-38.773,8.504c-10.354,2.035-20.841,4.975-31.236,4.848
	c-14.129-0.174-28.423-1.938-42.275-4.811c-11.391-2.361-22.077-7.939-33.37-11.004c-16.556-4.492-31.314-12.268-45.105-22.154
	c-6.424-4.604-13.108-8.984-18.873-14.33c-6.77-6.277-12.655-13.506-18.964-20.283c-0.661-0.711-1.659-1.096-2.388-1.756
	c-4.652-4.219-10.224-4.572-16.15-4.354c-7.834,0.289-15.687,0.07-24.077,0.07c1.801,1.887,2.858,3.145,4.066,4.234
	c8.369,7.547,16.442,15.473,25.248,22.475c9.927,7.895,20.979,14.402,30.702,22.518c10.182,8.5,22.183,13.066,34.109,17.652
	c15.224,5.852,30.771,10.998,46.461,15.459c16.798,4.779,33.811,8.965,50.935,12.387c18.194,3.635,36.544,2.951,54.624-1.57
	c5.858-1.465,11.693-3.086,17.427-4.975c13.018-4.285,26.564-7.551,38.792-13.5c15.844-7.707,29.398-19.049,41.108-32.51
	C498.369,294.234,501.751,277.992,496.994,266.894z M135.699,262.56c0.411,7.877-1.407,14.982,4.368,22.51
	c10.219,13.318,21.708,25.266,35.279,34.57c13.883,9.52,29.223,16.98,44.218,24.781c9.503,4.943,19.443,8.939,30.395,10.029
	c8.673,0.865,17.263,2.596,25.872,4.045c2.583,0.434,5.079,1.574,7.663,1.77c11.719,0.895,23.447,1.727,35.186,2.281
	c18.059,0.852,36.129,1.455,54.194,2.17c5.62,0.223,11.398,1.422,16.827,0.516c16.002-2.674,32.768-2.617,47.177-11.766
	c0.543-0.346,1.211-0.514,1.841-0.695c7.47-2.158,15.302-3.496,22.337-6.627c12.018-5.35,23.546-11.801,35.246-17.855
	c0.934-0.482,2.28-1.459,2.296-2.229c0.163-8.668,0.103-17.338,0.103-27.199c-2.082,2.279-3.214,3.477-4.3,4.715
	c-12.59,14.35-27.242,26.234-44.354,34.6c-9.133,4.467-19.057,7.395-28.768,10.578c-15.279,5.012-30.796,9.52-46.896,10.525
	c-24.772,1.547-48.91-3.094-72.552-9.945c-17.44-5.053-34.673-10.891-51.798-16.947c-11.805-4.176-24.14-7.902-34.67-14.379
	c-14.747-9.07-28.192-20.313-41.891-31.014c-8.725-6.816-16.88-14.357-25.332-21.525c-2.051-1.74-4.146-3.525-6.511-4.713
	c-0.434-0.217-2.265,2.346-4.288,4.529C137.112,264.904,136.525,263.931,135.699,262.56z M98.324,6.359
	c0.533,5.686,1.203,11.23,1.545,16.796c0.972,15.809,5.418,30.66,13.396,44.203c6.105,10.365,11.609,21.249,20.858,29.521
	c6.464,5.782,9.748,13.194,9.655,22.057c-0.09,8.635,2.938,15.225,11.622,18.85c6.765,2.823,11.33,8.463,12.256,15.777
	c0.8,6.318,0.278,12.825,0.104,19.242c-0.241,8.93-0.254,17.902-1.205,26.766c-0.817,7.605-0.734,14.577,1.646,22.197
	c3.004,9.613,7.469,17.507,15.212,23.67c3.442,2.74,6.418,5.633,5.262,10.988c6.949,0,13.435-0.359,19.858,0.115
	c5.087,0.375,6.472-2.041,6.286-6.291c-0.298-6.791-0.067-13.709-1.34-20.326c-1.323-6.878-3.878-13.578-6.477-20.124
	c-1.174-2.956-4.512-5.084-5.572-8.051c-3.827-10.704-7.582-21.479-10.422-32.472c-1.932-7.48-2.371-15.355-3.329-23.072
	c-1.009-8.129-4.043-14.943-11.36-19.394c-3.539-2.153-6.843-4.69-10.313-6.963c-8.192-5.364-14.112-11.805-16.534-22.096
	c-1.673-7.104-6.659-13.548-10.713-19.939c-4.323-6.816-9.903-12.879-13.848-19.883c-7.802-13.854-10.263-29.501-12.984-44.887
	c-1.422-8.039-0.714-8.152-8.917-7.021C101.723,6.2,100.41,6.215,98.324,6.359z M75.977,5.433c0,0.944-0.104,1.312,0.02,1.572
	c0.353,0.747,0.758,1.477,1.212,2.167c8.65,13.162,13.568,27.517,13.741,43.352c0.133,12.244,3.641,23.123,12.271,32.143
	c2.742,2.866,5.133,6.075,7.606,9.189c11.698,14.724,13.593,32.409,14.791,50.193c0.32,4.75,1.885,8.442,4.622,12.226
	c2.42,3.344,4.353,7.326,5.417,11.315c3.656,13.698,4.969,28.034,11.69,40.897c1.088,2.08,1.238,4.844,1.208,7.284
	c-0.162,13.459-0.514,26.915-0.807,40.657c9.268,0,19.415,0.121,29.556-0.08c2.777-0.055,5.534-1.072,9.384-1.875
	c-2.163-3.295-3.181-6.084-5.163-7.646c-8.147-6.424-13.208-14.629-15.587-24.625c-1.019-4.28-3.13-8.59-2.955-12.813
	c0.622-15.047,2.126-30.055,3.074-45.092c0.731-11.602-2.265-21.25-14.209-26.231c-2.753-1.147-6.078-3.235-7.101-5.728
	c-2.036-4.966-3.38-10.473-3.675-15.829c-0.348-6.33-2.063-11.596-6.561-16.041c-2.949-2.916-6.271-5.662-8.471-9.096
	c-9.448-14.752-20.22-28.979-24.121-46.477c-2.468-11.067-3.841-22.418-5.014-33.714c-0.465-4.482-1.574-6.202-6.184-5.836
	C85.927,5.729,81.076,5.433,75.977,5.433z M187.186,260.789c7.219,7.762,13.394,15.938,21.072,22.295
	c11.326,9.381,23.229,18.295,35.83,25.828c9.345,5.586,20.198,8.643,30.367,12.855c15.493,6.418,31.04,12.516,48.128,13.289
	c9.261,0.418,18.7,2.984,27.699,1.814c19.661-2.559,39.141-6.65,58.592-10.615c7.077-1.443,14.252-3.523,20.694-6.705
	c10.381-5.129,19.857-12.119,30.316-17.053c17.561-8.283,26.408-23.707,35.193-39.822c-8.532-0.84-17.107-2.854-21.716,7.311
	c-0.517,1.141-1.71,2.057-2.755,2.863c-11.785,9.1-23.482,18.318-35.443,27.18c-13.94,10.33-29.717,16.66-46.885,18.637
	c-11.934,1.375-24.029,1.639-36.06,1.768c-9.879,0.105-19.771-0.67-29.65-1.164c-3.466-0.172-6.955-1.193-10.366-0.936
	c-20.165,1.533-37.717-6.637-53.475-17.104c-14.599-9.695-28.68-20.799-40.064-34.633c-1.798-2.184-4.064-5.363-6.319-5.545
	C204.08,260.384,195.729,260.789,187.186,260.789z M498.167,331.386c-0.892,0.348-1.646,0.609-2.376,0.93
	c-15.958,7.031-31.694,14.635-47.942,20.916c-11.806,4.564-24.171,7.869-36.508,10.811c-8.143,1.941-16.656,2.818-25.042,3.129
	c-9.534,0.352-19.115-0.387-28.671-0.785c-13.443-0.561-26.911-0.879-40.313-1.973c-16.61-1.354-33.529-0.418-49.634-6.104
	c-1.983-0.699-4.231-0.809-6.368-0.889c-11.72-0.447-23.173-2.088-33.81-7.398c-12.894-6.438-25.719-13.008-38.632-19.406
	c-16.956-8.4-30.441-21.111-43.197-34.695c-3.425-3.646-6.286-7.82-9.637-12.045c-2.271,7.822-1.594,14.664,3.51,20.525
	c3.905,4.486,8.01,8.824,12.311,12.928c3.927,3.746,7.92,7.586,12.453,10.494c6.952,4.461,14.622,7.803,21.584,12.252
	c21.322,13.625,44.493,22.844,69.019,28.357c20.633,4.641,41.467,8.582,62.381,11.695c10.033,1.492,20.476,0.766,30.699,0.299
	c10.747-0.492,21.44-2.088,32.185-2.766c4.756-0.301,9.631,1.053,14.361,0.633c8.218-0.729,16.436-1.896,24.523-3.525
	c11.372-2.291,22.69-4.918,33.909-7.867c10.128-2.664,19.767-6.373,27.439-14.182c3.423-3.484,7.655-6.445,12.02-8.662
	C497.817,341.32,500.35,337.882,498.167,331.386z M244.913,260.626c7.413,7.6,13.475,14.656,20.42,20.697
	c7.06,6.141,14.147,12.68,23.653,15.078c10.41,2.627,20.762,5.828,31.344,7.332c10.916,1.553,22.115,2.158,33.12,1.646
	c6.904-0.322,13.574-4.156,20.531-5.189c12.153-1.807,23.865-4.852,35.591-8.51c14.497-4.521,24.783-13.48,32.432-26.078
	c0.606-0.998,0.578-2.383,1.001-4.297c-15.79,0-30.905-0.244-46.003,0.156c-4.229,0.111-8.571,1.725-12.563,3.371
	c-4.414,1.818-8.347,4.785-12.733,6.689c-10.775,4.676-21.515,9.768-33.788,8.563c-2.956-0.289-5.871-1.063-8.828-1.254
	c-13.049-0.84-26.118-1.383-39.155-2.365c-9.22-0.693-17.134-4.205-22.272-12.412c-1.768-2.824-4.019-3.871-7.488-3.535
	C255.657,260.958,251.067,260.626,244.913,260.626z M474.425,263.822c-0.318-0.643-0.638-1.285-0.956-1.926
	c-5.371,0-10.779,0.395-16.104-0.104c-6.407-0.598-10.537,1.531-14.027,7.129c-6.687,10.723-15.252,19.596-27.949,23.389
	c-7.992,2.387-15.856,5.225-23.896,7.434c-9.029,2.479-18.188,4.484-27.296,6.678c-1.448,0.35-2.91,0.777-4.384,0.867
	c-6.723,0.402-13.48,0.412-20.172,1.092c-12.555,1.271-24.281-3.191-36.367-5.004c-12.95-1.941-24.766-7.484-34.599-16.166
	c-6.31-5.57-13.599-10.07-18.271-17.691c-2.377-3.877-7.127-7.742-11.435-8.664c-6.739-1.441-14.014-0.383-22.116-0.383
	c1.941,2.672,3.04,4.742,4.643,6.289c6.191,5.975,12.623,11.701,18.82,17.672c13.227,12.742,28.277,22.396,46.024,27.537
	c4.555,1.32,9.124,2.855,13.794,3.451c8.023,1.023,16.127,1.443,24.205,2.004c6.129,0.424,12.271,0.936,18.406,0.938
	c9.631,0.004,19.262-0.412,28.894-0.605c17.658-0.355,34.877-3.42,50.03-12.621c13.706-8.322,26.599-18.047,39.438-27.701
	C466.124,273.666,470.02,268.404,474.425,263.822z M7.321,60.385c1.485,1.345,2.914,2.042,3.354,3.136
	c2.403,5.974,4.22,12.203,6.881,18.052c5.328,11.709,10.825,23.355,16.716,34.789c5.533,10.74,12.516,20.857,15.122,32.838
	c2.066,9.497,5.318,18.365,9.813,26.975c3.734,7.154,6.964,14.662,9.546,22.308c4.439,13.146,11.286,24.968,18.093,36.937
	c6.599,11.602,12.753,23.557,17.908,35.857c6.528,15.572,11.754,31.688,17.785,47.475c1.017,2.66,3.268,4.848,4.947,7.254
	c0.453-0.242,0.905-0.486,1.357-0.729c0-8.805,0.122-17.611-0.075-26.412c-0.058-2.584-0.337-5.604-1.691-7.643
	c-5.173-7.777-8.229-17.076-16.464-22.754c-2.009-1.383-3.416-4.061-4.406-6.432c-7.271-17.4-14.314-34.895-21.574-52.297
	c-1.068-2.561-2.959-4.77-4.379-7.193c-4.396-7.504-8.901-14.951-13.043-22.594c-1.628-3.003-1.77-6.912-3.681-9.643
	c-7.537-10.764-10.078-23.37-13.418-35.596c-3.159-11.563-5.895-23.091-14.268-32.312c-1.396-1.537-2.174-3.708-2.989-5.688
	c-6.032-14.657-11.938-29.368-18.03-44c-1.799-4.32-4.073-8.442-6.13-12.655c-0.458,0.129-0.916,0.258-1.374,0.387
	C7.321,47.348,7.321,54.251,7.321,60.385z M10.085,79.335c0.805,3.067,1.184,5.713,2.189,8.094
	c2.047,4.847,4.537,9.505,6.659,14.322c5.469,12.411,10.706,24.925,16.325,37.266c1.622,3.563,4.848,6.434,6.268,10.043
	c5.186,13.186,9.663,26.65,14.903,39.813c4.338,10.893,9.422,21.487,14.084,32.253c3.586,8.28,7.068,16.604,10.524,24.94
	c1.963,4.734,3.627,9.596,5.7,14.279c2.594,5.857,5.696,11.494,8.17,17.398c3.822,9.125,7.139,18.463,10.971,27.584
	c3.127,7.443,7.034,14.57,9.985,22.076c3.942,10.027,7.283,20.293,10.913,30.443c0.547,1.529,1.263,2.996,1.9,4.492
	c0.415-0.102,0.83-0.203,1.244-0.305c-0.568-9.027-1.074-18.061-1.758-27.078c-0.145-1.902-0.369-4.283-1.532-5.545
	c-8.649-9.389-11.932-21.426-15.756-32.939c-7.069-21.281-14.233-42.389-26.981-61.136c-2.79-4.103-5.356-8.442-7.394-12.957
	c-5.854-12.973-11.465-26.058-17.018-39.164c-3.989-9.418-9.046-18.644-11.269-28.487c-3.145-13.928-9.8-25.803-16.768-37.863
	c-5.61-9.711-10.389-19.933-15.06-30.146c-3.33-7.281-5.869-14.924-8.762-22.405c-0.34,0.059-0.681,0.118-1.021,0.177
	c-0.269,5.208-0.536,10.417-0.818,15.905C7.383,80.001,8.594,79.703,10.085,79.335z M35.644,67.016
	c-0.574,0.284-1.147,0.568-1.722,0.853c4.916,12.026,9.514,24.196,14.826,36.045c7.36,16.417,15.17,32.558,17.298,50.81
	c0.907,7.783,4.944,14.69,11.338,19.286c6.044,4.343,9.104,10.063,11.51,16.76c4.073,11.334,8.416,22.591,13.171,33.654
	c2.135,4.965,5.905,9.205,8.281,14.092c3.467,7.131,6.153,14.641,9.542,21.813c2.339,4.949,5.304,9.605,7.988,14.391
	c0.579-0.17,1.159-0.34,1.737-0.508c-1.113-8.156-0.611-16.979-3.656-24.334c-7.827-18.901-16.967-37.281-26.059-55.632
	c-14.777-29.827-29.926-59.47-44.938-89.181C48.547,92.368,42.084,79.698,35.644,67.016z M128.148,287.837
	c2.518-5.416-1.464-8.381-3.239-12.049c-7.463-15.422-14.783-30.912-22.3-46.309c-1.66-3.4-4.409-6.316-5.781-9.801
	c-3.333-8.465-6.479-17.033-9.078-25.746c-2.202-7.385-5.613-13.464-11.668-18.559c-6.498-5.469-11.143-12.352-12.608-21.332
	c-2.075-12.712-5.425-25.1-10.978-36.915c-6.382-13.582-13.23-27.167-17.514-41.459C29.147,56.2,18.031,39.869,7.895,22.475
	c-0.492,6.2,0.537,11.155,3.36,16.834c8.15,16.391,14.538,33.656,21.719,50.534c1.932,4.542,3.447,9.577,6.511,13.254
	c6.744,8.098,9.137,17.857,12.234,27.411c3.518,10.854,6.646,21.842,10.443,32.595c2.294,6.499,5.528,12.666,8.354,18.975
	c1.076,2.401,1.888,4.992,3.349,7.135c3.806,5.584,8.728,10.56,11.691,16.528c4.4,8.858,7.299,18.448,11.193,27.574
	c6.029,14.128,9.073,29.964,22.479,40.007c1.222,0.916,1.742,2.762,2.6,4.17C123.865,280.833,125.908,284.171,128.148,287.837z
	 M497.203,257.396c0.244-0.539,0.488-1.078,0.731-1.617c-7.766-10.588-133.462-137.287-147.19-148.294
	c0.396,1.877,0.589,3.478,1.072,4.985c2.579,8.03,4.967,16.063,12.198,21.618c7.459,5.731,14.645,11.835,21.738,18.02
	c4.376,3.814,8.463,7.982,12.493,12.17c10.158,10.555,22.772,18.213,31.671,30.533c11.997,16.61,26.589,31.133,43.976,42.683
	c5.89,3.911,9.942,10.505,15.221,15.46C491.285,254.992,494.477,255.947,497.203,257.396z M381.917,261.21
	c-37.636,0-75.271,0-113.6,0c4.499,6.184,9.377,11.418,16.925,12.166c13.647,1.355,27.395,1.725,41.037,3.123
	c10.282,1.057,20.324,2.014,30.283-1.992C365.353,270.972,374.455,268.175,381.917,261.21z M296.217,52.983
	c-0.04-0.16-0.02-0.556-0.206-0.745c-14.434-14.511-28.871-29.018-43.363-43.47c-0.757-0.755-1.964-1.405-3.004-1.473
	c-7.401-0.488-14.813-0.813-22.222-1.189c-0.222,0.554-0.443,1.108-0.664,1.662C243.982,31.714,265.59,49.143,296.217,52.983z
	 M418.158,441.099c0.251,0.531,0.503,1.063,0.754,1.594c6.733,0,13.467,0.029,20.199-0.014c2.652-0.018,6.949,0.742,7.652-0.484
	c2.249-3.92,6.593-4.035,9.408-6.656c8.117-7.561,21.134-9.57,24.953-22.061c0.208-0.68,1.232-1.082,1.813-1.678
	c3.707-3.789,7.444-7.551,11.078-11.41c4.205-4.469,7.248-9.338,4.908-15.223C473.334,405.492,449.174,428.041,418.158,441.099z
	 M498.748,400.041c-1.124,0.771-2.007,1.203-2.665,1.859c-4.331,4.318-8.657,8.643-12.882,13.066
	c-1.009,1.057-1.529,2.563-2.438,3.734c-2.242,2.889-4.214,6.143-6.973,8.434c-3.416,2.834-7.626,4.686-11.286,7.258
	c-2.92,2.053-5.529,4.547-8.276,6.846c6.231,1.156,11.69,1.186,17.149,1.121c0.762-0.01,1.66-0.309,2.256-0.779
	c7.757-6.109,14.326-13.283,20.392-21.115C498.754,414.357,500.54,408.142,498.748,400.041z M134.196,402.683
	c-1.396,5.234-0.167,9.527,3.53,12.424c9.191,7.201,18.484,14.313,28.142,20.863c7.877,5.344,17.05,5.152,26.353,3.879
	C170.401,431.435,151.26,418.933,134.196,402.683z M166.375,440.056c-10.732-7.711-21.638-15.545-32.646-23.455
	c-0.54,7.275,4.928,11.758,8.901,16.4C148.795,440.203,157.489,441.791,166.375,440.056z M479.171,442.187
	c9.436,0.641,21.703-13.334,19.42-22.828C492.056,427.041,485.645,434.578,479.171,442.187z M131.961,429.871
	c0.608-0.742,1.217-1.484,1.826-2.227c0.292,4.168,0.585,8.336,0.898,12.807c3.931-0.289,7.381-0.543,10.83-0.797
	c-0.71,0.453-1.42,0.906-2.13,1.359C139.577,437.298,135.77,433.585,131.961,429.871z M127.65,399.867
	c0.759-0.203,1.517-0.406,2.275-0.609c-2.113-7.844-4.227-15.688-6.339-23.531c-0.745,0.199-1.49,0.398-2.235,0.598
	C123.451,384.171,125.551,392.019,127.65,399.867z M490.755,442.201c2.527,0,5.122,0,8.055,0c0-2.945,0-5.688,0-9.23
	C495.759,436.466,493.307,439.277,490.755,442.201z"/>
<path fill-rule="evenodd" clip-rule="evenodd" fill="#FFFFFF" d="M461.165,256.472c-3.694,0-6.198-0.135-8.684,0.025
	c-6.317,0.41-12.019-0.76-17.325-4.641c-2.561-1.873-6.063-3.047-9.252-3.354c-7.572-0.723-13.394-4.463-18.754-9.34
	c-8.065-7.338-16.65-14.201-24.009-22.191c-8.065-8.758-15.969-17.969-22.153-28.077c-7.044-11.513-16.203-18.39-29.348-20.518
	c-13.87-2.245-24.5-10.284-34.294-19.704c-0.119-0.113-0.273-0.234-0.316-0.379c-3.514-11.877-14.726-14.76-23.768-19.945
	c-8.006-4.593-15.5-9.383-20.301-17.638c-1.354-2.33-3.564-4.562-5.923-5.836c-8.548-4.618-15.447-10.786-22.005-18.06
	C210.516,70.712,194.974,55.53,179.77,40.05c-1.713-1.744-3.788-3.271-5.952-4.411c-8.916-4.698-18.313,1.335-17.813,11.587
	c0.535,11.006,2.122,22.011,8.876,31.057c4.188,5.609,9.239,11.057,15.016,14.907c18.299,12.196,28.928,28.966,32.897,50.351
	c0.537,2.891,1.468,5.834,2.844,8.42c5.922,11.124,6.418,23.574,9.032,35.506c2.688,12.264,5.637,24.477,8.05,36.795
	c1.359,6.945,5.268,12.279,9.385,17.602c3.23,4.174,0.773,8.186-0.332,12.121c-1.101,3.92-4.681,2.277-7.238,2.379
	c-5.447,0.217-10.91,0.066-16.245,0.066c-0.874-9.145-1.586-17.811-2.558-26.448c-1.052-9.355-3.885-17.813-10.314-25.261
	c-3.532-4.092-5.656-9.749-7.286-15.048c-2.376-7.726-3.916-15.729-5.47-23.681c-1.231-6.307-2.335-12.688-2.804-19.086
	c-0.708-9.671-5.235-16.964-12.821-22.5c-5.492-4.009-11.717-7.138-16.716-11.654c-3.337-3.015-5.325-7.659-7.476-11.804
	c-1.425-2.747-1.545-6.223-3.15-8.813c-6.542-10.551-13.491-20.85-20.164-31.321c-2.477-3.886-5.513-7.738-6.725-12.047
	c-3.439-12.238-6.304-24.655-8.914-37.102c-1.194-5.697-0.433-5.947,5.566-5.953c11.34-0.012,22.682-0.318,34.021-0.233
	c10.867,0.082,21.731,0.499,32.597,0.792c0.811,0.022,2.212,0.021,2.334,0.376c1.938,5.633,8.389,4.942,11.641,8.4
	c2.979,3.167,5.844,6.84,7.448,10.819c3.347,8.3,8.3,14.674,15.71,19.961c7.289,5.201,13.753,11.734,19.904,18.313
	c10.165,10.872,23.338,16.452,36.846,20.798c10.429,3.355,19.585,8.594,28.716,14.177c4.362,2.668,8.497,5.713,12.703,8.632
	c7.564,5.249,12.354,12.259,13.27,21.569c0.628,6.39,4.169,11.634,8.772,15.003c12.659,9.263,25.69,18.118,39.182,26.112
	c11.231,6.654,20.365,14.396,24.867,27.124c3.27,9.243,9.556,16.817,17.232,22.679c9.598,7.328,17.308,16.287,25.07,25.334
	C452.931,249.253,456.795,252.333,461.165,256.472z"/>
<path fill-rule="evenodd" clip-rule="evenodd" fill="#FFFFFF" d="M387.921,432.615c13.469-1.076,25.616-6.375,37.735-11.781
	c5.295-2.361,10.605-4.695,15.949-6.943c10.534-4.436,18.404-12.238,26.027-20.379c1.01-1.078,2.091-2.105,3.226-3.053
	c5.658-4.719,11.367-9.379,17.017-14.111c3.504-2.934,6.934-5.957,10.535-9.061c4.079,11.633-3.031,18.918-10.198,23.582
	c-13.859,9.021-24.869,21.434-38.545,30.373c-9.79,6.4-21.034,10.559-30.936,16.816c-6.706,4.236-13.437,4.637-20.789,4.557
	c-21.821-0.236-43.646-0.096-65.467-0.283c-41.021-0.352-82.043-0.756-123.062-1.363c-4.408-0.064-9.033-0.998-13.149-2.588
	c-17.022-6.572-33.629-13.988-47.266-26.646c-1.933-1.793-4.389-3.016-6.368-4.766c-4.982-4.406-8.868-9.352-7.968-16.684
	c0.342-2.787,0.056-5.65,0.381-8.813c5.969,13.715,20.729,14.705,31.143,21.934c7.138,4.953,15.144,8.656,22.761,12.918
	c2.558,1.354,4.983,3.131,7.7,3.971c6.075,1.879,12.294,3.289,18.454,4.889c3.873,0.729,7.727,1.598,11.624,2.168
	c17.7,2.594,35.365,5.529,53.14,7.451c8.327,0.898,16.873-0.219,25.319-0.424c0.007-0.512,0.013-1.021,0.02-1.533
	c-1.876-0.18-3.762-0.58-5.627-0.498c-6.613,0.289-13.084,2.201-19.871,0.713c-5.269-1.156-10.778-1.166-16.15-1.91
	c-7.633-1.055-15.229-2.365-22.855-3.471c-6.144-0.891-12.348-1.426-18.445-2.549c-2.485-0.457-4.759-2.582-7.147,0.068
	c-0.904-1.158-1.593-3-2.747-3.365c-7.467-2.361-15.035-4.402-22.57-6.547c-2.26-1.293-4.539-2.551-6.776-3.881
	c-8.951-5.324-17.856-10.723-26.847-15.979c-3.849-2.25-8.155-3.814-11.735-6.406c-6.17-4.467-9.86-10.486-9.751-18.512
	c0.149-10.965,0.037-21.934,0.037-33.297c3.12,2.982,5.916,5.66,8.717,8.334c14.97,14.287,29.586,28.971,45.002,42.76
	c18.196,16.273,40.7,22.768,64.338,26.244c15.107,2.223,28.949-3.592,43.324-6.117c9.376-1.646,18.931-4.244,28.251-3.711
	c9.628,0.551,19.038,4.512,28.606,6.705c4.472,1.025,9.083,1.91,13.646,1.98c15.213,0.234,30.02-2.232,44.146-8.063
	c2.231-0.92,4.186-2.512,6.268-3.793c4.236-1.709,8.577-3.205,12.672-5.207c2.603-1.273,4.839-3.297,7.239-4.984
	c4.093-1.719,8.185-3.436,12.277-5.154c12.279-4.939,24.996-9.049,35.367-17.74c4.674-3.918,9.097-8.135,14.777-11.855
	c-1.104,2.691-1.469,6.242-3.435,7.926c-9.247,7.918-16.321,18.113-27.187,24.451c-5.383,3.139-8.865,9.373-13.958,13.213
	c-6.007,4.525-12.542,8.586-19.358,11.748c-10.468,4.854-21.318,8.906-32.119,13.004c-3.504,1.33-7.423,1.527-11.021,2.66
	c-1.588,0.5-2.85,2.037-4.268,3.094c-0.97-0.172-1.937-0.5-2.895-0.477c-11.243,0.268-22.483,0.727-33.728,0.855
	c-11.168,0.127-22.339-0.07-33.509-0.117c-3.6-0.016-7.199-0.002-10.8-0.002c-0.013,0.469-0.026,0.938-0.039,1.406
	c2.528,0,5.057-0.041,7.585,0.006c13.059,0.246,26.127,0.93,39.174,0.65C365.18,434.783,376.545,433.46,387.921,432.615z"/>
<path fill-rule="evenodd" clip-rule="evenodd" fill="#FFFFFF" d="M10.543,5.395c20.344,0,39.624-0.053,58.902,0.105
	c1.475,0.012,3.469,1.152,4.322,2.389c9.42,13.648,15.403,28.83,15.57,45.361c0.135,13.327,4.002,24.635,13.162,33.757
	c15.604,15.537,20.086,34.977,20.982,55.826c0.262,6.084,2.46,10.752,6.106,15.698c3.241,4.396,4.488,10.491,5.806,16.028
	c2.678,11.252,4.357,22.672,9.511,33.324c1.962,4.055,1.717,9.438,1.581,14.191c-0.284,9.9-0.988,19.803-1.974,29.658
	c-0.168,1.678-2.364,3.85-4.072,4.402c-0.942,0.305-3.181-2.049-4.207-3.615c-2.766-4.221-5.213-8.65-7.746-13.021
	c-0.994-1.716-1.952-3.459-2.804-5.248c-15.032-31.54-29.658-63.283-45.235-94.551c-7.244-14.541-16.48-28.08-24.513-42.243
	c-3.81-6.718-6.902-13.841-10.338-20.771C39.85,65.09,34.051,53.519,28.34,41.904C22.455,29.937,16.649,17.931,10.543,5.395z"/>
<path fill-rule="evenodd" clip-rule="evenodd" fill="#FFFFFF" d="M449.203,386.207c-4.093,1.719-8.185,3.436-12.277,5.154
	c-7.076,2.986-14.152,5.971-21.229,8.955c-9.531,4.803-19.545,8.029-30.177,9.254c-12.16,1.402-24.076,2.996-36.228-1.76
	c-8.526-3.336-17.954-5.699-27.038-5.908c-9.239-0.215-18.546,2.771-27.831,4.309c-12.546,2.078-25.245,6.43-37.618,5.656
	c-22.242-1.393-44.049-6.934-61.804-21.797c-14.756-12.352-29.025-25.303-43.155-38.371c-5.585-5.168-10.3-11.297-15.202-17.164
	c-1.081-1.291-1.764-3.313-1.799-5.016c-0.177-8.725-0.081-17.455-0.081-26.096c7.227,7.342,13.684,15.195,21.451,21.41
	c6.994,5.596,15.396,9.447,23.229,13.975c10.117,5.846,19.994,12.221,30.525,17.203c9.034,4.275,18.726,7.307,28.342,10.164
	c10.842,3.221,21.854,5.961,32.921,8.297c11.263,2.379,22.637,4.35,34.045,5.875c10.775,1.439,21.645,2.451,32.503,2.895
	c5.692,0.232,11.436-1.449,17.184-1.75c11.328-0.592,22.684-0.676,34.013-1.256c6.922-0.355,13.854-0.984,20.713-1.967
	c7.959-1.141,16.003-2.223,23.724-4.363c14.396-3.994,29.847-4.979,42.583-13.971c4.875-3.441,9.478-7.27,14.306-10.781
	c2.386-1.736,5.002-3.154,7.745-4.861c3.017,6.838-2.92,9.584-5.73,12.92c-10.222,12.131-24.049,18.982-38.595,24.611
	C451.921,382.521,450.695,384.708,449.203,386.207z"/>
<path fill-rule="evenodd" clip-rule="evenodd" fill="#FFFFFF" d="M435.022,256.279c-8.393,0-16.786-0.01-25.179,0.002
	c-9.143,0.014-18.285-0.023-27.426,0.092c-7.134,0.09-13.333-2.938-17.604-7.896c-3.229-3.748-4.254-9.447-6.066-14.35
	c-3.722-10.059-9.674-18.479-18.66-24.363c-8.417-5.512-17.623-9.91-25.61-15.949c-4.79-3.621-8.576-9.068-11.627-14.377
	c-4.788-8.332-9.15-16.107-18.193-21.411c-9.451-5.542-17.313-13.825-25.752-21.05c-5.021-4.299-9.693-9.006-14.733-13.281
	c-8.971-7.609-18.044-15.1-27.21-22.472c-1.878-1.51-4.352-2.279-6.648-3.438c0.467,6.847-0.026,12.946,1.511,18.481
	c1.599,5.757,4.527,11.416,7.996,16.325c6.939,9.822,10.795,20.787,13.886,32.17c0.388,1.43,0.478,2.98,1.081,4.303
	c5.197,11.385,10.524,22.709,15.697,34.104c0.998,2.199,1.4,4.66,2.235,6.941c2.523,6.899,4.416,14.152,7.874,20.557
	c4.395,8.139,5.633,16.309,4.2,25.461c-6.675,0-13.087,0-20.156,0c3.773-8.777,0.02-15.178-4.731-22.32
	c-4.044-6.08-5.669-13.947-7.567-21.23c-2.366-9.082-3.933-18.373-5.813-27.58c-1.613-7.904-2.548-16.012-4.907-23.684
	c-4.213-13.699-8.188-27.654-14.299-40.536c-5.718-12.054-14.388-22.246-26.338-29.663c-16.743-10.391-23.26-26.647-22.146-45.963
	c0.424-7.362,8.036-11.141,14.327-7.373c2.959,1.772,5.709,4.049,8.151,6.497c9.477,9.497,18.795,19.151,28.166,28.752
	c5.095,5.22,10.923,9.925,15.084,15.807c5.486,7.754,12.683,12.746,20.65,17.347c3.263,1.884,6.067,5.155,8.133,8.398
	c4.83,7.584,12.631,11.066,19.796,15.463c4.911,3.014,9.979,5.77,14.913,8.748c1.227,0.74,2.6,1.684,3.235,2.888
	c8.77,16.61,23.306,25.109,41.02,28.659c11.785,2.361,19.764,8.395,26.452,18.684c7.508,11.551,17.41,21.615,26.771,31.868
	c6.098,6.679,13.193,12.435,19.646,18.804c5.583,5.51,12.013,9.119,19.691,10.893c3.665,0.846,7.075,2.793,10.601,4.24
	C435.322,255.31,435.173,255.794,435.022,256.279z"/>
<path fill-rule="evenodd" clip-rule="evenodd" fill="#FFFFFF" d="M371.756,256.22c-35.33,0-69.525,0-104.186,0
	c0-4.986,0.952-10.014-0.229-14.479c-1.654-6.25-5.04-12.024-7.418-18.107c-1.902-4.864-3.465-9.866-5.057-14.846
	c-0.601-1.878-0.505-4.036-1.34-5.771c-4.491-9.342-9.505-18.444-13.673-27.923c-2.697-6.134-4.103-12.822-6.354-19.167
	c-3.383-9.533-7.076-18.891-13.743-26.816c-6.591-7.834-6.676-17.477-7.171-27.74c5.368,4.572,10.002,8.718,14.848,12.6
	c9.308,7.457,18.906,14.558,28.064,22.189c8.537,7.115,16.655,14.73,24.969,22.114c0.489,0.435,1.022,0.899,1.62,1.12
	c10.388,3.832,14.215,13.117,18.738,22.008c3.74,7.354,9.059,13.316,16.988,16.699c3.912,1.669,7.657,3.934,11.11,6.436
	c9.762,7.072,20.479,13.328,25.275,25.307c2.13,5.316,3.554,10.916,5.662,16.242c0.79,1.996,2.359,3.887,4.028,5.281
	C365.958,253.095,368.498,254.259,371.756,256.22z"/>
<path fill-rule="evenodd" clip-rule="evenodd" fill="#FFFFFF" d="M190.791,6.488c10.524,0,20.734-0.046,30.943,0.078
	c0.939,0.012,2.232,0.89,2.742,1.738c8.025,13.362,19.51,23.682,32.121,31.983c10.05,6.616,21.913,10.927,33.496,14.615
	c8.869,2.824,16.33,6.54,22.693,13.438c9.064,9.826,19.126,18.733,28.198,28.554c3.288,3.56,5.225,8.495,7.297,13.022
	c3.061,6.69,5.465,13.686,8.635,20.32c1.054,2.205,3.526,3.781,5.48,5.499c8.564,7.527,17.19,14.986,25.768,22.501
	c8.354,7.318,16.194,15.335,25.151,21.814c7.872,5.694,12.157,13.992,18.246,20.936c12.148,13.854,24.063,27.866,39.999,37.706
	c2.181,1.348,3.903,3.516,5.646,5.475c3.591,4.039,7.051,8.195,10.527,12.258c-6.735,0-13.714,0.127-20.681-0.105
	c-1.429-0.047-3.12-1.145-4.168-2.252c-7.024-7.432-13.697-15.207-20.917-22.438c-4.148-4.154-9.094-7.516-13.705-11.204
	c-10.403-8.321-17.041-19.185-21.686-31.505c-2.47-6.555-7.357-11.092-13.341-14.627c-11.098-6.559-22.321-12.941-33.079-20.025
	c-9.084-5.982-18.404-12.082-22.259-23.213c-0.591-1.705-1.11-3.464-1.403-5.24c-1.119-6.791-4.108-12.053-9.734-16.555
	c-10.949-8.761-22.58-16.252-35.198-22.26c-2.498-1.189-5.176-2.053-7.837-2.841c-18.978-5.626-35.44-14.976-47.859-30.903
	c-2.773-3.557-6.962-6.091-10.729-8.773c-6.737-4.797-12.92-9.898-14.914-18.514c-2.017-8.709-7.987-13.817-15.932-17.043
	c-0.915-0.371-1.786-0.857-2.647-1.343C191.406,7.446,191.273,7.122,190.791,6.488z"/>
<path fill-rule="evenodd" clip-rule="evenodd" fill="#FFFFFF" d="M496.994,266.894c4.757,11.098,1.375,27.34-5.924,35.729
	c-11.71,13.461-25.265,24.803-41.108,32.51c-12.228,5.949-25.774,9.215-38.792,13.5c-5.733,1.889-11.568,3.51-17.427,4.975
	c-18.08,4.521-36.43,5.205-54.624,1.57c-17.124-3.422-34.137-7.607-50.935-12.387c-15.689-4.461-31.237-9.607-46.461-15.459
	c-11.927-4.586-23.928-9.152-34.109-17.652c-9.723-8.115-20.775-14.623-30.702-22.518c-8.806-7.002-16.879-14.928-25.248-22.475
	c-1.208-1.09-2.266-2.348-4.066-4.234c8.391,0,16.243,0.219,24.077-0.07c5.927-0.219,11.498,0.135,16.15,4.354
	c0.729,0.66,1.727,1.045,2.388,1.756c6.309,6.777,12.194,14.006,18.964,20.283c5.765,5.346,12.449,9.727,18.873,14.33
	c13.791,9.887,28.55,17.662,45.105,22.154c11.293,3.064,21.979,8.643,33.37,11.004c13.853,2.873,28.146,4.637,42.275,4.811
	c10.396,0.127,20.882-2.813,31.236-4.848c12.982-2.553,25.977-5.174,38.773-8.504c14.273-3.717,26.424-12.092,39.059-19.322
	c2.734-1.566,5.467-3.141,8.25-4.617c12.001-6.369,19.992-16.533,26.637-27.994C493.987,271.664,495.326,269.601,496.994,266.894z"
	/>
<path fill-rule="evenodd" clip-rule="evenodd" fill="#FFFFFF" d="M135.699,262.56c0.826,1.371,1.413,2.344,1.643,2.725
	c2.023-2.184,3.854-4.746,4.288-4.529c2.364,1.188,4.46,2.973,6.511,4.713c8.452,7.168,16.607,14.709,25.332,21.525
	c13.698,10.701,27.144,21.943,41.891,31.014c10.53,6.477,22.865,10.203,34.67,14.379c17.125,6.057,34.357,11.895,51.798,16.947
	c23.642,6.852,47.779,11.492,72.552,9.945c16.101-1.006,31.617-5.514,46.896-10.525c9.711-3.184,19.635-6.111,28.768-10.578
	c17.111-8.365,31.764-20.25,44.354-34.6c1.086-1.238,2.218-2.436,4.3-4.715c0,9.861,0.061,18.531-0.103,27.199
	c-0.016,0.77-1.362,1.746-2.296,2.229c-11.7,6.055-23.229,12.506-35.246,17.855c-7.035,3.131-14.867,4.469-22.337,6.627
	c-0.63,0.182-1.298,0.35-1.841,0.695c-14.409,9.148-31.175,9.092-47.177,11.766c-5.429,0.906-11.207-0.293-16.827-0.516
	c-18.065-0.715-36.136-1.318-54.194-2.17c-11.738-0.555-23.467-1.387-35.186-2.281c-2.584-0.195-5.08-1.336-7.663-1.77
	c-8.609-1.449-17.199-3.18-25.872-4.045c-10.951-1.09-20.892-5.086-30.395-10.029c-14.995-7.801-30.335-15.262-44.218-24.781
	c-13.571-9.305-25.061-21.252-35.279-34.57C134.292,277.542,136.11,270.437,135.699,262.56z"/>
<path fill-rule="evenodd" clip-rule="evenodd" fill="#FFFFFF" d="M98.324,6.359c2.086-0.145,3.398-0.159,4.688-0.337
	c8.203-1.131,7.495-1.018,8.917,7.021c2.722,15.386,5.183,31.033,12.984,44.887c3.944,7.004,9.524,13.066,13.848,19.883
	c4.054,6.391,9.04,12.835,10.713,19.939c2.422,10.291,8.342,16.731,16.534,22.096c3.47,2.272,6.773,4.81,10.313,6.963
	c7.317,4.45,10.352,11.265,11.36,19.394c0.958,7.717,1.397,15.592,3.329,23.072c2.84,10.992,6.595,21.768,10.422,32.472
	c1.061,2.967,4.398,5.095,5.572,8.051c2.599,6.546,5.153,13.246,6.477,20.124c1.272,6.617,1.042,13.535,1.34,20.326
	c0.186,4.25-1.199,6.666-6.286,6.291c-6.424-0.475-12.909-0.115-19.858-0.115c1.156-5.355-1.819-8.248-5.262-10.988
	c-7.743-6.163-12.208-14.057-15.212-23.67c-2.381-7.62-2.464-14.592-1.646-22.197c0.951-8.863,0.964-17.836,1.205-26.766
	c0.174-6.417,0.695-12.924-0.104-19.242c-0.926-7.314-5.491-12.954-12.256-15.777c-8.684-3.625-11.712-10.215-11.622-18.85
	c0.093-8.863-3.191-16.274-9.655-22.057c-9.249-8.272-14.753-19.156-20.858-29.521c-7.979-13.543-12.425-28.394-13.396-44.203
	C99.527,17.59,98.857,12.045,98.324,6.359z"/>
<path fill-rule="evenodd" clip-rule="evenodd" fill="#FFFFFF" d="M75.977,5.433c5.1,0,9.95,0.296,14.747-0.085
	c4.609-0.366,5.719,1.354,6.184,5.836c1.173,11.295,2.546,22.646,5.014,33.714c3.901,17.497,14.673,31.725,24.121,46.477
	c2.199,3.434,5.521,6.18,8.471,9.096c4.497,4.445,6.213,9.711,6.561,16.041c0.295,5.356,1.639,10.863,3.675,15.829
	c1.022,2.492,4.348,4.58,7.101,5.728c11.944,4.981,14.94,14.63,14.209,26.231c-0.948,15.037-2.452,30.045-3.074,45.092
	c-0.175,4.223,1.937,8.532,2.955,12.813c2.379,9.996,7.439,18.201,15.587,24.625c1.982,1.563,3,4.352,5.163,7.646
	c-3.85,0.803-6.606,1.82-9.384,1.875c-10.141,0.201-20.288,0.08-29.556,0.08c0.293-13.742,0.645-27.198,0.807-40.657
	c0.03-2.44-0.12-5.204-1.208-7.284c-6.722-12.863-8.034-27.199-11.69-40.897c-1.064-3.989-2.997-7.972-5.417-11.315
	c-2.737-3.783-4.302-7.476-4.622-12.226c-1.198-17.784-3.093-35.47-14.791-50.193c-2.474-3.114-4.864-6.323-7.606-9.189
	c-8.631-9.021-12.139-19.899-12.271-32.143c-0.173-15.835-5.091-30.19-13.741-43.352c-0.454-0.691-0.859-1.42-1.212-2.167
	C75.873,6.744,75.977,6.376,75.977,5.433z"/>
<path fill-rule="evenodd" clip-rule="evenodd" fill="#FFFFFF" d="M187.186,260.789c8.544,0,16.895-0.404,25.159,0.264
	c2.255,0.182,4.521,3.361,6.319,5.545c11.385,13.834,25.466,24.938,40.064,34.633c15.758,10.467,33.31,18.637,53.475,17.104
	c3.411-0.258,6.9,0.764,10.366,0.936c9.88,0.494,19.771,1.27,29.65,1.164c12.03-0.129,24.126-0.393,36.06-1.768
	c17.168-1.977,32.944-8.307,46.885-18.637c11.961-8.861,23.658-18.08,35.443-27.18c1.045-0.807,2.238-1.723,2.755-2.863
	c4.608-10.164,13.184-8.15,21.716-7.311c-8.785,16.115-17.633,31.539-35.193,39.822c-10.459,4.934-19.936,11.924-30.316,17.053
	c-6.442,3.182-13.617,5.262-20.694,6.705c-19.451,3.965-38.931,8.057-58.592,10.615c-8.999,1.17-18.438-1.396-27.699-1.814
	c-17.088-0.773-32.635-6.871-48.128-13.289c-10.169-4.213-21.022-7.27-30.367-12.855c-12.602-7.533-24.504-16.447-35.83-25.828
	C200.579,276.726,194.404,268.55,187.186,260.789z"/>
<path fill-rule="evenodd" clip-rule="evenodd" fill="#FFFFFF" d="M498.167,331.386c2.183,6.496-0.35,9.934-5.736,12.672
	c-4.364,2.217-8.597,5.178-12.02,8.662c-7.673,7.809-17.312,11.518-27.439,14.182c-11.219,2.949-22.537,5.576-33.909,7.867
	c-8.088,1.629-16.306,2.797-24.523,3.525c-4.73,0.42-9.605-0.934-14.361-0.633c-10.744,0.678-21.438,2.273-32.185,2.766
	c-10.224,0.467-20.666,1.193-30.699-0.299c-20.914-3.113-41.748-7.055-62.381-11.695c-24.525-5.514-47.696-14.732-69.019-28.357
	c-6.962-4.449-14.632-7.791-21.584-12.252c-4.533-2.908-8.526-6.748-12.453-10.494c-4.301-4.104-8.405-8.441-12.311-12.928
	c-5.104-5.861-5.78-12.703-3.51-20.525c3.351,4.225,6.212,8.398,9.637,12.045c12.756,13.584,26.241,26.295,43.197,34.695
	c12.913,6.398,25.738,12.969,38.632,19.406c10.637,5.311,22.09,6.951,33.81,7.398c2.137,0.08,4.385,0.189,6.368,0.889
	c16.104,5.686,33.023,4.75,49.634,6.104c13.402,1.094,26.87,1.412,40.313,1.973c9.556,0.398,19.137,1.137,28.671,0.785
	c8.386-0.311,16.899-1.188,25.042-3.129c12.337-2.941,24.702-6.246,36.508-10.811c16.248-6.281,31.984-13.885,47.942-20.916
	C496.521,331.996,497.275,331.734,498.167,331.386z"/>
<path fill-rule="evenodd" clip-rule="evenodd" fill="#FFFFFF" d="M244.913,260.626c6.154,0,10.744,0.332,15.26-0.107
	c3.47-0.336,5.721,0.711,7.488,3.535c5.139,8.207,13.053,11.719,22.272,12.412c13.037,0.982,26.106,1.525,39.155,2.365
	c2.957,0.191,5.872,0.965,8.828,1.254c12.273,1.205,23.013-3.887,33.788-8.563c4.387-1.904,8.319-4.871,12.733-6.689
	c3.992-1.646,8.335-3.26,12.563-3.371c15.098-0.4,30.213-0.156,46.003-0.156c-0.423,1.914-0.395,3.299-1.001,4.297
	c-7.648,12.598-17.935,21.557-32.432,26.078c-11.726,3.658-23.438,6.703-35.591,8.51c-6.957,1.033-13.627,4.867-20.531,5.189
	c-11.005,0.512-22.204-0.094-33.12-1.646c-10.582-1.504-20.934-4.705-31.344-7.332c-9.506-2.398-16.594-8.938-23.653-15.078
	C258.388,275.283,252.326,268.226,244.913,260.626z"/>
<path fill-rule="evenodd" clip-rule="evenodd" fill="#FFFFFF" d="M79.014,263.914c3.253,10.387,6.592,20.746,9.732,31.166
	c2.763,9.164,4.84,18.563,8.067,27.553c3.501,9.752,7.612,19.332,12.127,28.662c5.896,12.188,9.938,24.895,12.723,38.08
	c0.597,2.826,1.575,5.572,2.378,8.354c-0.373,0.164-0.745,0.326-1.118,0.49c-1.489-2.695-3.332-5.256-4.412-8.105
	c-8.618-22.732-16.974-45.566-25.675-68.266c-3.013-7.859-7.113-15.303-10.116-23.168c-4.598-12.039-8.552-24.324-13.023-36.416
	c-2.342-6.332-5.521-12.359-7.768-18.721c-5-14.148-9.501-28.475-14.553-42.604c-1.252-3.502-3.645-6.66-5.832-9.75
	c-6.194-8.747-10.985-18.068-12.935-28.727c-1.234-6.75-2.731-13.209-6.658-19.307c-4.158-6.46-6.5-14.084-9.725-21.158
	c-0.43-0.943-1.387-1.645-3.131-3.633c0,2.305-0.313,3.361,0.048,4.074c4.843,9.567,10.162,18.916,14.526,28.692
	c2.033,4.556,2.4,9.892,3.277,14.917c1.73,9.92,7.685,17.797,12.271,26.376c4.481,8.382,8.881,16.886,12.345,25.716
	c6.213,15.839,8.944,32.842,16.962,48.193c4.295,8.225,5.881,17.824,9.182,26.617c3.073,8.189,7.032,16.045,10.188,24.205
	c5.483,14.18,10.418,28.572,16.012,42.707c5.324,13.453,11.041,26.756,16.879,39.996c4.502,10.213,9.379,20.242,6.207,32.377
	c-0.6-0.9-1.299-1.629-1.63-2.496c-8.368-21.893-16.641-43.82-25.047-65.695c-10.445-27.182-21.008-54.318-31.498-81.48
	c-10.268-26.588-20.524-53.18-30.756-79.78c-8.972-23.326-17.921-46.661-26.831-70.011c-1.879-4.922-3.848-9.846-5.187-14.924
	c-0.778-2.951-0.486-6.211-0.505-9.333C5.486,99.617,5.521,90.718,5.521,81.82c0.433-0.085,0.865-0.169,1.298-0.254
	c3.471,7.529,7.255,14.933,10.347,22.615c6.186,15.369,13.015,30.306,21.172,44.832c6.601,11.755,9.858,25.368,14.81,38.076
	c1.734,4.452,4.18,8.622,6.129,12.996c0.723,1.62,0.956,3.459,1.412,5.198c-2.328-3.803-4.896-7.482-6.933-11.436
	c-3.612-7.014-6.917-14.187-10.314-21.311c-0.639-1.337-1.103-2.757-1.658-4.134c-4.737-11.723-9.249-23.543-14.278-35.138
	c-5.251-12.105-11.008-23.992-16.525-35.981c-0.846-1.837-1.594-3.719-2.387-5.581c-1.255,1.904-2.203,3.96-1.598,5.328
	c4.606,10.393,9.488,20.664,14.339,30.947c4.755,10.078,9.705,20.066,14.317,30.209c3.058,6.723,5.605,13.676,8.521,20.465
	c1.024,2.385,2.556,4.547,3.706,6.885c3.337,6.781,6.608,13.593,9.88,20.404c0.992,2.066,2.028,4.124,2.829,6.266
	c5.752,15.393,11.448,30.805,17.163,46.211C78.171,260.25,78.593,262.082,79.014,263.914z"/>
<path fill-rule="evenodd" clip-rule="evenodd" fill="#FFFFFF" d="M474.425,263.822c-4.405,4.582-8.301,9.844-13.316,13.613
	c-12.84,9.654-25.732,19.379-39.438,27.701c-15.153,9.201-32.372,12.266-50.03,12.621c-9.632,0.193-19.263,0.609-28.894,0.605
	c-6.136-0.002-12.277-0.514-18.406-0.938c-8.078-0.561-16.182-0.98-24.205-2.004c-4.67-0.596-9.239-2.131-13.794-3.451
	c-17.747-5.141-32.798-14.795-46.024-27.537c-6.197-5.971-12.629-11.697-18.82-17.672c-1.603-1.547-2.701-3.617-4.643-6.289
	c8.103,0,15.377-1.059,22.116,0.383c4.308,0.922,9.058,4.787,11.435,8.664c4.672,7.621,11.961,12.121,18.271,17.691
	c9.833,8.682,21.648,14.225,34.599,16.166c12.086,1.813,23.813,6.275,36.367,5.004c6.691-0.68,13.449-0.689,20.172-1.092
	c1.474-0.09,2.936-0.518,4.384-0.867c9.107-2.193,18.267-4.199,27.296-6.678c8.039-2.209,15.903-5.047,23.896-7.434
	c12.697-3.793,21.263-12.666,27.949-23.389c3.49-5.598,7.62-7.727,14.027-7.129c5.325,0.498,10.733,0.104,16.104,0.104
	C473.787,262.537,474.106,263.179,474.425,263.822z"/>
<path fill-rule="evenodd" clip-rule="evenodd" fill="#FFFFFF" d="M7.321,60.385c0-6.134,0-13.037,0-19.94
	c0.458-0.129,0.916-0.258,1.374-0.387c2.057,4.213,4.331,8.335,6.13,12.655c6.093,14.632,11.998,29.342,18.03,44
	c0.815,1.98,1.594,4.151,2.989,5.688c8.373,9.22,11.108,20.749,14.268,32.312c3.34,12.226,5.881,24.832,13.418,35.596
	c1.911,2.73,2.053,6.64,3.681,9.643c4.142,7.643,8.646,15.09,13.043,22.594c1.42,2.424,3.311,4.633,4.379,7.193
	c7.26,17.402,14.303,34.896,21.574,52.297c0.99,2.371,2.397,5.049,4.406,6.432c8.234,5.678,11.291,14.977,16.464,22.754
	c1.354,2.039,1.634,5.059,1.691,7.643c0.197,8.801,0.075,17.607,0.075,26.412c-0.452,0.242-0.904,0.486-1.357,0.729
	c-1.68-2.406-3.931-4.594-4.947-7.254c-6.031-15.787-11.257-31.902-17.785-47.475c-5.155-12.301-11.31-24.256-17.908-35.857
	c-6.807-11.969-13.653-23.791-18.093-36.937c-2.582-7.646-5.812-15.153-9.546-22.308c-4.494-8.609-7.746-17.478-9.813-26.975
	c-2.606-11.98-9.589-22.098-15.122-32.838c-5.891-11.433-11.388-23.08-16.716-34.789c-2.661-5.849-4.478-12.078-6.881-18.052
	C10.235,62.426,8.807,61.729,7.321,60.385z"/>
<path fill-rule="evenodd" clip-rule="evenodd" fill="#FFFFFF" d="M10.085,79.335c-1.491,0.368-2.702,0.667-4.298,1.06
	c0.282-5.488,0.55-10.696,0.818-15.905c0.34-0.059,0.681-0.118,1.021-0.177c2.893,7.481,5.432,15.124,8.762,22.405
	c4.671,10.213,9.449,20.435,15.06,30.146c6.968,12.061,13.623,23.936,16.768,37.863c2.223,9.844,7.279,19.069,11.269,28.487
	c5.553,13.106,11.163,26.191,17.018,39.164c2.037,4.515,4.604,8.854,7.394,12.957c12.748,18.747,19.912,39.854,26.981,61.136
	c3.824,11.514,7.106,23.551,15.756,32.939c1.163,1.262,1.388,3.643,1.532,5.545c0.684,9.018,1.189,18.051,1.758,27.078
	c-0.414,0.102-0.829,0.203-1.244,0.305c-0.638-1.496-1.354-2.963-1.9-4.492c-3.63-10.15-6.971-20.416-10.913-30.443
	c-2.951-7.506-6.858-14.633-9.985-22.076c-3.832-9.121-7.148-18.459-10.971-27.584c-2.474-5.904-5.576-11.541-8.17-17.398
	c-2.073-4.684-3.737-9.545-5.7-14.279c-3.456-8.336-6.938-16.66-10.524-24.94c-4.662-10.766-9.746-21.36-14.084-32.253
	c-5.24-13.162-9.718-26.627-14.903-39.813c-1.42-3.609-4.646-6.48-6.268-10.043c-5.619-12.341-10.856-24.855-16.325-37.266
	c-2.122-4.817-4.612-9.475-6.659-14.322C11.269,85.048,10.89,82.402,10.085,79.335z"/>
<path fill-rule="evenodd" clip-rule="evenodd" fill="#FFFFFF" d="M35.644,67.016c6.44,12.682,12.903,25.353,19.317,38.048
	c15.012,29.711,30.16,59.354,44.938,89.181c9.092,18.351,18.231,36.73,26.059,55.632c3.045,7.355,2.543,16.178,3.656,24.334
	c-0.578,0.168-1.158,0.338-1.737,0.508c-2.685-4.785-5.649-9.441-7.988-14.391c-3.389-7.172-6.075-14.682-9.542-21.813
	c-2.376-4.887-6.146-9.127-8.281-14.092c-4.755-11.063-9.098-22.32-13.171-33.654c-2.406-6.697-5.466-12.417-11.51-16.76
	c-6.394-4.596-10.431-11.503-11.338-19.286c-2.128-18.252-9.938-34.394-17.298-50.81c-5.313-11.849-9.91-24.019-14.826-36.045
	C34.496,67.584,35.069,67.3,35.644,67.016z"/>
<path fill-rule="evenodd" clip-rule="evenodd" fill="#FFFFFF" d="M128.148,287.837c-2.24-3.666-4.283-7.004-6.32-10.346
	c-0.857-1.408-1.378-3.254-2.6-4.17c-13.405-10.043-16.449-25.879-22.479-40.007c-3.895-9.126-6.793-18.716-11.193-27.574
	c-2.964-5.969-7.886-10.944-11.691-16.528c-1.461-2.143-2.272-4.733-3.349-7.135c-2.826-6.309-6.061-12.476-8.354-18.975
	c-3.797-10.753-6.926-21.74-10.443-32.595c-3.098-9.554-5.49-19.313-12.234-27.411c-3.063-3.678-4.579-8.713-6.511-13.254
	C25.793,72.965,19.405,55.7,11.255,39.309c-2.823-5.679-3.853-10.634-3.36-16.834C18.031,39.869,29.147,56.2,34.982,75.668
	c4.283,14.292,11.132,27.877,17.514,41.459c5.553,11.815,8.902,24.203,10.978,36.915c1.466,8.98,6.11,15.863,12.608,21.332
	c6.055,5.095,9.466,11.174,11.668,18.559c2.6,8.713,5.745,17.281,9.078,25.746c1.372,3.484,4.121,6.4,5.781,9.801
	c7.517,15.396,14.837,30.887,22.3,46.309C126.685,279.457,130.666,282.421,128.148,287.837z"/>
<path fill-rule="evenodd" clip-rule="evenodd" fill="#FFFFFF" d="M497.203,257.396c-2.727-1.449-5.918-2.404-8.09-4.443
	c-5.278-4.955-9.331-11.549-15.221-15.46c-17.387-11.55-31.979-26.072-43.976-42.683c-8.898-12.32-21.513-19.979-31.671-30.533
	c-4.03-4.188-8.117-8.355-12.493-12.17c-7.094-6.185-14.279-12.288-21.738-18.02c-7.231-5.556-9.619-13.588-12.198-21.618
	c-0.483-1.507-0.677-3.107-1.072-4.985c13.729,11.007,139.425,137.707,147.19,148.294
	C497.691,256.318,497.447,256.857,497.203,257.396z"/>
<path fill-rule="evenodd" clip-rule="evenodd" fill="#FFFFFF" d="M381.917,261.21c-7.462,6.965-16.564,9.762-25.354,13.297
	c-9.959,4.006-20.001,3.049-30.283,1.992c-13.643-1.398-27.39-1.768-41.037-3.123c-7.548-0.748-12.426-5.982-16.925-12.166
	C306.646,261.21,344.281,261.21,381.917,261.21z"/>
<path fill-rule="evenodd" clip-rule="evenodd" fill="#FFFFFF" d="M296.217,52.983c-30.627-3.84-52.234-21.269-69.459-45.215
	c0.221-0.554,0.442-1.108,0.664-1.662c7.408,0.376,14.82,0.701,22.222,1.189c1.04,0.068,2.247,0.718,3.004,1.473
	c14.492,14.452,28.93,28.959,43.363,43.47C296.197,52.427,296.177,52.823,296.217,52.983z"/>
<path fill-rule="evenodd" clip-rule="evenodd" fill="#FFFFFF" d="M418.158,441.099c31.016-13.059,55.176-35.607,80.766-55.932
	c2.34,5.885-0.703,10.754-4.908,15.223c-3.634,3.859-7.371,7.621-11.078,11.41c-0.58,0.596-1.604,0.998-1.813,1.678
	c-3.819,12.49-16.836,14.5-24.953,22.061c-2.815,2.621-7.159,2.736-9.408,6.656c-0.703,1.227-5,0.467-7.652,0.484
	c-6.732,0.043-13.466,0.014-20.199,0.014C418.661,442.162,418.409,441.63,418.158,441.099z"/>
<path fill-rule="evenodd" clip-rule="evenodd" fill="#FFFFFF" d="M498.748,400.041c1.792,8.102,0.006,14.316-4.724,20.424
	c-6.065,7.832-12.635,15.006-20.392,21.115c-0.596,0.471-1.494,0.77-2.256,0.779c-5.459,0.064-10.918,0.035-17.149-1.121
	c2.747-2.299,5.356-4.793,8.276-6.846c3.66-2.572,7.87-4.424,11.286-7.258c2.759-2.291,4.73-5.545,6.973-8.434
	c0.909-1.172,1.43-2.678,2.438-3.734c4.225-4.424,8.551-8.748,12.882-13.066C496.741,401.244,497.624,400.812,498.748,400.041z"/>
<path fill-rule="evenodd" clip-rule="evenodd" d="M77.75,258.417c-5.715-15.406-11.411-30.818-17.163-46.211
	c-0.801-2.142-1.837-4.199-2.829-6.266c-3.271-6.812-6.543-13.623-9.88-20.404c-1.15-2.338-2.682-4.5-3.706-6.885
	c-2.916-6.789-5.464-13.742-8.521-20.465c-4.612-10.143-9.563-20.131-14.317-30.209c-4.851-10.283-9.732-20.555-14.339-30.947
	c-0.605-1.368,0.343-3.424,1.598-5.328c0.793,1.861,1.541,3.743,2.387,5.581c5.518,11.99,11.274,23.876,16.525,35.981
	c5.029,11.595,9.541,23.415,14.278,35.138c0.556,1.377,1.02,2.797,1.658,4.134c3.397,7.124,6.702,14.297,10.314,21.311
	c2.036,3.953,4.604,7.633,6.933,11.436c2.002,5.316,4.004,10.635,6.006,15.951c1.571,5.003,3.213,9.984,4.698,15.013
	C73.569,243.621,75.636,251.025,77.75,258.417z"/>
<path fill-rule="evenodd" clip-rule="evenodd" fill="#FFFFFF" d="M77.75,258.417c-2.114-7.393-4.181-14.797-6.358-22.171
	c-1.485-5.028-3.127-10.01-4.698-15.013c5.521,4.861,6.881,11.762,9.078,18.291c6.163,18.316,12.335,36.631,18.703,54.875
	c6.302,18.057,12.811,36.043,19.304,54.033c2.456,6.805,5.201,13.504,7.631,20.316c0.557,1.561,0.352,3.395,0.498,5.102
	c-0.413,0.096-0.827,0.191-1.24,0.285c-7.447-19.119-15.229-38.117-22.231-57.398C93.083,302.001,88.828,286.869,83.82,272
	c-0.978-2.904-3.172-5.398-4.806-8.084C78.593,262.082,78.171,260.25,77.75,258.417z"/>
<path fill-rule="evenodd" clip-rule="evenodd" fill="#FFFFFF" d="M134.196,402.683c17.063,16.25,36.205,28.752,58.024,37.166
	c-9.303,1.273-18.476,1.465-26.353-3.879c-9.657-6.551-18.95-13.662-28.142-20.863C134.029,412.21,132.801,407.917,134.196,402.683z
	"/>
<path fill-rule="evenodd" clip-rule="evenodd" fill="#FFFFFF" d="M97.89,294.333c4.657,10.162,9.525,20.236,13.893,30.521
	c2.563,6.035,4.253,12.434,6.469,18.621c3.154,8.807,6.626,17.506,9.55,26.387c1.031,3.133,0.854,6.664,1.228,10.014
	c-0.653,0.143-1.306,0.283-1.959,0.424c-1.161-4.281-2.321-8.561-3.483-12.84c-0.557-2.053-0.963-4.16-1.696-6.148
	c-5.025-13.611-10.04-27.229-15.225-40.781c-2.46-6.43-5.455-12.656-7.849-19.107c-0.816-2.201-0.536-4.807-0.758-7.229
	L97.89,294.333z"/>
<path fill-rule="evenodd" clip-rule="evenodd" fill="#FFFFFF" d="M166.375,440.056c-8.886,1.734-17.58,0.146-23.744-7.055
	c-3.974-4.643-9.441-9.125-8.901-16.4C144.737,424.511,155.643,432.345,166.375,440.056z"/>
<path fill-rule="evenodd" clip-rule="evenodd" fill="#FFFFFF" d="M479.171,442.187c6.474-7.609,12.885-15.146,19.42-22.828
	C500.874,428.853,488.606,442.828,479.171,442.187z"/>
<path fill-rule="evenodd" clip-rule="evenodd" fill="#FFFFFF" d="M131.961,429.871c3.809,3.715,7.616,7.428,11.425,11.143
	c0.71-0.453,1.42-0.906,2.13-1.359c-3.449,0.254-6.899,0.508-10.83,0.797c-0.313-4.471-0.606-8.639-0.898-12.807
	C133.178,428.386,132.569,429.128,131.961,429.871z"/>
<path fill-rule="evenodd" clip-rule="evenodd" fill="#FFFFFF" d="M127.65,399.867c-2.1-7.848-4.199-15.695-6.299-23.543
	c0.745-0.199,1.49-0.398,2.235-0.598c2.112,7.844,4.226,15.688,6.339,23.531C129.167,399.46,128.409,399.664,127.65,399.867z"/>
<path fill-rule="evenodd" clip-rule="evenodd" d="M215.103,425.185c-6.161-1.602-12.38-3.012-18.455-4.891
	c-2.717-0.84-5.143-2.617-7.7-3.971c0.281-0.346,0.563-0.691,0.843-1.037c7.535,2.145,15.104,4.186,22.57,6.547
	c1.154,0.365,1.843,2.207,2.747,3.365C215.107,425.201,215.103,425.185,215.103,425.185z"/>
<path fill-rule="evenodd" clip-rule="evenodd" d="M415.697,400.316c7.076-2.984,14.152-5.969,21.229-8.955
	c-2.4,1.688-4.637,3.711-7.239,4.984c-4.095,2.002-8.436,3.498-12.672,5.207C416.575,401.14,416.137,400.728,415.697,400.316z"/>
<path fill-rule="evenodd" clip-rule="evenodd" fill="#FFFFFF" d="M98.059,294.195c-3.067-6.846-6.229-13.652-9.158-20.559
	c-1.304-3.074-2.135-6.348-3.181-9.531c0.577-0.197,1.154-0.395,1.731-0.592c3.475,10.277,6.95,20.553,10.432,30.824
	C97.89,294.333,98.059,294.195,98.059,294.195z"/>
<path fill-rule="evenodd" clip-rule="evenodd" fill="#FFFFFF" d="M490.755,442.201c2.552-2.924,5.004-5.734,8.055-9.23
	c0,3.543,0,6.285,0,9.23C495.877,442.201,493.282,442.201,490.755,442.201z"/>
<path fill-rule="evenodd" clip-rule="evenodd" d="M215.107,425.201c2.389-2.652,4.662-0.527,7.147-0.07
	c6.098,1.123,12.302,1.658,18.445,2.549c7.626,1.105,15.223,2.416,22.855,3.471c5.372,0.744,10.882,0.754,16.15,1.91
	c6.787,1.488,13.258-0.424,19.871-0.713c1.865-0.082,3.751,0.318,5.627,0.498c-0.007,0.512-0.013,1.021-0.02,1.533
	c-8.446,0.205-16.992,1.322-25.319,0.424c-17.774-1.922-35.439-4.857-53.14-7.451c-3.897-0.57-7.751-1.439-11.624-2.168
	C215.103,425.185,215.107,425.201,215.107,425.201z"/>
<path fill-rule="evenodd" clip-rule="evenodd" d="M387.921,432.615c-11.376,0.846-22.741,2.168-34.13,2.414
	c-13.047,0.279-26.115-0.404-39.174-0.65c-2.528-0.047-5.057-0.006-7.585-0.006c0.013-0.469,0.026-0.938,0.039-1.406
	c3.601,0,7.2-0.014,10.8,0.002c11.17,0.047,22.341,0.244,33.509,0.117c11.244-0.129,22.484-0.588,33.728-0.855
	c0.958-0.023,1.925,0.305,2.895,0.477C388.01,432.716,387.921,432.615,387.921,432.615z"/>
</svg>
