<?xml version="1.0" encoding="utf-8"?>
<!-- Generator: Adobe Illustrator 16.0.0, SVG Export Plug-In . SVG Version: 6.00 Build 0)  -->
<!DOCTYPE svg PUBLIC "-//W3C//DTD SVG 1.1//EN" "http://www.w3.org/Graphics/SVG/1.1/DTD/svg11.dtd">
<svg version="1.1" id="Layer_1" xmlns="http://www.w3.org/2000/svg" xmlns:xlink="http://www.w3.org/1999/xlink" x="0px" y="0px"
	 width="106.984px" height="106.954px" viewBox="0 0 106.984 106.954" enable-background="new 0 0 106.984 106.954"
	 xml:space="preserve">
<rect x="51.326" y="10.158" transform="matrix(-0.7071 0.7071 -0.7071 -0.7071 129.1718 53.2658)" fill="#FFFFFF" width="4.457" height="86.455"/>
<rect x="51.326" y="10.158" transform="matrix(-0.7071 0.7071 -0.7071 -0.7071 129.1718 53.2658)" fill="none" stroke="#000000" stroke-width="0.296" width="4.457" height="86.455"/>
<rect x="35.278" y="-5.706" transform="matrix(-0.7071 -0.7071 0.7071 -0.7071 37.495 90.5734)" fill="#FFFFFF" width="4.455" height="86.455"/>
<rect x="35.278" y="-5.706" transform="matrix(-0.7071 -0.7071 0.7071 -0.7071 37.495 90.5734)" fill="none" stroke="#000000" stroke-width="0.296" width="4.455" height="86.455"/>
<rect x="66.674" y="26.014" transform="matrix(-0.7071 -0.7071 0.7071 -0.7071 68.6611 166.9228)" fill="#FFFFFF" width="4.455" height="86.455"/>
<rect x="66.674" y="26.014" transform="matrix(-0.7071 -0.7071 0.7071 -0.7071 68.6611 166.9228)" fill="none" stroke="#000000" stroke-width="0.296" width="4.455" height="86.455"/>
<rect x="35.464" y="25.558" transform="matrix(-0.7071 0.7071 -0.7071 -0.7071 112.9816 90.7738)" fill="#FFFFFF" width="4.454" height="86.456"/>
<rect x="35.464" y="25.558" transform="matrix(-0.7071 0.7071 -0.7071 -0.7071 112.9816 90.7738)" fill="none" stroke="#000000" stroke-width="0.296" width="4.454" height="86.456"/>
<rect x="67.182" y="-5.836" transform="matrix(-0.707 0.7072 -0.7072 -0.707 144.9262 14.7377)" fill="#FFFFFF" width="4.456" height="86.454"/>
<rect x="67.182" y="-5.836" transform="matrix(-0.707 0.7072 -0.7072 -0.707 144.9262 14.7377)" fill="none" stroke="#000000" stroke-width="0.296" width="4.456" height="86.454"/>
<rect x="66.773" y="16.115" transform="matrix(-0.707 -0.7072 0.7072 -0.707 90.9553 113.5582)" fill="#FFFFFF" width="4.456" height="43.646"/>
<rect x="66.773" y="16.115" transform="matrix(-0.707 -0.7072 0.7072 -0.707 90.9553 113.5582)" fill="none" stroke="#000000" stroke-width="0.296" width="4.456" height="43.646"/>
<rect x="35.783" y="46.927" transform="matrix(0.7069 0.7073 -0.7073 0.7069 59.8856 -6.6862)" fill="#FFFFFF" width="4.455" height="43.973"/>
<rect x="35.783" y="46.927" transform="matrix(0.7069 0.7073 -0.7073 0.7069 59.8856 -6.6862)" fill="none" stroke="#000000" stroke-width="0.296" width="4.455" height="43.973"/>
<rect x="51.162" y="33.141" transform="matrix(-0.707 0.7072 -0.7072 -0.707 128.7727 53.0874)" fill="#FFFFFF" width="4.455" height="40.157"/>
<rect x="51.162" y="33.141" transform="matrix(-0.707 0.7072 -0.7072 -0.707 128.7727 53.0874)" fill="none" stroke="#000000" stroke-width="0.296" width="4.455" height="40.157"/>
<rect x="19.969" y="-0.728" transform="matrix(0.7072 0.7071 -0.7071 0.7072 22.0745 -9.2438)" fill="#FFFFFF" width="4.455" height="45.511"/>
<rect x="19.969" y="-0.728" transform="matrix(0.7072 0.7071 -0.7071 0.7072 22.0745 -9.2438)" fill="none" stroke="#000000" stroke-width="0.296" width="4.455" height="45.511"/>
<rect x="82.823" y="62.126" transform="matrix(0.7071 0.7071 -0.7071 0.7071 84.9305 -35.2786)" fill="#FFFFFF" width="4.455" height="45.51"/>
<rect x="82.823" y="62.126" transform="matrix(0.7071 0.7071 -0.7071 0.7071 84.9305 -35.2786)" fill="none" stroke="#000000" stroke-width="0.296" width="4.455" height="45.51"/>
<rect x="82.777" y="-0.82" transform="matrix(-0.7071 0.7071 -0.7071 -0.7071 160.6218 -22.6621)" fill="#FFFFFF" width="4.454" height="45.509"/>
<rect x="82.777" y="-0.82" transform="matrix(-0.7071 0.7071 -0.7071 -0.7071 160.6218 -22.6621)" fill="none" stroke="#000000" stroke-width="0.296" width="4.454" height="45.509"/>
<rect x="19.647" y="61.848" transform="matrix(-0.7071 0.7071 -0.7071 -0.7071 97.1638 128.9595)" fill="#FFFFFF" width="4.454" height="45.51"/>
<rect x="19.647" y="61.848" transform="matrix(-0.7071 0.7071 -0.7071 -0.7071 97.1638 128.9595)" fill="none" stroke="#000000" stroke-width="0.296" width="4.454" height="45.51"/>
<rect x="1.615" y="26.745" fill="#FFFFFF" width="7.539" height="53.28"/>
<rect x="97.932" y="27.901" fill="#FFFFFF" width="7.539" height="53.28"/>
<rect x="25.758" y="97.947" fill="#FFFFFF" width="53.28" height="7.539"/>
<rect x="27.508" y="1.384" fill="#FFFFFF" width="53.28" height="7.539"/>
<path fill="none" stroke="#000000" stroke-width="0.296" d="M102.363,102.225l0.001-97.665 M97.954,102.225V8.985 M102.363,102.225
	H4.729 M106.88,106.665l-4.485-4.44 M4.729,97.785h93.225 M97.954,102.195h-35.52 M4.729,102.225l-4.625,4.625 M102.395,8.985H9.154
	 M106.88,0.105l-4.485,4.455 M9.154,4.56v93.225 M0.274,0.105L4.729,4.56 M4.729,4.56v97.665 M4.729,4.56h97.665"/>
<rect x="0.395" y="0.295" fill-rule="evenodd" clip-rule="evenodd" fill="none" width="106.229" height="106.23"/>
<rect x="0.395" y="0.295" fill="none" stroke="#010101" stroke-width="0.5" stroke-miterlimit="10" width="106.229" height="106.23"/>
</svg>
