<?xml version="1.0" encoding="utf-8"?>
<!-- Generator: Adobe Illustrator 16.0.0, SVG Export Plug-In . SVG Version: 6.00 Build 0)  -->
<!DOCTYPE svg PUBLIC "-//W3C//DTD SVG 1.1//EN" "http://www.w3.org/Graphics/SVG/1.1/DTD/svg11.dtd">
<svg version="1.1" id="Layer_1" xmlns="http://www.w3.org/2000/svg" xmlns:xlink="http://www.w3.org/1999/xlink" x="0px" y="0px"
	 width="108px" height="87px" viewBox="0 0 108 87" enable-background="new 0 0 108 87" xml:space="preserve">
<rect x="1" y="0.25" fill-rule="evenodd" clip-rule="evenodd" fill="#FFFFFF" width="107.5" height="86.5"/>
<line fill="#FFFFFF" x1="65.907" y1="42.419" x2="108.056" y2="0.323"/>
<line fill="none" stroke="#000000" stroke-width="0.42" x1="65.907" y1="42.419" x2="108.056" y2="0.323"/>
<line fill="none" stroke="#000000" stroke-width="0.42" x1="65.89" y1="42.454" x2="65.89" y2="182.209"/>
<line fill="none" stroke="#000000" stroke-width="0.42" x1="-53.683" y1="42.436" x2="65.912" y2="42.436"/>
<polyline fill="none" stroke="#000000" stroke-width="0.42" points="-53.95,33.905 74.396,33.905 74.396,173.661 "/>
<polyline fill="none" stroke="#000000" stroke-width="0.42" points="-53.32,25.488 82.856,25.488 82.856,173.503 "/>
<polyline fill="none" stroke="#000000" stroke-width="0.42" points="-52.69,17.193 91.335,17.193 91.335,173.555 "/>
<polyline fill="none" stroke="#000000" stroke-width="0.42" points="-52.48,8.74 99.656,8.74 99.656,173.607 "/>
<polyline fill="none" stroke="#000000" stroke-width="0.42" points="-53.95,0.323 108.056,0.323 108.056,175.708 "/>
<rect x="0.25" y="0.25" fill-rule="evenodd" clip-rule="evenodd" fill="none" width="107.5" height="86.5"/>
<rect x="0.25" y="0.25" fill="none" stroke="#010101" stroke-width="0.5" stroke-miterlimit="10" width="107.5" height="86.5"/>
</svg>
