<?xml version="1.0" encoding="utf-8"?>
<!-- Generator: Adobe Illustrator 16.0.0, SVG Export Plug-In . SVG Version: 6.00 Build 0)  -->
<!DOCTYPE svg PUBLIC "-//W3C//DTD SVG 1.1//EN" "http://www.w3.org/Graphics/SVG/1.1/DTD/svg11.dtd">
<svg version="1.1" id="Layer_1" xmlns="http://www.w3.org/2000/svg" xmlns:xlink="http://www.w3.org/1999/xlink" x="0px" y="0px"
	 width="107.016px" height="106.905px" viewBox="0 0 107.016 106.905" enable-background="new 0 0 107.016 106.905"
	 xml:space="preserve">
<path fill="none" stroke="#000000" stroke-width="0.296" d="M49.19,57.825l8.895-8.881 M58.085,31.185h44.386 M53.63,0.104
	l4.425,4.44 M102.471,48.93l4.439,4.455 M102.471,40.08H58.085 M58.085,48.93h44.386 M58.085,13.439h44.386 M102.471,22.29H58.085
	 M102.471,4.545V48.93 M58.055,4.545h44.416 M102.471,4.545l4.439-4.44 M58.085,48.93l-0.03-44.385 M4.805,84.465H49.19
	 M0.35,53.385l4.425,4.44 M4.805,102.21l-4.455,4.455 M49.19,102.21l4.44,4.455 M49.19,93.359H4.805 M4.805,102.21H49.19
	 M4.805,66.72H49.19 M49.19,75.569H4.805 M49.19,57.825v44.385 M4.775,57.825H49.19 M4.805,102.21l-0.03-44.385 M75.83,57.84v44.385
	 M106.91,53.385l-4.439,4.425 M58.085,102.225l-4.455,4.44 M66.936,102.225V57.84 M58.085,57.84v44.385 M93.575,57.84v44.385
	 M84.725,102.225V57.84 M102.471,102.225H58.085 M102.471,57.81v44.415 M102.471,102.225l4.439,4.44 M58.085,57.84l44.386-0.03
	 M22.55,4.56v44.385 M53.63,0.104L49.19,4.53 M4.805,4.56L0.35,0.104 M4.805,48.944l-4.455,4.44 M13.655,48.944V4.56 M4.805,4.56
	v44.385 M40.295,4.56v44.385 M31.445,48.944V4.56 M49.19,48.944H4.805 M49.19,4.53v44.414 M49.19,48.944l8.895,8.896 M53.63,106.665
	V0.104 M0.304,53.385h106.559 M4.805,4.56L49.19,4.53"/>
<rect x="0.25" y="0.425" fill-rule="evenodd" clip-rule="evenodd" fill="none" width="106.23" height="106.23"/>
<rect x="0.25" y="0.425" fill="none" stroke="#010101" stroke-width="0.5" stroke-miterlimit="10" width="106.23" height="106.23"/>
</svg>
