<?xml version="1.0" encoding="utf-8"?>
<!-- Generator: Adobe Illustrator 16.0.0, SVG Export Plug-In . SVG Version: 6.00 Build 0)  -->
<!DOCTYPE svg PUBLIC "-//W3C//DTD SVG 1.1//EN" "http://www.w3.org/Graphics/SVG/1.1/DTD/svg11.dtd">
<svg version="1.1" id="Layer_1" xmlns="http://www.w3.org/2000/svg" xmlns:xlink="http://www.w3.org/1999/xlink" x="0px" y="0px"
	 width="504.699px" height="446.563px" viewBox="0 0 504.699 446.563" enable-background="new 0 0 504.699 446.563"
	 xml:space="preserve">
<path fill-rule="evenodd" clip-rule="evenodd" fill="#FFFFFF" d="M0,258.84c0.773,2.293,1.955,4.195,1.975,6.109
	c0.157,14.977,0.104,29.957,0.09,44.936c-0.042,42.301-0.08,84.604-0.198,126.904c-0.006,2.16-0.745,4.316-1.295,7.305
	c0.634,0.389,1.944,1.887,3.241,1.875c10.47-0.092,20.936-0.533,31.406-0.736c6.996-0.135,13.997-0.055,20.995-0.063
	c6.995-0.006,13.99,0,20.985,0c7.165,0,14.339,0.225,21.492-0.064c6.616-0.266,13.135,1.314,19.831,0.236
	c6.185-0.994,12.538,0.031,18.822-0.002c33.195-0.168,66.393,0.072,99.588,0.264c19.911,0.115,39.82,0.455,59.73,0.596
	c23.277,0.164,46.555,0.189,69.832,0.363c3.254,0.025,5.16-1.039,6.137-4.318c1.463-4.912,3.17-9.768,5.074-14.527
	c15.365-38.398,30.867-76.74,46.193-115.154c12.026-30.141,23.668-60.438,35.838-90.52c12.169-30.077,24.779-59.975,37.203-89.949
	c1.404-3.387,2.911-6.73,4.256-10.141c0.711-1.801,1.662-3.693,1.68-5.552c0.165-17.475-0.031-34.953,0.242-52.425
	c0.272-17.417,0.885-34.832,1.502-52.242c0.318-9.001,0.126-9.403-9.05-9.479c-8.79-0.074-17.581,0.049-26.37-0.063
	c-14.864-0.189-29.726-0.624-44.59-0.726c-26.369-0.181-52.74-0.098-79.11-0.304c-18.455-0.145-36.907-0.621-55.361-0.88
	c-8.495-0.12-17.007,0.22-25.481-0.219c-4.762-0.247-8.495,0.007-11.182,4.749c-1.578,2.785-4.403,4.881-6.734,7.22
	c-22.886,22.961-45.825,45.87-68.668,68.874c-17.522,17.646-34.859,35.475-52.4,53.103c-34.914,35.086-69.879,70.119-104.898,105.1
	C13.89,245.984,6.668,252.523,0,258.84z"/>
<path fill-rule="evenodd" clip-rule="evenodd" d="M0,258.84c6.668-6.316,13.89-12.855,20.774-19.73
	c35.019-34.98,69.985-70.014,104.898-105.1c17.541-17.627,34.878-35.457,52.4-53.103c22.843-23.004,45.782-45.913,68.668-68.874
	c2.331-2.339,5.156-4.435,6.734-7.22c2.687-4.742,6.42-4.996,11.182-4.749c8.475,0.438,16.986,0.099,25.481,0.219
	c18.454,0.259,36.906,0.735,55.361,0.88c26.37,0.206,52.741,0.123,79.11,0.304c14.864,0.102,29.726,0.536,44.59,0.726
	c8.789,0.112,17.58-0.01,26.37,0.063c9.176,0.077,9.368,0.479,9.05,9.479c-0.617,17.41-1.229,34.824-1.502,52.242
	c-0.273,17.472-0.077,34.95-0.242,52.425c-0.018,1.858-0.969,3.751-1.68,5.552c-1.345,3.41-2.852,6.754-4.256,10.141
	c-12.424,29.975-25.034,59.872-37.203,89.949c-12.17,30.082-23.812,60.379-35.838,90.52
	c-15.326,38.414-30.828,76.756-46.193,115.154c-1.904,4.76-3.611,9.615-5.074,14.527c-0.977,3.279-2.883,4.344-6.137,4.318
	c-23.277-0.174-46.555-0.199-69.832-0.363c-19.91-0.141-39.819-0.48-59.73-0.596c-33.195-0.191-66.393-0.432-99.588-0.264
	c-6.285,0.033-12.637-0.992-18.822,0.002c-6.696,1.078-13.214-0.502-19.831-0.236c-7.153,0.289-14.327,0.064-21.492,0.064
	c-6.995,0-13.99-0.006-20.985,0c-6.999,0.008-13.999-0.072-20.995,0.063c-10.47,0.203-20.936,0.645-31.406,0.736
	c-1.296,0.012-2.606-1.486-3.241-1.875c0.55-2.988,1.289-5.145,1.295-7.305c0.118-42.301,0.155-84.604,0.198-126.904
	c0.015-14.979,0.067-29.959-0.09-44.936C1.955,263.035,0.773,261.133,0,258.84z M77.163,209.732
	c-15.584,15.941-31.169,31.884-46.678,47.748c4.711,0,9.49,0.09,14.262-0.07c1.026-0.033,2.122-0.832,3.018-1.502
	c13.696-10.234,25.306-22.633,36.644-35.324c7.594-8.5,15.226-16.971,23.02-25.287c6.868-7.329,14.907-13.65,18.72-23.471
	c0.573-1.476,2.518-2.57,4.036-3.502c7.717-4.738,14.384-10.207,19.127-18.369c4.035-6.945,9.522-13.18,15.039-19.102
	c9.116-9.788,19.073-18.796,28.12-28.643c9.525-10.366,18.306-21.412,27.586-32.008c9.569-10.928,17.551-23.411,30.273-31.311
	c0.963-0.598,1.698-1.583,2.484-2.438c6.902-7.501,13.736-15.066,20.713-22.497c2.676-2.849,5.67-5.398,8.674-8.229
	c-0.602-0.289-0.998-0.629-1.416-0.657c-7.335-0.496-11.518,4.59-16.07,9.071c-10.48,10.317-19.336,22.195-31.57,30.872
	c-5.662,4.015-11.34,9.444-14.246,15.548c-3.808,7.996-9.375,13.913-15.482,19.704c-2.32,2.199-5.001,4.017-7.518,6.009
	c1.773-2.109,3.324-4.469,5.363-6.28c6.383-5.669,12.126-11.631,15.621-19.735c1.703-3.946,4.926-7.472,8.121-10.488
	c5.532-5.22,11.793-9.665,17.351-14.862c5.657-5.291,10.843-11.089,16.22-16.68c4.047-4.208,8.07-8.439,12.4-12.971
	c-9.652-1.222-9.768-1.112-15.602,4.769c-18.857,19.006-37.765,37.962-56.643,56.949c-20.031,20.148-40.017,40.343-60.083,60.458
	c-34.386,34.468-68.828,68.88-103.227,103.335c-8.591,8.605-17.109,17.285-26.669,26.949c5.657,0,9.792,0.1,13.917-0.057
	c1.396-0.053,3.088-0.381,4.094-1.232c5.179-4.387,10.27-8.889,15.218-13.537c5.662-5.316,11.137-10.834,16.703-16.255
	c3.082-3.001,6.121-6.05,9.292-8.953C70.959,214.951,74.093,212.377,77.163,209.732z M485.293,7.246
	c-3.309,0-5.842,0.298-8.279-0.061c-5.386-0.792-8.429,1.525-11.02,6.172c-6.431,11.537-13.385,22.782-20.107,34.157
	c-11.965,20.244-23.739,40.604-35.936,60.707c-7.039,11.604-14.832,22.749-22.137,34.195c-10.156,15.913-20.668,31.629-30.09,47.969
	c-7.568,13.125-13.441,27.215-20.666,40.553c-3.543,6.539-8.51,12.299-12.714,18.492c-1.899,2.799-3.509,5.793-5.863,9.719
	c6.214,0,10.735,0.336,15.167-0.145c2.16-0.234,5.017-1.459,6.068-3.156c3.611-5.832,6.435-12.145,9.801-18.137
	c5.027-8.953,10.267-17.789,15.406-26.681c3.479-6.016,7.75-11.729,10.219-18.136c3.748-9.724,8.707-18.529,14.99-26.768
	c2.38-3.119,4.538-6.703,5.672-10.418c2.767-9.063,5.8-17.83,11.271-25.779c3.332-4.84,5.213-10.658,7.986-15.911
	c2.615-4.952,5.438-9.802,8.359-14.581c4.138-6.768,8.859-13.211,12.568-20.198c3.555-6.696,5.601-14.204,9.254-20.835
	c8.855-16.077,20.984-30.23,28.031-47.42c0.546-1.333,2.604-2.047,3.959-3.049c-1.015,3.539-2.738,6.081-4.334,8.701
	c-5.511,9.044-10.695,18.302-16.54,27.124c-5.772,8.713-11.617,17.304-14.673,27.438c-3.168,10.507-9.135,19.404-15.718,28.036
	c-3.381,4.433-6.198,9.343-8.881,14.25c-4.504,8.237-8.716,16.633-13.003,24.988c-0.819,1.596-1.488,3.278-2.104,4.966
	c-2.379,6.52-3.568,13.814-7.297,19.427c-7.066,10.636-13.379,21.431-18.943,33.011c-8.366,17.411-19.164,33.646-28.763,50.477
	c-2.091,3.666-3.484,7.729-5.507,12.307c5.257,0,9.682,0.1,14.094-0.086c0.867-0.037,2.057-0.998,2.47-1.842
	c2.742-5.596,5.124-11.375,7.98-16.908c5.428-10.516,11.015-20.953,16.692-31.336c3.73-6.822,7.857-13.427,11.595-20.245
	c5.838-10.649,6.592-23.509,14.368-33.345c0.29-0.366,0.264-0.965,0.486-1.404c4.781-9.427,8.767-19.387,14.594-28.117
	c6.064-9.085,11.941-18.014,16.316-28.141c5.754-13.318,12.844-26.061,19.398-39.031C467.949,41.417,476.47,24.651,485.293,7.246z
	 M498.287,19.411c-0.405-0.066-0.81-0.133-1.215-0.2c-2.117,3.625-4.415,7.158-6.32,10.892
	c-7.672,15.042-15.314,30.102-22.781,45.246c-3.723,7.548-6.816,15.41-10.617,22.915c-3.288,6.489-7.342,12.587-10.76,19.016
	c-5.046,9.491-10.336,18.902-14.594,28.75c-5.226,12.082-9.715,24.5-14.113,36.919c-4.154,11.735-5.234,24.679-14.876,34.169
	c-1.704,1.676-2.129,5.696-1.642,8.359c1.506,8.215-1.951,14.441-6.652,20.508c-2.002,2.584-4.291,5.285-5.202,8.309
	c-2.226,7.389-3.942,14.955-5.44,22.533c-1.105,5.592-0.328,6.217,5.598,6.887c3.488,0.395,5.963,1.887,7.797,5.238
	c2.71,4.953,0.129,9.029-1.438,13.168c-3.618,9.545-7.807,18.877-11.361,28.445c-0.598,1.609,0.243,4.545,1.493,5.787
	c0.911,0.904,3.591-0.055,5.478-0.021c1.44,0.025,3.678-0.209,4.166,0.559c1.552,2.439,2.445,5.297,3.605,7.988
	c0.924,2.143,1.864,4.277,2.797,6.416c0.523-0.006,1.047-0.012,1.571-0.02c14.054-35.061,28.108-70.121,42.531-106.104
	c-10.388,7.697-10.368,7.779-16.093,17.852c-0.917,1.615-2.463,3.531-4.057,3.918c-1.618,0.393-4.679-0.385-5.33-1.602
	c-2.876-5.371-5.006-11.158-3.744-17.447c0.571-2.85,1.941-5.534,2.584-8.377c1.203-5.324,5.012-11.182,1.443-16.055
	c-4.803-6.557-3.514-12.648-1.045-18.955c1.795-4.584,4.857-8.666,6.713-13.233c2.695-6.635,8.525-12.108,8.079-19.87
	c-0.31-5.391,2.147-9.492,4.665-13.84c5.204-8.989,10.279-18.063,15.077-27.273c1.818-3.491,3.777-7.434,3.854-11.208
	c0.239-11.678,5.573-21.378,11.248-30.803c10.561-17.543,18.644-36.091,24.852-55.546c0.385-1.209,2.375-1.906,4.43-3.453
	C498.812,26.789,498.549,23.1,498.287,19.411z M277.49,258.975c6.91,0,13.02,0.242,19.09-0.135c2.051-0.127,4.604-1.328,5.901-2.891
	c5.786-6.965,11.983-13.771,16.593-21.494c10.432-17.475,19.957-35.49,29.965-53.223c6.527-11.564,12.864-23.264,19.978-34.463
	c14.042-22.113,28.605-43.894,42.87-65.866c6.665-10.266,13.374-20.516,19.635-31.028c7.854-13.184,15.242-26.645,22.934-39.928
	c0.486-0.842,1.85-1.177,2.805-1.748c0.395,0.409,0.789,0.818,1.184,1.227c-2.982,4.262-6.27,8.346-8.895,12.818
	c-8.705,14.829-16.801,30.026-25.83,44.65c-9.836,15.931-20.627,31.269-30.686,47.067c-11.68,18.345-23.324,36.727-34.416,55.429
	c-10.799,18.212-20.879,36.851-31.277,55.3c-2.031,3.602-3.77,7.42-6.183,10.745c-5.514,7.595-11.361,14.948-17.669,23.175
	c4.643,0,8.391,0,11.467,0c5.947-7.932,12.014-15.6,17.581-23.615c3.183-4.582,5.726-9.641,8.25-14.639
	c5.115-10.133,9.63-20.587,15.128-30.5c5.211-9.398,11.451-18.219,17.068-27.398c3.701-6.047,6.777-12.492,10.701-18.383
	c7.506-11.27,15.438-22.257,23.149-33.391c2.636-3.805,5.216-7.654,7.693-11.564c2.919-4.606,5.833-9.224,8.513-13.97
	c7.49-13.265,14.733-26.672,22.313-39.885c7.201-12.552,14.706-24.931,22.482-38.071c-6.05,0-11.339-0.141-16.608,0.115
	c-1.086,0.053-2.387,1.393-3.1,2.465c-3.631,5.465-7.139,11.014-10.62,16.576c-7.036,11.24-13.991,22.532-21.052,33.757
	c-6.418,10.204-12.644,20.546-19.494,30.454c-5.348,7.735-11.852,14.667-17.246,22.374c-6.551,9.358-12.415,19.196-18.688,28.753
	c-10.003,15.24-20.281,30.303-30.08,45.671c-5.319,8.345-9.223,17.646-14.971,25.651c-6.923,9.641-15.098,18.389-22.814,27.451
	c-0.926,1.088-2.256,2.074-3.596,2.527C282.035,245.533,280.848,252.539,277.49,258.975z M499.024,33.441
	c-0.452-0.138-0.903-0.277-1.355-0.416c-0.871,1.597-1.896,3.129-2.589,4.8c-4.748,11.438-9.023,23.093-14.227,34.318
	c-7.172,15.476-18.003,28.913-20.786,46.874c-1.662,10.73-9.349,20.475-14.003,30.809c-3.395,7.539-10.059,13.744-9.256,23.09
	c0.199,2.324-0.706,4.961-1.758,7.137c-4.297,8.891-8.844,17.658-13.303,26.469c-2.245,4.436-2.213,11.816,0.855,13.986
	c3.014,2.131,2.912,4.68,2.38,7.396c-0.692,3.537-1.8,7.005-2.881,10.455c-2.376,7.576-4.664,15.125,0.487,22.514
	c0.787,1.129,1.728,2.148,2.597,3.219c1.308-1.115,3.083-1.988,3.82-3.402c1.357-2.602,2.091-5.529,3.11-8.313
	c1.104-3.006,2.826-4.783,6.082-6.35c4.468-2.149,9.399-5.621,11.549-9.842c4.938-9.697,8.354-20.176,12.273-30.381
	c0.474-1.234,0.697-2.914,0.254-4.092c-1.916-5.084-4.173-10.04-6.187-15.09c-0.454-1.137-0.718-2.498-0.581-3.7
	c1.04-9.149,3.243-18.312,3.021-27.419c-0.208-8.557,2.43-15.791,5.941-23.011c3.612-7.427,8.079-14.464,11.351-22.027
	c5.949-13.756,11.044-27.881,17-41.634c2.466-5.693,5.864-10.739,5.377-17.503C497.771,45.417,498.695,39.408,499.024,33.441z
	 M278.073,264.59c0,1.736-0.054,3.232,0.009,4.725c0.467,11.123,2.784,22.199,0.776,33.389c-0.254,1.416-0.194,2.895-0.225,4.346
	c-0.171,8.363-0.196,16.732-0.526,25.088c-0.28,7.125-1.41,14.25-1.244,21.352c0.19,8.092,2.284,16.195,1.963,24.23
	c-0.486,12.207-2.469,24.348-3.574,36.539c-0.846,9.34-1.18,18.701,1.937,27.768c6.384,0,12.366,0,19.808,0
	c0-11.264,0.729-22.475-0.229-33.541c-0.778-8.992,0.451-17.277,2.68-25.895c1.838-7.111,2.098-14.732,2.275-22.148
	c0.314-13.211-0.588-26.475,0.223-39.643c0.564-9.15,1.974-18.379-1.324-26.984c-3.088-8.059-5.01-15.92-3.646-24.473
	c0.438-2.746-0.408-4.684-3.511-4.732C288.492,264.533,283.519,264.59,278.073,264.59z M6.08,262.244c0,2.438,0.001,4.25,0,6.063
	c-0.029,27.791-0.064,55.582-0.085,83.373c-0.021,28.496-0.007,56.992-0.077,85.486c-0.006,2.332,0.292,3.98,3.112,3.844
	c5.726-0.279,11.453-0.541,17.783-0.838c0-3.523,0.666-6.951-0.124-10.004c-2.445-9.453-3.173-18.686,0.838-27.9
	c0.505-1.16,0.525-2.613,0.477-3.92c-0.361-9.822-1.226-19.648-1.075-29.461c0.126-8.184,1.271-16.367,2.235-24.52
	c0.792-6.695,2.297-13.32,2.84-20.027c0.209-2.59-1.358-5.326-2.124-7.994c-1.026-3.574-2.71-7.1-2.97-10.729
	c-0.921-12.873-1.308-25.781-2.022-38.67c-0.123-2.227-0.208-4.814-3.706-4.732C16.386,262.326,11.583,262.244,6.08,262.244z
	 M135.915,258.248c4.262,0,8.563,0.074,12.858-0.053c1.005-0.031,2.271-0.473,2.94-1.18c9.909-10.447,19.637-21.068,29.64-31.425
	c3.312-3.429,7.634-5.894,10.881-9.371c9.147-9.798,17.933-19.935,26.943-29.862c9.809-10.809,19.721-21.523,29.552-32.312
	c0.769-0.843,1.359-1.894,1.855-2.932c3.542-7.414,9.441-12.749,16.044-17.155c8.813-5.881,15.154-13.791,20.651-22.61
	c3.409-5.468,6.588-11.157,10.61-16.15c9.541-11.848,19.739-23.168,29.268-35.026c9.645-12.002,18.788-24.406,28.18-36.613
	c4.308-5.6,8.682-11.148,13.026-16.72c-0.259-0.566-0.519-1.132-0.778-1.698c-2.996,0.939-6.787,1.041-8.836,2.981
	c-5.383,5.099-9.955,11.045-14.941,16.57c-10.463,11.589-21.143,22.986-31.416,34.738c-5.549,6.348-10.13,13.543-15.709,19.861
	c-8.222,9.311-17.093,18.047-25.4,27.285c-5.188,5.77-9.881,11.987-14.736,18.052c-5.15,6.434-10.328,12.852-15.295,19.426
	c-2.082,2.757-3.338,6.159-5.515,8.823c-8.821,10.798-17.251,22.013-26.951,31.976c-14.898,15.303-30.947,29.479-46.075,44.566
	C153.477,238.63,141.466,245.301,135.915,258.248z M222.511,264.309c-0.116,2.279-0.292,4.084-0.288,5.887
	c0.021,8.486,0.293,16.979,0.092,25.459c-0.211,8.951-0.826,17.895-1.318,26.838c-0.467,8.488-0.748,17-1.566,25.457
	c-1.354,13.973-3.402,27.885-4.514,41.873c-0.67,8.439,0.008,16.977-0.164,25.465c-0.145,7.135-0.807,14.26-0.852,21.393
	c-0.01,1.502,1.585,4.252,2.581,4.318c6.073,0.404,12.187,0.201,18.704,0.201c0.84-17.064,1.696-33.555,2.451-50.051
	c0.797-17.41,1.507-34.822,2.225-52.236c0.061-1.482-0.105-2.973-0.161-4.461c-0.373-10.057-1.048-20.113-1.024-30.168
	c0.021-8.861,1.247-17.727,1.104-26.578c-0.072-4.426-2.014-8.822-3.151-13.396C231.988,264.309,227.535,264.309,222.511,264.309z
	 M418.174,175.083c-0.334-0.058-0.669-0.116-1.004-0.175c-0.465,0.857-0.945,1.708-1.393,2.576
	c-11.426,22.198-22.961,44.342-34.201,66.634c-3.379,6.7-6.82,13.601-8.588,20.812c-1.418,5.787-0.26,12.186-0.4,18.309
	c-0.51,22.219-1.299,44.432-1.573,66.652c-0.274,22.285-0.06,44.576-0.06,66.865c0,3.459,0,6.916,0,10.373
	c0.342,0.006,0.685,0.012,1.026,0.018c10.044-23.934,20.089-47.867,29.435-70.137c-2.816-7.189-5.098-13.01-7.378-18.83
	c-0.334,0.563-0.668,1.123-1.001,1.686c-3.052-0.438-6.463-0.209-9.01-1.582c-1.377-0.742-2.289-4.561-1.671-6.408
	c2.818-8.41,6.324-16.588,9.438-24.902c1.602-4.275,3.512-8.574,4.152-13.025c0.54-3.754-1.469-6.869-5.882-7.779
	c-3.305-0.682-6.497-1.904-10.41-3.088c2.976-10.664,5.438-20.188,8.36-29.568c0.947-3.039,2.545-6.287,4.805-8.426
	c5.164-4.889,6.866-10.435,6.471-17.432c-0.232-4.088,0.147-9.422,2.555-12.197c5.059-5.829,8.486-12.091,10.463-19.387
	C414.207,189.061,416.214,182.078,418.174,175.083z M272.236,442.129c1.555-18.074,3.097-35.473,4.52-52.879
	c0.388-4.746,0.809-9.545,0.516-14.277c-0.375-6.092-2.08-12.141-2.075-18.207c0.007-8.438,1.315-16.865,1.612-25.313
	c0.33-9.396-1.057-19.02,0.524-28.16c1.632-9.436-0.759-18.328-0.753-27.471c0.003-3.836-1.083-7.674-1.652-11.373
	c-5.557,0-10.475,0-15.766,0c-0.37,4.885-0.281,9.52-1.137,13.975c-3.149,16.406-1.309,32.742,0.151,49.105
	c0.17,1.902,0.139,3.838,0.034,5.75c-0.573,10.504-1.629,21.004-1.705,31.51c-0.117,15.994,0.652,31.992,0.616,47.988
	c-0.021,9.406-0.875,18.809-1.366,28.447C261.986,441.566,267.6,441.875,272.236,442.129z M426.217,6.436
	c-4.289,0.601-8.734-0.104-10.187,1.658c-5.975,7.249-11.138,15.181-16.413,22.988c-5.924,8.769-11.237,17.979-17.558,26.443
	c-7.834,10.492-16.75,20.173-24.628,30.635c-15.742,20.908-30.898,42.257-46.718,63.107c-5.347,7.047-12.026,13.074-17.983,19.67
	c-7.004,7.758-13.636,15.867-20.885,23.383c-8.071,8.369-16.286,16.543-21.806,26.947c-0.384,0.725-0.936,1.363-1.425,2.029
	c-8.385,11.404-16.771,22.809-25.158,34.211c0.357,0.506,0.715,1.01,1.072,1.514c3.342-0.258,7.448,0.631,9.885-0.99
	c7.504-4.992,13.605-11.578,17.607-19.896c1.139-2.367,2.598-4.666,4.307-6.654c7.385-8.598,15.154-16.872,22.338-25.629
	c10.504-12.805,20.601-25.942,30.921-38.898c9.124-11.454,18.401-22.787,27.455-34.297c10.462-13.3,21.268-26.373,31.002-40.194
	c15.63-22.193,30.507-44.917,45.693-67.421C417.615,19.295,421.461,13.527,426.217,6.436z M204.91,258.73
	c3.229,0,4.723-0.146,6.18,0.023c6.987,0.818,12.184-1.445,15.54-7.977c2.718-5.287,5.674-10.515,9.097-15.365
	c6.675-9.457,13.748-18.634,20.667-27.918c0.396-0.531,0.892-0.988,1.341-1.479c11.602-12.726,23.146-25.503,34.845-38.141
	c2.995-3.235,6.95-5.652,9.629-9.096c5.884-7.564,11.041-15.69,16.849-23.319c7.33-9.629,15.173-18.871,22.492-28.508
	c5.709-7.516,10.705-15.573,16.463-23.048c9.895-12.847,20.319-25.287,30.137-38.191c3.668-4.822,6.115-10.555,9.377-15.709
	c4.971-7.853,10.166-15.564,15.217-23.26c-8.656-1.548-10.896-1.041-14.529,6.602c-5.176,10.891-12.414,20.254-19.754,29.628
	c-7.35,9.389-14.569,18.88-21.943,28.251c-2.655,3.374-5.609,6.512-8.397,9.783c-3.649,4.283-7.541,8.394-10.847,12.93
	c-6.891,9.457-12.919,19.59-20.298,28.632c-11.33,13.884-23.579,27.013-35.286,40.593c-8.658,10.041-17.213,20.179-25.557,30.48
	c-8.775,10.835-17.236,21.924-25.854,32.888C222.137,236.891,213.971,247.232,204.91,258.73z M50.699,440.33
	c5.112,0.271,9.404,0.807,13.653,0.57c1.618-0.09,4.392-1.842,4.496-3.023c0.65-7.426,0.707-14.902,0.938-22.361
	c0.316-10.221,0.835-20.441,0.857-30.662c0.024-11.285,1.479-23.043-1.184-33.723c-2.683-10.76-4.496-20.82-3.561-31.998
	c1.164-13.904,0.166-27.994-0.002-42.004c-0.057-4.74-0.431-9.475-0.653-14.068c-6.107,0-11.494,0-17.404,0
	c2.221,5.377,4.467,10.061,6.105,14.949c2.911,8.684-0.173,17.137-2.553,25.199c-1.877,6.359-0.656,12.199,0.569,17.922
	c0.903,4.215,1.077,7.875,0.262,12.035c-1.757,8.965-6.238,17.371-4.455,27.119c0.965,5.27-0.024,10.9-0.169,16.367
	c-0.241,9.1-0.927,18.213-0.61,27.293c0.181,5.189,2.425,10.279,2.93,15.492C50.591,426.398,50.478,433.434,50.699,440.33z
	 M433.973,7.897c-0.183-0.35-0.365-0.7-0.547-1.05c-1.521,0.483-3.53,0.514-4.479,1.531c-3.482,3.739-7.007,7.547-9.8,11.799
	c-7.414,11.286-14.151,23.021-21.718,34.2c-10.59,15.646-21.477,31.104-32.631,46.354c-9.596,13.12-19.604,25.949-29.693,38.697
	c-9.171,11.588-18.758,22.846-28.05,34.34c-9.778,12.094-19.303,24.395-29.171,36.413c-6.469,7.878-13.359,15.408-20.043,23.11
	c-1.292,1.49-2.578,2.998-3.729,4.596c-4.143,5.752-8.217,11.551-12.337,17.318c-0.696,0.973-1.485,1.881-2.427,3.063
	c14.832,1.738,23.406-1.646,30.254-11.602c5.62-8.17,11.156-16.4,16.915-24.472c11.528-16.157,23.143-32.255,34.799-48.32
	c11.103-15.304,22.298-30.541,33.462-45.8c11.643-15.91,23.525-31.651,34.873-47.769c8.67-12.316,16.972-24.918,24.843-37.758
	c4.104-6.695,6.657-14.323,10.421-21.252C427.477,16.581,430.922,12.346,433.973,7.897z M358.048,442.023
	c-1.276-9.898-2.732-19.367-3.64-28.887c-0.547-5.75-0.882-11.656-0.199-17.357c2.057-17.205,4.884-34.324,1.927-51.717
	c-0.411-2.42-0.675-5.201,0.101-7.43c3.906-11.209,2.476-22.82,2.551-34.221c0.061-9.133-1.828-18.271-2.718-27.422
	c-0.304-3.129,0.991-7.447-0.622-9.121c-1.586-1.645-6.082-0.086-9.044-0.885c-4.834-1.303-6.338,1.02-6.858,5.037
	c-0.23,1.781-0.332,3.59-0.361,5.387c-0.064,4.104-0.051,8.207-0.063,12.313c-0.012,3.824,0.262,7.676-0.086,11.471
	c-0.55,5.988-1.479,11.945-2.319,17.904c-0.336,2.381-1.337,4.756-1.22,7.094c0.521,10.398,1.47,20.773,2,31.172
	c0.369,7.248,0.818,14.557,0.266,21.764c-0.387,5.037-0.411,9.494,1.324,14.484c1.787,5.141,1.621,11.066,1.736,16.658
	c0.229,11.158,0.068,22.324,0.068,33.756C346.617,442.023,351.721,442.023,358.048,442.023z M27.556,262.547
	c0.487,5.994,1.188,11.549,1.332,17.119c0.218,8.391-0.147,16.799,0.149,25.186c0.1,2.832,1.554,5.598,2.218,8.436
	c0.994,4.244,2.92,8.629,2.518,12.768c-0.841,8.652-3.951,17.143-4.293,25.773c-0.522,13.16-3.71,26.525,1.311,39.602
	c0.696,1.811,0.056,4.273-0.373,6.352c-0.93,4.496-3.11,8.961-3.007,13.398c0.224,9.713,1.551,19.4,2.421,29.031
	c6.578,0,12.435,0,18.331,0c0-5.693,0.491-11.004-0.135-16.18c-0.65-5.379-2.431-10.617-3.599-15.943
	c-0.279-1.271-0.129-2.648-0.104-3.977c0.243-12.51,0.342-25.023,0.81-37.525c0.325-8.684-0.63-17.34,2.937-25.955
	c2.401-5.801,3.931-12.383,1.863-19.293c-2.175-7.273-2.062-14.529,0.435-22.283c1.99-6.178,4.379-13.309,0.856-20.301
	c-1.896-3.764-2.754-8.064-4.762-11.752c-1.037-1.904-3.423-3.969-5.443-4.256C36.554,262.107,31.932,262.547,27.556,262.547z
	 M379.703,6.889c-0.248-0.444-0.495-0.887-0.742-1.331c-2.871,0.624-6.327,0.464-8.471,2.063c-2.953,2.203-5.008,5.665-7.284,8.709
	c-8.436,11.284-16.536,22.83-25.267,33.877c-10.271,12.996-21.15,25.509-31.602,38.365c-5.621,6.915-11.67,13.656-16.145,21.287
	c-6.083,10.376-13.273,19.285-23.201,26.193c-4.546,3.164-8.627,7.244-12.189,11.518c-6.001,7.197-11.047,15.201-17.168,22.283
	c-10.282,11.9-20.979,23.449-31.726,34.938c-6.317,6.753-12.991,13.182-19.65,19.605c-4.275,4.123-8.972,7.813-13.188,11.992
	c-2.916,2.891-5.24,6.367-7.996,9.432c-3.541,3.938-7.25,7.725-11.416,12.137c4.563,0,8.303,0,10.823,0
	c5.091-5.668,9.649-10.818,14.291-15.891c4.328-4.728,8.709-9.406,13.131-14.047c4.264-4.475,8.514-8.973,12.945-13.279
	c4.989-4.85,10.27-9.398,15.248-14.26c4.504-4.398,8.75-9.063,13.146-13.572c6.225-6.385,12.514-12.706,18.707-19.121
	c1.597-1.654,2.797-3.695,4.417-5.321c5.035-5.049,10.581-9.646,15.191-15.046c6.02-7.05,11.177-14.828,16.997-22.059
	c5.792-7.196,11.782-14.249,17.991-21.087c4.981-5.486,10.429-10.548,15.648-15.819c1.167-1.178,2.372-2.352,3.349-3.681
	c10.222-13.896,20.646-27.653,30.514-41.796C364.285,31.188,371.847,18.936,379.703,6.889z M78.853,257.094
	c10.335,3.588,15.421-2.908,20.647-9.217c4.024-4.858,7.835-9.955,12.316-14.359c6.778-6.662,15.285-11.707,18.734-21.326
	c0.405-1.129,1.809-1.887,2.714-2.85c8.71-9.27,17.415-18.543,26.116-27.821c5.071-5.407,9.539-11.61,15.37-16.008
	c5.457-4.115,9.405-9.062,13.346-14.378c7.229-9.752,14.303-19.697,22.385-28.717c8.021-8.953,17.254-16.813,25.861-25.25
	c10.764-10.55,21.506-21.124,32.111-31.833c6.151-6.212,12.096-12.636,17.979-19.105c3.229-3.552,5.757-7.815,9.275-11.017
	c6.09-5.542,12.533-10.496,17.06-17.726c2.812-4.491,7.528-7.789,11.609-11.839c-4.953-0.96-9.085-0.674-12.626,3.012
	c-4.002,4.166-8.316,8.031-12.458,12.063c-10.073,9.806-21.896,17.831-29.578,30.085c-2.971,4.738-6.591,9.4-10.884,12.914
	c-10.981,8.987-21.138,18.617-29.479,30.168c-3.165,4.383-6.91,8.395-10.71,12.264c-9.151,9.32-18.671,18.286-27.699,27.721
	c-7.338,7.668-13.269,16.95-21.442,23.494c-14.303,11.449-25.629,25.459-37.633,38.964c-11.464,12.899-23.229,25.532-34.64,38.479
	C90.909,241.98,85.045,249.553,78.853,257.094z M318.166,442.084c0.328-6.492,0.941-12.965,0.902-19.434
	c-0.043-7.266-0.95-14.527-0.979-21.793c-0.03-7.654,0.582-15.309,0.828-22.965c0.387-12.029,0.773-24.061,0.994-36.094
	c0.055-2.918-0.438-5.859-0.85-8.766c-0.545-3.844-2.389-7.881-1.698-11.453c2.771-14.334,1.327-28.582,0.421-42.885
	c-0.193-3.053,0.265-6.141,0.189-9.207c-0.078-3.145-0.93-5.348-5.061-4.875c-4.158,0.475-8.412,0.104-12.859,0.104
	c-0.759,7.775-2.301,15.127,0.603,22.342c4.089,10.164,4.765,20.551,3.489,31.408c-1.055,8.977-1.037,18.104-1.065,27.164
	c-0.021,6.688,1.345,13.428,0.835,20.049c-0.602,7.842-1.937,15.756-4.065,23.324c-3.089,10.984,0.462,21.791-0.284,32.662
	c-0.363,5.299-0.349,10.623-0.571,15.932c-0.129,3.074,0.978,4.641,4.327,4.529C308.277,441.961,313.242,442.084,318.166,442.084z
	 M341.273,5.417c-5.053,0-9.781-1.447-12.342,0.294c-5.729,3.896-11.31,8.738-15.199,14.398c-3.773,5.492-8.178,9.841-13.301,13.777
	c-1.438,1.104-2.831,2.313-4.033,3.662c-7.043,7.901-13.835,16.037-21.092,23.734c-4.987,5.291-10.766,9.829-15.884,15.005
	c-10.607,10.727-20.931,21.734-31.531,32.468c-5.352,5.42-11.596,10.038-16.471,15.831c-7.732,9.189-14.495,19.188-21.986,28.59
	c-3.78,4.746-7.925,9.324-12.511,13.274c-5.519,4.753-11.09,9.071-15.343,15.353c-4.856,7.174-11.575,13.071-17.323,19.663
	c-5.205,5.968-10.168,12.146-15.286,18.19c-2.653,3.133-4.929,6.881-8.212,9.127c-8.895,6.088-13.636,15.689-20.773,23.223
	c-1.631,1.721-2.875,3.809-4.3,5.729c7.02,1.68,12.407-0.527,16.657-5.605c4.733-5.656,9.175-11.561,14.02-17.115
	c5.54-6.352,11.435-12.393,17.082-18.653c4.949-5.485,9.769-11.087,14.644-16.638c1.205-1.373,2.432-2.727,3.599-4.131
	c6.127-7.375,12.007-14.971,18.425-22.08c5.5-6.094,11.811-11.451,17.402-17.469c9.022-9.707,17.742-19.695,26.607-29.548
	c1.552-1.724,3.206-3.354,4.797-5.042c7.729-8.2,15.334-16.519,23.219-24.566c5.289-5.4,11.067-10.319,16.449-15.634
	c4.691-4.633,9.203-9.454,13.653-14.321c2.004-2.191,3.622-4.731,5.487-7.054c5.447-6.782,13.414-11.402,16.906-19.89
	c0.803-1.949,1.891-3.981,3.388-5.409c7.436-7.095,14.983-14.077,22.638-20.937C333.679,10.935,337.072,8.647,341.273,5.417z
	 M220.177,263.803c-5.652,0-10.761,0.441-15.753-0.135c-4.303-0.496-5.469,1.363-5.385,4.922c0.139,5.914,0.225,11.842,0.715,17.73
	c0.836,10.027,3.043,19.996,0.191,30.072c-1.584,5.592-1.008,11.131,1.117,16.576c3.029,7.766,2.908,15.49-0.632,23.139
	c-0.679,1.467-1.207,3.178-1.183,4.766c0.158,10.494,0.813,20.99,0.662,31.477c-0.134,9.412-1.252,18.805-1.631,28.217
	c-0.275,6.836-0.055,13.693-0.055,20.473c5.264,0,9.045,0,12.809,0c0.156-3.174,0.352-6.137,0.439-9.104
	c0.393-13.436,0.654-26.877,1.167-40.309c0.323-8.455-0.132-17.162,1.751-25.295c4.617-19.945,4.503-40.217,5.75-60.402
	c0.415-6.723,0.043-13.492,0.037-20.24C220.173,278.648,220.177,271.607,220.177,263.803z M350.859,6.552
	c-0.334-0.603-0.668-1.206-1.002-1.809c-2.733,1.01-5.814,1.52-8.132,3.13c-5.569,3.87-11.026,7.983-16.073,12.506
	c-5.908,5.295-12.611,10.348-16.641,16.932c-4.86,7.941-10.625,14.708-17.113,21.149c-2.57,2.551-4.313,5.929-6.84,8.532
	c-5.732,5.903-11.699,11.582-17.615,17.304c-1.658,1.603-3.667,2.872-5.181,4.588c-4.699,5.326-9.007,11.014-13.891,16.157
	c-7.989,8.416-16.487,16.35-24.44,24.797c-6,6.371-11.199,13.503-17.287,19.781c-4.789,4.941-10.688,8.801-15.545,13.686
	c-4.636,4.66-8.504,10.075-12.816,15.066c-7.675,8.883-15.432,17.697-23.156,26.539c-2.491,2.852-5.105,5.604-7.458,8.565
	c-4.633,5.834-8.17,13.024-13.885,17.403c-9.447,7.24-13.417,18.713-22.39,26.041c-0.145,0.117,0.012,0.604,0.047,1.297
	c1.304-0.168,2.749,0.006,3.814-0.549c9.75-5.068,18.906-10.697,23.407-21.632c1.548-3.762,3.897-7.452,6.708-10.382
	c5.558-5.795,11.404-11.395,17.649-16.433c11.85-9.56,21.196-22.011,34.576-29.776c0.988-0.573,1.934-1.322,2.691-2.173
	c14.998-16.833,30.418-33.29,43.453-51.795c9.451-13.417,18.877-26.916,29.289-39.575c13.463-16.369,27.828-31.999,41.956-47.813
	c4.059-4.543,8.414-8.88,13.025-12.859C335.456,18.807,343.227,12.759,350.859,6.552z M261.699,258.258
	c12.493,2.121,12.496,0.992,17.693-7.523c1.296-2.123,2.346-4.404,3.74-6.457c0.791-1.164,1.966-2.742,3.115-2.877
	c4.998-0.585,7.088-4.452,9.824-7.756c5.265-6.356,10.796-12.494,15.997-18.9c3.117-3.84,6.14-7.828,8.646-12.079
	c7.048-11.958,13.438-24.315,20.771-36.089c9.099-14.607,18.846-28.813,28.394-43.138c3.675-5.513,7.503-10.927,11.381-16.3
	c8.907-12.341,17.997-24.553,26.778-36.982c2.76-3.907,4.632-8.428,7.158-12.514c7.004-11.328,14.178-22.551,21.205-33.864
	c3.277-5.275,6.375-10.663,9.559-16.008c-5.868-2.005-9.484-0.119-12.16,4.853c-3.663,6.806-7.699,13.414-11.654,20.06
	c-7.585,12.744-14.662,25.837-22.977,38.089c-11.898,17.537-24.717,34.451-37.146,51.628
	c-10.593,14.639-21.065,29.367-31.822,43.885c-10.644,14.366-21.683,28.439-32.354,42.785
	C285.744,225.344,275.782,243.212,261.699,258.258z M338.678,441.973c0-1.186,0.037-1.854-0.006-2.516
	c-0.699-10.85-2.654-21.674,0.264-32.543c0.693-2.584,0.769-5.711-0.008-8.238c-2.585-8.428-3.466-16.607-2.988-25.676
	c0.735-13.949-1.805-28.055-2.645-42.111c-0.267-4.469,0.15-9.043,0.824-13.482c0.485-3.201,2.565-6.215,2.795-9.393
	c0.639-8.877,1.223-17.824,0.769-26.689c-0.284-5.533-1.864-10.979,1.022-17.012c-5.803,0-10.561-0.141-15.299,0.102
	c-1.153,0.061-3.193,1.363-3.213,2.133c-0.192,7.684-0.105,15.377,0.021,23.064c0.106,6.525,0.676,13.055,0.486,19.566
	c-0.243,8.33-4.461,16.717,0.962,24.932c0.872,1.318,0.53,3.576,0.422,5.381c-0.306,5.121-0.97,10.225-1.147,15.348
	c-0.354,10.191-0.691,20.393-0.639,30.586c0.067,13.16,0.559,26.316,0.795,39.475c0.102,5.635,0.018,11.273,0.018,17.074
	C327.335,441.973,332.784,441.973,338.678,441.973z M149.417,440.959c-0.624-12.299-1.253-24.287-1.817-36.277
	c-0.084-1.801-0.032-3.643,0.245-5.42c3.065-19.68,5.457-39.412,5.116-59.389c-0.033-1.959,0.455-3.934,0.747-5.893
	c1.571-10.559,1.928-20.949-1.204-31.453c-1.362-4.57-1.199-9.855-0.625-14.684c0.973-8.18,3.233-16.281-2.188-24.383
	c-4.692,0-9.974,0-15.52,0c0,5.779-0.116,11.643,0.051,17.496c0.079,2.781-0.142,6.084,1.224,8.225
	c4.925,7.719,3.626,15.982,2.802,24.139c-0.841,8.324-3.088,16.543-3.477,24.865c-0.423,9.057,0.565,18.182,0.974,27.273
	c0.371,8.242,0.762,16.482,1.198,24.721c0.243,4.604,1.267,9.283,0.723,13.779c-0.637,5.262-3.293,10.295-3.814,15.553
	c-0.693,6.992-0.171,14.107-0.171,21.447C138.663,440.959,143.456,440.959,149.417,440.959z M119.176,263.264
	c0,11.951-0.027,23.313,0.034,34.676c0.008,1.457,0.561,2.904,0.705,4.371c0.302,3.078,0.93,6.205,0.665,9.244
	c-0.962,11.02-2.623,21.99-3.264,33.021c-0.439,7.568,0.694,15.215,0.54,22.814c-0.158,7.768-1.087,15.518-1.565,23.281
	c-0.302,4.91-0.5,9.832-0.562,14.75c-0.129,10.311,3.991,20.572,0.326,30.939c-0.474,1.342-0.624,2.799-1.001,4.559
	c5.124,0,9.892,0,14.239,0c3.203-12.381-0.137-25.621,6.52-37.268c0.543-0.951-0.065-2.572-0.166-3.879
	c-0.771-9.975-2.132-19.945-2.164-29.922c-0.032-10.246,1.727-20.498-1.157-30.656c-0.481-1.693-0.409-3.691-0.066-5.447
	c1.301-6.658,3.615-13.225,4.032-19.92c0.427-6.852,0.475-14.357-1.929-20.564c-2.056-5.311-2.215-10.412-2.75-15.633
	c-0.482-4.703-0.102-9.494-0.102-14.367C127.18,263.264,123.897,263.264,119.176,263.264z M291.051,5.004
	c-1.707,0.358-3.293,0.224-4.162,0.949c-6.032,5.026-12.172,9.968-17.781,15.443c-7.198,7.026-13.848,14.61-20.914,21.776
	c-2.296,2.328-5.554,3.749-7.691,6.182c-8.549,9.727-16.746,19.762-25.234,29.543c-9.018,10.393-18.124,20.711-27.361,30.909
	c-9.99,11.031-20.3,21.775-30.236,32.854c-6.614,7.376-12.116,15.903-19.427,22.453c-5.798,5.194-12.384,9.241-15.445,16.89
	c-0.64,1.598-2.244,2.832-3.476,4.167c-10.097,10.948-20.985,21.081-30.407,32.765c-9.099,11.283-20.14,21.004-30.357,31.381
	c-2.319,2.357-4.76,4.594-7.977,7.686c9.022,0.082,16.84,1.102,20.256-8.188c0.257-0.699,1.226-1.109,1.758-1.742
	c5.208-6.188,10.443-12.355,15.547-18.629c1.101-1.354,1.419-3.376,2.586-4.639c8.877-9.596,17.862-19.092,26.84-28.594
	c7.407-7.84,14.79-15.701,22.294-23.446c8.147-8.409,16.299-16.819,24.677-24.996c8.406-8.205,17.354-15.866,25.578-24.243
	c7.145-7.276,13.369-15.452,20.436-22.813c11.404-11.882,22.635-23.769,30.167-38.722c3.196-6.348,7.708-11.825,14.122-15.731
	c4.326-2.635,8.348-6.188,11.6-10.087C274.791,26.166,282.633,15.739,291.051,5.004z M238.374,264.217
	c0.919,2.703,1.798,4.633,2.218,6.658c0.885,4.273,2.885,8.879,2.049,12.85c-4.35,20.66-1.726,41.385-1.511,62.086
	c0.005,0.48,0.351,0.959,0.349,1.438c-0.014,6.529,0.219,13.074-0.17,19.58c-0.504,8.422-1.735,16.799-2.24,25.221
	c-0.578,9.619-0.65,19.268-1.04,28.898c-0.271,6.691-0.705,13.377-1.089,20.475c5.79,0,10.675,0,16.004,0
	c0.865-8.359,2.166-16.516,2.457-24.709c0.502-14.146,0.404-28.313,0.504-42.473c0.053-7.596-0.126-15.195,0.012-22.791
	c0.139-7.598,1.025-15.211,0.714-22.781c-0.461-11.205-1.96-22.365-2.466-33.57c-0.213-4.729,1.064-9.514,1.51-14.289
	c0.508-5.453,0.844-10.922,1.27-16.592C250.54,264.217,245.076,264.217,238.374,264.217z M390.511,6.846
	c-4.854-1.487-7.839-0.617-10.084,3.061c-2.76,4.521-5.825,8.856-8.743,13.281c-7.099,10.764-13.59,21.993-21.426,32.19
	c-11.172,14.538-21.277,29.901-35.098,42.449c-8.742,7.937-15.629,17.951-23.125,27.214c-5.311,6.563-9.752,13.885-15.45,20.066
	c-13.567,14.717-27.624,28.982-41.539,43.379c-5.613,5.807-11.284,11.564-17.085,17.184c-5.708,5.527-11.773,10.691-17.382,16.314
	c-4.514,4.526-8.503,9.569-12.86,14.258c-5.182,5.572-10.578,10.947-15.716,16.559c-1.149,1.254-1.614,3.137-2.781,5.521
	c4.078,0,6.915,0.213,9.708-0.041c7.706-0.701,15.236-2.432,19.863-9.262c9.748-14.389,19.967-28.283,31.951-41.009
	c10.078-10.702,18.438-23,28.023-34.194c8.179-9.553,17.262-18.328,25.506-27.828c11.828-13.627,23.454-27.442,34.796-41.476
	c9.065-11.216,17.849-22.684,26.267-34.394c10.059-13.995,19.484-28.443,29.406-42.539C379.656,20.6,385.068,13.97,390.511,6.846z
	 M195.199,441.016c0.633-9.729,1.409-18.871,1.779-28.029c0.516-12.703,0.766-25.418,1.041-38.129
	c0.082-3.797-0.175-7.598-0.191-11.398c-0.01-2.232-0.57-4.834,0.354-6.637c4.366-8.521,3.246-16.773,0.373-25.438
	c-1.288-3.883-1.615-8.533-0.859-12.547c1.613-8.563,1.988-17.051,1.117-25.656c-0.998-9.865-2-19.73-2.988-29.467
	c-2.842,0-6.193,0-9.752,0c0,1.383,0.025,2.365-0.004,3.346c-0.361,11.779-0.714,23.561-1.109,35.34
	c-0.139,4.133-0.449,8.262-0.559,12.395c-0.047,1.801,0.786,3.807,0.243,5.383c-4.198,12.182-1.825,24.885-3.048,37.293
	c-0.418,4.234,1.876,8.682,1.842,13.023c-0.062,8.02-0.996,16.029-1.438,24.051c-0.385,7.016-0.721,14.041-0.842,21.064
	c-0.143,8.379-0.033,16.76-0.033,25.406C185.43,441.016,190.188,441.016,195.199,441.016z M159.37,441.256
	c5.604,0,9.927-0.174,14.229,0.061c3.061,0.166,4.171-1.143,4.328-3.965c0.64-11.578,1.479-23.146,1.964-34.73
	c0.324-7.738,0.027-15.502,0.307-23.244c0.124-3.428,2.385-7.422,1.237-10.123c-2.775-6.539-1.632-12.945-1.479-19.471
	c0.147-6.246-0.513-12.598,0.409-18.717c0.953-6.33,2.072-12.463,2.049-18.996c-0.04-11.451,1.48-22.9,1.998-34.367
	c0.209-4.623-0.502-9.289-0.809-14.152c-4.85,0-8.64,0-12.845,0c-0.185,1.633-0.483,3.242-0.527,4.859
	c-0.146,5.32,0.445,10.748-0.412,15.941c-2.258,13.68-3.511,27.381-2.886,41.234c0.208,4.602,0.75,9.193,0.825,13.797
	c0.053,3.283-0.525,6.574-0.639,9.867c-0.472,13.688-0.396,27.414-1.449,41.055c-0.897,11.625-3.121,23.146-4.641,34.729
	C160.349,430.223,159.955,435.449,159.37,441.256z M121.353,257.613c8.487,2.18,13.96-0.367,16.823-8.021
	c0.278-0.742,0.863-1.439,1.466-1.979c6.42-5.74,12.985-11.322,19.292-17.182c13.734-12.764,27.514-25.484,40.922-38.584
	c6.238-6.096,11.742-12.957,17.412-19.613c5.999-7.042,12.27-13.924,17.567-21.473c6.541-9.322,11.348-19.891,20.431-27.317
	c0.888-0.726,1.543-1.739,2.284-2.637c6.691-8.099,13.17-16.386,20.126-24.25c6.598-7.458,13.943-14.256,20.494-21.751
	c5.76-6.589,10.559-14.018,16.335-20.589c13.038-14.833,26.428-29.355,39.641-44.034c1.09-1.21,1.923-2.652,2.876-3.986
	c-8.685,6.03-16.854,12.268-24.549,19.044c-6.303,5.55-12.282,11.52-17.968,17.704c-8.077,8.787-15.709,17.981-23.616,26.925
	c-5.938,6.716-12.455,12.966-17.939,20.025c-17.5,22.527-33.768,45.949-51.908,68.06c-14.747,17.976-34.382,30.208-49.721,47.2
	c-0.205,0.229-0.647,0.232-0.876,0.449c-9.927,9.413-22.392,16.48-28.548,29.39c-3.138,6.581-7.276,12.103-12.784,16.698
	C126.747,253.668,124.215,255.441,121.353,257.613z M498.434,7.931c-4.814,0.438-8.593-3.187-11.141,1.732
	c-5.756,11.115-11.46,22.258-17.253,33.354c-6.213,11.901-12.606,23.708-18.731,35.654c-6.248,12.183-12.02,24.615-18.465,36.689
	c-4.428,8.293-9.806,16.071-14.472,24.243c-4.509,7.898-8.67,15.994-12.935,24.029c-0.684,1.287-1.153,2.695-1.651,4.074
	c-2.778,7.688-4.683,15.834-8.456,22.996c-11.761,22.318-24.227,44.268-36.52,66.543c7.727,2.684,8.395,2.467,11.344-3.135
	c11.813-22.424,23.68-44.82,35.399-67.293c11.608-22.26,23.147-44.558,34.567-66.916c12.512-24.499,24.715-49.157,37.325-73.605
	C483.938,33.71,491.023,21.43,498.434,7.931z M498.174,64.731c-0.472-0.126-0.942-0.253-1.414-0.379
	c-5.013,11.323-10.665,22.415-14.861,34.033c-4.316,11.95-9.246,23.572-15.674,34.437c-5.481,9.267-5.574,19.618-6.699,29.541
	c-0.708,6.239,1.926,12.874-1.367,19.153c-0.412,0.787-0.408,2.087-0.063,2.931c1.994,4.872,4.148,9.679,6.671,15.481
	c3.051-7.838,5.642-14.604,8.313-21.338c5.604-14.123,10.931-28.367,16.978-42.299c5.203-11.989,9.389-23.887,8.1-37.349
	c-0.774-8.08-0.033-16.305,0.014-24.465C498.189,71.229,498.174,67.979,498.174,64.731z M70.05,256.793
	c0.239,0.375,0.478,0.75,0.716,1.123c1.673-0.65,3.833-0.842,4.942-2.023c9.519-10.135,18.921-20.382,28.203-30.734
	c5.166-5.764,9.921-11.894,15.069-17.674c6.371-7.152,13.58-13.646,19.293-21.273c7.436-9.926,16.272-18.253,25.498-26.35
	c4.95-4.345,9.901-8.804,14.152-13.805c12.867-15.141,25.032-30.909,41.296-42.777c1.553-1.134,2.656-2.961,3.777-4.598
	c7.924-11.57,17.102-21.96,27.795-31.099c5.104-4.361,9.563-9.499,14.148-14.437c7.279-7.839,12.945-16.952,21.758-23.659
	c8.827-6.717,16.246-15.286,24.281-23.042c-0.254-0.605-0.507-1.21-0.76-1.815c-5.057,0.67-10.844,0.039-14.975,2.357
	c-4.67,2.62-7.926,7.824-11.664,12.022c-8.246,9.263-15.466,19.729-24.87,27.593c-9.591,8.021-17.109,16.879-22.469,27.991
	c-1.7,3.525-4.226,6.779-6.879,9.697c-11.608,12.769-23.402,25.369-35.13,38.03c-4.483,4.841-8.723,9.939-13.51,14.458
	c-7.569,7.146-15.803,13.603-23.206,20.907c-7.73,7.629-14.771,15.954-22.185,23.908c-12.76,13.689-25.53,27.371-38.385,40.973
	c-8.679,9.182-14.171,20.947-23.922,29.275C71.637,253.027,71.023,255.119,70.05,256.793z M68.288,263.211
	c0,7.945-0.01,15.738,0.002,23.531c0.016,10.012,0.574,20.059-0.075,30.027c-0.633,9.734-2.566,19.313,1.677,28.811
	c1.55,3.471,2.553,7.492,2.594,11.275c0.139,12.902-0.349,25.811-0.433,38.717c-0.098,15.047-0.022,30.096-0.022,45.119
	c4.692,0,8.915,0,12.174,0c0.701-6.539,1.365-12.617,1.986-18.701c0.066-0.645-0.063-1.328-0.195-1.975
	c-1.893-9.186-3.973-18.34-5.632-27.568c-0.785-4.367-2.421-9.65-0.775-13.162c3.522-7.518,3.267-15.406,4.268-23.084
	c1.434-10.99,1.032-22.217,2.39-33.223c0.676-5.477-0.976-9.422-3.407-13.92c-2.253-4.166-4.027-9-4.424-13.676
	c-0.796-9.393-0.503-18.76-3.871-27.928C73.226,263.867,72.252,262.396,68.288,263.211z M152.838,263.654
	c2.998,7.258,2.055,14.076,1.33,21.156c-0.74,7.225,0.482,14.67,1.068,22c0.366,4.582,1.833,9.166,1.606,13.689
	c-0.708,14.188-2,28.346-3.032,42.518c-0.259,3.563-0.213,7.154-0.623,10.695c-0.969,8.371-2.813,16.701-3.043,25.084
	c-0.313,11.422,0.525,22.877,0.92,34.316c0.092,2.664,0.39,5.32,0.566,7.633c5.781,1.875,6.874-0.945,6.429-5.504
	c-0.144-1.475-0.08-3.006,0.136-4.475c1.585-10.803,3.402-21.574,4.799-32.398c0.889-6.881,1.518-13.83,1.678-20.762
	c0.368-15.879,0.347-31.766,0.545-47.648c0.124-9.926,0.034-19.869,0.625-29.77c0.725-12.145,2.062-24.254,3.147-36.535
	C162.797,263.654,158.102,263.654,152.838,263.654z M193.717,258.293c3.805,0.596,8.109,0.965,11.64-3.66
	c5.526-7.242,11.629-14.044,17.251-21.217c9.518-12.145,18.747-24.516,28.305-36.629c4.824-6.111,10.127-11.846,15.171-17.785
	c13.538-15.94,27.097-31.864,40.563-47.867c7.154-8.502,14.971-16.612,20.95-25.891c5.939-9.213,11.494-18.514,19.523-26.118
	c2.392-2.266,4.502-4.867,6.515-7.488c6.54-8.521,12.931-17.157,19.469-25.679c4.229-5.512,8.96-10.669,12.846-16.405
	c4.969-7.333,9.313-15.088,14.046-22.856c-3.801-1.194-6.306-0.362-8.357,2.692c-2.681,3.991-5.752,7.718-8.545,11.637
	c-10.293,14.435-20.46,28.96-30.83,43.339c-8.54,11.84-17.023,23.739-26.051,35.202c-7.189,9.128-15.256,17.561-22.768,26.441
	c-9.311,11.007-18.341,22.251-27.696,33.218c-8.277,9.703-16.914,19.1-25.243,28.76c-6.822,7.912-13.521,15.934-20.102,24.047
	c-8.669,10.689-17.181,21.508-25.737,32.287C200.951,249,197.295,253.725,193.717,258.293z M97.669,441.014
	c2.537,0,4.042-0.168,5.497,0.031c4.417,0.607,5.8-1.367,4.918-5.461c-0.347-1.613-0.836-3.215-0.979-4.846
	c-0.359-4.107-1.78-8.629-0.591-12.271c3.492-10.693,0.203-20.641-2.203-30.633c-1.688-7.01-1.397-13.557,0.178-20.518
	c1.612-7.123,2.16-14.521,2.741-21.834c0.406-5.115,0.175-10.291,0.066-15.436c-0.172-8.205-0.052-16.449-0.835-24.602
	c-1.036-10.777-3.098-21.328,1.186-32.066c2.87-7.195-0.029-10.311-7.935-10.35c-1.283-0.006-2.566,0-4.061,0
	c0,7.756-0.691,15.195,0.146,22.459c1.678,14.568,3.212,29.059,0.851,43.678c-0.501,3.104-1.646,6.395-1.08,9.326
	c2.479,12.828,2.997,25.58,1.058,38.545c-0.926,6.188-1,12.555-0.906,18.834c0.146,9.797,0.755,19.588,1.187,29.379
	C97.132,430.346,97.398,435.439,97.669,441.014z M77.965,262.502c1.065,10.959,2.396,21.051,2.901,31.184
	c0.302,6.07,2.424,11.125,5.235,16.299c1.632,3.002,2.813,6.775,2.659,10.131c-0.571,12.369-1.695,24.719-2.791,37.059
	c-0.567,6.393-1.608,12.74-2.254,19.127c-0.487,4.824-0.895,9.678-0.933,14.52c-0.022,2.764,0.668,5.553,1.212,8.297
	c1.278,6.445,2.744,12.857,3.954,19.316c0.377,2.014,0.241,4.135,0.23,6.205c-0.022,4.336-0.66,8.768,0.088,12.957
	c0.296,1.654,3.613,2.77,6.569,4.842c-0.31-6.449-0.711-11.045-0.697-15.639c0.012-3.965,0.768-7.93,0.721-11.891
	c-0.142-11.838-1.531-23.76-0.519-35.484c1.045-12.098,1.017-24.002-0.195-36.004c-0.326-3.227-0.646-6.529-0.324-9.732
	c1.241-12.352,2.583-24.584,0.639-37.094c-1.406-9.049-1.214-18.367-1.446-27.572c-0.113-4.521-1.513-6.395-6.131-6.506
	C83.743,262.441,80.599,262.502,77.965,262.502z M357.695,265.107c0.435,5.336,0.764,10.377,1.277,15.396
	c0.588,5.74,1.659,11.447,1.932,17.197c0.283,5.939-0.147,11.912-0.255,17.869c-0.06,3.287,0.113,6.596-0.185,9.859
	c-0.646,7.051-2.797,14.219-2.042,21.088c1.469,13.35,0.579,26.422-1.147,39.59c-0.743,5.67-1.591,11.445-1.268,17.109
	c0.639,11.209,2.199,22.363,3.098,33.563c0.482,6.004,0.711,6.369,7.793,4.418c0-8.838-0.081-17.951,0.015-27.063
	c0.309-29.391,0.657-58.779,1.04-88.17c0.232-17.916,0.482-35.832,0.877-53.744c0.137-6.201-0.553-7.15-6.74-7.113
	C360.963,265.113,359.835,265.107,357.695,265.107z M111.515,440.816c0.593,0.094,1.187,0.189,1.78,0.283
	c0.685-5.844,1.926-11.688,1.93-17.531c0.007-9.666-1.186-19.336-1.115-28.998c0.062-8.426,1.583-16.838,1.71-25.266
	c0.157-10.404-0.999-20.842-0.578-31.223c0.347-8.553,2.252-17.035,3.282-25.572c0.311-2.576,0.088-5.232-0.039-7.846
	c-0.222-4.547-0.57-9.088-0.842-13.633c-0.077-1.287-0.106-2.578-0.106-3.867c0.001-5.451-0.372-10.939,0.131-16.344
	c0.666-7.164-1.708-9.447-6.152-7.705c-0.919,4.93-1.901,9.178-2.465,13.48c-0.749,5.713-1.799,11.492-1.585,17.199
	c0.303,8.072,2.091,16.086,2.433,24.16c0.47,11.1,0.198,22.23,0.197,33.348c0,1.467-0.064,2.992-0.454,4.391
	c-3.477,12.514-6.124,24.994-1.717,37.926c1.478,4.334,3.8,9.455,2.72,13.387C107.474,418.549,109.965,429.592,111.515,440.816z"/>
<path fill-rule="evenodd" clip-rule="evenodd" fill="#FFFFFF" d="M485.293,7.246c-8.823,17.405-17.344,34.172-25.826,50.958
	c-6.555,12.97-13.645,25.713-19.398,39.031c-4.375,10.127-10.252,19.056-16.316,28.141c-5.827,8.73-9.813,18.69-14.594,28.117
	c-0.223,0.439-0.196,1.038-0.486,1.404c-7.776,9.836-8.53,22.695-14.368,33.345c-3.737,6.818-7.864,13.423-11.595,20.245
	c-5.678,10.383-11.265,20.82-16.692,31.336c-2.856,5.533-5.238,11.313-7.98,16.908c-0.413,0.844-1.603,1.805-2.47,1.842
	c-4.412,0.186-8.837,0.086-14.094,0.086c2.022-4.578,3.416-8.641,5.507-12.307c9.599-16.83,20.396-33.065,28.763-50.477
	c5.564-11.58,11.877-22.375,18.943-33.011c3.729-5.612,4.918-12.907,7.297-19.427c0.615-1.688,1.284-3.37,2.104-4.966
	c4.287-8.354,8.499-16.751,13.003-24.988c2.683-4.907,5.5-9.817,8.881-14.25c6.583-8.632,12.55-17.529,15.718-28.036
	c3.056-10.133,8.9-18.725,14.673-27.438c5.845-8.821,11.029-18.08,16.54-27.124c1.596-2.62,3.319-5.162,4.334-8.701
	c-1.355,1.002-3.413,1.715-3.959,3.049c-7.047,17.189-19.176,31.343-28.031,47.42c-3.653,6.631-5.699,14.14-9.254,20.835
	c-3.709,6.987-8.431,13.431-12.568,20.198c-2.921,4.779-5.744,9.629-8.359,14.581c-2.773,5.253-4.654,11.071-7.986,15.911
	c-5.472,7.949-8.505,16.717-11.271,25.779c-1.134,3.715-3.292,7.299-5.672,10.418c-6.283,8.238-11.242,17.044-14.99,26.768
	c-2.469,6.407-6.74,12.12-10.219,18.136c-5.14,8.892-10.379,17.728-15.406,26.681c-3.366,5.992-6.189,12.305-9.801,18.137
	c-1.052,1.697-3.908,2.922-6.068,3.156c-4.432,0.48-8.953,0.145-15.167,0.145c2.354-3.926,3.964-6.92,5.863-9.719
	c4.204-6.193,9.171-11.953,12.714-18.492c7.225-13.338,13.098-27.428,20.666-40.553c9.422-16.34,19.934-32.056,30.09-47.969
	c7.305-11.446,15.098-22.591,22.137-34.195c12.196-20.104,23.971-40.463,35.936-60.707c6.723-11.375,13.677-22.62,20.107-34.157
	c2.591-4.646,5.634-6.964,11.02-6.172C479.451,7.543,481.984,7.246,485.293,7.246z"/>
<path fill-rule="evenodd" clip-rule="evenodd" fill="#FFFFFF" d="M498.287,19.411c0.262,3.689,0.524,7.378,0.701,9.867
	c-2.055,1.546-4.045,2.244-4.43,3.453c-6.208,19.455-14.291,38.003-24.852,55.546c-5.675,9.425-11.009,19.125-11.248,30.803
	c-0.077,3.774-2.036,7.717-3.854,11.208c-4.798,9.211-9.873,18.284-15.077,27.273c-2.518,4.348-4.975,8.449-4.665,13.84
	c0.446,7.762-5.384,13.235-8.079,19.87c-1.855,4.567-4.918,8.649-6.713,13.233c-2.469,6.307-3.758,12.398,1.045,18.955
	c3.568,4.873-0.24,10.73-1.443,16.055c-0.643,2.843-2.013,5.527-2.584,8.377c-1.262,6.289,0.868,12.076,3.744,17.447
	c0.651,1.217,3.712,1.994,5.33,1.602c1.594-0.387,3.14-2.303,4.057-3.918c5.725-10.072,5.705-10.154,16.093-17.852
	c-14.423,35.982-28.478,71.043-42.531,106.104c-0.524,0.008-1.048,0.014-1.571,0.02c-0.933-2.139-1.873-4.273-2.797-6.416
	c-1.16-2.691-2.054-5.549-3.605-7.988c-0.488-0.768-2.726-0.533-4.166-0.559c-1.887-0.033-4.566,0.926-5.478,0.021
	c-1.25-1.242-2.091-4.178-1.493-5.787c3.555-9.568,7.743-18.9,11.361-28.445c1.566-4.139,4.147-8.215,1.438-13.168
	c-1.834-3.352-4.309-4.844-7.797-5.238c-5.926-0.67-6.703-1.295-5.598-6.887c1.498-7.578,3.215-15.145,5.44-22.533
	c0.911-3.023,3.2-5.725,5.202-8.309c4.701-6.066,8.158-12.293,6.652-20.508c-0.487-2.663-0.063-6.684,1.642-8.359
	c9.642-9.49,10.722-22.434,14.876-34.169c4.398-12.419,8.888-24.837,14.113-36.919c4.258-9.848,9.548-19.259,14.594-28.75
	c3.418-6.429,7.472-12.526,10.76-19.016c3.801-7.505,6.895-15.367,10.617-22.915c7.467-15.145,15.109-30.204,22.781-45.246
	c1.905-3.734,4.203-7.267,6.32-10.892C497.478,19.278,497.882,19.344,498.287,19.411z"/>
<path fill-rule="evenodd" clip-rule="evenodd" fill="#FFFFFF" d="M277.49,258.975c3.357-6.436,4.545-13.441,12.076-15.986
	c1.34-0.453,2.67-1.439,3.596-2.527c7.717-9.063,15.892-17.811,22.814-27.451c5.748-8.005,9.651-17.307,14.971-25.651
	c9.799-15.368,20.077-30.431,30.08-45.671c6.272-9.557,12.137-19.395,18.688-28.753c5.395-7.706,11.898-14.639,17.246-22.374
	c6.851-9.908,13.076-20.25,19.494-30.454c7.061-11.225,14.016-22.517,21.052-33.757c3.481-5.562,6.989-11.111,10.62-16.576
	c0.713-1.072,2.014-2.413,3.1-2.465c5.27-0.256,10.559-0.115,16.608-0.115c-7.776,13.141-15.281,25.519-22.482,38.071
	c-7.58,13.213-14.823,26.62-22.313,39.885c-2.68,4.746-5.594,9.364-8.513,13.97c-2.478,3.91-5.058,7.759-7.693,11.564
	c-7.712,11.134-15.644,22.121-23.149,33.391c-3.924,5.891-7,12.336-10.701,18.383c-5.617,9.18-11.857,18-17.068,27.398
	c-5.498,9.913-10.013,20.367-15.128,30.5c-2.524,4.998-5.067,10.057-8.25,14.639c-5.567,8.016-11.634,15.684-17.581,23.615
	c-3.076,0-6.824,0-11.467,0c6.308-8.227,12.155-15.58,17.669-23.175c2.413-3.325,4.151-7.144,6.183-10.745
	c10.398-18.449,20.479-37.088,31.277-55.3c11.092-18.702,22.736-37.084,34.416-55.429c10.059-15.798,20.85-31.136,30.686-47.067
	c9.029-14.624,17.125-29.821,25.83-44.65c2.625-4.472,5.912-8.557,8.895-12.818c-0.395-0.409-0.789-0.818-1.184-1.227
	c-0.955,0.571-2.318,0.906-2.805,1.748c-7.691,13.283-15.08,26.744-22.934,39.928c-6.261,10.512-12.97,20.762-19.635,31.028
	c-14.265,21.972-28.828,43.752-42.87,65.866c-7.113,11.199-13.45,22.898-19.978,34.463c-10.008,17.732-19.533,35.748-29.965,53.223
	c-4.609,7.723-10.807,14.529-16.593,21.494c-1.298,1.563-3.851,2.764-5.901,2.891C290.51,259.217,284.4,258.975,277.49,258.975z"/>
<path fill-rule="evenodd" clip-rule="evenodd" fill="#FFFFFF" d="M499.024,33.441c-0.329,5.966-1.254,11.976-0.827,17.887
	c0.487,6.764-2.911,11.81-5.377,17.503c-5.956,13.752-11.051,27.877-17,41.634c-3.271,7.563-7.738,14.601-11.351,22.027
	c-3.512,7.22-6.149,14.454-5.941,23.011c0.223,9.107-1.98,18.27-3.021,27.419c-0.137,1.202,0.127,2.563,0.581,3.7
	c2.014,5.05,4.271,10.006,6.187,15.09c0.443,1.178,0.22,2.857-0.254,4.092c-3.919,10.205-7.335,20.684-12.273,30.381
	c-2.149,4.221-7.081,7.692-11.549,9.842c-3.256,1.566-4.979,3.344-6.082,6.35c-1.02,2.783-1.753,5.711-3.11,8.313
	c-0.737,1.414-2.513,2.287-3.82,3.402c-0.869-1.07-1.81-2.09-2.597-3.219c-5.151-7.389-2.863-14.938-0.487-22.514
	c1.081-3.45,2.188-6.918,2.881-10.455c0.532-2.717,0.634-5.266-2.38-7.396c-3.068-2.17-3.101-9.551-0.855-13.986
	c4.459-8.811,9.006-17.578,13.303-26.469c1.052-2.176,1.957-4.813,1.758-7.137c-0.803-9.346,5.861-15.551,9.256-23.09
	c4.654-10.334,12.341-20.078,14.003-30.809c2.783-17.961,13.614-31.398,20.786-46.874c5.203-11.225,9.479-22.879,14.227-34.318
	c0.693-1.67,1.718-3.203,2.589-4.8C498.121,33.165,498.572,33.303,499.024,33.441z"/>
<path fill-rule="evenodd" clip-rule="evenodd" fill="#FFFFFF" d="M278.073,264.59c5.445,0,10.419-0.057,15.392,0.02
	c3.103,0.049,3.949,1.986,3.511,4.732c-1.364,8.553,0.558,16.414,3.646,24.473c3.298,8.605,1.889,17.834,1.324,26.984
	c-0.811,13.168,0.092,26.432-0.223,39.643c-0.178,7.416-0.438,15.037-2.275,22.148c-2.229,8.617-3.458,16.902-2.68,25.895
	c0.958,11.066,0.229,22.277,0.229,33.541c-7.441,0-13.424,0-19.808,0c-3.116-9.066-2.782-18.428-1.937-27.768
	c1.105-12.191,3.088-24.332,3.574-36.539c0.321-8.035-1.772-16.139-1.963-24.23c-0.166-7.102,0.964-14.227,1.244-21.352
	c0.33-8.355,0.355-16.725,0.526-25.088c0.03-1.451-0.029-2.93,0.225-4.346c2.008-11.189-0.31-22.266-0.776-33.389
	C278.02,267.822,278.073,266.326,278.073,264.59z"/>
<path fill-rule="evenodd" clip-rule="evenodd" fill="#FFFFFF" d="M6.08,262.244c5.503,0,10.306,0.082,15.103-0.029
	c3.498-0.082,3.583,2.506,3.706,4.732c0.714,12.889,1.101,25.797,2.022,38.67c0.26,3.629,1.944,7.154,2.97,10.729
	c0.765,2.668,2.333,5.404,2.124,7.994c-0.543,6.707-2.047,13.332-2.84,20.027c-0.964,8.152-2.109,16.336-2.235,24.52
	c-0.151,9.813,0.713,19.639,1.075,29.461c0.048,1.307,0.028,2.76-0.477,3.92c-4.011,9.215-3.283,18.447-0.838,27.9
	c0.79,3.053,0.124,6.48,0.124,10.004c-6.33,0.297-12.057,0.559-17.783,0.838c-2.821,0.137-3.118-1.512-3.112-3.844
	c0.07-28.494,0.056-56.99,0.077-85.486c0.021-27.791,0.056-55.582,0.085-83.373C6.082,266.494,6.08,264.682,6.08,262.244z"/>
<path fill-rule="evenodd" clip-rule="evenodd" fill="#FFFFFF" d="M135.915,258.248c5.551-12.947,17.562-19.618,26.796-28.828
	c15.128-15.088,31.177-29.264,46.075-44.566c9.7-9.963,18.13-21.178,26.951-31.976c2.177-2.664,3.433-6.066,5.515-8.823
	c4.967-6.574,10.145-12.992,15.295-19.426c4.855-6.064,9.549-12.282,14.736-18.052c8.308-9.238,17.179-17.974,25.4-27.285
	c5.579-6.317,10.16-13.513,15.709-19.861c10.273-11.752,20.953-23.149,31.416-34.738c4.986-5.525,9.559-11.471,14.941-16.57
	c2.049-1.941,5.84-2.042,8.836-2.981c0.26,0.566,0.52,1.132,0.778,1.698c-4.345,5.572-8.719,11.121-13.026,16.72
	c-9.392,12.207-18.535,24.61-28.18,36.613c-9.528,11.858-19.727,23.178-29.268,35.026c-4.022,4.994-7.201,10.682-10.61,16.15
	c-5.497,8.819-11.839,16.729-20.651,22.61c-6.603,4.406-12.502,9.741-16.044,17.155c-0.496,1.038-1.087,2.089-1.855,2.932
	c-9.831,10.788-19.743,21.503-29.552,32.312c-9.011,9.928-17.796,20.064-26.943,29.862c-3.247,3.478-7.569,5.942-10.881,9.371
	c-10.003,10.356-19.731,20.978-29.64,31.425c-0.669,0.707-1.935,1.148-2.94,1.18C144.479,258.322,140.177,258.248,135.915,258.248z"
	/>
<path fill-rule="evenodd" clip-rule="evenodd" fill="#FFFFFF" d="M77.163,209.732c-3.069,2.645-6.204,5.219-9.19,7.954
	c-3.171,2.903-6.211,5.952-9.292,8.953c-5.565,5.421-11.041,10.938-16.703,16.255c-4.948,4.648-10.039,9.15-15.218,13.537
	c-1.006,0.852-2.698,1.18-4.094,1.232c-4.125,0.156-8.26,0.057-13.917,0.057c9.56-9.664,18.078-18.344,26.669-26.949
	c34.399-34.455,68.841-68.867,103.227-103.335c20.067-20.114,40.052-40.309,60.083-60.458
	c18.878-18.986,37.785-37.943,56.643-56.949c5.834-5.88,5.949-5.99,15.602-4.769c-4.33,4.532-8.354,8.763-12.4,12.971
	c-5.377,5.591-10.563,11.389-16.22,16.68c-5.558,5.197-11.818,9.642-17.351,14.862c-3.195,3.016-6.418,6.542-8.121,10.488
	c-3.495,8.104-9.238,14.065-15.621,19.735c-2.039,1.811-3.59,4.171-5.363,6.28c0.001,0,0.195-0.131,0.195-0.131
	c-1.346,1.175-2.805,2.245-4.019,3.543c-9.271,9.908-17.78,20.41-29.071,28.473c-8.414,6.008-15.038,14.458-22.9,21.315
	c-12.599,10.99-26.014,21.068-34.729,35.867c-2.834,4.813-6.404,9.279-10.147,13.446c-4.743,5.28-10.112,9.994-14.979,15.171
	c-1.481,1.576-2.194,3.875-3.259,5.843L77.163,209.732z"/>
<path fill-rule="evenodd" clip-rule="evenodd" fill="#FFFFFF" d="M222.511,264.309c5.024,0,9.478,0,14.117,0
	c1.138,4.574,3.079,8.971,3.151,13.396c0.144,8.852-1.082,17.717-1.104,26.578c-0.023,10.055,0.651,20.111,1.024,30.168
	c0.056,1.488,0.222,2.979,0.161,4.461c-0.718,17.414-1.428,34.826-2.225,52.236c-0.755,16.496-1.611,32.986-2.451,50.051
	c-6.518,0-12.631,0.203-18.704-0.201c-0.996-0.066-2.591-2.816-2.581-4.318c0.045-7.133,0.707-14.258,0.852-21.393
	c0.172-8.488-0.506-17.025,0.164-25.465c1.111-13.988,3.16-27.9,4.514-41.873c0.818-8.457,1.1-16.969,1.566-25.457
	c0.492-8.943,1.107-17.887,1.318-26.838c0.201-8.48-0.07-16.973-0.092-25.459C222.219,268.393,222.395,266.588,222.511,264.309z"/>
<path fill-rule="evenodd" clip-rule="evenodd" fill="#FFFFFF" d="M418.174,175.083c-1.96,6.995-3.967,13.978-5.865,20.987
	c-1.977,7.296-5.404,13.558-10.463,19.387c-2.407,2.775-2.787,8.109-2.555,12.197c0.396,6.997-1.307,12.543-6.471,17.432
	c-2.26,2.139-3.857,5.387-4.805,8.426c-2.922,9.381-5.385,18.904-8.36,29.568c3.913,1.184,7.105,2.406,10.41,3.088
	c4.413,0.91,6.422,4.025,5.882,7.779c-0.641,4.451-2.551,8.75-4.152,13.025c-3.114,8.314-6.62,16.492-9.438,24.902
	c-0.618,1.848,0.294,5.666,1.671,6.408c2.547,1.373,5.958,1.145,9.01,1.582c0.333-0.563,0.667-1.123,1.001-1.686
	c2.28,5.82,4.562,11.641,7.378,18.83c-9.346,22.27-19.391,46.203-29.435,70.137c-0.342-0.006-0.685-0.012-1.026-0.018
	c0-3.457,0-6.914,0-10.373c0-22.289-0.215-44.58,0.06-66.865c0.274-22.221,1.063-44.434,1.573-66.652
	c0.141-6.123-1.018-12.521,0.4-18.309c1.768-7.211,5.209-14.111,8.588-20.812c11.24-22.292,22.775-44.436,34.201-66.634
	c0.447-0.868,0.928-1.719,1.393-2.576C417.505,174.967,417.84,175.025,418.174,175.083z"/>
<path fill-rule="evenodd" clip-rule="evenodd" fill="#FFFFFF" d="M77.163,209.732l-0.176,0.071c3.741-3.95,7.592-7.802,11.199-11.87
	c6.022-6.791,11.904-13.707,17.815-20.596c7.196-8.389,14.158-16.99,21.634-25.121c3.197-3.477,7.672-5.744,11.157-9
	c7.983-7.461,14.893-16.373,23.746-22.529c12.515-8.703,21.655-20.379,31.864-31.167c0.828-0.875,1.14-2.238,1.691-3.375
	c0,0-0.194,0.131-0.195,0.131c2.517-1.992,5.197-3.81,7.518-6.009c6.107-5.791,11.675-11.708,15.482-19.704
	c2.906-6.104,8.584-11.533,14.246-15.548c12.234-8.677,21.09-20.555,31.57-30.872c4.553-4.481,8.735-9.567,16.07-9.071
	c0.418,0.028,0.814,0.369,1.416,0.657c-3.004,2.831-5.998,5.379-8.674,8.229c-6.977,7.43-13.811,14.995-20.713,22.497
	c-0.786,0.855-1.521,1.84-2.484,2.438c-12.723,7.9-20.704,20.382-30.273,31.311c-9.28,10.596-18.061,21.643-27.586,32.008
	c-9.047,9.846-19.003,18.854-28.12,28.643c-5.517,5.922-11.003,12.156-15.039,19.102c-4.743,8.162-11.41,13.631-19.127,18.369
	c-1.518,0.932-3.463,2.026-4.036,3.502c-3.813,9.82-11.853,16.142-18.72,23.471c-7.794,8.316-15.426,16.787-23.02,25.287
	c-11.337,12.691-22.948,25.09-36.644,35.324c-0.896,0.67-1.992,1.469-3.018,1.502c-4.771,0.16-9.551,0.07-14.262,0.07
	C45.994,241.616,61.578,225.674,77.163,209.732z"/>
<path fill-rule="evenodd" clip-rule="evenodd" fill="#FFFFFF" d="M272.236,442.129c-4.637-0.254-10.25-0.563-16.48-0.904
	c0.491-9.639,1.345-19.041,1.366-28.447c0.036-15.996-0.733-31.994-0.616-47.988c0.076-10.506,1.132-21.006,1.705-31.51
	c0.104-1.912,0.136-3.848-0.034-5.75c-1.46-16.363-3.301-32.699-0.151-49.105c0.855-4.455,0.767-9.09,1.137-13.975
	c5.291,0,10.209,0,15.766,0c0.569,3.699,1.655,7.537,1.652,11.373c-0.006,9.143,2.385,18.035,0.753,27.471
	c-1.581,9.141-0.194,18.764-0.524,28.16c-0.297,8.447-1.605,16.875-1.612,25.313c-0.005,6.066,1.7,12.115,2.075,18.207
	c0.293,4.732-0.128,9.531-0.516,14.277C275.333,406.656,273.791,424.055,272.236,442.129z"/>
<path fill-rule="evenodd" clip-rule="evenodd" fill="#FFFFFF" d="M426.217,6.436c-4.756,7.092-8.602,12.859-12.479,18.605
	c-15.187,22.505-30.063,45.229-45.693,67.421c-9.734,13.821-20.54,26.894-31.002,40.194c-9.054,11.51-18.331,22.843-27.455,34.297
	c-10.32,12.956-20.417,26.094-30.921,38.898c-7.184,8.757-14.953,17.031-22.338,25.629c-1.709,1.988-3.168,4.287-4.307,6.654
	c-4.002,8.318-10.104,14.904-17.607,19.896c-2.437,1.621-6.543,0.732-9.885,0.99c-0.357-0.504-0.715-1.008-1.072-1.514
	c8.387-11.402,16.773-22.807,25.158-34.211c0.489-0.666,1.041-1.305,1.425-2.029c5.52-10.404,13.734-18.578,21.806-26.947
	c7.249-7.516,13.881-15.625,20.885-23.383c5.957-6.596,12.637-12.623,17.983-19.67c15.819-20.85,30.976-42.199,46.718-63.107
	c7.878-10.462,16.794-20.144,24.628-30.635c6.32-8.464,11.634-17.675,17.558-26.443c5.275-7.808,10.438-15.74,16.413-22.988
	C417.482,6.332,421.928,7.036,426.217,6.436z"/>
<path fill-rule="evenodd" clip-rule="evenodd" fill="#FFFFFF" d="M204.91,258.73c9.061-11.498,17.227-21.84,25.367-32.2
	c8.617-10.964,17.078-22.053,25.854-32.888c8.344-10.302,16.898-20.439,25.557-30.48c11.707-13.58,23.956-26.709,35.286-40.593
	c7.379-9.042,13.407-19.176,20.298-28.632c3.306-4.536,7.197-8.646,10.847-12.93c2.788-3.271,5.742-6.409,8.397-9.783
	c7.374-9.371,14.594-18.862,21.943-28.251c7.34-9.375,14.578-18.738,19.754-29.628c3.633-7.643,5.873-8.15,14.529-6.602
	c-5.051,7.696-10.246,15.407-15.217,23.26c-3.262,5.154-5.709,10.887-9.377,15.709c-9.817,12.904-20.242,25.344-30.137,38.191
	c-5.758,7.475-10.754,15.532-16.463,23.048c-7.319,9.638-15.162,18.879-22.492,28.508c-5.808,7.629-10.965,15.755-16.849,23.319
	c-2.679,3.443-6.634,5.86-9.629,9.096c-11.698,12.638-23.243,25.415-34.845,38.141c-0.449,0.491-0.945,0.948-1.341,1.479
	c-6.919,9.284-13.992,18.461-20.667,27.918c-3.423,4.851-6.379,10.078-9.097,15.365c-3.356,6.531-8.553,8.795-15.54,7.977
	C209.633,258.584,208.139,258.73,204.91,258.73z"/>
<path fill-rule="evenodd" clip-rule="evenodd" fill="#FFFFFF" d="M50.699,440.33c-0.221-6.896-0.107-13.932-0.781-20.893
	c-0.505-5.213-2.75-10.303-2.93-15.492c-0.317-9.08,0.369-18.193,0.61-27.293c0.145-5.467,1.134-11.098,0.169-16.367
	c-1.784-9.748,2.697-18.154,4.455-27.119c0.815-4.16,0.641-7.82-0.262-12.035c-1.225-5.723-2.446-11.563-0.569-17.922
	c2.379-8.063,5.464-16.516,2.553-25.199c-1.638-4.889-3.884-9.572-6.105-14.949c5.911,0,11.297,0,17.404,0
	c0.222,4.594,0.596,9.328,0.653,14.068c0.168,14.01,1.166,28.1,0.002,42.004c-0.936,11.178,0.877,21.238,3.561,31.998
	c2.664,10.68,1.208,22.438,1.184,33.723c-0.021,10.221-0.541,20.441-0.857,30.662c-0.23,7.459-0.288,14.936-0.938,22.361
	c-0.104,1.182-2.878,2.934-4.496,3.023C60.103,441.137,55.811,440.602,50.699,440.33z"/>
<path fill-rule="evenodd" clip-rule="evenodd" fill="#FFFFFF" d="M433.973,7.897c-3.051,4.449-6.496,8.683-9.057,13.398
	c-3.764,6.929-6.316,14.558-10.421,21.252c-7.871,12.839-16.173,25.442-24.843,37.758c-11.348,16.118-23.23,31.858-34.873,47.769
	c-11.164,15.259-22.359,30.496-33.462,45.8c-11.656,16.065-23.271,32.163-34.799,48.32c-5.759,8.071-11.295,16.302-16.915,24.472
	c-6.848,9.955-15.422,13.34-30.254,11.602c0.941-1.182,1.73-2.09,2.427-3.063c4.12-5.768,8.194-11.566,12.337-17.318
	c1.15-1.598,2.437-3.105,3.729-4.596c6.684-7.702,13.574-15.232,20.043-23.11c9.868-12.019,19.393-24.319,29.171-36.413
	c9.292-11.494,18.879-22.752,28.05-34.34c10.09-12.748,20.098-25.577,29.693-38.697c11.154-15.25,22.041-30.708,32.631-46.354
	c7.566-11.178,14.304-22.914,21.718-34.2c2.793-4.252,6.317-8.06,9.8-11.799c0.948-1.018,2.957-1.048,4.479-1.531
	C433.607,7.197,433.79,7.547,433.973,7.897z"/>
<path fill-rule="evenodd" clip-rule="evenodd" fill="#FFFFFF" d="M358.048,442.023c-6.327,0-11.431,0-17.157,0
	c0-11.432,0.161-22.598-0.068-33.756c-0.115-5.592,0.051-11.518-1.736-16.658c-1.735-4.99-1.711-9.447-1.324-14.484
	c0.553-7.207,0.104-14.516-0.266-21.764c-0.53-10.398-1.479-20.773-2-31.172c-0.117-2.338,0.884-4.713,1.22-7.094
	c0.841-5.959,1.77-11.916,2.319-17.904c0.348-3.795,0.074-7.646,0.086-11.471c0.012-4.105-0.002-8.209,0.063-12.313
	c0.029-1.797,0.131-3.605,0.361-5.387c0.521-4.018,2.024-6.34,6.858-5.037c2.962,0.799,7.458-0.76,9.044,0.885
	c1.613,1.674,0.318,5.992,0.622,9.121c0.89,9.15,2.778,18.289,2.718,27.422c-0.075,11.4,1.355,23.012-2.551,34.221
	c-0.775,2.229-0.512,5.01-0.101,7.43c2.957,17.393,0.13,34.512-1.927,51.717c-0.683,5.701-0.348,11.607,0.199,17.357
	C355.315,422.656,356.771,432.125,358.048,442.023z"/>
<path fill-rule="evenodd" clip-rule="evenodd" fill="#FFFFFF" d="M27.556,262.547c4.375,0,8.998-0.439,13.465,0.199
	c2.02,0.287,4.407,2.352,5.443,4.256c2.008,3.688,2.866,7.988,4.762,11.752c3.522,6.992,1.133,14.123-0.856,20.301
	c-2.497,7.754-2.61,15.01-0.435,22.283c2.067,6.91,0.538,13.492-1.863,19.293c-3.567,8.615-2.612,17.271-2.937,25.955
	c-0.467,12.502-0.567,25.016-0.81,37.525c-0.026,1.328-0.175,2.705,0.104,3.977c1.168,5.326,2.949,10.564,3.599,15.943
	c0.626,5.176,0.135,10.486,0.135,16.18c-5.896,0-11.753,0-18.331,0c-0.87-9.631-2.197-19.318-2.421-29.031
	c-0.103-4.438,2.078-8.902,3.007-13.398c0.429-2.078,1.069-4.541,0.373-6.352c-5.021-13.076-1.833-26.441-1.311-39.602
	c0.343-8.631,3.453-17.121,4.293-25.773c0.402-4.139-1.524-8.523-2.518-12.768c-0.664-2.838-2.118-5.604-2.218-8.436
	c-0.296-8.387,0.068-16.795-0.149-25.186C28.744,274.096,28.043,268.541,27.556,262.547z"/>
<path fill-rule="evenodd" clip-rule="evenodd" fill="#FFFFFF" d="M379.703,6.889c-7.856,12.047-15.418,24.299-23.645,36.088
	c-9.868,14.143-20.292,27.9-30.514,41.796c-0.977,1.33-2.182,2.503-3.349,3.681c-5.22,5.271-10.667,10.333-15.648,15.819
	c-6.209,6.838-12.199,13.892-17.991,21.087c-5.82,7.23-10.978,15.009-16.997,22.059c-4.61,5.4-10.156,9.997-15.191,15.046
	c-1.62,1.626-2.82,3.667-4.417,5.321c-6.193,6.415-12.482,12.736-18.707,19.121c-4.396,4.51-8.643,9.174-13.146,13.572
	c-4.979,4.861-10.259,9.41-15.248,14.26c-4.432,4.307-8.682,8.805-12.945,13.279c-4.422,4.641-8.803,9.319-13.131,14.047
	c-4.642,5.072-9.2,10.223-14.291,15.891c-2.52,0-6.26,0-10.823,0c4.167-4.412,7.875-8.199,11.416-12.137
	c2.756-3.064,5.08-6.541,7.996-9.432c4.216-4.179,8.912-7.869,13.188-11.992c6.659-6.424,13.333-12.853,19.65-19.605
	c10.747-11.488,21.443-23.037,31.726-34.938c6.121-7.082,11.167-15.086,17.168-22.283c3.563-4.273,7.644-8.354,12.189-11.518
	c9.928-6.908,17.118-15.816,23.201-26.193c4.475-7.63,10.523-14.372,16.145-21.287c10.451-12.856,21.33-25.369,31.602-38.365
	c8.73-11.048,16.831-22.594,25.267-33.877c2.276-3.044,4.331-6.507,7.284-8.709c2.144-1.599,5.6-1.439,8.471-2.063
	C379.208,6.002,379.455,6.445,379.703,6.889z"/>
<path fill-rule="evenodd" clip-rule="evenodd" fill="#FFFFFF" d="M78.853,257.094c6.193-7.541,12.056-15.113,18.375-22.282
	c11.41-12.946,23.175-25.579,34.64-38.479c12.004-13.505,23.33-27.515,37.633-38.964c8.173-6.544,14.104-15.826,21.442-23.494
	c9.028-9.436,18.548-18.401,27.699-27.721c3.8-3.869,7.545-7.88,10.71-12.264c8.341-11.551,18.497-21.181,29.479-30.168
	c4.293-3.513,7.913-8.175,10.884-12.914c7.683-12.254,19.505-20.279,29.578-30.085c4.142-4.033,8.456-7.898,12.458-12.063
	c3.541-3.686,7.673-3.972,12.626-3.012c-4.081,4.05-8.798,7.348-11.609,11.839c-4.526,7.23-10.97,12.184-17.06,17.726
	c-3.519,3.202-6.047,7.465-9.275,11.017c-5.883,6.469-11.827,12.893-17.979,19.105c-10.605,10.708-21.348,21.283-32.111,31.833
	c-8.607,8.437-17.841,16.296-25.861,25.25c-8.082,9.02-15.155,18.965-22.385,28.717c-3.94,5.316-7.889,10.263-13.346,14.378
	c-5.831,4.397-10.299,10.601-15.37,16.008c-8.701,9.278-17.406,18.552-26.116,27.821c-0.905,0.963-2.309,1.721-2.714,2.85
	c-3.449,9.619-11.956,14.664-18.734,21.326c-4.481,4.404-8.292,9.501-12.316,14.359C94.273,254.186,89.188,260.682,78.853,257.094z"
	/>
<path fill-rule="evenodd" clip-rule="evenodd" fill="#FFFFFF" d="M318.166,442.084c-4.924,0-9.889-0.123-14.844,0.043
	c-3.35,0.111-4.456-1.455-4.327-4.529c0.223-5.309,0.208-10.633,0.571-15.932c0.746-10.871-2.805-21.678,0.284-32.662
	c2.129-7.568,3.464-15.482,4.065-23.324c0.51-6.621-0.855-13.361-0.835-20.049c0.028-9.061,0.011-18.188,1.065-27.164
	c1.275-10.857,0.6-21.244-3.489-31.408c-2.903-7.215-1.361-14.566-0.603-22.342c4.447,0,8.701,0.371,12.859-0.104
	c4.131-0.473,4.982,1.73,5.061,4.875c0.075,3.066-0.383,6.154-0.189,9.207c0.906,14.303,2.35,28.551-0.421,42.885
	c-0.69,3.572,1.153,7.609,1.698,11.453c0.411,2.906,0.904,5.848,0.85,8.766c-0.221,12.033-0.607,24.064-0.994,36.094
	c-0.246,7.656-0.858,15.311-0.828,22.965c0.028,7.266,0.936,14.527,0.979,21.793C319.107,429.119,318.494,435.592,318.166,442.084z"
	/>
<path fill-rule="evenodd" clip-rule="evenodd" fill="#FFFFFF" d="M341.273,5.417c-4.201,3.23-7.595,5.519-10.613,8.225
	c-7.654,6.86-15.202,13.842-22.638,20.937c-1.497,1.428-2.585,3.46-3.388,5.409c-3.492,8.488-11.459,13.107-16.906,19.89
	c-1.865,2.323-3.483,4.863-5.487,7.054c-4.45,4.867-8.962,9.688-13.653,14.321c-5.382,5.315-11.16,10.234-16.449,15.634
	c-7.885,8.047-15.49,16.367-23.219,24.566c-1.591,1.688-3.245,3.318-4.797,5.042c-8.865,9.853-17.585,19.841-26.607,29.548
	c-5.592,6.018-11.902,11.375-17.402,17.469c-6.418,7.109-12.298,14.705-18.425,22.08c-1.167,1.404-2.394,2.758-3.599,4.131
	c-4.875,5.551-9.695,11.152-14.644,16.638c-5.647,6.261-11.542,12.302-17.082,18.653c-4.845,5.555-9.287,11.459-14.02,17.115
	c-4.25,5.078-9.638,7.285-16.657,5.605c1.424-1.92,2.669-4.008,4.3-5.729c7.137-7.533,11.878-17.135,20.773-23.223
	c3.283-2.246,5.559-5.994,8.212-9.127c5.118-6.045,10.082-12.223,15.286-18.19c5.749-6.592,12.467-12.489,17.323-19.663
	c4.253-6.281,9.824-10.6,15.343-15.353c4.586-3.95,8.73-8.528,12.511-13.274c7.491-9.402,14.254-19.4,21.986-28.59
	c4.875-5.793,11.119-10.411,16.471-15.831c10.601-10.734,20.924-21.741,31.531-32.468c5.118-5.176,10.896-9.714,15.884-15.005
	c7.257-7.698,14.049-15.833,21.092-23.734c1.202-1.349,2.596-2.558,4.033-3.662c5.123-3.936,9.527-8.285,13.301-13.777
	c3.89-5.661,9.471-10.503,15.199-14.398C331.492,3.97,336.221,5.417,341.273,5.417z"/>
<path fill-rule="evenodd" clip-rule="evenodd" fill="#FFFFFF" d="M220.177,263.803c0,7.805-0.004,14.846,0.001,21.887
	c0.006,6.748,0.378,13.518-0.037,20.24c-1.247,20.186-1.133,40.457-5.75,60.402c-1.883,8.133-1.428,16.84-1.751,25.295
	c-0.513,13.432-0.774,26.873-1.167,40.309c-0.088,2.967-0.283,5.93-0.439,9.104c-3.764,0-7.545,0-12.809,0
	c0-6.779-0.221-13.637,0.055-20.473c0.379-9.412,1.497-18.805,1.631-28.217c0.15-10.486-0.504-20.982-0.662-31.477
	c-0.024-1.588,0.504-3.299,1.183-4.766c3.54-7.648,3.661-15.373,0.632-23.139c-2.125-5.445-2.701-10.984-1.117-16.576
	c2.852-10.076,0.645-20.045-0.191-30.072c-0.49-5.889-0.576-11.816-0.715-17.73c-0.084-3.559,1.082-5.418,5.385-4.922
	C209.416,264.244,214.524,263.803,220.177,263.803z"/>
<path fill-rule="evenodd" clip-rule="evenodd" fill="#FFFFFF" d="M350.859,6.552c-7.633,6.207-15.403,12.255-22.849,18.679
	c-4.611,3.979-8.967,8.315-13.025,12.859c-14.128,15.814-28.493,31.444-41.956,47.813c-10.412,12.66-19.838,26.159-29.289,39.575
	c-13.035,18.505-28.455,34.962-43.453,51.795c-0.758,0.851-1.703,1.6-2.691,2.173c-13.38,7.766-22.726,20.217-34.576,29.776
	c-6.245,5.038-12.091,10.638-17.649,16.433c-2.81,2.93-5.159,6.62-6.708,10.382c-4.501,10.935-13.657,16.563-23.407,21.632
	c-1.066,0.555-2.51,0.381-3.814,0.549c-0.036-0.693-0.192-1.18-0.047-1.297c8.973-7.328,12.943-18.801,22.39-26.041
	c5.715-4.379,9.252-11.569,13.885-17.403c2.352-2.962,4.967-5.714,7.458-8.565c7.725-8.842,15.481-17.656,23.156-26.539
	c4.313-4.991,8.181-10.406,12.816-15.066c4.857-4.885,10.756-8.744,15.545-13.686c6.088-6.278,11.287-13.41,17.287-19.781
	c7.953-8.447,16.451-16.382,24.44-24.797c4.884-5.144,9.191-10.831,13.891-16.157c1.514-1.716,3.522-2.985,5.181-4.588
	c5.916-5.722,11.883-11.4,17.615-17.304c2.527-2.604,4.27-5.981,6.84-8.532c6.488-6.441,12.253-13.208,17.113-21.149
	c4.029-6.583,10.732-11.636,16.641-16.932c5.047-4.523,10.504-8.636,16.073-12.506c2.317-1.61,5.398-2.12,8.132-3.13
	C350.191,5.346,350.525,5.949,350.859,6.552z"/>
<path fill-rule="evenodd" clip-rule="evenodd" fill="#FFFFFF" d="M261.699,258.258c14.083-15.046,24.045-32.914,36.149-49.188
	c10.671-14.346,21.71-28.419,32.354-42.785c10.757-14.518,21.229-29.246,31.822-43.885c12.429-17.177,25.247-34.091,37.146-51.628
	c8.314-12.252,15.392-25.345,22.977-38.089c3.955-6.646,7.991-13.254,11.654-20.06c2.676-4.971,6.292-6.858,12.16-4.853
	c-3.184,5.346-6.281,10.733-9.559,16.008c-7.027,11.313-14.201,22.537-21.205,33.864c-2.526,4.086-4.398,8.607-7.158,12.514
	c-8.781,12.429-17.871,24.641-26.778,36.982c-3.878,5.373-7.706,10.788-11.381,16.3c-9.548,14.325-19.295,28.53-28.394,43.138
	c-7.334,11.773-13.724,24.131-20.771,36.089c-2.506,4.251-5.528,8.239-8.646,12.079c-5.201,6.406-10.732,12.544-15.997,18.9
	c-2.736,3.304-4.826,7.171-9.824,7.756c-1.149,0.135-2.324,1.713-3.115,2.877c-1.395,2.053-2.444,4.334-3.74,6.457
	C274.195,259.25,274.192,260.379,261.699,258.258z"/>
<path fill-rule="evenodd" clip-rule="evenodd" fill="#FFFFFF" d="M338.678,441.973c-5.894,0-11.343,0-17.566,0
	c0-5.801,0.084-11.439-0.018-17.074c-0.236-13.158-0.728-26.314-0.795-39.475c-0.053-10.193,0.285-20.395,0.639-30.586
	c0.178-5.123,0.842-10.227,1.147-15.348c0.108-1.805,0.45-4.063-0.422-5.381c-5.423-8.215-1.205-16.602-0.962-24.932
	c0.189-6.512-0.38-13.041-0.486-19.566c-0.127-7.688-0.214-15.381-0.021-23.064c0.02-0.77,2.06-2.072,3.213-2.133
	c4.738-0.242,9.496-0.102,15.299-0.102c-2.887,6.033-1.307,11.479-1.022,17.012c0.454,8.865-0.13,17.813-0.769,26.689
	c-0.229,3.178-2.31,6.191-2.795,9.393c-0.674,4.439-1.091,9.014-0.824,13.482c0.84,14.057,3.38,28.162,2.645,42.111
	c-0.478,9.068,0.403,17.248,2.988,25.676c0.776,2.527,0.701,5.654,0.008,8.238c-2.918,10.869-0.963,21.693-0.264,32.543
	C338.715,440.119,338.678,440.787,338.678,441.973z"/>
<path fill-rule="evenodd" clip-rule="evenodd" fill="#FFFFFF" d="M149.417,440.959c-5.961,0-10.754,0-15.736,0
	c0-7.34-0.522-14.455,0.171-21.447c0.521-5.258,3.177-10.291,3.814-15.553c0.544-4.496-0.479-9.176-0.723-13.779
	c-0.436-8.238-0.827-16.479-1.198-24.721c-0.409-9.092-1.396-18.217-0.974-27.273c0.389-8.322,2.636-16.541,3.477-24.865
	c0.824-8.156,2.123-16.42-2.802-24.139c-1.366-2.141-1.145-5.443-1.224-8.225c-0.167-5.854-0.051-11.717-0.051-17.496
	c5.546,0,10.828,0,15.52,0c5.421,8.102,3.161,16.203,2.188,24.383c-0.574,4.828-0.737,10.113,0.625,14.684
	c3.131,10.504,2.774,20.895,1.204,31.453c-0.292,1.959-0.78,3.934-0.747,5.893c0.34,19.977-2.051,39.709-5.116,59.389
	c-0.277,1.777-0.33,3.619-0.245,5.42C148.164,416.672,148.793,428.66,149.417,440.959z"/>
<path fill-rule="evenodd" clip-rule="evenodd" fill="#FFFFFF" d="M119.176,263.264c4.721,0,8.004,0,12.332,0
	c0,4.873-0.38,9.664,0.102,14.367c0.535,5.221,0.695,10.322,2.75,15.633c2.404,6.207,2.356,13.713,1.929,20.564
	c-0.417,6.695-2.731,13.262-4.032,19.92c-0.343,1.756-0.415,3.754,0.066,5.447c2.883,10.158,1.125,20.41,1.157,30.656
	c0.032,9.977,1.393,19.947,2.164,29.922c0.101,1.307,0.709,2.928,0.166,3.879c-6.656,11.646-3.316,24.887-6.52,37.268
	c-4.347,0-9.115,0-14.239,0c0.377-1.76,0.527-3.217,1.001-4.559c3.665-10.367-0.455-20.629-0.326-30.939
	c0.062-4.918,0.26-9.84,0.562-14.75c0.478-7.764,1.407-15.514,1.565-23.281c0.154-7.6-0.979-15.246-0.54-22.814
	c0.641-11.031,2.301-22.002,3.264-33.021c0.266-3.039-0.362-6.166-0.665-9.244c-0.144-1.467-0.697-2.914-0.705-4.371
	C119.149,286.576,119.176,275.215,119.176,263.264z"/>
<path fill-rule="evenodd" clip-rule="evenodd" fill="#FFFFFF" d="M291.051,5.004c-8.418,10.734-16.26,21.162-24.607,31.167
	c-3.252,3.898-7.273,7.452-11.6,10.087c-6.414,3.906-10.926,9.384-14.122,15.731c-7.532,14.953-18.763,26.84-30.167,38.722
	c-7.066,7.362-13.291,15.537-20.436,22.813c-8.225,8.377-17.172,16.038-25.578,24.243c-8.377,8.177-16.529,16.587-24.677,24.996
	c-7.504,7.745-14.888,15.606-22.294,23.446c-8.979,9.502-17.963,18.998-26.84,28.594c-1.167,1.263-1.485,3.285-2.586,4.639
	c-5.104,6.273-10.339,12.44-15.547,18.629c-0.533,0.633-1.501,1.043-1.758,1.742c-3.416,9.289-11.234,8.27-20.256,8.188
	c3.217-3.092,5.658-5.328,7.977-7.686c10.217-10.377,21.258-20.098,30.357-31.381c9.422-11.684,20.311-21.816,30.407-32.765
	c1.231-1.335,2.836-2.569,3.476-4.167c3.061-7.648,9.647-11.695,15.445-16.89c7.311-6.55,12.813-15.077,19.427-22.453
	c9.936-11.079,20.246-21.823,30.236-32.854c9.237-10.198,18.344-20.517,27.361-30.909c8.488-9.782,16.686-19.817,25.234-29.543
	c2.138-2.433,5.396-3.854,7.691-6.182c7.066-7.166,13.716-14.75,20.914-21.776c5.609-5.476,11.749-10.417,17.781-15.443
	C287.758,5.228,289.344,5.362,291.051,5.004z"/>
<path fill-rule="evenodd" clip-rule="evenodd" fill="#FFFFFF" d="M238.374,264.217c6.702,0,12.166,0,18.569,0
	c-0.426,5.67-0.762,11.139-1.27,16.592c-0.445,4.775-1.723,9.561-1.51,14.289c0.506,11.205,2.005,22.365,2.466,33.57
	c0.312,7.57-0.575,15.184-0.714,22.781c-0.138,7.596,0.041,15.195-0.012,22.791c-0.1,14.16-0.002,28.326-0.504,42.473
	c-0.291,8.193-1.592,16.35-2.457,24.709c-5.329,0-10.214,0-16.004,0c0.384-7.098,0.818-13.783,1.089-20.475
	c0.39-9.631,0.462-19.279,1.04-28.898c0.505-8.422,1.736-16.799,2.24-25.221c0.389-6.506,0.156-13.051,0.17-19.58
	c0.002-0.479-0.344-0.957-0.349-1.438c-0.215-20.701-2.839-41.426,1.511-62.086c0.836-3.971-1.164-8.576-2.049-12.85
	C240.172,268.85,239.293,266.92,238.374,264.217z"/>
<path fill-rule="evenodd" clip-rule="evenodd" fill="#FFFFFF" d="M390.511,6.846c-5.442,7.124-10.854,13.753-15.769,20.733
	c-9.922,14.096-19.348,28.544-29.406,42.539c-8.418,11.709-17.201,23.177-26.267,34.394c-11.342,14.034-22.968,27.849-34.796,41.476
	c-8.244,9.5-17.327,18.275-25.506,27.828c-9.585,11.194-17.945,23.492-28.023,34.194c-11.984,12.726-22.203,26.62-31.951,41.009
	c-4.627,6.83-12.157,8.561-19.863,9.262c-2.793,0.254-5.629,0.041-9.708,0.041c1.167-2.385,1.631-4.268,2.781-5.521
	c5.138-5.611,10.534-10.986,15.716-16.559c4.357-4.688,8.347-9.731,12.86-14.258c5.608-5.623,11.674-10.787,17.382-16.314
	c5.801-5.619,11.472-11.377,17.085-17.184c13.915-14.396,27.972-28.662,41.539-43.379c5.698-6.182,10.14-13.504,15.45-20.066
	c7.496-9.263,14.383-19.277,23.125-27.214c13.82-12.548,23.926-27.911,35.098-42.449c7.836-10.197,14.327-21.426,21.426-32.19
	c2.918-4.425,5.983-8.759,8.743-13.281C382.672,6.229,385.656,5.359,390.511,6.846z"/>
<path fill-rule="evenodd" clip-rule="evenodd" fill="#FFFFFF" d="M195.199,441.016c-5.012,0-9.77,0-14.074,0
	c0-8.646-0.109-17.027,0.033-25.406c0.121-7.023,0.457-14.049,0.842-21.064c0.441-8.021,1.376-16.031,1.438-24.051
	c0.034-4.342-2.26-8.789-1.842-13.023c1.223-12.408-1.15-25.111,3.048-37.293c0.543-1.576-0.29-3.582-0.243-5.383
	c0.109-4.133,0.42-8.262,0.559-12.395c0.396-11.779,0.748-23.561,1.109-35.34c0.029-0.98,0.004-1.963,0.004-3.346
	c3.559,0,6.91,0,9.752,0c0.988,9.736,1.99,19.602,2.988,29.467c0.871,8.605,0.496,17.094-1.117,25.656
	c-0.756,4.014-0.429,8.664,0.859,12.547c2.873,8.664,3.993,16.916-0.373,25.438c-0.924,1.803-0.363,4.404-0.354,6.637
	c0.017,3.801,0.273,7.602,0.191,11.398c-0.275,12.711-0.525,25.426-1.041,38.129C196.608,422.145,195.832,431.287,195.199,441.016z"
	/>
<path fill-rule="evenodd" clip-rule="evenodd" fill="#FFFFFF" d="M159.37,441.256c0.584-5.807,0.979-11.033,1.66-16.223
	c1.52-11.582,3.744-23.104,4.641-34.729c1.053-13.641,0.977-27.367,1.449-41.055c0.113-3.293,0.692-6.584,0.639-9.867
	c-0.075-4.604-0.618-9.195-0.825-13.797c-0.625-13.854,0.628-27.555,2.886-41.234c0.857-5.193,0.267-10.621,0.412-15.941
	c0.044-1.617,0.343-3.227,0.527-4.859c4.205,0,7.995,0,12.845,0c0.307,4.863,1.018,9.529,0.809,14.152
	c-0.518,11.467-2.038,22.916-1.998,34.367c0.023,6.533-1.096,12.666-2.049,18.996c-0.922,6.119-0.262,12.471-0.409,18.717
	c-0.153,6.525-1.297,12.932,1.479,19.471c1.147,2.701-1.113,6.695-1.237,10.123c-0.279,7.742,0.018,15.506-0.307,23.244
	c-0.485,11.584-1.324,23.152-1.964,34.73c-0.156,2.822-1.267,4.131-4.328,3.965C169.297,441.082,164.974,441.256,159.37,441.256z"/>
<path fill-rule="evenodd" clip-rule="evenodd" fill="#FFFFFF" d="M121.353,257.613c2.862-2.172,5.394-3.945,7.759-5.92
	c5.507-4.596,9.646-10.117,12.784-16.698c6.156-12.909,18.622-19.977,28.548-29.39c0.229-0.217,0.671-0.221,0.876-0.449
	c15.339-16.992,34.974-29.225,49.721-47.2c18.141-22.11,34.408-45.533,51.908-68.06c5.484-7.06,12.002-13.31,17.939-20.025
	c7.907-8.944,15.539-18.139,23.616-26.925c5.686-6.185,11.665-12.154,17.968-17.704c7.694-6.777,15.864-13.015,24.549-19.044
	c-0.953,1.334-1.786,2.775-2.876,3.986c-13.213,14.679-26.603,29.202-39.641,44.034c-5.776,6.571-10.575,14-16.335,20.589
	c-6.551,7.495-13.896,14.293-20.494,21.751c-6.956,7.864-13.435,16.151-20.126,24.25c-0.741,0.897-1.396,1.911-2.284,2.637
	c-9.083,7.427-13.89,17.995-20.431,27.317c-5.298,7.549-11.568,14.431-17.567,21.473c-5.67,6.656-11.174,13.518-17.412,19.613
	c-13.408,13.1-27.188,25.82-40.922,38.584c-6.307,5.859-12.872,11.441-19.292,17.182c-0.603,0.539-1.188,1.236-1.466,1.979
	C135.313,257.246,129.84,259.793,121.353,257.613z"/>
<path fill-rule="evenodd" clip-rule="evenodd" fill="#FFFFFF" d="M498.434,7.931c-7.41,13.499-14.495,25.78-20.987,38.366
	c-12.61,24.448-24.813,49.107-37.325,73.605c-11.42,22.358-22.959,44.656-34.567,66.916c-11.72,22.473-23.587,44.869-35.399,67.293
	c-2.949,5.602-3.617,5.818-11.344,3.135c12.293-22.275,24.759-44.225,36.52-66.543c3.773-7.162,5.678-15.308,8.456-22.996
	c0.498-1.379,0.968-2.787,1.651-4.074c4.265-8.035,8.426-16.131,12.935-24.029c4.666-8.172,10.044-15.95,14.472-24.243
	c6.445-12.074,12.217-24.506,18.465-36.689c6.125-11.945,12.519-23.753,18.731-35.654c5.793-11.096,11.497-22.239,17.253-33.354
	C489.841,4.744,493.619,8.368,498.434,7.931z"/>
<path fill-rule="evenodd" clip-rule="evenodd" fill="#FFFFFF" d="M498.174,64.731c0,3.249,0.016,6.498-0.004,9.746
	c-0.047,8.16-0.788,16.385-0.014,24.465c1.289,13.462-2.896,25.36-8.1,37.349c-6.047,13.932-11.373,28.176-16.978,42.299
	c-2.672,6.734-5.263,13.5-8.313,21.338c-2.522-5.803-4.677-10.609-6.671-15.481c-0.345-0.844-0.349-2.144,0.063-2.931
	c3.293-6.279,0.659-12.914,1.367-19.153c1.125-9.923,1.218-20.274,6.699-29.541c6.428-10.864,11.357-22.486,15.674-34.437
	c4.196-11.618,9.849-22.71,14.861-34.033C497.231,64.478,497.702,64.604,498.174,64.731z"/>
<path fill-rule="evenodd" clip-rule="evenodd" fill="#FFFFFF" d="M70.05,256.793c0.973-1.674,1.586-3.766,2.975-4.951
	c9.75-8.328,15.243-20.094,23.922-29.275c12.855-13.602,25.625-27.283,38.385-40.973c7.414-7.954,14.454-16.279,22.185-23.908
	c7.403-7.305,15.637-13.762,23.206-20.907c4.787-4.519,9.026-9.617,13.51-14.458c11.728-12.661,23.521-25.261,35.13-38.03
	c2.653-2.918,5.179-6.172,6.879-9.697c5.359-11.112,12.878-19.97,22.469-27.991c9.404-7.864,16.624-18.33,24.87-27.593
	c3.738-4.199,6.994-9.402,11.664-12.022c4.131-2.319,9.918-1.687,14.975-2.357c0.253,0.605,0.506,1.21,0.76,1.815
	c-8.035,7.757-15.454,16.325-24.281,23.042c-8.813,6.707-14.479,15.82-21.758,23.659c-4.586,4.938-9.045,10.075-14.148,14.437
	c-10.693,9.139-19.871,19.529-27.795,31.099c-1.121,1.637-2.225,3.464-3.777,4.598c-16.264,11.868-28.429,27.637-41.296,42.777
	c-4.251,5.001-9.202,9.46-14.152,13.805c-9.225,8.097-18.062,16.424-25.498,26.35c-5.714,7.627-12.923,14.121-19.293,21.273
	c-5.148,5.78-9.903,11.91-15.069,17.674c-9.282,10.353-18.684,20.6-28.203,30.734c-1.109,1.182-3.269,1.373-4.942,2.023
	C70.528,257.543,70.289,257.168,70.05,256.793z"/>
<path fill-rule="evenodd" clip-rule="evenodd" fill="#FFFFFF" d="M68.288,263.211c3.964-0.814,4.938,0.656,6.255,4.244
	c3.368,9.168,3.075,18.535,3.871,27.928c0.396,4.676,2.171,9.51,4.424,13.676c2.431,4.498,4.083,8.443,3.407,13.92
	c-1.358,11.006-0.956,22.232-2.39,33.223c-1.001,7.678-0.746,15.566-4.268,23.084c-1.646,3.512-0.009,8.795,0.775,13.162
	c1.659,9.229,3.739,18.383,5.632,27.568c0.133,0.646,0.261,1.33,0.195,1.975c-0.622,6.084-1.286,12.162-1.986,18.701
	c-3.259,0-7.482,0-12.174,0c0-15.023-0.075-30.072,0.022-45.119c0.084-12.906,0.572-25.814,0.433-38.717
	c-0.041-3.783-1.043-7.805-2.594-11.275c-4.243-9.498-2.31-19.076-1.677-28.811c0.649-9.969,0.091-20.016,0.075-30.027
	C68.278,278.949,68.288,271.156,68.288,263.211z"/>
<path fill-rule="evenodd" clip-rule="evenodd" fill="#FFFFFF" d="M152.838,263.654c5.264,0,9.959,0,16.152,0
	c-1.086,12.281-2.422,24.391-3.147,36.535c-0.591,9.9-0.501,19.844-0.625,29.77c-0.198,15.883-0.177,31.77-0.545,47.648
	c-0.161,6.932-0.79,13.881-1.678,20.762c-1.397,10.824-3.214,21.596-4.799,32.398c-0.215,1.469-0.28,3-0.136,4.475
	c0.445,4.559-0.647,7.379-6.429,5.504c-0.176-2.313-0.474-4.969-0.566-7.633c-0.396-11.439-1.233-22.895-0.92-34.316
	c0.23-8.383,2.074-16.713,3.043-25.084c0.41-3.541,0.364-7.133,0.623-10.695c1.033-14.172,2.324-28.33,3.032-42.518
	c0.226-4.523-1.241-9.107-1.606-13.689c-0.585-7.33-1.808-14.775-1.068-22C154.894,277.73,155.836,270.912,152.838,263.654z"/>
<path fill-rule="evenodd" clip-rule="evenodd" fill="#FFFFFF" d="M193.717,258.293c3.578-4.568,7.234-9.293,10.948-13.973
	c8.557-10.779,17.068-21.598,25.737-32.287c6.58-8.113,13.279-16.135,20.102-24.047c8.329-9.66,16.966-19.057,25.243-28.76
	c9.355-10.967,18.386-22.211,27.696-33.218c7.512-8.881,15.578-17.313,22.768-26.441c9.027-11.463,17.511-23.362,26.051-35.202
	c10.37-14.379,20.537-28.904,30.83-43.339c2.793-3.918,5.864-7.646,8.545-11.637c2.052-3.054,4.557-3.886,8.357-2.692
	c-4.732,7.768-9.077,15.523-14.046,22.856c-3.886,5.736-8.616,10.894-12.846,16.405c-6.538,8.522-12.929,17.159-19.469,25.679
	c-2.013,2.622-4.123,5.223-6.515,7.488c-8.029,7.604-13.584,16.905-19.523,26.118c-5.979,9.278-13.796,17.389-20.95,25.891
	c-13.466,16.003-27.024,31.927-40.563,47.867c-5.044,5.939-10.347,11.674-15.171,17.785c-9.558,12.113-18.787,24.484-28.305,36.629
	c-5.622,7.173-11.725,13.975-17.251,21.217C201.826,259.258,197.521,258.889,193.717,258.293z"/>
<path fill-rule="evenodd" clip-rule="evenodd" fill="#FFFFFF" d="M97.669,441.014c-0.271-5.574-0.537-10.668-0.762-15.764
	c-0.432-9.791-1.041-19.582-1.187-29.379c-0.094-6.279-0.02-12.646,0.906-18.834c1.939-12.965,1.421-25.717-1.058-38.545
	c-0.566-2.932,0.579-6.223,1.08-9.326c2.361-14.619,0.827-29.109-0.851-43.678c-0.836-7.264-0.146-14.703-0.146-22.459
	c1.495,0,2.777-0.006,4.061,0c7.906,0.039,10.805,3.154,7.935,10.35c-4.284,10.738-2.222,21.289-1.186,32.066
	c0.784,8.152,0.663,16.396,0.835,24.602c0.108,5.145,0.34,10.32-0.066,15.436c-0.581,7.313-1.129,14.711-2.741,21.834
	c-1.575,6.961-1.865,13.508-0.178,20.518c2.406,9.992,5.695,19.939,2.203,30.633c-1.189,3.643,0.231,8.164,0.591,12.271
	c0.143,1.631,0.631,3.232,0.979,4.846c0.882,4.094-0.5,6.068-4.918,5.461C101.711,440.846,100.206,441.014,97.669,441.014z"/>
<path fill-rule="evenodd" clip-rule="evenodd" fill="#FFFFFF" d="M77.965,262.502c2.633,0,5.777-0.061,8.918,0.014
	c4.618,0.111,6.018,1.984,6.131,6.506c0.231,9.205,0.04,18.523,1.446,27.572c1.944,12.51,0.602,24.742-0.639,37.094
	c-0.322,3.203-0.002,6.506,0.324,9.732c1.212,12.002,1.24,23.906,0.195,36.004c-1.013,11.725,0.377,23.646,0.519,35.484
	c0.047,3.961-0.708,7.926-0.721,11.891c-0.014,4.594,0.387,9.189,0.697,15.639c-2.957-2.072-6.273-3.188-6.569-4.842
	c-0.749-4.189-0.11-8.621-0.088-12.957c0.011-2.07,0.147-4.191-0.23-6.205c-1.21-6.459-2.676-12.871-3.954-19.316
	c-0.544-2.744-1.234-5.533-1.212-8.297c0.038-4.842,0.446-9.695,0.933-14.52c0.646-6.387,1.687-12.734,2.254-19.127
	c1.096-12.34,2.22-24.689,2.791-37.059c0.155-3.355-1.027-7.129-2.659-10.131c-2.811-5.174-4.933-10.229-5.235-16.299
	C80.361,283.553,79.031,273.461,77.965,262.502z"/>
<path fill-rule="evenodd" clip-rule="evenodd" fill="#FFFFFF" d="M357.695,265.107c2.14,0,3.268,0.006,4.395,0
	c6.188-0.037,6.877,0.912,6.74,7.113c-0.395,17.912-0.645,35.828-0.877,53.744c-0.383,29.391-0.731,58.779-1.04,88.17
	c-0.096,9.111-0.015,18.225-0.015,27.063c-7.082,1.951-7.311,1.586-7.793-4.418c-0.898-11.199-2.459-22.354-3.098-33.563
	c-0.323-5.664,0.524-11.439,1.268-17.109c1.727-13.168,2.616-26.24,1.147-39.59c-0.755-6.869,1.396-14.037,2.042-21.088
	c0.298-3.264,0.125-6.572,0.185-9.859c0.107-5.957,0.538-11.93,0.255-17.869c-0.272-5.75-1.344-11.457-1.932-17.197
	C358.459,275.484,358.13,270.443,357.695,265.107z"/>
<path fill-rule="evenodd" clip-rule="evenodd" fill="#FFFFFF" d="M111.515,440.816c-1.549-11.225-4.041-22.268-0.87-33.811
	c1.08-3.932-1.243-9.053-2.72-13.387c-4.407-12.932-1.76-25.412,1.717-37.926c0.389-1.398,0.454-2.924,0.454-4.391
	c0.001-11.117,0.273-22.248-0.197-33.348c-0.341-8.074-2.129-16.088-2.433-24.16c-0.214-5.707,0.836-11.486,1.585-17.199
	c0.564-4.303,1.546-8.551,2.465-13.48c4.443-1.742,6.818,0.541,6.152,7.705c-0.503,5.404-0.13,10.893-0.131,16.344
	c0,1.289,0.029,2.58,0.106,3.867c0.272,4.545,0.62,9.086,0.842,13.633c0.127,2.613,0.35,5.27,0.039,7.846
	c-1.03,8.537-2.935,17.02-3.282,25.572c-0.421,10.381,0.734,20.818,0.578,31.223c-0.127,8.428-1.648,16.84-1.71,25.266
	c-0.071,9.662,1.122,19.332,1.115,28.998c-0.004,5.844-1.245,11.688-1.93,17.531C112.701,441.006,112.108,440.91,111.515,440.816z"
	/>
<path fill-rule="evenodd" clip-rule="evenodd" d="M196.092,86.146c-0.552,1.137-0.863,2.5-1.691,3.375
	c-10.209,10.787-19.349,22.463-31.864,31.167c-8.853,6.156-15.762,15.068-23.746,22.529c-3.484,3.256-7.959,5.523-11.157,9
	c-7.476,8.131-14.438,16.732-21.634,25.121c-5.911,6.889-11.793,13.805-17.815,20.596c-3.607,4.068-7.458,7.92-11.199,11.87
	c1.065-1.968,1.778-4.267,3.259-5.843c4.867-5.177,10.236-9.891,14.979-15.171c3.743-4.167,7.313-8.634,10.147-13.446
	c8.716-14.799,22.13-24.877,34.729-35.867c7.862-6.857,14.487-15.307,22.9-21.315c11.292-8.063,19.801-18.565,29.071-28.473
	C193.287,88.391,194.746,87.321,196.092,86.146z"/>
</svg>
