<?xml version="1.0" encoding="utf-8"?>
<!-- Generator: Adobe Illustrator 16.0.0, SVG Export Plug-In . SVG Version: 6.00 Build 0)  -->
<!DOCTYPE svg PUBLIC "-//W3C//DTD SVG 1.1//EN" "http://www.w3.org/Graphics/SVG/1.1/DTD/svg11.dtd">
<svg version="1.1" id="Layer_1" xmlns="http://www.w3.org/2000/svg" xmlns:xlink="http://www.w3.org/1999/xlink" x="0px" y="0px"
	 width="106.73px" height="106.73px" viewBox="0 0 106.73 106.73" enable-background="new 0 0 106.73 106.73" xml:space="preserve">
<rect x="0.263" y="0.877" fill="#FFFFFF" width="105.167" height="105.166"/>
<path fill="none" stroke="#000000" stroke-width="0.292" d="M18.593,46.471l23.919,12.897 M24.661,43.308l23.6,12.73 M12.415,49.741
	l24.166,13.003 M30.056,73.421l22.965-13.482 M29.919,80.812l23.087-13.513 M30.026,87.671l22.949-13.52 M70.57,62.881v26.463
	 M64.549,59.596v26.326 M58.557,56.326v26.372 M58.895,49.893l23.873,12.775L58.895,49.893 M65.236,46.213l24.162,12.988
	L65.236,46.213 M70.879,42.989l24.299,13.108L70.879,42.989 M75.719,40.16l24.539,13.14L76.411,66.075L100.258,53.3L75.719,40.16
	 M53.021,40.996L75.939,27.02 M52.975,47.703l22.919-13.991 M52.975,34.183l23.102-14.036 M35.47,16.617V43.08 M41.371,20.298V46.76
	 M47.135,23.674v26.371 M23.943,63.109v26.874 M17.555,59.733v26.873 M11.639,56.494l-0.015,26.873 M29.722,93.207L52.96,79.58
	 M75.719,40.16L30.201,66.44 M29.478,13.028L52.96,27.02l23.238-14.112 M77.05,85.648l23.269-12.273 M77.004,79.169l23.359-12.364
	 M76.959,72.28l23.404-12.319 M81.962,16.024l0.017,27.512 M88.105,19.249l-0.015,27.572 M94.129,22.275l0.03,27.739 M48.017,3.371
	l22.159,13.247 M42.04,6.58l22.539,13.444 M36.018,9.743l23.025,13.688 M5.787,32.252l24.178-13.019 M5.909,39.658l24.056-13.003
	 M6.046,47.156l23.797-12.714 M30.201,66.44L5.845,53.3l24.356-13.14L5.845,53.3l24.356-13.14 M52.96,27.02V79.58 M29.478,13.028
	L52.96,27.02 M53.137,53.402L30.201,40.16 M52.96,0.694l47.269,24.865v54.75L52.96,105.86L5.875,80.31V25.378L52.96,0.694z"/>
<rect x="47.85" y="-4.188" fill="#FFFFFF" width="8.943" height="4.699"/>
<polyline fill="#FFFFFF" points="74.723,9.956 77.324,7.584 80.473,11.051 79.559,13.378 78.191,13.561 74.176,11.416 74.723,9.956 
	"/>
<line fill="#FFFFFF" x1="35.379" y1="90.059" x2="58.618" y2="102.712"/>
<line fill="none" stroke="#000000" stroke-width="0.292" x1="35.379" y1="90.059" x2="58.618" y2="102.712"/>
<line fill="#FFFFFF" x1="41.736" y1="86.409" x2="64.975" y2="99.062"/>
<line fill="none" stroke="#000000" stroke-width="0.292" x1="41.736" y1="86.409" x2="64.975" y2="99.062"/>
<line fill="#FFFFFF" x1="47.439" y1="82.88" x2="71.027" y2="95.777"/>
<line fill="none" stroke="#000000" stroke-width="0.292" x1="47.439" y1="82.88" x2="71.027" y2="95.777"/>
<line fill="none" stroke="#000000" stroke-width="0.292" x1="76.883" y1="66.235" x2="76.943" y2="92.446"/>
<line fill="#FFFFFF" x1="53.059" y1="79.686" x2="76.868" y2="92.72"/>
<line fill="none" stroke="#000000" stroke-width="0.292" x1="53.059" y1="79.686" x2="76.868" y2="92.72"/>
<line fill="#FFFFFF" x1="53.439" y1="53.467" x2="77.027" y2="66.364"/>
<line fill="none" stroke="#000000" stroke-width="0.292" x1="53.439" y1="53.467" x2="77.027" y2="66.364"/>
<path fill="none" stroke="#000000" stroke-width="0.292" d="M30.087,66.387V93.26 M75.955,13.241V40.16 M30.087,13.515l0.015,26.584
	"/>
<rect x="0.25" y="0.25" fill-rule="evenodd" clip-rule="evenodd" fill="none" width="106.23" height="106.23"/>
<rect x="0.25" y="0.25" fill="none" stroke="#010101" stroke-width="0.5" stroke-miterlimit="10" width="106.23" height="106.23"/>
</svg>
