<?xml version="1.0" encoding="utf-8"?>
<!-- Generator: Adobe Illustrator 16.0.0, SVG Export Plug-In . SVG Version: 6.00 Build 0)  -->
<!DOCTYPE svg PUBLIC "-//W3C//DTD SVG 1.1//EN" "http://www.w3.org/Graphics/SVG/1.1/DTD/svg11.dtd">
<svg version="1.1" id="Layer_1" xmlns="http://www.w3.org/2000/svg" xmlns:xlink="http://www.w3.org/1999/xlink" x="0px" y="0px"
	 width="107.047px" height="106.822px" viewBox="0 0 107.047 106.822" enable-background="new 0 0 107.047 106.822"
	 xml:space="preserve">
<path fill="none" stroke="#000000" stroke-width="0.296" d="M53.326,74.57H0 M53.326,95.938H0 M53.326,85.255H0 M95.922,106.622
	v-53.28 M53.326,63.933H0 M74.602,106.622v-53.28 M85.238,106.622v-53.28 M63.963,106.622v-53.28 M53.326,31.882h53.28
	 M53.326,10.652h53.28 M53.326,21.291h53.28 M10.684,0v53.342 M53.326,42.658h53.28 M31.912,0v53.342 M21.321,0v53.342 M53.326,0
	v106.622 M42.643,0v53.342 M106.606,53.342H0"/>
<rect x="0.566" y="0.342" fill-rule="evenodd" clip-rule="evenodd" fill="none" width="106.23" height="106.23"/>
<rect x="0.566" y="0.342" fill="none" stroke="#010101" stroke-width="0.5" stroke-miterlimit="10" width="106.23" height="106.23"/>
</svg>
