<?xml version="1.0" encoding="utf-8"?>
<!-- Generator: Adobe Illustrator 16.0.0, SVG Export Plug-In . SVG Version: 6.00 Build 0)  -->
<!DOCTYPE svg PUBLIC "-//W3C//DTD SVG 1.1//EN" "http://www.w3.org/Graphics/SVG/1.1/DTD/svg11.dtd">
<svg version="1.1" id="Layer_1" xmlns="http://www.w3.org/2000/svg" xmlns:xlink="http://www.w3.org/1999/xlink" x="0px" y="0px"
	 width="373.701px" height="445.806px" viewBox="0 0 373.701 445.806" enable-background="new 0 0 373.701 445.806"
	 xml:space="preserve">
<path fill-rule="evenodd" clip-rule="evenodd" d="M2.295,247.427c11.908-47.656,24.188-95.219,36.344-142.814
	c7.536-29.507,15.065-59.016,22.589-88.526c1.025-4.022,1.561-8.245,3.178-12.007c0.796-1.853,3.558-4.098,5.409-4.08
	c40.12,0.396,80.236,1.188,120.355,1.688c35.069,0.438,70.142,0.611,105.212,0.902c4.413,0.037,8.831-0.021,13.233,0.212
	c0.814,0.043,2.081,1.156,2.268,1.975c1.71,7.499,3.058,15.081,4.834,22.563c4.204,17.708,8.477,35.4,12.922,53.049
	c5.699,22.62,11.69,45.167,17.38,67.789c7.15,28.429,14.075,56.914,21.206,85.348c1.843,7.35,4.47,14.521,6.002,21.926
	c0.867,4.188,0.28,8.686,0.281,13.043c0.009,35.281,0.001,70.564,0.001,105.848c0,22.494,0.009,44.988-0.001,67.484
	c-0.001,1.404-0.138,2.811-0.198,3.98c-124.411,0-248.267,0-373.31,0"/>
<path fill-rule="evenodd" clip-rule="evenodd" d="M356.229,208.069c-0.212,1.621-0.719,3.265-0.59,4.857
	c1.02,12.604,3.992,24.789,8.22,36.678c0.455,1.281,1.342,2.406,2.028,3.605c0.409-1.896,0.001-3.461-0.365-5.037
	c-3.108-13.367-6.21-26.738-9.314-40.107c-2.512-9.246-5.161-18.459-7.51-27.746c-7.29-28.84-14.446-57.713-21.696-86.562
	c-3.42-13.605-6.907-27.193-10.414-40.776c-3.6-13.937-7.199-27.874-10.986-41.76c-0.379-1.391-1.942-3.32-3.143-3.465
	c-3.732-0.452-7.554-0.166-10.988-0.166c1.759,8.422,3.368,16.507,5.162,24.55c0.886,3.976,1.536,8.157,3.293,11.758
	c5.21,10.68,10.735,21.164,12.85,33.062c0.778,4.379,2.315,8.618,3.405,12.947c2.175,8.636,3.773,17.455,6.523,25.901
	c5.05,15.508,13.248,29.975,15.068,46.56c0.481,4.392,0.999,8.938,2.534,13.024c3.826,10.186,8.182,20.176,12.522,30.158
	C353.316,206.672,355.07,207.243,356.229,208.069z"/>
<path fill-rule="evenodd" clip-rule="evenodd" d="M171.628,6.765c0.375,2.184,1.028,3.838,0.862,5.406
	c-0.657,6.197-1.655,12.357-2.353,18.55c-0.313,2.779-0.532,5.639-0.236,8.402c0.616,5.749,1.816,11.436,2.394,17.186
	c0.952,9.507,3.562,19.098,0.398,28.57c-2.038,6.106-0.263,11.222,2.199,16.638c1.315,2.893,2.199,6.382,1.969,9.505
	c-0.907,12.316-2.33,24.594-3.569,36.886c-0.888,8.813-1.131,17.756-2.845,26.406c-2.237,11.289,0.931,21.608,4.187,31.924
	c2.174,6.889,5.626,13.166,4.137,20.99c-1.019,5.357-0.95,11.252,0.159,16.588c1.049,5.053,4.011,9.729,6.328,14.473
	c0.403,0.828,1.776,1.666,2.711,1.676c10.334,0.119,20.671,0.074,32.14,0.074c-7.354-7.43-11.925-15.154-14.348-24.047
	c-2.719-9.982-5.226-20.023-7.96-30.002c-2.405-8.779-3.201-17.5-0.684-26.443c1.62-5.752,2.193-11.525,0.143-17.549
	c-1.302-3.82-1.003-8.166-1.626-12.244c-0.905-5.924-1.656-11.904-3.094-17.706c-1.621-6.546-4.249-12.843-5.844-19.393
	c-1.366-5.61-1.318-11.59-2.902-17.118c-4.142-14.453-1.733-27.976,4.671-41.113c0.433-0.887,1.524-1.453,2.31-2.168
	c0.716,0.808,1.716,1.504,2.088,2.447c0.836,2.119,0.944,4.609,2.082,6.509c4.788,7.995,3.871,16.793,4.007,25.458
	c0.062,3.89-0.721,7.96,0.162,11.641c4.087,17.031,9.091,33.851,12.836,50.95c2.518,11.494,6.244,22.215,12.688,32.066
	c4.464,6.823,8.571,13.961,7.761,22.576c-0.946,10.052,3.582,17.436,10.424,24.192c7.044,6.956,14.293,13.901,20.132,21.825
	c6.147,8.342,13.039,12.857,23.506,10.701c0.799-0.164,1.661-0.016,2.493-0.016c15.425,0,30.85,0,45.524,0
	c-3.013-6.49-6.301-12.867-8.946-19.499c-2.12-5.317-3.007-11.14-5.241-16.397c-5.21-12.261-9.268-24.91-18.836-35.236
	c-5.056-5.457-8.46-13.88-9.445-21.38c-2.141-16.298-4.785-31.878-15.05-45.521c-3.285-4.365-4.127-10.584-6.019-15.979
	c-3.448-9.833-7.615-19.498-10.049-29.579c-2.505-10.376-5.689-20.213-10.641-29.727c-2.666-5.125-8.34-10.968-1.916-17.529
	c0.179-0.183,0.138-0.647,0.098-0.968c-0.655-5.236-0.878-10.585-2.179-15.657c-0.671-2.619-1.47-6.381-5.76-6.377
	C217.697,6.775,194.901,6.765,171.628,6.765z"/>
<path fill-rule="evenodd" clip-rule="evenodd" d="M181.566,259.743c-0.102-1.09,0.288-3.029-0.484-4.205
	c-4.525-6.879-4.425-14.557-4.546-22.303c-0.092-5.922,0.036-11.986-1.192-17.718c-1.535-7.158-4.808-13.936-6.476-21.077
	c-1.188-5.088-1.646-10.559-1.238-15.765c0.902-11.494,2.729-22.912,3.852-34.394c0.941-9.645,1.002-19.391,2.264-28.986
	c0.727-5.531,0.021-10.274-2.239-15.297c-1.4-3.111-1.816-6.933-1.691-10.4c0.194-5.416,2.133-10.874,1.712-16.186
	c-0.939-11.85-2.88-23.621-4.411-35.424c-0.168-1.301-0.884-2.884-0.395-3.86c2.817-5.634,2.27-11.743,2.795-17.682
	c0.277-3.134,0.049-6.313,0.049-9.5c-11.735,0-22.774,0-34.823,0c0,8.044,0.015,15.651-0.012,23.259
	c-0.006,1.662-0.061,3.337-0.267,4.984c-1.547,12.403-2.949,24.829-4.792,37.189c-0.947,6.35-2.949,12.536-4.048,18.87
	c-2.791,16.102-5.428,32.231-7.934,48.38c-0.68,4.38-1.758,9.123-0.775,13.254c2.47,10.381,0.691,20.301-1.204,30.389
	c-1.221,6.492-2.09,13.065-2.806,19.637c-0.84,7.717-0.395,15.704-2.225,23.152c-2.443,9.946-7.021,19.518,3.045,27.904
	c1.249,1.041,2.084,2.576,3.321,3.637c1.047,0.898,2.396,2.043,3.617,2.051C140.815,259.778,160.97,259.743,181.566,259.743z"/>
<path fill-rule="evenodd" clip-rule="evenodd" d="M366.872,259.757c-7.39-10.137-9.44-21.354-11.173-32.281
	c-1.485-9.365-3.336-18.25-7.565-26.822c-6.442-13.063-10.572-26.887-12.929-41.369c-1.309-8.042-4.488-15.816-7.188-23.584
	c-3.256-9.363-7.448-18.432-10.225-27.923c-3.008-10.285-4.487-21.011-7.325-31.354c-2.031-7.404-4.949-14.601-7.932-21.697
	c-3.315-7.885-7.277-15.387-8.246-24.2c-0.676-6.154-2.807-12.217-4.89-18.108c-0.69-1.954-3.215-4.567-4.975-4.624
	c-12.356-0.401-24.731-0.212-36.52-0.212c0.822,8.49,5.995,17.334,0.228,26.583c-0.442,0.709,0.081,2.251,0.522,3.242
	c2.152,4.83,4.521,9.564,6.636,14.409c2.036,4.665,4.135,9.334,5.694,14.166c1.719,5.321,2.609,10.908,4.301,16.239
	c2.788,8.785,5.817,17.499,8.968,26.161c1.787,4.912,3.214,10.244,6.199,14.375c8.884,12.293,12.316,26.415,13.58,40.883
	c0.695,7.954,2.552,15.181,7.148,21.038c7.826,9.972,14.944,20.131,18.926,32.283c2.152,6.572,4.452,13.101,6.882,19.574
	c2.101,5.596,4.028,11.34,6.919,16.521c1.546,2.773,4.799,6.111,7.569,6.396C349.705,260.3,358.075,259.757,366.872,259.757z"/>
<path fill-rule="evenodd" clip-rule="evenodd" d="M85.706,440.778c8.819,0,17.729,0.781,26.432-0.227
	c8.183-0.947,16.293-3.33,24.167-5.904c8.782-2.871,17.057-7.4,25.922-9.883c12.308-3.447,24.296-7.295,34.623-15.029
	c13.007-9.74,26.468-18.996,38.632-29.711c15.825-13.941,30.701-28.975,45.705-43.822c5.408-5.352,11.201-10.881,14.727-17.451
	c7.799-14.539,18.947-26.195,29.756-38.232c4.224-4.703,8.56-9.309,12.845-13.957c-0.241-0.449-0.483-0.898-0.725-1.348
	c-23.21,0-46.42,0-69.506,0c-2.624,6.936-5.294,13.83-7.84,20.771c-1.923,5.242-4.243,10.424-5.409,15.844
	c-2.803,13.029-8.238,24.27-18.421,33.279c-12.656,11.197-24.76,23.018-37.294,34.357c-11.061,10.006-21.573,20.895-33.762,29.318
	C140.794,415.894,114.951,431.386,85.706,440.778z"/>
<path fill-rule="evenodd" clip-rule="evenodd" d="M23.513,439.411c16.242,2.857,30.863-1.053,44.31-8.699
	c21.016-11.951,41.342-25.135,62.54-36.738c19.007-10.404,34.84-24.59,50.232-39.316c6.501-6.221,11.791-13.949,16.598-21.637
	c6.021-9.635,11.351-19.754,16.286-29.996c4.351-9.031,7.887-18.467,11.498-27.832c1.304-3.383,1.781-7.084,2.602-10.498
	c-15.94,0-30.741,0-44.543,0c-3.455,7.965-6.669,15.037-9.588,22.23c-1.702,4.193-2.27,8.961-4.498,12.805
	c-7.015,12.098-14.618,23.854-21.904,35.795c-4.467,7.324-9.679,13.705-17.577,17.746c-18.08,9.252-32.58,22.002-40.927,41.201
	c-2.499,5.746-6.266,11.984-11.236,15.398c-10.591,7.275-22.313,12.92-33.646,19.094C37.018,432.583,30.232,435.938,23.513,439.411"
	/>
<path fill-rule="evenodd" clip-rule="evenodd" d="M26.695,435.374c2.678-1.904,5.804-3.18,8.733-4.729
	c11.835-6.252,23.685-12.477,35.506-18.758c7.848-4.17,13.429-10.881,16.257-18.85c3.543-9.986,9.9-17.277,17.351-24.234
	c7.045-6.578,13.842-13.469,22.968-17.068c6.991-2.758,12.036-7.467,15.798-13.723c6.542-10.881,12.513-22.143,19.635-32.625
	c3.896-5.736,7.395-11.178,8.128-18.207c0.229-2.203,1.528-4.301,2.381-6.43c2.048-5.119,4.121-10.227,6.598-16.363
	c-21.634,0-41.449,0-60.083,0c-1.073,4.438-1.498,9.012-3.301,12.955c-2.357,5.156-3.083,10.146-1.349,15.416
	c3.813,11.582-0.831,21.275-6.399,30.924c-3.363,5.828-6.729,11.736-9.256,17.951c-5.444,13.391-11.519,26.154-24.388,34.207
	c-1.381,0.863-2.563,2.135-3.63,3.395c-4.914,5.805-9.278,12.166-14.712,17.426c-15.258,14.775-32.261,27.414-49.938,39.162"/>
<path fill-rule="evenodd" clip-rule="evenodd" d="M125.324,6.804c-1.048,3.6-1.979,7.04-3.058,10.432
	c-0.839,2.639-2.041,5.17-2.768,7.835c-1.689,6.202-2.296,12.87-4.952,18.603c-5.473,11.808-7.719,24.228-9.138,36.918
	c-1.23,11.011-2.154,21.984-6.639,32.411c-2.451,5.699-3.894,11.928-5.083,18.055c-3.373,17.392-5.836,34.976-9.723,52.244
	c-2.71,12.039-5.555,24.553-11.295,35.271c-6.22,11.614-7.12,23.002-6.285,35.344c0.264,3.908,2.108,5.488,5.508,5.514
	c13.77,0.1,27.541,0.041,42.605,0.041c-2.218-3.305-3.733-6.186-5.831-8.551c-3.438-3.877-5.199-7.703-3.29-13.068
	c1.869-5.254,3.414-10.75,4.114-16.264c1.059-8.352,1.058-16.832,1.874-25.221c1.396-14.336,5.319-28.131,3.822-43.131
	c-1.315-13.186,1.887-26.953,4.007-40.318c2.474-15.599,6.56-30.951,8.802-46.575c2.251-15.689,3.163-31.575,4.503-47.388
	c0.332-3.916,0.05-7.884,0.05-12.152C130.577,6.804,127.82,6.804,125.324,6.804z"/>
<path fill-rule="evenodd" clip-rule="evenodd" d="M126.463,440.628c-0.131-0.023,0.487,0.178,1.106,0.182
	c17.117,0.084,34.249-0.264,51.344,0.379c9.597,0.361,17.12-2.816,24.444-8.609c8.05-6.369,16.693-12.021,25.313-17.623
	c7.875-5.119,16.191-9.557,24.088-14.643c12.872-8.293,24.659-17.678,32.423-31.428c2.636-4.67,6.758-8.549,10.441-12.568
	c6.266-6.84,13.108-13.184,19.016-20.309c11.183-13.486,21.563-27.645,32.88-41.012c7.444-8.793,13.081-18.42,17.937-29.613
	c-7.229,0-13.875-0.125-20.51,0.102c-1.38,0.047-2.992,1.117-4.025,2.178c-4.275,4.383-8.453,8.871-12.514,13.455
	c-8.422,9.506-18.225,18.199-24.738,28.885c-8.17,13.404-18.25,24.707-29.154,35.652c-20.156,20.232-40.895,39.74-63.974,56.705
	c-11.005,8.09-21.968,16.094-34.849,20.889c-6.186,2.303-12.713,3.678-18.931,5.906C146.413,432.864,136.19,436.925,126.463,440.628
	z"/>
<path fill-rule="evenodd" clip-rule="evenodd" d="M12.396,258.595c8.84,0,17.132,0.051,25.422-0.076
	c0.868-0.014,2.243-0.906,2.502-1.686c3.853-11.596,8.157-23.096,11.067-34.934c1.736-7.061,3.87-13.587,8.123-19.443
	c0.964-1.328,1.695-2.842,2.413-4.33c3.448-7.141,7.076-14.207,10.178-21.496c1.419-3.332,2.272-7.09,2.475-10.706
	c0.228-4.089-1.27-8.323-0.772-12.34c1.154-9.325,3.062-18.558,4.656-27.83c1.677-9.751,4.001-19.448,4.854-29.272
	c1.118-12.889,1.407-25.803,7.332-37.73c0.943-1.9,1.396-4.064,1.93-6.144c2.688-10.487,5.227-21.014,8.028-31.471
	c1.246-4.655,2.985-9.178,4.78-14.606c-6.346,0-11.311,0.318-16.213-0.098c-4.108-0.349-5.836,1.576-6.473,5.076
	c-0.941,5.174-1.285,10.494-2.634,15.551c-3.958,14.845-8.096,29.65-12.561,44.35c-1.917,6.313-4.021,12.82-7.45,18.368
	c-5.32,8.607-6.631,17.799-5.292,27.205c1.455,10.214-0.514,20.002-3.307,29.299c-5.222,17.377-11.394,34.548-18.396,51.292
	c-6.661,15.931-11.88,32.171-15.791,48.933"/>
<path fill-rule="evenodd" clip-rule="evenodd" d="M52.324,440.878c6.016,0,11.15,0.533,16.137-0.1
	c14.843-1.887,29.124-6.248,42.365-13.047c15.621-8.021,31.357-16.148,45.793-26.053c14.289-9.805,27.252-21.611,40.367-33.033
	c13.006-11.328,25.396-23.359,38.208-34.914c8.242-7.434,14.069-16.098,16.755-27.049c2.159-8.807,5.136-17.426,7.996-26.045
	c1.706-5.146,3.887-10.135,6.184-16.041c-12.338,0-23.768,0-35.023,0c-1.068,3.779-1.669,7.23-3.01,10.365
	c-2.915,6.816-6.666,13.297-9.252,20.223c-6.011,16.092-13.854,30.996-23.749,45.162c-11.52,16.492-26.296,29.387-42.023,41.139
	c-12.138,9.07-25.764,16.162-38.804,24.01c-13.925,8.377-27.881,16.705-41.938,24.855C66.14,433.938,59.665,437.036,52.324,440.878z
	"/>
<path fill-rule="evenodd" clip-rule="evenodd" d="M367.743,267.278c-1.752,2.756-2.834,4.518-3.973,6.242
	c-5.085,7.693-9.91,15.582-15.374,22.998c-4.022,5.461-9.441,9.92-13.269,15.492c-10.061,14.648-20.979,28.523-33.435,41.215
	c-5.448,5.553-11.734,10.803-15.456,17.416c-6.942,12.338-16.987,21.16-28.258,28.834c-13.242,9.018-26.924,17.387-40.334,26.162
	c-6.999,4.578-13.823,9.424-20.728,14.148c15.849,0.953,31.404,0.988,46.959,0.885c1.189-0.01,2.544-0.791,3.531-1.578
	c7.646-6.098,15.51-11.963,22.76-18.504c17.513-15.801,34.48-32.211,52.139-47.842c15.766-13.957,28.096-30.391,37.696-48.945
	c3.071-5.936,6.77-12.211,7.399-18.604C368.586,293.192,367.743,280.987,367.743,267.278z"/>
<path fill-rule="evenodd" clip-rule="evenodd" d="M6.114,433.474c18.413-12.172,36.152-25.223,51.581-41.107
	c6.084-6.266,10.862-14.029,17.62-19.352c9.485-7.471,16.133-16.469,20.355-27.48c3.5-9.127,7.236-17.959,12.955-26.121
	c5.146-7.344,8.016-15.969,4.997-25.398c-2.054-6.416-1.269-12.572,1.447-18.824c1.386-3.189,1.127-7.092,1.645-10.914
	c-16.078,0-30.684,0-46.198,0c0,7.469,0.017,14.311-0.005,21.152c-0.017,5.492,1.596,10.957-1.607,16.398
	c-1.619,2.748-2.027,6.689-1.758,9.992c1.335,16.369,0.369,32.111-9.222,46.328c-3.977,5.895-7.555,12.094-10.893,18.377
	c-7.991,15.045-17.148,29.186-29.783,40.824"/>
<path fill-rule="evenodd" clip-rule="evenodd" d="M267.586,260.321c-4.787-5.891-8.687-10.756-12.662-15.561
	c-3.046-3.682-5.642-8.025-9.388-10.781c-11.17-8.219-16.899-18.557-16.124-32.678c0.202-3.678-1.383-7.791-3.151-11.18
	c-5.645-10.811-12.495-20.998-15.448-33.096c-3.717-15.226-7.842-30.352-11.471-45.597c-1.631-6.855-4.055-14.059-3.35-20.816
	c1.28-12.268-0.708-23.453-5.824-34.295c-4.613,7.955-6.755,16.7-5.502,25.684c1.838,13.188,4.396,26.295,7.186,39.321
	c1.544,7.211,4.507,14.11,6.208,21.297c1,4.223,0.555,8.766,1.157,13.109c1.198,8.646,2.456,17.154,0.094,25.922
	c-1.16,4.307-1.213,9.137-0.733,13.621c1.624,15.172,6.084,29.703,10.968,44.095c3.535,10.417,9.541,19.368,21.025,20.661
	C242.328,261.353,254.352,260.321,267.586,260.321z"/>
<path fill-rule="evenodd" clip-rule="evenodd" d="M249.871,439.72c0.199,0.545,0.398,1.09,0.598,1.635
	c10.96,0,21.921,0.074,32.88-0.027c6.017-0.057,11.493-1.084,16.258-5.734c5.2-5.074,11.705-8.801,17.003-13.793
	c3.493-3.293,6.929-7.412,8.46-11.83c1.988-5.736,5.354-9.152,10.475-11.758c14.289-7.275,23.962-19.063,31.423-32.904
	c0.547-1.014,1.224-2.15,1.229-3.234c0.079-15.881,0.055-31.762,0.055-49.008c-3.674,6.779-6.635,12.393-9.733,17.93
	c-7.9,14.113-17.101,27.242-29.051,38.299c-5.597,5.178-10.915,10.66-16.605,15.729c-15.735,14.018-31.567,27.928-47.433,41.797
	C260.357,431.251,255.063,435.427,249.871,439.72z"/>
<path fill-rule="evenodd" clip-rule="evenodd" d="M122.348,6.527c-4.822,0-8.341-0.282-11.772,0.139
	c-1.377,0.169-3.339,1.654-3.718,2.931c-4.155,13.993-7.983,28.083-12.041,42.105c-2.284,7.897-5.426,15.596-7.088,23.61
	c-1.594,7.688-1.444,15.72-2.647,23.511c-2.645,17.114-5.751,34.157-8.45,51.264c-0.558,3.536-0.435,7.245-0.146,10.836
	c0.466,5.774,1.132,11.194-2.065,16.81c-6.62,11.626-12.457,23.698-18.589,35.601c-0.448,0.871-0.719,1.844-0.988,2.794
	c-3.507,12.36-7.017,24.72-10.474,37.095c-0.454,1.627-0.618,3.332-0.973,5.316c7.56,0,14.441,0,21.563,0
	c-0.418-2.875-1.221-5.365-1.054-7.791c0.619-8.984-1.473-18.427,3.469-26.755c6.945-11.705,11.014-24.427,13.775-37.606
	c2.98-14.229,5.63-28.524,8.469-42.781c2.03-10.201,3.897-20.443,6.283-30.561c1.887-8.006,4.989-15.746,6.581-23.796
	c2.167-10.955,2.88-22.205,5.21-33.117c1.95-9.139,5.364-17.962,8.058-26.947C117.928,21.918,119.996,14.62,122.348,6.527z"/>
<path fill-rule="evenodd" clip-rule="evenodd" d="M4.432,425.606c13.29-10.699,24.938-22.859,33.546-37.688
	c6.153-10.6,11.757-21.566,18.567-31.727c8.932-13.322,9.051-27.984,8.751-42.998c-0.077-3.824,0.818-7.693,1.492-11.504
	c0.504-2.846,1.994-5.637,1.958-8.438c-0.114-8.762-3.969-17.475-0.204-26.299c0.215-0.504-0.106-1.236-0.229-2.299
	c-7.68,0-15.212,0-22.587,0c0.354,4.197,0.78,7.965,0.968,11.744c0.52,10.514,2.773,21.041-0.133,31.543
	c-2.064,7.457-4.589,14.826-6.086,22.396c-3.541,17.908-8.779,34.973-20.721,49.334"/>
<path fill-rule="evenodd" clip-rule="evenodd" d="M4.52,395.187c34.622-35.57,47.03-102.609,37.315-130.998
	c-9.285,0-18.61,0-27.826,0"/>
<path fill-rule="evenodd" clip-rule="evenodd" d="M29.477,200.512c7.224-16.298,13.034-33.267,18.656-50.21
	c3.69-11.121,5.356-22.594,4.214-34.666c-0.685-7.238,0.082-15.942,3.611-21.997c9.976-17.12,13.445-36.231,19.113-54.638
	c3.184-10.338,4.466-21.261,6.681-32.293c-0.881-0.116-1.854-0.23-2.824-0.374c-9.249-1.373-10.293-0.628-12.51,8.247
	c-5.375,21.516-10.761,43.029-16.237,64.519c-7.145,28.038-14.423,56.041-21.564,84.08"/>
<path fill-rule="evenodd" clip-rule="evenodd" d="M368.654,368.546c-8.694,12.955-17.056,24.479-30.025,31.023
	c-6.254,3.156-10.7,6.992-12.348,13.77c-1.172,4.826-4.364,7.844-8.231,10.701c-6.829,5.047-13.313,10.563-20.901,16.65
	c6.818,0,12.302,0.391,17.692-0.146c3.257-0.326,6.879-1.416,9.443-3.35c5.8-4.373,10.751-9.879,16.586-14.197
	c9.319-6.895,14.911-16.775,21.787-25.635c2.235-2.881,5.219-5.932,5.733-9.234C369.322,382.149,368.654,375.923,368.654,368.546z"
	/>
<path fill-rule="evenodd" clip-rule="evenodd" d="M324.652,439.679c0.23,0.422,0.46,0.842,0.69,1.262
	c2.092,0,4.225-0.262,6.269,0.051c5.799,0.885,10.65-0.094,13.942-5.566c0.808-1.342,2.366-2.283,3.695-3.25
	c11.499-8.357,21.198-17.734,19.522-33.719c-0.055-0.529,0.14-1.082,0.218-1.625c-0.424-0.246-0.848-0.492-1.271-0.74
	c-6.436,7.807-12.36,16.119-19.448,23.279C340.989,426.726,332.572,432.956,324.652,439.679z"/>
<path fill-rule="evenodd" clip-rule="evenodd" d="M368.404,418.136c-7.746,7.355-15.559,14.773-23.32,22.143
	C357.74,446.36,371.09,429.987,368.404,418.136z"/>
<path fill-rule="evenodd" clip-rule="evenodd" d="M362.126,440.46c2.524,0,4.289,0,6.301,0c0.27-2.787,0.52-5.383,0.77-7.979
	c-0.326-0.125-0.653-0.25-0.979-0.375C366.298,434.739,364.379,437.37,362.126,440.46z"/>
<path fill-rule="evenodd" clip-rule="evenodd" fill="#FFFFFF" d="M171.628,6.765c23.273,0,46.069,0.01,68.865-0.009
	c4.29-0.003,5.089,3.758,5.76,6.377c1.301,5.072,1.523,10.421,2.179,15.657c0.04,0.321,0.081,0.786-0.098,0.968
	c-6.424,6.561-0.75,12.405,1.916,17.529c4.951,9.513,8.136,19.351,10.641,29.727c2.434,10.081,6.601,19.746,10.049,29.579
	c1.892,5.395,2.733,11.614,6.019,15.979c10.265,13.643,12.909,29.223,15.05,45.521c0.985,7.5,4.39,15.923,9.445,21.38
	c9.568,10.326,13.626,22.976,18.836,35.236c2.234,5.258,3.121,11.08,5.241,16.397c2.646,6.632,5.934,13.009,8.946,19.499
	c-14.675,0-30.1,0-45.524,0c-0.832,0-1.694-0.148-2.493,0.016c-10.467,2.156-17.358-2.359-23.506-10.701
	c-5.839-7.924-13.088-14.869-20.132-21.825c-6.842-6.757-11.37-14.141-10.424-24.192c0.811-8.615-3.297-15.753-7.761-22.576
	c-6.443-9.852-10.17-20.572-12.688-32.066c-3.745-17.1-8.749-33.919-12.836-50.95c-0.883-3.681-0.101-7.751-0.162-11.641
	c-0.136-8.665,0.781-17.462-4.007-25.458c-1.138-1.9-1.246-4.39-2.082-6.509c-0.372-0.943-1.372-1.639-2.088-2.447
	c-0.785,0.715-1.877,1.281-2.31,2.168c-6.404,13.138-8.813,26.661-4.671,41.113c1.584,5.528,1.536,11.508,2.902,17.118
	c1.595,6.55,4.223,12.847,5.844,19.393c1.438,5.802,2.188,11.782,3.094,17.706c0.623,4.078,0.324,8.424,1.626,12.244
	c2.051,6.023,1.478,11.797-0.143,17.549c-2.518,8.943-1.722,17.664,0.684,26.443c2.734,9.979,5.241,20.02,7.96,30.002
	c2.423,8.893,6.993,16.617,14.348,24.047c-11.469,0-21.806,0.045-32.14-0.074c-0.935-0.01-2.308-0.848-2.711-1.676
	c-2.317-4.744-5.279-9.42-6.328-14.473c-1.109-5.336-1.178-11.23-0.159-16.588c1.489-7.824-1.963-14.102-4.137-20.99
	c-3.256-10.315-6.424-20.635-4.187-31.924c1.714-8.65,1.957-17.594,2.845-26.406c1.239-12.292,2.662-24.57,3.569-36.886
	c0.23-3.123-0.653-6.612-1.969-9.505c-2.462-5.416-4.237-10.532-2.199-16.638c3.163-9.472,0.554-19.063-0.398-28.57
	c-0.577-5.75-1.777-11.438-2.394-17.186c-0.296-2.763-0.076-5.623,0.236-8.402c0.697-6.193,1.695-12.354,2.353-18.55
	C172.656,10.604,172.003,8.949,171.628,6.765z"/>
<path fill-rule="evenodd" clip-rule="evenodd" fill="#FFFFFF" d="M181.566,259.743c-20.597,0-40.751,0.035-60.903-0.09
	c-1.222-0.008-2.57-1.152-3.617-2.051c-1.237-1.061-2.072-2.596-3.321-3.637c-10.066-8.387-5.488-17.958-3.045-27.904
	c1.83-7.448,1.385-15.436,2.225-23.152c0.716-6.571,1.585-13.145,2.806-19.637c1.896-10.088,3.674-20.008,1.204-30.389
	c-0.982-4.131,0.096-8.874,0.775-13.254c2.506-16.148,5.143-32.278,7.934-48.38c1.099-6.334,3.101-12.521,4.048-18.87
	c1.843-12.36,3.245-24.786,4.792-37.189c0.206-1.647,0.261-3.322,0.267-4.984c0.026-7.607,0.012-15.215,0.012-23.259
	c12.049,0,23.088,0,34.823,0c0,3.188,0.229,6.366-0.049,9.5c-0.525,5.939,0.022,12.048-2.795,17.682
	c-0.489,0.977,0.227,2.559,0.395,3.86c1.531,11.803,3.472,23.574,4.411,35.424c0.421,5.312-1.518,10.77-1.712,16.186
	c-0.125,3.467,0.291,7.289,1.691,10.4c2.26,5.022,2.966,9.766,2.239,15.297c-1.262,9.595-1.322,19.341-2.264,28.986
	c-1.122,11.481-2.949,22.899-3.852,34.394c-0.408,5.206,0.05,10.677,1.238,15.765c1.668,7.142,4.94,13.919,6.476,21.077
	c1.229,5.731,1.101,11.796,1.192,17.718c0.121,7.746,0.021,15.424,4.546,22.303C181.854,256.714,181.465,258.653,181.566,259.743z"
	/>
<path fill-rule="evenodd" clip-rule="evenodd" fill="#FFFFFF" d="M366.872,259.757c-8.797,0-17.167,0.543-25.395-0.303
	c-2.771-0.285-6.023-3.623-7.569-6.396c-2.891-5.182-4.818-10.926-6.919-16.521c-2.43-6.474-4.729-13.002-6.882-19.574
	c-3.981-12.152-11.1-22.312-18.926-32.283c-4.597-5.857-6.453-13.084-7.148-21.038c-1.264-14.468-4.696-28.59-13.58-40.883
	c-2.985-4.132-4.412-9.463-6.199-14.375c-3.15-8.662-6.18-17.376-8.968-26.161c-1.691-5.331-2.582-10.918-4.301-16.239
	c-1.56-4.832-3.658-9.501-5.694-14.166c-2.114-4.845-4.483-9.579-6.636-14.409c-0.441-0.991-0.965-2.533-0.522-3.242
	c5.768-9.249,0.595-18.093-0.228-26.583c11.788,0,24.163-0.188,36.52,0.212c1.76,0.057,4.284,2.67,4.975,4.624
	c2.083,5.891,4.214,11.954,4.89,18.108c0.969,8.813,4.931,16.314,8.246,24.2c2.982,7.096,5.9,14.293,7.932,21.697
	c2.838,10.343,4.317,21.069,7.325,31.354c2.776,9.492,6.969,18.56,10.225,27.923c2.7,7.768,5.88,15.542,7.188,23.584
	c2.356,14.482,6.486,28.307,12.929,41.369c4.229,8.572,6.08,17.457,7.565,26.822C357.432,238.403,359.482,249.62,366.872,259.757z"
	/>
<path fill-rule="evenodd" clip-rule="evenodd" fill="#FFFFFF" d="M85.706,440.778c29.245-9.393,55.088-24.885,79.852-41.994
	c12.188-8.424,22.701-19.313,33.762-29.318c12.534-11.34,24.638-23.16,37.294-34.357c10.183-9.01,15.618-20.25,18.421-33.279
	c1.166-5.42,3.486-10.602,5.409-15.844c2.546-6.941,5.216-13.836,7.84-20.771c23.086,0,46.296,0,69.506,0
	c0.241,0.449,0.483,0.898,0.725,1.348c-4.285,4.648-8.621,9.254-12.845,13.957c-10.809,12.037-21.957,23.693-29.756,38.232
	c-3.525,6.57-9.318,12.1-14.727,17.451c-15.004,14.848-29.88,29.881-45.705,43.822c-12.164,10.715-25.625,19.971-38.632,29.711
	c-10.327,7.734-22.315,11.582-34.623,15.029c-8.865,2.482-17.14,7.012-25.922,9.883c-7.874,2.574-15.984,4.957-24.167,5.904
	C103.435,441.56,94.525,440.778,85.706,440.778z"/>
<path fill-rule="evenodd" clip-rule="evenodd" fill="#FFFFFF" d="M23.513,439.411c6.72-3.473,13.505-6.828,20.146-10.447
	c11.333-6.174,23.056-11.818,33.646-19.094c4.971-3.414,8.737-9.652,11.236-15.398c8.347-19.199,22.847-31.949,40.927-41.201
	c7.898-4.041,13.11-10.422,17.577-17.746c7.286-11.941,14.89-23.697,21.904-35.795c2.229-3.844,2.796-8.611,4.498-12.805
	c2.919-7.193,6.133-14.266,9.588-22.23c13.802,0,28.603,0,44.543,0c-0.82,3.414-1.298,7.115-2.602,10.498
	c-3.611,9.365-7.147,18.801-11.498,27.832c-4.936,10.242-10.265,20.361-16.286,29.996c-4.807,7.688-10.097,15.416-16.598,21.637
	c-15.393,14.727-31.226,28.912-50.232,39.316c-21.198,11.604-41.524,24.787-62.54,36.738
	C54.376,438.358,39.755,442.269,23.513,439.411"/>
<path fill-rule="evenodd" clip-rule="evenodd" fill="#FFFFFF" d="M6.993,435.823c17.678-11.748,34.681-24.387,49.938-39.162
	c5.434-5.26,9.798-11.621,14.712-17.426c1.066-1.26,2.249-2.531,3.63-3.395c12.869-8.053,18.943-20.816,24.388-34.207
	c2.526-6.215,5.893-12.123,9.256-17.951c5.568-9.648,10.212-19.342,6.399-30.924c-1.734-5.27-1.009-10.26,1.349-15.416
	c1.803-3.943,2.228-8.518,3.301-12.955c18.634,0,38.449,0,60.083,0c-2.477,6.137-4.55,11.244-6.598,16.363
	c-0.853,2.129-2.151,4.227-2.381,6.43c-0.733,7.029-4.231,12.471-8.128,18.207c-7.122,10.482-13.093,21.744-19.635,32.625
	c-3.762,6.256-8.807,10.965-15.798,13.723c-9.126,3.6-15.923,10.49-22.968,17.068c-7.45,6.957-13.808,14.248-17.351,24.234
	c-2.828,7.969-8.409,14.68-16.257,18.85c-11.821,6.281-23.671,12.506-35.506,18.758c-2.93,1.549-6.056,2.824-8.733,4.729"/>
<path fill-rule="evenodd" clip-rule="evenodd" fill="#FFFFFF" d="M125.324,6.804c2.496,0,5.253,0,7.225,0
	c0,4.269,0.282,8.236-0.05,12.152c-1.34,15.813-2.252,31.699-4.503,47.388c-2.242,15.624-6.328,30.977-8.802,46.575
	c-2.12,13.365-5.322,27.132-4.007,40.318c1.497,15-2.427,28.795-3.822,43.131c-0.816,8.389-0.815,16.869-1.874,25.221
	c-0.7,5.514-2.245,11.01-4.114,16.264c-1.909,5.365-0.147,9.191,3.29,13.068c2.098,2.365,3.613,5.246,5.831,8.551
	c-15.064,0-28.836,0.059-42.605-0.041c-3.399-0.025-5.244-1.605-5.508-5.514c-0.835-12.342,0.065-23.729,6.285-35.344
	c5.74-10.719,8.585-23.232,11.295-35.271c3.887-17.269,6.35-34.853,9.723-52.244c1.189-6.127,2.632-12.356,5.083-18.055
	c4.484-10.427,5.408-21.4,6.639-32.411c1.419-12.69,3.665-25.11,9.138-36.918c2.656-5.732,3.263-12.4,4.952-18.603
	c0.727-2.665,1.929-5.196,2.768-7.835C123.346,13.844,124.276,10.404,125.324,6.804z"/>
<path fill-rule="evenodd" clip-rule="evenodd" fill="#FFFFFF" d="M126.463,440.628c9.728-3.703,19.95-7.764,30.298-11.473
	c6.218-2.229,12.745-3.604,18.931-5.906c12.881-4.795,23.844-12.799,34.849-20.889c23.079-16.965,43.817-36.473,63.974-56.705
	c10.904-10.945,20.984-22.248,29.154-35.652c6.514-10.686,16.316-19.379,24.738-28.885c4.061-4.584,8.238-9.072,12.514-13.455
	c1.033-1.061,2.646-2.131,4.025-2.178c6.635-0.227,13.28-0.102,20.51-0.102c-4.855,11.193-10.492,20.82-17.937,29.613
	c-11.317,13.367-21.697,27.525-32.88,41.012c-5.907,7.125-12.75,13.469-19.016,20.309c-3.684,4.02-7.806,7.898-10.441,12.568
	c-7.764,13.75-19.551,23.135-32.423,31.428c-7.896,5.086-16.213,9.523-24.088,14.643c-8.62,5.602-17.264,11.254-25.313,17.623
	c-7.324,5.793-14.848,8.971-24.444,8.609c-17.095-0.643-34.227-0.295-51.344-0.379C126.95,440.806,126.332,440.604,126.463,440.628z
	"/>
<path fill-rule="evenodd" clip-rule="evenodd" fill="#FFFFFF" d="M17.269,246.507c3.911-16.762,9.13-33.002,15.791-48.933
	c7.002-16.744,13.174-33.915,18.396-51.292c2.793-9.297,4.762-19.085,3.307-29.299c-1.339-9.406-0.028-18.598,5.292-27.205
	c3.429-5.548,5.533-12.054,7.45-18.368c4.465-14.7,8.603-29.505,12.561-44.35c1.349-5.058,1.692-10.377,2.634-15.551
	c0.637-3.5,2.364-5.425,6.473-5.076c4.902,0.417,9.867,0.098,16.213,0.098c-1.795,5.428-3.534,9.951-4.78,14.606
	c-2.802,10.457-5.341,20.983-8.028,31.471c-0.533,2.08-0.986,4.244-1.93,6.144c-5.925,11.928-6.214,24.841-7.332,37.73
	c-0.853,9.824-3.177,19.521-4.854,29.272c-1.595,9.272-3.502,18.505-4.656,27.83c-0.497,4.017,1,8.251,0.772,12.34
	c-0.202,3.616-1.056,7.374-2.475,10.706c-3.102,7.289-6.729,14.355-10.178,21.496c-0.718,1.488-1.449,3.002-2.413,4.33
	c-4.253,5.856-6.387,12.383-8.123,19.443c-2.91,11.838-7.215,23.338-11.067,34.934c-0.259,0.779-1.634,1.672-2.502,1.686
	c-8.29,0.127-16.582,0.076-25.422,0.076"/>
<path fill-rule="evenodd" clip-rule="evenodd" fill="#FFFFFF" d="M52.324,440.878c7.341-3.842,13.815-6.939,20.005-10.527
	c14.058-8.15,28.014-16.479,41.938-24.855c13.04-7.848,26.666-14.939,38.804-24.01c15.728-11.752,30.504-24.646,42.023-41.139
	c9.895-14.166,17.738-29.07,23.749-45.162c2.586-6.926,6.337-13.406,9.252-20.223c1.341-3.135,1.941-6.586,3.01-10.365
	c11.256,0,22.686,0,35.023,0c-2.297,5.906-4.478,10.895-6.184,16.041c-2.86,8.619-5.837,17.238-7.996,26.045
	c-2.686,10.951-8.513,19.615-16.755,27.049c-12.813,11.555-25.202,23.586-38.208,34.914c-13.115,11.422-26.078,23.229-40.367,33.033
	c-14.436,9.904-30.172,18.031-45.793,26.053c-13.241,6.799-27.522,11.16-42.365,13.047C63.475,441.411,58.34,440.878,52.324,440.878
	z"/>
<path fill-rule="evenodd" clip-rule="evenodd" fill="#FFFFFF" d="M367.743,267.278c0,13.709,0.843,25.914-0.341,37.92
	c-0.63,6.393-4.328,12.668-7.399,18.604c-9.601,18.555-21.931,34.988-37.696,48.945c-17.658,15.631-34.626,32.041-52.139,47.842
	c-7.25,6.541-15.113,12.406-22.76,18.504c-0.987,0.787-2.342,1.568-3.531,1.578c-15.555,0.104-31.11,0.068-46.959-0.885
	c6.904-4.725,13.729-9.57,20.728-14.148c13.41-8.775,27.092-17.145,40.334-26.162c11.271-7.674,21.315-16.496,28.258-28.834
	c3.722-6.613,10.008-11.863,15.456-17.416c12.455-12.691,23.374-26.566,33.435-41.215c3.827-5.572,9.246-10.031,13.269-15.492
	c5.464-7.416,10.289-15.305,15.374-22.998C364.909,271.796,365.991,270.034,367.743,267.278z"/>
<path fill-rule="evenodd" clip-rule="evenodd" fill="#FFFFFF" d="M17.249,417.349c12.635-11.639,21.792-25.779,29.783-40.824
	c3.338-6.283,6.916-12.482,10.893-18.377c9.591-14.217,10.557-29.959,9.222-46.328c-0.27-3.303,0.139-7.244,1.758-9.992
	c3.203-5.441,1.591-10.906,1.607-16.398c0.021-6.842,0.005-13.684,0.005-21.152c15.515,0,30.12,0,46.198,0
	c-0.518,3.822-0.259,7.725-1.645,10.914c-2.716,6.252-3.501,12.408-1.447,18.824c3.019,9.43,0.149,18.055-4.997,25.398
	c-5.719,8.162-9.455,16.994-12.955,26.121c-4.223,11.012-10.87,20.01-20.355,27.48c-6.758,5.322-11.536,13.086-17.62,19.352
	c-15.429,15.885-33.168,28.936-51.581,41.107"/>
<path fill-rule="evenodd" clip-rule="evenodd" fill="#FFFFFF" d="M267.586,260.321c-13.234,0-25.258,1.031-37.016-0.293
	c-11.484-1.293-17.49-10.244-21.025-20.661c-4.884-14.392-9.344-28.923-10.968-44.095c-0.479-4.484-0.427-9.314,0.733-13.621
	c2.362-8.768,1.104-17.275-0.094-25.922c-0.603-4.344-0.157-8.887-1.157-13.109c-1.701-7.187-4.664-14.086-6.208-21.297
	c-2.79-13.026-5.348-26.134-7.186-39.321c-1.253-8.984,0.889-17.729,5.502-25.684c5.116,10.843,7.104,22.028,5.824,34.295
	c-0.705,6.757,1.719,13.96,3.35,20.816c3.629,15.246,7.754,30.372,11.471,45.597c2.953,12.098,9.804,22.285,15.448,33.096
	c1.769,3.389,3.354,7.502,3.151,11.18c-0.775,14.121,4.954,24.459,16.124,32.678c3.746,2.756,6.342,7.1,9.388,10.781
	C258.899,249.565,262.799,254.431,267.586,260.321z"/>
<path fill-rule="evenodd" clip-rule="evenodd" fill="#FFFFFF" d="M249.871,439.72c5.191-4.293,10.486-8.469,15.557-12.9
	c15.865-13.869,31.697-27.779,47.433-41.797c5.69-5.068,11.009-10.551,16.605-15.729c11.95-11.057,21.15-24.186,29.051-38.299
	c3.099-5.537,6.06-11.15,9.733-17.93c0,17.246,0.024,33.127-0.055,49.008c-0.005,1.084-0.682,2.221-1.229,3.234
	c-7.461,13.842-17.134,25.629-31.423,32.904c-5.12,2.605-8.486,6.021-10.475,11.758c-1.531,4.418-4.967,8.537-8.46,11.83
	c-5.298,4.992-11.803,8.719-17.003,13.793c-4.765,4.65-10.241,5.678-16.258,5.734c-10.959,0.102-21.92,0.027-32.88,0.027
	C250.27,440.81,250.07,440.265,249.871,439.72z"/>
<path fill-rule="evenodd" clip-rule="evenodd" fill="#FFFFFF" d="M122.348,6.527c-2.352,8.093-4.42,15.391-6.598,22.657
	c-2.693,8.985-6.107,17.808-8.058,26.947c-2.33,10.912-3.043,22.162-5.21,33.117c-1.592,8.05-4.694,15.791-6.581,23.796
	c-2.386,10.118-4.253,20.36-6.283,30.561c-2.839,14.257-5.488,28.553-8.469,42.781c-2.762,13.18-6.83,25.901-13.775,37.606
	c-4.941,8.328-2.85,17.771-3.469,26.755c-0.167,2.426,0.636,4.916,1.054,7.791c-7.121,0-14.003,0-21.563,0
	c0.354-1.984,0.519-3.689,0.973-5.316c3.457-12.375,6.967-24.734,10.474-37.095c0.27-0.95,0.54-1.923,0.988-2.794
	c6.132-11.902,11.969-23.975,18.589-35.601c3.197-5.615,2.531-11.035,2.065-16.81c-0.289-3.591-0.412-7.3,0.146-10.836
	c2.699-17.107,5.806-34.15,8.45-51.264c1.203-7.791,1.054-15.823,2.647-23.511c1.662-8.015,4.804-15.713,7.088-23.61
	c4.058-14.022,7.886-28.112,12.041-42.105c0.379-1.277,2.341-2.762,3.718-2.931C114.007,6.245,117.525,6.527,122.348,6.527z"/>
<path fill-rule="evenodd" clip-rule="evenodd" fill="#FFFFFF" d="M19.755,379.673c11.941-14.361,17.18-31.426,20.721-49.334
	c1.497-7.57,4.021-14.939,6.086-22.396c2.906-10.502,0.652-21.029,0.133-31.543c-0.188-3.779-0.614-7.547-0.968-11.744
	c7.375,0,14.907,0,22.587,0c0.122,1.063,0.443,1.795,0.229,2.299c-3.765,8.824,0.09,17.537,0.204,26.299
	c0.036,2.801-1.454,5.592-1.958,8.438c-0.674,3.811-1.569,7.68-1.492,11.504c0.3,15.014,0.181,29.676-8.751,42.998
	c-6.811,10.16-12.414,21.127-18.567,31.727c-8.608,14.828-20.256,26.988-33.546,37.688"/>
<path fill-rule="evenodd" clip-rule="evenodd" fill="#FFFFFF" d="M14.009,264.188c9.216,0,18.541,0,27.826,0
	c9.715,28.389-2.693,95.428-37.315,130.998"/>
<path fill-rule="evenodd" clip-rule="evenodd" fill="#FFFFFF" d="M28.616,163.179c7.142-28.039,14.42-56.042,21.564-84.08
	c5.477-21.49,10.862-43.003,16.237-64.519c2.217-8.875,3.261-9.62,12.51-8.247c0.97,0.144,1.943,0.258,2.824,0.374
	c-2.215,11.033-3.497,21.956-6.681,32.293c-5.668,18.407-9.138,37.519-19.113,54.638c-3.529,6.055-4.296,14.759-3.611,21.997
	c1.143,12.072-0.523,23.544-4.214,34.666c-5.622,16.943-11.433,33.912-18.656,50.21"/>
<path fill-rule="evenodd" clip-rule="evenodd" fill="#FFFFFF" d="M356.236,208.069c-1.166-0.826-2.92-1.397-3.407-2.52
	c-4.341-9.982-8.696-19.973-12.522-30.158c-1.535-4.087-2.053-8.633-2.534-13.024c-1.82-16.585-10.019-31.052-15.068-46.56
	c-2.75-8.446-4.349-17.265-6.523-25.901c-1.09-4.329-2.627-8.568-3.405-12.947c-2.114-11.898-7.64-22.382-12.85-33.062
	c-1.757-3.601-2.407-7.782-3.293-11.758c-1.794-8.043-3.403-16.127-5.162-24.55c3.435,0,7.256-0.286,10.988,0.166
	c1.2,0.145,2.764,2.075,3.143,3.465c3.787,13.886,7.387,27.824,10.986,41.76c3.507,13.583,6.994,27.171,10.414,40.776
	c7.25,28.849,14.406,57.722,21.696,86.562c2.349,9.287,4.998,18.5,7.51,27.746L356.236,208.069z"/>
<path fill-rule="evenodd" clip-rule="evenodd" fill="#FFFFFF" d="M368.654,368.546c0,7.377,0.668,13.604-0.264,19.582
	c-0.515,3.303-3.498,6.354-5.733,9.234c-6.876,8.859-12.468,18.74-21.787,25.635c-5.835,4.318-10.786,9.824-16.586,14.197
	c-2.564,1.934-6.187,3.023-9.443,3.35c-5.391,0.537-10.874,0.146-17.692,0.146c7.588-6.088,14.072-11.604,20.901-16.65
	c3.867-2.857,7.06-5.875,8.231-10.701c1.647-6.777,6.094-10.613,12.348-13.77C351.599,393.024,359.96,381.501,368.654,368.546z"/>
<path fill-rule="evenodd" clip-rule="evenodd" fill="#FFFFFF" d="M324.652,439.679c7.92-6.723,16.337-12.953,23.617-20.309
	c7.088-7.16,13.013-15.473,19.448-23.279c0.424,0.248,0.848,0.494,1.271,0.74c-0.078,0.543-0.272,1.096-0.218,1.625
	c1.676,15.984-8.023,25.361-19.522,33.719c-1.329,0.967-2.888,1.908-3.695,3.25c-3.292,5.473-8.144,6.451-13.942,5.566
	c-2.044-0.313-4.177-0.051-6.269-0.051C325.112,440.521,324.883,440.101,324.652,439.679z"/>
<path fill-rule="evenodd" clip-rule="evenodd" fill="#FFFFFF" d="M368.404,418.136c2.686,11.852-10.664,28.225-23.32,22.143
	C352.846,432.909,360.658,425.491,368.404,418.136z"/>
<path fill-rule="evenodd" clip-rule="evenodd" fill="#FFFFFF" d="M356.208,208.065c3.104,13.369,6.206,26.74,9.314,40.107
	c0.366,1.576,0.774,3.141,0.365,5.037c-0.687-1.199-1.573-2.324-2.028-3.605c-4.228-11.889-7.2-24.074-8.22-36.678
	c-0.129-1.593,0.378-3.236,0.593-4.857C356.236,208.069,356.208,208.065,356.208,208.065z"/>
<path fill-rule="evenodd" clip-rule="evenodd" fill="#FFFFFF" d="M362.126,440.46c2.253-3.09,4.172-5.721,6.091-8.354
	c0.326,0.125,0.653,0.25,0.979,0.375c-0.25,2.596-0.5,5.191-0.77,7.979C366.415,440.46,364.65,440.46,362.126,440.46z"/>
</svg>
